<?xml version="1.0" encoding="UTF-8" standalone="no"?>
<svg
   xmlns:dc="http://purl.org/dc/elements/1.1/"
   xmlns:cc="http://creativecommons.org/ns#"
   xmlns:rdf="http://www.w3.org/1999/02/22-rdf-syntax-ns#"
   xmlns:svg="http://www.w3.org/2000/svg"
   xmlns="http://www.w3.org/2000/svg"
   xmlns:sodipodi="http://sodipodi.sourceforge.net/DTD/sodipodi-0.dtd"
   xmlns:inkscape="http://www.inkscape.org/namespaces/inkscape"
   width="256px"
   height="255px"
   viewBox="0 0 256 255"
   version="1.1"
   preserveAspectRatio="xMidYMid"
   id="svg96"
   sodipodi:docname="wp.svg"
   inkscape:version="1.0.1 (0767f8302a, 2020-10-17)">
  <metadata
     id="metadata102">
    <rdf:RDF>
      <cc:Work
         rdf:about="">
        <dc:format>image/svg+xml</dc:format>
        <dc:type
           rdf:resource="http://purl.org/dc/dcmitype/StillImage" />
      </cc:Work>
    </rdf:RDF>
  </metadata>
  <defs
     id="defs100" />
  <sodipodi:namedview
     pagecolor="#ffffff"
     bordercolor="#666666"
     borderopacity="1"
     objecttolerance="10"
     gridtolerance="10"
     guidetolerance="10"
     inkscape:pageopacity="0"
     inkscape:pageshadow="2"
     inkscape:window-width="1313"
     inkscape:window-height="713"
     id="namedview98"
     showgrid="false"
     inkscape:zoom="1.1098039"
     inkscape:cx="44.349824"
     inkscape:cy="164.11285"
     inkscape:window-x="53"
     inkscape:window-y="339"
     inkscape:window-maximized="1"
     inkscape:current-layer="svg96" />
  <g
     fill="#464342"
     id="g94">
    <path
       d="M18.1239675,127.500488 C18.1239675,170.795707 43.284813,208.211252 79.7700163,225.941854 L27.5938862,82.985626 C21.524813,96.5890081 18.1239675,111.643057 18.1239675,127.500488 L18.1239675,127.500488 Z M201.345041,121.980878 C201.345041,108.462829 196.489366,99.1011382 192.324683,91.8145041 C186.780098,82.8045528 181.583089,75.1745041 181.583089,66.1645528 C181.583089,56.1097886 189.208976,46.7501789 199.950569,46.7501789 C200.435512,46.7501789 200.89548,46.8105366 201.367935,46.8375935 C181.907772,29.0091707 155.981008,18.1239675 127.50465,18.1239675 C89.2919675,18.1239675 55.6727154,37.7298211 36.1147317,67.4258211 C38.6809756,67.5028293 41.0994472,67.5569431 43.1536911,67.5569431 C54.5946016,67.5569431 72.3043902,66.1687154 72.3043902,66.1687154 C78.2007154,65.8211382 78.8958699,74.4814309 73.0057886,75.1786667 C73.0057886,75.1786667 67.0803252,75.8759024 60.4867642,76.2213984 L100.318699,194.699447 L124.25574,122.909138 L107.214049,76.2172358 C101.323967,75.8717398 95.744,75.1745041 95.744,75.1745041 C89.8497561,74.8290081 90.540748,65.8169756 96.4349919,66.1645528 C96.4349919,66.1645528 114.498602,67.5527805 125.246439,67.5527805 C136.685268,67.5527805 154.397138,66.1645528 154.397138,66.1645528 C160.297626,65.8169756 160.990699,74.4772683 155.098537,75.1745041 C155.098537,75.1745041 149.160585,75.8717398 142.579512,76.2172358 L182.107577,193.798244 L193.017756,157.340098 C197.746472,142.211122 201.345041,131.34465 201.345041,121.980878 L201.345041,121.980878 Z M129.42361,137.068228 L96.6056585,232.43135 C106.404423,235.31187 116.76722,236.887415 127.50465,236.887415 C140.242211,236.887415 152.457366,234.685398 163.827512,230.68722 C163.534049,230.218927 163.267642,229.721496 163.049106,229.180358 L129.42361,137.068228 L129.42361,137.068228 Z M223.481756,75.0225691 C223.95213,78.5066667 224.218537,82.2467642 224.218537,86.2699187 C224.218537,97.3694959 222.145561,109.846894 215.901659,125.448325 L182.490537,222.04774 C215.00878,203.085008 236.881171,167.854829 236.881171,127.502569 C236.883252,108.485724 232.025496,90.603187 223.481756,75.0225691 L223.481756,75.0225691 Z M127.50465,0 C57.2003902,0 0,57.1962276 0,127.500488 C0,197.813073 57.2003902,255.00722 127.50465,255.00722 C197.806829,255.00722 255.015545,197.813073 255.015545,127.500488 C255.013463,57.1962276 197.806829,0 127.50465,0 L127.50465,0 Z M127.50465,249.162927 C60.4243252,249.162927 5.84637398,194.584976 5.84637398,127.500488 C5.84637398,60.4201626 60.4222439,5.84637398 127.50465,5.84637398 C194.582894,5.84637398 249.156683,60.4201626 249.156683,127.500488 C249.156683,194.584976 194.582894,249.162927 127.50465,249.162927 L127.50465,249.162927 Z"
       id="path92" />
  </g>
  <path
     style="fill:#0000ff;stroke-width:0.45053"
     d="m 72.187974,221.4675 c -9.171548,-5.46397 -17.852643,-12.469 -24.885178,-20.08057 -15.513564,-16.7909 -25.853511,-39.4542 -28.306503,-62.04276 -0.610313,-5.62011 -0.610519,-18.06531 -3.92e-4,-23.68834 0.261085,-2.4062 0.982686,-6.87022 1.603557,-9.92003 1.82371,-8.958348 6.640324,-23.028969 7.278147,-21.261418 0.134123,0.371687 11.667282,31.975448 25.629241,70.230568 13.961961,38.25513 25.38538,69.73029 25.38538,69.94479 0,0.72711 -0.699754,0.39496 -6.704252,-3.18224 z"
     id="path104" />
  <path
     style="fill:#0000ff;stroke-width:0.45053"
     d="m 120.56625,236.4892 c -9.21129,-0.91552 -19.58574,-2.74373 -22.352525,-3.93901 l -1.220396,-0.52722 16.090971,-46.72942 c 8.85003,-25.70118 16.18133,-46.81781 16.29176,-46.92584 0.11044,-0.10803 7.77802,20.574 17.03907,45.96005 9.26105,25.38606 16.76237,46.22908 16.66961,46.31783 -0.36406,0.3483 -8.05512,2.52054 -12.10771,3.41967 -2.35402,0.52228 -6.40879,1.24102 -9.0106,1.5972 -4.74381,0.64942 -18.02281,1.16242 -21.40018,0.82674 z"
     id="path106" />
  <path
     style="fill:#0000ff;stroke-width:0.45053"
     d="M 116.06095,254.3057 C 84.965948,251.15877 57.652348,237.99024 36.074883,215.74253 6.6382753,185.39155 -5.7859825,142.3073 3.0279694,101.14401 9.6962745,70.001415 28.077148,42.129283 54.113074,23.6803 83.240251,3.040865 119.39065,-4.349117 154.58127,3.1422603 c 18.01542,3.8351209 37.1267,12.9805687 52.26149,25.0090357 5.44212,4.325167 15.2431,13.990437 19.19487,18.929093 15.84575,19.802975 25.01196,41.511558 27.87988,66.028691 0.87666,7.49432 0.87666,21.28752 0,28.78185 -2.15926,18.45894 -8.097,35.83264 -17.56218,51.38646 -12.65923,20.80252 -30.82903,37.42707 -52.68501,48.20442 -13.3243,6.57031 -23.25581,9.67888 -38.32491,11.99574 -6.7505,1.03787 -22.74324,1.49014 -29.28446,0.82815 z m 22.07598,-5.39737 c 24.62774,-2.28244 46.73758,-11.23351 66.00265,-26.72088 5.28739,-4.25059 14.63693,-13.6276 18.71813,-18.77314 13.34804,-16.82907 22.17768,-37.49729 25.50231,-59.69523 0.82358,-5.49892 0.82358,-26.93924 0,-32.43816 C 245.03539,89.082984 236.20575,68.414761 222.85771,51.585689 216.02418,42.970046 204.44044,32.336291 195.12898,26.130996 158.1292,1.4738194 110.6035,-1.1002974 71.252201,19.421504 20.870734,45.695563 -4.5031575,102.68702 9.5297717,158.05421 21.529797,205.40054 62.361892,241.71995 110.87986,248.20328 c 2.8496,0.38079 6.09342,0.76329 7.20848,0.85001 4.64247,0.36103 15.43047,0.28303 20.04859,-0.14496 z"
     id="path108" />
  <path
     style="fill:#0000ff;stroke-width:0.45053"
     d="M 80.589854,135.26472 C 69.753453,103.02603 60.934327,76.608042 60.991798,76.558091 c 0.05747,-0.04995 2.9377,-0.334955 6.40051,-0.633346 8.3887,-0.722844 9.697798,-1.454734 9.697798,-5.421831 0,-1.482375 -0.284482,-2.150876 -1.382624,-3.24902 l -1.382623,-1.382623 -4.361634,0.280897 c -12.31654,0.793203 -23.8222,1.247684 -28.349907,1.119846 l -5.06601,-0.143039 3.537507,-4.762846 C 53.396016,44.444131 72.249342,30.863192 93.534452,23.863838 c 20.779898,-6.833221 42.454798,-7.297017 63.551388,-1.359862 14.01718,3.944819 27.24354,10.818333 39.12165,20.33086 l 4.45749,3.569758 -2.8103,0.315224 c -9.39673,1.054009 -16.33063,9.337916 -16.3289,19.508097 9e-4,6.589133 1.69226,11.041762 8.47022,22.301237 8.18155,13.591138 10.99074,22.042348 10.98925,33.060338 -9e-4,7.56945 -1.04383,12.27967 -7.1934,32.49178 -2.18634,7.18596 -5.65589,18.69137 -7.71012,25.56758 -2.05422,6.87622 -3.85289,12.50221 -3.99705,12.50221 -0.14416,0 -9.00559,-26.00121 -19.69206,-57.78048 l -19.42995,-57.780474 3.44401,-0.338465 c 9.2482,-0.908881 10.48742,-1.137854 11.54736,-2.133616 1.43726,-1.350243 1.80923,-3.673072 0.89628,-5.596984 -1.18614,-2.499604 -2.26303,-2.703505 -11.14159,-2.10962 -13.26284,0.887147 -25.82535,1.082389 -35.02675,0.544375 -4.83194,-0.282532 -10.92112,-0.640397 -13.531518,-0.795262 -4.570167,-0.271125 -4.793189,-0.241128 -6.013846,0.808832 -2.475541,2.129376 -1.994843,6.962897 0.798069,8.024764 0.565897,0.215151 3.748703,0.636428 7.072895,0.936166 l 6.04399,0.544974 8.46188,23.214565 8.46188,23.214565 -11.84146,35.48807 -11.84147,35.48806 z"
     id="path110" />
  <path
     style="fill:#0000ff;stroke-width:0.45053"
     d="m 183.41519,220.57377 c 0,-0.22616 7.3304,-21.56439 16.28976,-47.41828 8.95937,-25.85389 17.46427,-50.45363 18.89978,-54.66609 4.30307,-12.62722 6.11882,-23.940144 5.70214,-35.526733 l -0.22803,-6.340742 1.4633,2.912536 c 4.21886,8.397162 7.91222,20.028778 9.73141,30.647479 0.8933,5.21418 1.03747,7.61856 1.03842,17.31806 0.001,12.43993 -0.64662,17.85006 -3.36064,28.06478 -6.73045,25.33136 -22.87389,47.81873 -45.01738,62.70798 -4.18872,2.81648 -4.51876,2.98455 -4.51876,2.30101 z"
     id="path112" />
</svg>
