<?xml version="1.0" standalone="no"?>
<!DOCTYPE svg PUBLIC "-//W3C//DTD SVG 20010904//EN"
 "http://www.w3.org/TR/2001/REC-SVG-20010904/DTD/svg10.dtd">
<svg version="1.0" xmlns="http://www.w3.org/2000/svg"
 width="600.000000pt" height="401.000000pt" viewBox="0 0 600.000000 401.000000"
 preserveAspectRatio="xMidYMid meet">
<metadata>
Created by potrace 1.16, written by Peter Selinger 2001-2019
</metadata>
<g transform="translate(0.000000,401.000000) scale(0.100000,-0.100000)"
fill="#000000" stroke="none">
<path d="M0 2015 l0 -1995 30 0 c17 0 30 -4 30 -10 0 -7 316 -10 929 -10 877
0 930 1 934 17 4 17 5 17 6 1 1 -15 11 -18 55 -18 54 0 81 15 56 30 -7 4 -8
10 -3 13 14 9 36 -10 30 -25 -4 -12 8 -15 59 -17 l64 -2 0 125 c0 118 1 126
19 126 11 0 22 -6 24 -12 4 -10 6 -10 6 0 2 25 21 1 21 -26 -1 -26 -1 -26 -15
-8 -8 11 -16 18 -17 15 -24 -38 -27 -48 -15 -52 9 -4 9 -6 0 -6 -14 -1 -18
-96 -7 -138 6 -23 36 -34 31 -12 -1 6 4 14 11 16 6 3 12 -2 12 -11 0 -13 44
-15 370 -16 293 0 370 2 370 12 0 7 -5 31 -11 53 -6 22 -14 58 -19 80 l-7 40
-2 -37 c-1 -40 -17 -59 -25 -31 -2 10 -8 38 -11 63 -4 25 -11 53 -17 63 -7 13
-5 17 9 17 51 -1 61 -10 67 -63 3 -29 10 -85 17 -124 l13 -73 784 0 784 0 -7
51 c-6 40 -4 50 5 44 9 -5 11 -4 6 3 -4 6 -1 20 6 31 10 16 10 23 0 33 -9 9
-12 6 -12 -14 0 -45 -17 -40 -34 9 -9 25 -14 49 -11 51 3 3 5 0 5 -6 0 -7 5
-12 11 -12 6 0 9 12 7 27 -2 19 -12 32 -31 41 -25 12 -28 18 -25 55 3 37 0 42
-19 45 -35 5 -27 22 10 23 30 1 30 2 7 9 -54 15 -70 23 -70 31 0 5 6 9 14 9 8
0 30 9 48 19 62 36 70 33 84 -34 8 -33 18 -106 24 -163 6 -57 15 -112 20 -122
6 -10 10 -35 10 -55 0 -74 3 -75 166 -75 l145 0 -19 28 c-25 35 -28 47 -48
172 -15 95 -26 397 -14 382 3 -4 11 -8 17 -9 9 -2 11 7 6 30 l-6 32 20 -25
c11 -14 26 -36 32 -48 22 -41 83 -103 121 -122 20 -10 43 -26 50 -35 8 -9 36
-28 64 -42 l51 -26 -25 26 c-14 15 -31 27 -37 27 -7 0 -13 4 -13 8 0 5 -11 14
-25 20 -63 29 -185 172 -185 217 0 16 2 17 17 4 10 -8 34 -22 53 -31 142 -67
213 -102 268 -133 61 -34 100 -45 87 -25 -4 6 5 10 21 10 22 0 25 2 14 15 -7
8 -20 15 -30 15 -27 0 -174 62 -190 81 -5 6 -41 22 -52 23 -4 1 -17 9 -28 19
-11 9 -25 17 -30 17 -6 0 -10 4 -10 9 0 5 -27 23 -60 40 -62 33 -144 49 -155
30 -5 -7 -11 -6 -21 2 -8 6 -14 8 -14 3 -1 -5 -7 2 -15 16 -18 32 -19 91 -1
160 8 30 17 81 21 113 4 31 12 57 17 57 21 0 49 -23 58 -46 5 -13 15 -24 21
-24 8 0 8 4 -1 15 -18 22 -5 18 40 -10 22 -14 42 -25 46 -25 7 0 181 -151 202
-175 15 -18 16 -18 -33 0 -46 16 -110 20 -84 5 8 -5 38 -17 65 -26 86 -29 148
-62 194 -104 83 -76 175 -147 215 -168 36 -18 93 -33 268 -72 31 -7 60 -10 65
-5 4 4 2 10 -5 12 -7 2 -9 11 -6 19 3 8 0 14 -6 14 -6 0 -10 5 -8 12 3 14 -59
29 -94 22 -17 -3 -37 4 -65 24 -22 16 -51 33 -66 38 -27 9 -68 37 -100 66 -10
10 -24 18 -32 18 -7 0 -19 7 -26 15 -7 8 -18 15 -25 15 -7 0 -18 14 -25 31
-15 36 -77 99 -97 99 -7 0 -13 5 -13 10 0 6 -5 10 -10 10 -6 0 -16 5 -23 10
-37 32 -149 110 -157 110 -4 0 -10 4 -12 8 -6 17 -255 132 -285 132 -38 0
-133 30 -133 42 0 5 -19 17 -41 27 -80 36 -109 101 -52 116 18 4 22 9 15 18
-5 7 -12 28 -16 47 -3 19 -3 30 -1 24 3 -6 19 -9 35 -6 l29 4 -22 39 c-28 49
-16 76 32 71 30 -3 31 -2 31 35 l0 38 -20 -25 c-10 -14 -22 -22 -25 -18 -8 8
13 48 25 48 20 0 9 37 -26 96 -61 101 -86 156 -81 180 2 13 0 21 -4 18 -5 -3
-9 10 -9 28 l0 33 20 -30 c11 -16 20 -24 20 -16 0 8 -10 25 -22 38 -18 19 -23
41 -29 125 -5 57 -18 162 -29 233 -39 243 -37 313 10 385 26 39 31 60 20 81
-7 13 -7 19 0 19 5 0 10 7 10 15 0 12 -3 12 -18 -3 -56 -52 -77 -62 -85 -39
-3 8 -14 1 -32 -18 -27 -28 -29 -28 -37 -10 -5 13 -6 4 -2 -22 3 -24 2 -43 -3
-43 -16 0 -34 17 -31 28 2 7 -8 18 -22 25 -31 15 -36 47 -16 89 23 45 20 48
-9 6 -14 -20 -25 -41 -25 -45 0 -18 -100 -238 -110 -241 -5 -2 -10 7 -10 20 0
34 -26 151 -39 175 -6 11 -17 23 -25 26 -18 7 -27 -15 -15 -34 12 -19 11 -32
-1 -24 -6 3 -7 -1 -4 -9 3 -9 10 -13 15 -10 12 7 11 -13 -2 -39 -7 -12 -40
-65 -74 -117 -35 -52 -92 -145 -128 -206 -88 -151 -130 -213 -141 -210 -18 4
-85 110 -106 165 -21 54 -21 112 0 150 12 23 50 -36 50 -78 0 -21 5 -42 11
-48 6 -6 14 -41 18 -79 7 -59 9 -45 10 89 1 144 0 157 -17 157 -26 0 -68 52
-57 70 4 6 16 4 31 -6 28 -19 29 -18 9 29 -21 51 -18 57 11 22 14 -16 24 -23
21 -15 -3 8 -13 41 -23 73 -12 36 -26 59 -37 63 -14 4 -17 12 -13 29 7 26 -16
50 -39 41 -15 -5 -35 -45 -39 -76 -1 -8 -10 -32 -19 -54 -9 -21 -17 -42 -17
-47 0 -5 -4 -9 -10 -9 -5 0 -10 1 -10 3 1 17 53 164 71 200 29 59 19 70 -56
62 -104 -12 -98 -8 -143 -108 -57 -126 -107 -283 -125 -397 -25 -154 -40 -296
-32 -320 4 -14 3 -20 -3 -16 -5 3 -13 25 -17 48 -6 35 -8 39 -15 23 -5 -11 -9
-27 -9 -35 0 -11 2 -11 7 2 4 10 7 -27 6 -82 -1 -103 -13 -141 -40 -120 -10 9
-11 6 -7 -11 5 -19 3 -20 -18 -14 -13 4 -32 14 -41 23 -10 8 -18 11 -18 5 0
-6 -11 -9 -25 -8 -14 2 -25 -1 -25 -6 0 -5 17 -9 39 -9 53 0 70 -22 48 -60
-22 -37 -22 -40 8 -40 17 0 25 6 25 18 1 15 2 15 16 -3 13 -17 16 -18 24 -5 8
13 10 12 10 -2 0 -11 5 -15 15 -12 12 5 15 -3 15 -42 1 -27 3 -83 6 -125 4
-51 2 -79 -5 -83 -6 -4 -11 -2 -11 5 0 16 -107 204 -125 219 -19 16 -27 -11
-30 -105 -2 -53 -15 -119 -36 -195 -37 -129 -39 -176 -13 -345 54 -349 56
-391 22 -422 -13 -11 -36 -25 -53 -30 -21 -7 -29 -16 -27 -29 1 -10 3 -45 5
-77 2 -62 5 -60 -68 -57 -50 2 -67 16 -34 29 28 11 7 14 -40 5 -25 -5 -31 -11
-31 -32 0 -43 -8 -20 -13 38 -7 77 -34 248 -57 360 -10 52 -33 181 -50 285
-18 105 -38 210 -46 235 l-14 45 5 -42 c3 -23 1 -45 -5 -48 -12 -7 -16 62 -7
115 2 14 2 18 -1 11 -2 -9 -10 2 -18 24 -8 26 -10 43 -4 49 15 15 12 45 -5 62
-8 9 -15 21 -15 27 0 7 5 6 11 -3 8 -12 9 -11 5 5 -3 11 -8 43 -12 70 -3 28
-9 52 -13 55 -4 3 -7 16 -8 30 -3 59 -9 80 -19 76 -13 -5 -34 12 -34 27 0 5 7
6 16 3 14 -6 15 -4 4 9 -11 13 -15 13 -21 3 -12 -19 -11 -22 11 -48 14 -16 18
-30 13 -49 -9 -38 -13 -39 -13 0 0 26 -3 30 -10 19 -8 -13 -10 -12 -10 3 0 9
-8 17 -17 18 -11 0 -13 3 -5 6 19 8 15 71 -5 76 -17 4 -17 5 0 6 19 1 22 23 8
67 -5 16 -14 48 -21 71 -8 27 -19 43 -29 44 -26 1 20 17 52 18 23 1 27 5 27
31 0 29 -2 30 -44 30 -52 0 -56 7 -56 91 0 56 2 61 30 77 16 9 30 20 30 24 0
11 69 78 80 78 5 0 10 -15 11 -32 1 -31 1 -31 9 -8 6 22 8 21 11 -15 5 -53 24
-42 22 13 -1 27 -10 57 -25 78 -23 34 -53 42 -53 15 0 -8 -9 -17 -20 -22 -22
-8 -14 -11 25 -11 16 1 19 -1 8 -4 -10 -3 -18 -9 -18 -14 0 -5 -9 -12 -21 -15
-11 -4 -25 -19 -32 -33 -22 -50 -57 -58 -57 -13 0 28 -42 115 -61 127 -5 3 -7
10 -4 15 4 5 -1 9 -10 9 -9 0 -13 5 -10 10 3 6 0 10 -9 10 -8 0 -16 6 -19 13
-3 9 -9 9 -23 1 -13 -8 -19 -22 -18 -45 2 -43 8 -66 19 -76 4 -4 5 -2 1 5 -8
13 6 17 18 5 4 -5 11 -8 14 -9 18 -2 42 -17 42 -26 0 -5 -4 -7 -9 -4 -5 3 -12
-2 -15 -11 -4 -10 -4 -14 0 -11 13 14 34 -20 26 -43 -8 -21 -10 -20 -41 17
-30 36 -32 37 -18 8 9 -17 23 -36 31 -43 9 -8 16 -22 16 -33 0 -10 4 -16 10
-13 5 3 10 2 10 -4 0 -5 -5 -11 -11 -13 -6 -2 -12 -26 -13 -53 -1 -37 -5 -50
-16 -50 -9 0 -16 -11 -17 -30 -2 -25 -1 -27 7 -10 14 31 12 -1 -5 -111 -9 -53
-14 -101 -12 -107 2 -6 9 25 16 68 21 132 29 140 29 32 1 -73 4 -103 15 -115
9 -10 15 -28 15 -42 -2 -57 23 -327 33 -364 6 -23 12 -80 12 -129 0 -49 4 -82
9 -75 4 7 8 8 8 3 0 -6 5 -48 11 -94 9 -77 8 -88 -11 -134 -12 -27 -19 -51
-17 -54 3 -2 11 12 18 31 14 39 25 45 33 19 17 -57 36 -196 36 -258 0 -41 4
-85 9 -98 5 -13 13 -60 16 -105 7 -78 7 -81 -13 -75 -11 2 -29 13 -40 23 -11
10 -23 16 -26 12 -4 -3 -11 0 -15 7 -7 11 -10 9 -15 -7 -8 -23 -27 -28 -136
-36 -36 -2 -72 0 -80 4 -8 4 -35 10 -60 12 -51 3 -47 10 -49 -95 -1 -44 -5
-66 -11 -62 -7 4 -9 -2 -5 -18 4 -14 2 -34 -4 -46 -9 -16 -7 -29 9 -60 21 -42
25 -91 10 -126 -6 -15 -9 -6 -10 35 -1 30 -5 66 -9 80 -6 23 -8 23 -14 6 -4
-11 -3 -24 3 -30 15 -15 13 -99 -2 -94 -7 3 -14 19 -15 38 -2 18 -7 38 -12 44
-6 7 -4 18 5 30 20 28 17 45 -10 57 -17 8 -22 17 -20 33 3 14 -1 11 -10 -9 -8
-16 -12 -34 -9 -40 2 -5 -1 -3 -9 5 -7 9 -22 15 -33 15 -11 0 -26 4 -32 9 -9
5 -13 4 -13 -4 0 -9 -3 -10 -13 -1 -10 8 -17 7 -25 -1 -9 -9 -12 -6 -12 12 -1
22 -2 23 -11 8 -5 -10 -17 -18 -25 -18 -8 0 -13 4 -9 9 3 5 1 12 -4 16 -5 3
-14 -3 -20 -12 -15 -28 -26 -6 -14 30 19 52 26 107 15 107 -5 0 -13 -24 -16
-53 -4 -33 -14 -59 -25 -69 -17 -15 -20 -14 -28 6 l-10 21 -7 -22 c-8 -26 -26
-31 -26 -8 0 8 -7 15 -15 15 -8 0 -15 -4 -15 -10 0 -5 -4 -10 -9 -10 -16 0
-23 40 -11 55 14 17 5 50 -10 40 -5 -3 -10 -18 -10 -33 0 -15 -5 -34 -10 -42
-9 -13 -12 -13 -24 3 -7 9 -19 17 -26 17 -9 0 -11 23 -9 89 2 49 1 93 -3 97
-8 8 -11 -34 -9 -129 1 -44 -3 -59 -15 -64 -9 -3 -19 -2 -23 3 -3 5 -17 10
-31 10 -23 1 -96 10 -145 19 -11 2 -26 4 -34 4 -11 1 -11 4 -1 16 6 8 9 19 5
25 -11 19 -25 10 -25 -16 0 -18 -5 -25 -16 -22 -11 2 -17 15 -19 40 -1 21 2
38 6 38 5 0 4 12 -2 27 -7 20 -7 28 3 34 10 7 10 13 1 27 -9 15 -9 22 0 31 9
9 9 16 -1 31 -6 10 -8 21 -4 24 9 5 8 493 -1 516 -3 8 -5 26 -4 39 1 13 -3 26
-10 28 -9 3 -11 -20 -6 -94 6 -104 7 -279 3 -560 -2 -152 -5 -173 -19 -173
-14 0 -16 14 -17 93 0 51 4 95 10 99 6 4 5 12 -3 22 -9 11 -10 20 -2 35 8 14
8 22 0 26 -6 4 -13 5 -15 2 -3 -3 -7 -56 -9 -118 -2 -63 -4 -125 -5 -139 -1
-24 -1 -25 -16 -5 -8 11 -13 33 -12 49 2 18 -2 31 -11 34 -10 3 -12 -1 -8 -19
7 -27 -1 -69 -14 -69 -5 0 -7 31 -4 70 5 58 3 70 -9 70 -12 0 -14 -13 -13 -62
1 -36 -2 -64 -8 -65 -5 -1 -9 8 -9 20 2 29 -17 40 -33 19 -12 -14 -13 2 -10
106 3 99 1 122 -10 118 -18 -7 -17 9 2 28 16 16 21 41 6 31 -16 -10 -22 12 -6
25 11 9 12 17 4 31 -5 11 -7 25 -3 31 7 11 5 100 -3 178 -2 19 -5 69 -7 110
-5 96 -4 92 -18 84 -8 -5 -9 -2 -3 12 4 10 7 48 5 84 -7 165 -8 195 -10 195
-1 0 -3 36 -6 80 -2 44 -7 87 -10 95 -4 8 -7 26 -8 39 0 13 -7 26 -15 29 -11
4 -13 -3 -7 -34 9 -58 27 -233 28 -279 1 -64 -1 -77 -12 -70 -6 4 -10 14 -8
23 1 10 -3 27 -10 38 -6 12 -8 24 -5 28 3 3 -2 15 -11 25 -10 11 -16 23 -13
28 3 5 -1 17 -9 27 -36 50 -21 -40 26 -149 28 -67 70 -282 53 -272 -6 4 -13
29 -17 56 -4 28 -10 53 -15 55 -5 3 -11 25 -15 48 -8 48 -33 135 -47 160 -5
10 -9 27 -9 38 0 12 -4 18 -10 15 -16 -10 -12 -40 19 -133 33 -102 59 -195 66
-237 2 -16 11 -35 19 -40 7 -6 19 -28 25 -50 12 -43 15 -183 5 -172 -7 7 -10
29 -16 117 -2 25 -11 54 -20 64 -10 11 -18 30 -18 43 0 28 2 21 -31 117 -16
44 -26 83 -23 87 2 4 0 10 -6 14 -5 3 -10 17 -10 30 0 13 -4 27 -10 30 -5 3
-10 14 -10 24 0 10 -7 24 -15 31 -13 10 -15 9 -15 -9 0 -12 4 -29 10 -39 15
-28 90 -272 90 -295 0 -21 -10 -19 -14 5 -7 35 -18 75 -26 93 -5 11 -14 38
-21 60 -7 22 -16 45 -20 50 -3 6 -12 31 -19 58 -15 56 -22 62 -39 35 -7 -11
-8 -17 -3 -14 11 7 38 -51 29 -61 -4 -3 -9 2 -13 11 -9 24 -25 20 -23 -6 1
-13 1 -31 1 -41 -2 -16 -4 -17 -16 -4 -9 9 -13 28 -11 52 3 37 3 37 -16 16
-21 -22 -25 -36 -8 -25 7 4 10 2 8 -5 -10 -29 -25 -12 -33 37 -5 28 -13 52
-18 52 -5 0 -6 10 -3 21 5 15 3 20 -6 17 -8 -3 -15 -17 -17 -31 -2 -16 -9 -27
-19 -27 -13 0 -13 3 -3 15 10 12 10 18 1 29 -7 8 -8 17 -4 19 5 3 8 35 7 72
-1 52 1 63 11 55 17 -14 27 1 14 20 -15 26 -11 112 8 132 15 17 15 20 -5 39
-31 28 -28 56 13 123 19 32 35 65 35 73 0 7 7 16 15 19 8 4 22 29 30 57 8 28
19 53 24 57 6 3 21 30 35 60 14 30 26 51 26 46 0 -5 9 -1 21 10 13 11 19 27
16 40 -2 14 5 34 19 51 13 15 23 31 24 35 1 17 116 128 128 123 7 -2 16 3 19
13 4 9 11 20 16 23 4 3 1 14 -8 23 -16 15 -15 19 8 59 14 23 34 50 45 60 18
17 21 17 29 2 8 -13 11 -14 20 -3 16 20 26 58 14 58 -5 0 -14 -7 -19 -16 -8
-14 -10 -14 -22 1 -11 13 -10 19 5 35 20 22 14 26 -16 9 -11 -5 -17 -14 -14
-20 4 -5 -1 -9 -9 -9 -10 0 -13 8 -11 30 4 33 -14 41 -35 15 -7 -9 -15 -13
-18 -10 -3 3 3 14 13 25 23 25 79 26 192 1 45 -10 80 -14 77 -9 -3 4 -1 8 5 8
17 0 24 -22 10 -30 -10 -7 -10 -11 0 -24 7 -9 17 -13 23 -10 5 3 20 -2 34 -11
29 -19 43 -13 24 10 -14 17 -10 20 60 30 81 12 85 11 82 -7 -4 -22 7 -23 36
-2 17 12 20 19 12 29 -8 9 -8 15 0 20 5 3 10 1 10 -4 0 -6 6 -11 14 -11 17 0
14 -38 -9 -120 -8 -30 -15 -64 -15 -76 0 -28 -42 -40 -82 -23 -22 9 -35 9 -53
1 -21 -10 -26 -8 -35 8 -6 11 -21 22 -35 26 -19 5 -30 -2 -56 -31 -27 -30 -38
-36 -60 -31 -21 4 -28 1 -32 -15 -4 -16 -2 -19 11 -15 10 4 7 -2 -7 -12 -17
-14 -20 -21 -12 -27 7 -4 20 0 30 9 10 9 22 16 27 16 5 0 0 -7 -11 -16 -15
-11 -17 -17 -7 -23 9 -5 6 -13 -13 -31 -13 -12 -22 -27 -19 -31 3 -5 -2 -6
-10 -3 -22 8 -20 21 3 29 29 9 32 30 5 30 -13 0 -23 -5 -21 -11 1 -6 -9 -21
-23 -32 -20 -16 -22 -22 -12 -35 7 -9 9 -17 3 -19 -15 -5 0 -58 16 -58 13 0
13 3 2 16 -10 13 -10 17 1 24 11 7 11 11 1 24 -14 16 -6 40 10 30 6 -3 14 -17
19 -30 10 -26 17 -29 40 -14 13 9 12 12 -4 25 -27 20 -11 19 20 -2 19 -12 22
-18 12 -24 -10 -7 -9 -9 4 -9 9 0 20 -5 24 -12 5 -8 2 -9 -9 -5 -11 4 -17 1
-17 -8 0 -20 21 -30 30 -15 5 7 17 10 30 7 21 -5 21 -5 3 15 -18 20 -17 20 7
16 14 -2 24 -9 23 -15 -3 -12 39 -63 51 -63 3 0 -1 11 -10 25 -15 24 -15 25 2
26 17 0 17 2 -3 16 -13 8 -23 22 -23 29 0 16 -16 19 -25 4 -3 -5 -14 -10 -23
-10 -16 1 -16 2 0 14 20 14 14 26 -13 26 -21 0 -35 38 -20 53 8 8 11 7 11 -5
0 -9 9 -20 20 -23 11 -3 20 -11 20 -16 0 -5 9 -9 20 -9 11 0 19 -3 18 -7 -2
-5 22 -32 52 -61 30 -30 55 -57 56 -60 0 -4 8 -25 19 -47 10 -22 18 -46 19
-54 1 -8 8 -17 16 -19 12 -4 13 -3 2 10 -10 13 -10 17 2 21 16 7 51 -27 42
-41 -3 -5 0 -15 8 -21 11 -9 15 -9 19 1 8 23 18 1 19 -41 0 -23 4 -44 9 -47 5
-3 9 -10 9 -16 0 -6 -7 -5 -16 3 -15 12 -16 11 -10 -9 3 -12 9 -31 12 -42 4
-15 2 -18 -10 -14 -12 4 -15 2 -10 -9 3 -8 17 -18 32 -22 15 -4 30 -12 34 -18
5 -8 8 -6 8 6 0 9 4 17 9 17 5 0 6 15 1 34 -9 41 1 64 19 42 8 -10 9 -16 1
-21 -16 -10 -12 -27 8 -23 20 3 42 -9 42 -24 0 -6 -6 -6 -15 2 -13 11 -14 10
-9 -4 3 -9 12 -16 20 -16 8 0 14 -9 14 -20 0 -11 7 -23 15 -26 12 -5 13 -9 4
-21 -9 -11 -9 -17 1 -26 10 -9 14 -9 17 1 3 6 9 10 14 6 5 -3 9 1 9 8 0 10 3
9 11 -2 9 -13 10 -13 6 0 -2 8 -9 14 -16 13 -6 -2 -19 15 -30 37 -11 22 -15
40 -10 40 17 0 9 15 -13 25 -12 6 -24 16 -26 24 -3 9 0 11 9 6 8 -5 11 -4 6 1
-5 5 -14 9 -20 9 -7 0 -18 12 -25 28 -7 15 -16 27 -20 27 -4 0 -8 18 -9 40 -1
29 2 39 10 35 7 -4 5 -1 -4 7 -11 10 -13 22 -8 48 4 19 4 75 -1 125 -4 49 -4
99 0 111 10 26 -5 44 -37 44 -15 0 -21 5 -17 14 3 7 -2 16 -11 20 -13 5 -15 1
-10 -14 4 -13 2 -20 -7 -20 -9 0 -14 -12 -15 -32 -1 -18 -11 -61 -22 -96 -12
-35 -19 -67 -16 -73 4 -5 -4 -9 -15 -9 -13 0 -24 8 -27 20 -3 11 -12 20 -19
20 -8 0 -14 7 -14 15 0 8 -9 20 -20 27 -11 7 -20 19 -20 26 0 7 -8 12 -17 10
-10 -2 -19 4 -21 13 -2 13 4 17 22 15 14 0 26 -5 26 -10 0 -5 9 1 20 14 11 13
20 19 20 15 0 -4 9 0 20 10 11 10 20 24 20 31 0 8 16 24 35 36 19 13 35 29 35
36 0 18 28 45 39 38 4 -3 34 -8 65 -10 44 -4 56 -2 56 9 0 10 -9 12 -34 8 -19
-3 -36 -1 -40 6 -4 6 -16 11 -27 11 -21 0 -23 8 -10 29 8 12 58 10 114 -5 11
-4 17 0 17 10 0 14 -25 22 -53 17 -4 -1 -19 9 -32 21 -24 23 -24 23 -9 83 21
76 12 241 -13 265 -14 14 -14 13 -5 -6 7 -12 7 -26 1 -35 -5 -7 -9 -25 -9 -39
0 -14 -5 -32 -11 -40 -8 -12 -9 -9 -4 10 7 24 6 24 -8 5 -8 -11 -18 -45 -22
-75 -8 -57 -24 -102 -25 -67 0 10 5 38 11 62 13 51 8 82 -19 113 -26 30 -36
28 -16 -4 25 -37 5 -44 -63 -22 -52 18 -56 18 -74 2 -15 -14 -19 -14 -19 -3 0
8 5 20 11 26 8 8 -4 13 -45 18 -56 7 -76 27 -37 38 10 2 26 15 35 29 13 19 13
30 4 61 -6 20 -15 37 -18 37 -4 0 -10 13 -13 30 -5 21 -17 35 -47 50 -22 11
-40 24 -40 29 0 4 -11 6 -25 3 -23 -4 -25 -2 -19 27 4 19 2 42 -6 56 -15 28 1
58 26 48 8 -3 14 0 14 6 0 6 14 11 31 11 17 0 49 13 74 30 24 17 51 30 60 30
9 0 13 5 9 11 -5 8 5 10 32 6 87 -11 109 -17 120 -32 19 -25 26 -17 8 10 -9
13 -32 34 -51 46 -40 25 -38 37 4 16 31 -17 100 -87 126 -129 29 -47 50 -156
44 -230 -5 -53 -3 -66 7 -62 8 3 16 -3 18 -14 4 -15 20 -22 69 -30 35 -6 107
-22 159 -36 52 -14 107 -28 121 -31 36 -7 65 -73 40 -91 -9 -7 -22 -9 -31 -4
-9 5 -23 5 -31 -1 -7 -5 -27 -9 -44 -9 -18 0 -25 -3 -18 -8 17 -11 -1 -36 -21
-29 -30 12 -30 38 0 64 16 15 21 23 12 20 -11 -4 -19 0 -23 14 -7 21 -20 25
-30 9 -11 -17 -28 -11 -23 8 4 15 1 18 -20 14 -17 -3 -23 -1 -18 7 4 6 3 11
-1 11 -18 0 -63 -25 -68 -38 -2 -7 -1 -11 4 -8 5 3 14 -1 21 -10 19 -21 -3
-43 -25 -24 -13 11 -15 9 -15 -10 0 -24 2 -24 114 -4 l38 7 -16 -25 c-13 -20
-14 -29 -4 -56 7 -18 16 -32 20 -32 4 0 5 -7 2 -15 -4 -8 -1 -15 5 -15 6 0 11
-7 11 -15 0 -8 5 -15 11 -15 6 0 9 -7 5 -15 -3 -8 0 -15 5 -15 6 0 9 -9 6 -19
-3 -14 -1 -18 9 -14 10 4 12 0 8 -11 -4 -9 -1 -16 6 -16 8 0 10 -8 7 -22 -6
-23 -6 -23 10 -3 15 19 15 19 9 -9 -7 -27 -6 -28 10 -15 16 13 17 12 12 -9 -5
-19 -4 -21 7 -12 10 8 14 7 18 -7 4 -16 5 -15 6 2 0 11 -7 36 -18 55 -12 23
-15 42 -10 55 7 17 8 16 8 -8 1 -16 5 -25 11 -22 5 3 12 -6 16 -20 3 -13 10
-22 15 -19 5 3 9 -2 9 -10 0 -9 4 -16 10 -16 5 0 20 -15 33 -34 21 -31 24 -33
34 -17 8 13 7 26 -5 52 -19 44 -25 72 -12 64 6 -3 7 1 4 10 -6 14 -8 14 -20
-2 -13 -17 -14 -17 -8 0 3 9 2 17 -4 17 -6 0 -9 -8 -7 -17 2 -10 4 -22 4 -26
1 -5 6 -5 13 -1 7 4 8 3 4 -5 -4 -6 -3 -18 4 -26 8 -10 8 -15 -2 -21 -7 -4
-10 -4 -6 1 4 4 -2 20 -13 36 -11 15 -28 48 -39 72 -17 39 -18 48 -6 93 7 27
11 55 9 61 -3 7 3 23 11 35 l16 22 0 -24 c0 -25 34 -110 44 -110 3 0 3 8 -1
18 -3 9 12 -8 35 -38 42 -58 97 -99 104 -79 3 8 10 8 26 -2 30 -19 35 -39 17
-59 -14 -16 -14 -18 0 -24 10 -4 19 2 25 18 5 13 15 26 22 29 11 4 11 6 0 6
-7 1 -11 5 -8 10 3 4 -12 27 -34 50 -22 23 -40 51 -40 61 0 19 52 59 95 74 41
14 75 50 69 74 -8 28 -17 28 -33 -1 -13 -24 -74 -52 -136 -62 -47 -6 -98 16
-127 56 -17 22 -51 150 -45 167 2 9 -20 69 -40 105 -8 16 -13 37 -10 47 3 11
0 17 -7 14 -17 -7 -33 44 -39 123 -4 49 -2 73 6 76 8 2 7 12 -2 35 -12 28 -10
41 13 116 15 46 36 96 47 110 70 88 309 133 434 80 26 -10 34 -21 39 -49 4
-20 11 -33 16 -30 4 3 11 -1 13 -7 3 -7 6 -4 6 7 1 12 -4 26 -10 32 -8 8 -8
13 0 17 6 4 11 16 11 26 0 10 4 21 8 24 5 3 8 -10 8 -29 -1 -18 -4 -31 -8 -28
-14 8 -9 -16 5 -29 8 -7 12 -20 9 -30 -2 -10 1 -18 7 -18 6 0 11 11 11 24 0
14 4 36 10 50 6 18 6 26 -1 26 -5 0 -3 10 5 22 9 12 16 29 16 38 0 11 -2 12
-8 3 -4 -7 -21 -10 -39 -8 -21 3 -33 -1 -37 -11 -3 -8 -13 -14 -23 -14 -23 0
-63 39 -56 56 3 8 1 14 -5 14 -5 0 -12 7 -16 15 -4 13 -1 12 20 -1 14 -10 23
-23 20 -29 -3 -8 2 -11 13 -8 27 7 21 32 -15 71 -23 25 -29 39 -21 44 7 4 3
10 -13 17 -24 9 -23 10 10 10 25 1 39 -5 48 -20 8 -12 19 -18 27 -15 8 3 14 2
13 -2 -5 -16 29 -54 60 -67 34 -15 56 -55 47 -86 -4 -13 -1 -19 8 -19 27 0 61
-56 58 -95 -3 -36 -15 -92 -21 -100 -11 -15 -22 -118 -12 -111 15 9 40 -26 47
-65 15 -82 -37 -209 -86 -209 -25 0 -40 -57 -51 -190 -1 -3 10 -29 23 -58 l24
-54 45 6 c25 4 79 9 120 12 56 5 80 11 93 26 12 12 25 17 39 12 13 -4 27 1 41
14 32 29 82 52 114 52 39 0 120 24 168 49 70 37 167 21 215 -37 37 -45 46 -38
20 16 -11 23 -25 64 -32 91 -8 35 -17 51 -31 55 -14 3 -18 11 -14 25 3 12 1
24 -5 27 -12 7 -1 93 14 111 5 7 8 39 6 72 -3 51 0 61 17 72 24 15 94 29 112
22 26 -10 12 -23 -25 -23 -46 0 -84 -32 -63 -53 9 -9 13 -9 19 0 4 7 17 14 27
16 11 1 26 6 33 11 20 12 64 -14 56 -33 -4 -9 -8 -27 -9 -41 -2 -14 -12 -44
-24 -67 -29 -59 -26 -136 8 -163 14 -11 30 -61 24 -76 -9 -25 17 -64 41 -59
12 2 23 4 26 4 3 1 -2 6 -10 12 -11 7 -12 12 -3 15 7 3 9 12 6 20 -3 8 4 17
18 23 31 11 47 2 25 -14 -14 -11 -15 -13 -1 -19 8 -3 15 -1 15 4 0 6 3 9 8 9
24 -4 33 3 27 20 -5 15 -2 18 13 14 13 -3 26 4 40 22 20 25 20 28 5 51 -17 27
-25 31 -17 9 5 -11 -2 -15 -27 -16 -19 0 -62 -2 -96 -6 -58 -5 -63 -3 -63 15
0 15 9 21 43 27 l42 8 -48 9 c-35 6 -53 5 -63 -3 -8 -7 -14 -7 -14 -1 0 14 25
32 56 41 15 4 30 13 32 20 3 8 0 11 -6 7 -5 -3 -13 1 -16 10 -4 10 -13 13 -26
9 -22 -7 -28 13 -10 31 5 5 12 23 14 39 2 17 9 45 16 63 11 30 10 35 -11 56
-13 13 -30 32 -38 41 -10 13 -23 15 -60 10 -90 -12 -86 -14 -89 28 -4 49 28
116 82 173 78 81 201 94 334 36 37 -16 80 -35 95 -41 15 -6 29 -16 31 -23 2
-7 10 -34 16 -60 18 -69 34 -61 26 12 -5 41 -4 60 4 60 6 0 8 5 5 10 -4 6 -1
17 5 25 7 8 9 15 4 15 -5 0 -3 4 5 9 21 14 -6 38 -38 34 -31 -4 -77 19 -73 36
2 9 -4 10 -19 6 -15 -5 -19 -4 -15 4 5 7 -4 11 -24 11 -27 0 -30 2 -24 25 4
17 1 27 -9 31 -8 3 -17 14 -20 26 -5 18 -12 19 -72 16 -61 -3 -65 -2 -47 12
15 13 37 14 118 9 131 -9 180 -24 196 -61 14 -32 28 -37 29 -10 0 14 2 14 8
-3 5 -11 6 -27 4 -35 -3 -9 2 -8 13 5 14 17 16 17 11 2 -6 -17 3 -26 35 -31
29 -4 98 -59 98 -78 0 -11 4 -17 9 -14 5 3 9 -24 10 -59 1 -43 -3 -65 -10 -65
-16 0 -38 -31 -39 -53 0 -10 -5 -15 -10 -12 -6 3 -11 -6 -12 -22 -4 -85 -3
-100 11 -117 36 -42 -4 -186 -58 -212 l-23 -12 34 -16 c39 -19 52 -39 68 -106
26 -106 60 -157 76 -115 8 19 54 19 79 1 11 -8 25 -12 32 -9 18 7 71 -16 83
-36 8 -13 9 -14 10 -1 0 27 43 -54 57 -110 8 -30 19 -61 25 -67 7 -9 7 -13 0
-13 -26 0 -25 -82 4 -239 5 -23 3 -32 -4 -27 -6 4 -9 12 -7 19 5 13 -13 36
-58 76 -34 31 -35 15 -2 -33 29 -43 33 -72 5 -36 -17 21 -20 22 -20 7 0 -11 8
-31 19 -45 10 -15 27 -51 37 -79 10 -29 22 -53 26 -53 4 0 5 -7 2 -15 -4 -8
-2 -15 4 -15 12 0 37 -245 34 -340 -1 -26 2 -31 9 -20 8 12 9 11 5 -5 -3 -11
-8 -37 -12 -57 -3 -21 -10 -36 -14 -33 -4 3 -6 -10 -5 -28 4 -48 4 -49 14 -43
5 4 8 -5 6 -19 -2 -19 2 -25 14 -23 12 2 17 17 19 61 2 31 8 57 13 57 6 0 10
-20 9 -47 -3 -62 -2 -73 9 -73 4 0 11 39 15 87 6 83 10 102 20 92 3 -3 8 -45
12 -95 l7 -90 46 -13 c25 -7 54 -17 64 -22 16 -9 17 -7 7 10 -8 16 -6 30 9 65
11 24 23 62 27 84 4 29 19 55 48 87 23 25 47 45 54 45 7 0 12 4 12 9 0 16 61
41 86 35 50 -13 21 16 -50 52 -51 25 -81 34 -93 29 -17 -8 -17 -8 0 -12 22 -6
22 -16 -3 -38 -18 -16 -26 -17 -74 -6 -55 12 -106 46 -106 70 0 11 -3 11 -15
1 -12 -10 -15 -9 -15 8 0 11 -6 23 -12 26 -9 3 -7 10 8 23 11 10 21 23 22 28
3 13 78 13 75 0 -1 -6 -5 -23 -8 -38 -6 -21 -4 -27 9 -27 19 0 48 -59 38 -75
-3 -5 12 8 33 30 22 22 77 74 122 115 45 41 80 76 77 79 -2 2 -17 -7 -32 -22
-30 -29 -76 -44 -86 -28 -4 5 -21 7 -40 4 -34 -5 -82 13 -105 41 -11 13 -10
17 5 23 11 5 19 15 19 23 0 9 7 14 17 12 12 -2 16 4 15 18 -1 11 -7 20 -14 20
-7 0 -13 5 -13 10 0 6 -12 16 -27 22 l-28 11 45 13 c25 8 52 17 60 21 22 9 27
10 59 12 22 1 32 9 44 33 l16 33 9 -25 c5 -14 12 -32 15 -40 10 -28 7 45 -4
85 -7 27 -29 58 -70 98 -32 31 -64 57 -70 57 -6 0 20 -31 60 -68 72 -69 90
-105 49 -97 -11 3 -26 -2 -32 -10 -12 -17 -136 -55 -178 -55 -40 0 -34 22 10
42 l37 16 -43 1 c-39 1 -42 3 -32 20 5 11 20 23 32 27 21 6 21 7 -8 22 -62 31
-65 41 -47 126 13 60 14 81 5 101 -7 15 -16 23 -22 20 -12 -7 -62 24 -55 35
12 20 -28 40 -81 40 l-54 0 0 45 c0 45 17 95 32 95 4 0 17 9 28 20 11 11 31
20 44 20 14 0 60 11 103 24 56 17 109 25 189 28 l111 4 12 -31 c6 -17 11 -40
11 -50 0 -28 39 -86 88 -132 24 -23 41 -46 38 -51 -3 -6 0 -9 6 -8 27 4 40 19
35 42 -2 14 0 27 4 30 5 3 9 -2 9 -11 0 -9 5 -13 11 -10 6 4 8 13 5 21 -3 7
-1 16 4 19 6 4 10 16 9 28 0 21 -1 21 -8 2 -5 -13 -12 19 -21 94 -10 87 -17
114 -29 118 -9 3 -25 9 -36 14 -27 12 -77 7 -83 -9 -2 -6 1 -12 7 -12 6 0 11
-5 11 -12 0 -9 -5 -8 -15 2 -19 20 -9 60 16 60 18 0 18 1 -1 20 -11 11 -27 20
-36 20 -8 0 -12 5 -9 10 4 6 11 7 17 4 6 -4 9 -1 6 7 -3 8 -18 16 -34 19 -16
3 -46 14 -66 23 -24 11 -63 17 -109 17 -40 0 -69 3 -65 7 12 12 149 3 206 -13
30 -8 71 -20 90 -25 30 -8 168 -6 445 6 22 1 106 3 188 3 l147 2 0 400 0 400
-3000 0 -3000 0 0 -1995z m4684 1111 c-58 -52 -124 -154 -124 -190 0 -20 -10
-20 -36 2 -22 18 -36 73 -38 149 -1 72 5 74 238 92 13 1 0 -16 -40 -53z
m-3379 -226 c-4 -6 1 -10 9 -10 20 0 20 -24 0 -55 -12 -18 -13 -28 -5 -44 6
-11 11 -22 11 -24 0 -9 -51 -14 -56 -6 -3 5 -12 2 -21 -7 -15 -14 -18 -13 -35
15 -36 57 4 134 71 138 18 1 29 -2 26 -7z m3433 -331 c68 12 77 9 74 -23 -2
-16 -10 -46 -18 -68 -24 -70 -13 -191 16 -173 16 10 37 -17 32 -41 -2 -12 6
-40 17 -62 25 -48 26 -59 7 -43 -15 13 -96 144 -96 156 0 9 -63 139 -71 145
-9 8 -19 41 -11 36 5 -3 6 9 4 27 -4 27 -6 29 -13 12 -4 -11 -8 -15 -8 -8 -1
6 4 24 11 40 8 20 12 23 15 12 3 -13 12 -15 41 -10z m-3950 -104 c4 -41 33
-95 51 -95 12 0 12 3 3 12 -13 13 -16 38 -4 38 17 -1 30 -17 37 -47 6 -29 4
-33 -14 -33 -14 0 -19 -5 -15 -15 8 -21 -109 -205 -130 -205 -4 0 -4 11 0 25
5 21 3 25 -17 25 -15 0 -19 -3 -12 -8 9 -6 8 -16 -4 -42 -23 -48 -22 -48 -42
-21 -16 21 -23 22 -82 18 -35 -3 -81 -9 -101 -12 -26 -5 -38 -3 -38 4 0 7 -10
9 -26 7 -36 -7 -42 19 -15 69 14 26 19 48 15 61 -4 10 -4 16 1 12 9 -9 38 19
31 30 -6 10 49 83 58 75 3 -3 6 1 6 9 0 8 9 27 21 42 16 21 28 26 56 24 19 -1
37 3 41 9 11 17 113 52 147 50 26 -2 30 -6 33 -32z m-443 -615 c-5 9 -4 12 1
7 11 -10 5 -146 -7 -169 -6 -11 -28 -18 -74 -23 -72 -8 -101 -28 -72 -50 33
-24 35 -161 2 -149 -8 4 -15 1 -15 -5 0 -15 -43 -14 -58 1 -7 7 -12 27 -12 45
0 19 -6 46 -14 61 -7 15 -14 54 -15 86 -2 42 -9 72 -27 101 -25 44 -30 70 -15
79 5 3 69 8 142 11 73 3 134 7 137 10 3 3 12 -1 20 -8 13 -10 14 -9 7 3z
m4330 -744 c16 -11 19 -31 22 -142 2 -71 8 -187 14 -258 10 -115 9 -130 -5
-145 -15 -14 -18 -14 -26 -1 -11 18 -13 70 -2 70 11 0 5 151 -7 183 -14 37
-14 38 5 30 13 -5 15 -2 7 13 -5 10 -9 38 -9 62 1 23 -1 42 -4 42 -9 0 -30 87
-30 125 0 38 6 42 35 21z"/>
<path d="M2268 3164 c-5 -4 -8 -24 -8 -45 0 -21 -6 -42 -14 -46 -30 -18 -52
-113 -26 -113 6 0 10 7 10 15 0 8 4 15 9 15 5 0 7 -21 6 -47 -2 -27 -1 -42 2
-35 3 6 9 12 15 12 6 0 8 -6 5 -14 -7 -17 13 -27 41 -19 20 5 79 -21 95 -42 5
-7 10 -7 15 0 4 6 14 11 22 13 40 9 76 76 61 114 -10 27 -41 57 -41 40 0 -6 5
-14 10 -17 6 -3 10 -10 10 -16 0 -9 -23 -7 -53 6 -17 7 -72 3 -129 -11 -16 -3
-28 -2 -28 3 0 23 29 44 70 52 l45 9 -40 1 c-40 1 -40 2 -19 19 33 26 38 55
14 77 -16 14 -23 16 -32 7 -17 -17 -26 -15 -30 9 -2 11 -6 17 -10 13z"/>
<path d="M5412 3008 c2 -13 6 -27 9 -33 19 -31 31 -203 18 -243 -8 -24 -8 -46
1 -83 11 -46 10 -53 -15 -102 -18 -37 -25 -65 -23 -92 l3 -39 95 -28 c55 -15
108 -25 125 -22 17 3 51 1 77 -4 36 -7 59 -6 93 6 44 14 46 14 83 -13 20 -16
56 -46 80 -69 l43 -41 -3 274 -3 274 -46 26 -46 25 -32 -29 c-17 -17 -31 -34
-31 -38 0 -4 12 -19 28 -33 l27 -24 -22 -19 c-12 -10 -41 -21 -64 -25 -32 -5
-52 -17 -79 -46 -31 -33 -44 -40 -75 -40 l-37 0 4 38 c3 21 -1 49 -9 66 -11
22 -12 30 -3 36 14 9 -13 69 -37 83 -11 7 -13 19 -8 48 7 38 6 39 -23 39 -37
0 -60 25 -68 75 -6 42 -17 55 -47 55 -13 0 -17 -6 -15 -22z"/>
<path d="M3630 2772 c0 -14 20 -42 53 -75 58 -59 107 -119 121 -148 15 -32 37
-22 105 51 36 38 83 83 105 100 21 16 33 30 27 30 -8 0 -7 5 3 16 9 8 16 17
16 19 0 12 -67 -25 -112 -61 -37 -30 -149 -42 -183 -20 -23 15 -24 15 -19 -1
3 -10 -22 11 -55 47 -51 54 -61 61 -61 42z"/>
<path d="M5830 2262 c0 -5 -10 -7 -23 -5 -31 6 -71 -29 -62 -56 3 -10 1 -22
-4 -26 -7 -3 -8 0 -5 9 3 9 1 16 -5 16 -6 0 -11 -11 -11 -24 0 -13 -4 -26 -10
-28 -5 -1 -14 -18 -19 -36 -9 -29 -7 -34 13 -44 18 -8 29 -6 50 7 14 10 26 24
26 31 0 8 3 14 8 14 11 0 42 59 42 81 0 11 5 29 10 39 7 13 7 21 0 25 -5 3
-10 2 -10 -3z"/>
<path d="M1454 2138 c3 -10 9 -25 13 -35 4 -11 3 -14 -5 -9 -7 4 -12 3 -12 -3
0 -5 8 -15 18 -20 9 -6 12 -11 6 -11 -17 0 -50 28 -41 36 4 5 -11 14 -35 21
-39 11 -71 10 -34 -2 9 -3 23 -7 31 -10 23 -7 18 -24 -5 -18 -20 5 -20 5 -1
-33 26 -52 35 -77 32 -91 -1 -6 3 -14 9 -18 5 -3 10 -15 10 -25 0 -19 17 -36
26 -27 3 3 0 15 -6 27 -10 18 -9 21 2 18 7 -2 19 -17 26 -31 7 -15 18 -27 25
-27 8 0 8 3 -1 12 -7 7 -12 18 -12 26 0 35 29 -13 51 -83 12 -41 26 -75 31
-75 12 0 10 14 -4 28 -9 9 -9 15 0 24 10 10 15 10 22 -2 7 -10 8 -4 4 20 -4
19 -11 40 -15 46 -5 6 -7 13 -4 16 12 11 -26 62 -54 74 -32 13 -40 7 -19 -14
9 -9 9 -12 0 -12 -7 0 -17 11 -22 25 -5 14 -14 25 -20 25 -14 0 -13 -13 3 -29
10 -11 9 -13 -3 -9 -17 5 -51 69 -43 81 2 4 -3 10 -11 13 -9 3 -13 10 -10 16
3 5 11 4 20 -3 8 -6 14 -8 14 -5 0 4 9 2 19 -4 15 -7 23 -6 35 6 21 21 20 23
-15 64 -17 19 -28 27 -25 18z"/>
<path d="M1050 2038 c0 -1 7 -37 15 -78 9 -41 17 -82 19 -90 1 -8 5 -22 9 -30
3 -8 10 -35 16 -60 5 -25 14 -63 20 -85 9 -37 13 -80 26 -275 10 -158 16 -235
21 -239 10 -10 26 18 18 31 -5 7 -9 51 -10 98 -1 47 -3 85 -4 85 -1 0 -4 41
-7 90 -5 102 -9 148 -13 155 -2 5 -6 30 -13 87 -1 12 -5 25 -9 29 -5 4 -8 18
-8 30 0 13 -5 26 -10 29 -6 4 -8 15 -5 24 3 10 -1 24 -10 31 -9 8 -13 21 -9
36 4 15 2 24 -6 24 -7 0 -9 8 -5 20 3 11 3 25 -2 32 -4 7 -8 22 -8 32 0 11 -6
21 -12 23 -7 3 -13 3 -13 1z"/>
<path d="M950 1990 c0 -22 -4 -40 -10 -40 -5 0 -10 -7 -10 -16 0 -10 6 -14 14
-11 10 4 16 -7 21 -40 4 -25 11 -57 17 -72 6 -14 14 -35 18 -46 22 -54 34
-128 44 -265 3 -47 8 -128 11 -180 3 -52 7 -126 10 -165 13 -161 14 -207 15
-340 0 -77 -2 -189 -4 -248 -3 -78 -1 -107 7 -104 8 2 12 40 14 108 1 57 4
129 6 159 3 34 1 58 -6 62 -7 4 -7 11 2 22 11 13 11 19 1 31 -6 8 -8 20 -4 26
8 13 7 98 -1 204 -9 113 -15 220 -20 320 -2 55 -5 100 -6 100 -1 0 -3 20 -5
45 -7 95 -11 126 -19 143 -4 9 -5 23 -2 30 3 7 -1 21 -9 31 -7 11 -11 23 -8
28 3 5 0 16 -7 25 -8 9 -14 21 -14 27 -1 13 -14 65 -22 86 -3 8 -5 25 -4 37 1
11 -2 24 -7 27 -5 3 -7 17 -4 31 2 15 0 25 -7 25 -6 0 -11 -17 -11 -40z"/>
<path d="M1006 1982 c-5 -8 5 -58 29 -147 9 -33 19 -71 22 -85 3 -14 9 -30 14
-35 4 -6 8 -20 8 -30 0 -11 2 -33 5 -50 4 -33 13 -144 21 -280 3 -49 8 -121
11 -160 10 -150 14 -266 14 -403 0 -78 3 -142 8 -142 17 0 21 13 9 31 -10 16
-9 21 2 28 10 7 11 13 2 29 -6 11 -8 23 -4 25 9 6 10 198 1 213 -4 5 -3 16 2
24 5 8 5 21 1 29 -4 9 -7 39 -6 66 1 28 0 54 -3 59 -3 4 -6 47 -9 95 -6 135
-13 250 -19 321 -3 36 -5 76 -6 90 0 14 -4 31 -10 37 -6 7 -8 19 -5 27 3 8 -1
20 -9 27 -8 7 -12 19 -9 26 2 8 -1 24 -7 36 -7 12 -11 26 -10 31 2 5 -4 16
-13 26 -11 12 -13 20 -6 25 8 4 8 12 1 26 -6 10 -10 25 -9 32 4 32 -11 51 -25
29z"/>
<path d="M5562 1918 c-5 -22 -16 -34 -36 -41 -34 -11 -67 -42 -63 -59 1 -7 -4
-12 -12 -10 -9 2 -12 -4 -8 -17 3 -12 -3 -29 -13 -41 -18 -20 -18 -20 -36 37
-18 56 -19 57 -22 24 -2 -19 -14 -48 -27 -65 -13 -17 -25 -47 -27 -66 -3 -34
-2 -35 42 -43 51 -10 59 -19 60 -62 1 -16 9 -64 18 -105 16 -68 19 -73 30 -53
9 15 9 29 2 48 -12 31 -3 82 12 67 7 -7 21 -4 42 9 51 31 161 19 115 -13 -12
-8 -11 -9 1 -5 8 2 17 14 18 26 2 13 19 39 38 57 l33 34 -27 27 c-15 16 -39
34 -54 40 -16 7 -28 17 -28 23 0 6 -12 15 -26 20 -14 6 -23 14 -19 19 3 6 7
27 9 48 6 64 18 113 27 113 5 0 9 5 9 10 0 6 -11 10 -25 10 -19 0 -26 -7 -33
-32z"/>
<path d="M926 1861 c-4 -29 0 -52 18 -92 36 -84 48 -166 61 -424 6 -121 11
-185 22 -305 3 -36 6 -131 6 -213 0 -100 4 -146 11 -144 13 4 13 276 1 402 -4
44 -9 123 -11 175 -4 107 -12 235 -19 295 -2 22 -6 65 -9 94 -3 30 -10 59 -16
65 -5 5 -10 20 -10 32 0 13 -4 25 -9 28 -11 7 -24 64 -22 93 4 38 -16 34 -23
-6z"/>
<path d="M910 1741 c0 -12 4 -30 9 -39 5 -10 12 -49 16 -87 4 -39 9 -72 10
-75 2 -3 6 -55 10 -115 9 -175 17 -297 21 -340 14 -131 20 -287 18 -403 -2
-99 0 -132 9 -129 7 3 10 11 8 18 -2 8 -2 34 0 59 7 103 0 398 -10 415 -3 6
-7 46 -8 90 -7 221 -16 359 -29 455 -4 25 -7 57 -7 73 0 15 -4 27 -8 27 -5 0
-9 11 -9 24 0 13 -7 29 -15 36 -13 10 -15 9 -15 -9z"/>
<path d="M1836 1617 c4 -28 3 -37 -5 -33 -6 4 -11 16 -11 26 0 10 -4 21 -9 24
-10 7 -21 -117 -11 -124 13 -9 23 -143 11 -136 -6 4 -11 2 -11 -3 0 -6 7 -11
15 -11 10 0 15 -10 15 -27 0 -22 -2 -25 -10 -13 -8 13 -10 12 -10 -2 0 -10 7
-18 15 -18 8 0 15 -6 16 -12 0 -7 4 -4 9 7 8 20 9 20 9 -1 1 -27 -9 -36 -26
-23 -10 9 -13 8 -13 -4 0 -9 10 -21 21 -28 15 -8 18 -13 10 -19 -9 -5 -10 -19
-5 -46 4 -21 9 -50 10 -64 3 -39 3 -42 14 -35 6 3 10 -1 10 -10 0 -9 -4 -13
-10 -10 -12 7 -14 -18 -2 -29 8 -8 7 -3 20 -201 l9 -140 1 123 c1 79 6 121 12
117 6 -3 10 -1 10 4 0 6 -4 11 -10 11 -5 0 -10 12 -10 28 0 21 2 24 10 12 6
-9 10 -10 10 -3 0 6 -4 14 -9 17 -4 3 -12 34 -16 68 -4 35 -10 77 -12 93 -6
47 -6 48 2 80 8 27 7 29 -8 16 -16 -13 -16 -11 -3 14 11 20 12 34 5 47 -5 10
-8 22 -5 26 3 5 -4 46 -14 93 -17 76 -18 162 -1 156 7 -2 11 7 11 26 0 8 -4 7
-10 -3 -8 -12 -10 -10 -10 8 0 13 4 20 10 17 6 -3 10 1 10 9 0 9 -8 14 -21 13
-18 -1 -19 -6 -13 -40z"/>
<path d="M5510 1362 c0 -26 -33 -47 -48 -29 -5 6 -12 19 -14 27 -13 37 -20
-87 -8 -133 8 -31 10 -71 6 -109 -8 -67 -2 -78 47 -78 19 0 26 4 22 13 -4 6 0
4 8 -5 22 -28 27 -22 27 37 0 47 -11 86 -30 105 -12 12 -8 76 5 97 19 28 19
52 0 77 -15 19 -15 19 -15 -2z"/>
<path d="M4946 262 c6 -4 9 -27 8 -52 -1 -25 2 -65 7 -90 5 -25 11 -62 14 -83
l6 -37 362 0 c292 0 377 3 437 16 41 9 83 20 92 25 35 18 67 11 74 -16 4 -16
13 -25 26 -25 14 0 18 5 14 16 -3 9 -6 22 -6 30 0 18 -82 19 -129 3 -31 -11
-115 -9 -571 16 -82 4 -84 4 -50 -10 19 -8 43 -18 53 -21 30 -11 -1 -24 -55
-24 -34 0 -54 6 -67 19 -11 11 -22 17 -25 13 -4 -3 -19 6 -34 20 -32 30 -73
58 -84 58 -5 0 -8 -7 -8 -15 0 -8 3 -15 8 -15 4 0 13 -9 20 -20 12 -20 12 -21
-13 -4 -14 9 -25 23 -25 32 0 9 -4 29 -10 46 -5 17 -12 52 -15 79 -5 35 -10
47 -23 47 -10 0 -13 -3 -6 -8z"/>
</g>
</svg>
