<?xml version="1.0" standalone="no"?>
<!DOCTYPE svg PUBLIC "-//W3C//DTD SVG 20010904//EN"
 "http://www.w3.org/TR/2001/REC-SVG-20010904/DTD/svg10.dtd">
<svg version="1.0" xmlns="http://www.w3.org/2000/svg"
 width="300.000000pt" height="301.000000pt" viewBox="0 0 300.000000 301.000000"
 preserveAspectRatio="xMidYMid meet">
<metadata>
Created by potrace 1.10, written by Peter Selinger 2001-2011
</metadata>
<g transform="translate(0.000000,301.000000) scale(0.100000,-0.100000)"
fill="#000000" stroke="none">
<path d="M1399 2819 c-37 -4 -87 -18 -115 -32 -27 -13 -67 -28 -89 -32 -67
-12 -214 -110 -275 -183 -61 -73 -84 -137 -86 -239 -1 -50 -6 -107 -10 -125
-12 -54 -13 -99 -2 -162 9 -57 8 -60 -17 -82 -16 -13 -22 -25 -15 -29 5 -3 19
-23 30 -44 15 -30 19 -58 18 -132 0 -53 -6 -108 -13 -126 -17 -39 -10 -67 20
-87 18 -12 24 -27 28 -68 7 -71 20 -126 41 -165 9 -18 14 -33 10 -33 -4 0 -1
-6 5 -13 6 -8 8 -17 4 -21 -4 -4 -2 -11 6 -15 10 -6 10 -17 2 -49 -8 -29 -8
-54 -1 -88 35 -155 156 -284 340 -363 30 -13 75 -33 100 -45 l44 -21 -3 -60
c-1 -33 -7 -64 -12 -69 -5 -6 -9 -14 -9 -20 0 -6 5 -5 12 2 14 14 78 16 78 2
0 -5 11 -10 25 -10 22 0 25 4 26 38 2 66 7 121 13 130 3 5 38 19 78 32 85 26
166 66 225 109 69 50 116 172 113 296 -1 33 -1 65 0 70 1 6 2 13 1 18 -2 16 8
5 23 -24 8 -16 13 -36 10 -44 -8 -20 15 -56 34 -53 12 2 16 -3 15 -17 -1 -11
0 -14 3 -7 11 24 31 13 28 -15 -2 -16 -1 -20 2 -10 7 22 40 22 52 1 6 -11 12
-13 16 -6 4 6 13 9 21 6 10 -4 11 -12 5 -28 -6 -17 -4 -25 12 -35 11 -7 17
-19 14 -26 -3 -8 -2 -14 2 -14 22 4 33 -3 29 -15 -4 -10 -1 -13 9 -9 7 3 14 0
14 -6 0 -6 4 -11 8 -11 5 0 9 7 9 15 0 8 -3 12 -7 10 -9 -6 -52 40 -45 48 3 4
2 5 -1 2 -4 -2 -13 2 -20 10 -14 14 -9 45 7 45 4 0 6 -7 3 -15 -5 -11 -2 -13
12 -8 12 5 15 3 9 -6 -6 -10 -2 -11 15 -6 20 6 21 4 15 -17 -7 -22 -7 -22 11
-7 11 9 26 14 34 11 18 -7 49 -43 50 -59 0 -7 5 -13 10 -13 7 0 7 6 1 19 -10
18 -6 31 11 31 4 0 7 -3 6 -7 -1 -5 6 -21 16 -38 16 -28 16 -19 -1 22 -7 17
-6 17 20 0 14 -9 33 -17 41 -17 9 0 20 -9 26 -20 6 -11 16 -18 21 -14 15 9 61
-5 53 -17 -3 -6 -13 -8 -22 -4 -8 3 -2 -7 14 -22 16 -16 31 -27 33 -26 8 5
121 -62 121 -72 0 -5 14 -10 30 -10 17 0 30 1 30 2 0 2 -15 10 -32 18 -62 30
-78 40 -78 47 0 5 -6 8 -14 8 -7 0 -19 7 -26 15 -7 8 -16 13 -20 10 -4 -2 -16
2 -26 10 -18 13 -17 14 13 15 20 0 36 -6 42 -17 5 -10 12 -17 16 -15 8 4 75
-21 75 -28 0 -3 17 -14 38 -23 20 -10 46 -25 57 -35 20 -17 50 -71 47 -84 -1
-3 5 -9 13 -12 20 -7 19 1 -6 36 -12 16 -18 32 -15 36 4 3 11 1 15 -7 5 -7 12
-12 17 -12 5 0 18 -8 30 -18 26 -23 84 -52 84 -42 0 4 -30 27 -67 50 -38 24
-87 56 -109 71 -23 15 -52 31 -65 35 -13 4 -27 13 -31 19 -4 6 -11 11 -15 11
-4 1 -53 23 -108 49 -168 82 -231 106 -245 93 -8 -9 -9 -7 -4 7 5 13 4 17 -3
13 -11 -7 -138 46 -147 62 -3 5 -18 12 -33 16 -58 14 -132 55 -139 77 -4 13
-15 34 -25 47 -25 32 -24 48 10 155 16 51 32 112 35 136 2 25 5 46 5 46 1 1
11 -1 24 -3 39 -8 50 19 53 125 3 111 4 122 15 122 4 0 8 10 8 23 1 49 3 57
10 57 11 0 11 72 0 92 -5 10 -16 18 -24 18 -13 0 -14 26 -9 173 6 209 6 224
-6 262 -5 17 -14 49 -19 71 -6 23 -23 57 -39 77 -15 19 -36 47 -46 61 -18 25
-44 38 -30 14 5 -8 2 -9 -10 -5 -10 4 -22 7 -27 7 -5 0 -9 5 -9 10 0 6 7 10
15 10 8 0 15 5 15 10 0 6 -10 10 -23 10 -14 0 -26 9 -32 23 -12 26 -41 30 -39
5 2 -26 -8 -22 -31 12 -66 101 -247 152 -456 129z m-39 -34 c-33 -19 -23 -19
30 0 23 8 47 15 52 15 6 0 8 -7 4 -15 -4 -11 2 -15 22 -14 17 1 20 3 10 6 -10
2 -18 9 -18 13 0 14 152 2 162 -12 6 -10 12 -10 26 -1 16 9 27 7 63 -13 24
-13 52 -26 62 -30 10 -4 16 -12 14 -18 -2 -6 7 -19 19 -29 14 -10 21 -24 17
-33 -4 -12 -7 -12 -19 3 -13 17 -14 17 -8 -2 9 -25 74 -86 85 -79 5 3 10 0 10
-5 1 -6 2 -15 3 -19 2 -17 57 -74 64 -67 4 3 -2 13 -12 21 -25 18 -9 18 23 0
15 -8 20 -16 12 -20 -6 -4 -11 -12 -11 -19 0 -6 7 -2 15 9 12 17 12 20 -2 31
-21 17 -15 22 18 16 19 -3 29 -14 35 -34 7 -22 12 -26 24 -19 12 7 12 12 2 22
-6 6 -12 17 -12 23 1 5 10 -1 21 -14 13 -16 16 -27 9 -31 -7 -4 -5 -21 6 -51
18 -45 27 -259 12 -259 -5 0 -8 10 -8 23 0 17 -2 19 -10 7 -6 -10 -4 -22 5
-37 8 -12 15 -33 15 -46 0 -13 3 -27 7 -31 10 -9 4 -76 -9 -100 -8 -14 -7 -17
2 -11 10 6 11 1 6 -21 -4 -16 -12 -31 -17 -32 -5 -2 -7 -7 -5 -11 3 -4 1 -13
-3 -20 -6 -9 -9 -5 -10 13 -3 60 8 126 21 126 5 0 6 5 3 10 -8 14 -58 -47 -52
-62 3 -8 6 -6 6 5 1 9 6 17 11 17 14 0 13 -16 -2 -32 -9 -9 -13 -48 -13 -123
1 -60 -3 -123 -7 -140 -5 -18 -4 -31 2 -33 6 -2 6 -10 0 -22 -6 -11 -12 -41
-15 -67 -3 -26 -7 -61 -9 -78 -2 -16 0 -38 5 -47 6 -12 6 -18 -1 -18 -5 0 -10
7 -10 15 0 8 -7 15 -15 15 -8 0 -15 -5 -15 -11 0 -5 5 -7 10 -4 6 3 10 0 10
-9 0 -8 5 -16 12 -18 8 -3 8 -10 -4 -26 -8 -12 -18 -19 -22 -14 -4 4 -2 -5 4
-19 9 -20 9 -32 1 -45 -6 -11 -11 -13 -11 -6 0 21 -20 13 -20 -9 0 -11 5 -17
10 -14 6 3 10 2 10 -4 0 -5 -4 -12 -10 -16 -5 -3 -7 -12 -4 -19 3 -8 -4 -16
-15 -19 -13 -3 -21 -13 -21 -26 0 -18 -4 -20 -25 -15 -15 4 -25 2 -25 -5 0 -6
7 -8 17 -4 13 5 15 3 9 -13 -20 -48 -25 -79 -16 -88 5 -5 13 -6 17 -2 4 4 1
11 -6 15 -10 6 -10 10 -1 16 6 4 9 12 7 19 -3 6 1 20 9 31 8 10 14 13 14 7 0
-7 7 -12 15 -12 8 0 15 -4 15 -10 0 -5 -4 -10 -8 -10 -9 0 -9 -36 -1 -45 10
-9 -21 -137 -45 -183 -13 -26 -37 -57 -54 -69 -52 -39 -165 -94 -179 -89 -8 3
-11 1 -8 -4 4 -6 -7 -10 -24 -10 -16 0 -33 -4 -36 -10 -3 -5 -14 -10 -24 -10
-33 0 -52 -35 -58 -102 -7 -89 -8 -92 -34 -74 -12 8 -28 12 -35 9 -10 -3 -14
3 -14 20 0 27 22 51 35 39 5 -4 1 5 -8 21 -10 15 -14 27 -10 27 14 0 -62 51
-84 57 -13 3 -23 8 -23 12 0 4 -19 12 -42 18 -51 14 -151 73 -212 126 -89 76
-155 213 -140 292 l6 36 19 -31 c11 -17 19 -37 19 -45 0 -8 7 -15 16 -15 10 0
14 -6 11 -14 -4 -9 2 -17 14 -21 17 -6 23 -17 20 -37 0 -4 6 -5 14 -2 9 4 15
0 15 -9 0 -9 16 -25 35 -37 19 -12 35 -28 35 -36 0 -16 16 -19 25 -5 3 6 -5
15 -17 22 -22 12 -22 12 -3 19 11 4 26 2 34 -4 11 -8 15 -8 18 2 3 6 9 12 15
12 6 0 8 -7 4 -15 -9 -24 8 -18 35 12 17 20 18 23 3 11 -15 -13 -23 -15 -32
-6 -8 8 -15 8 -28 -3 -16 -13 -16 -12 -6 7 9 18 8 26 -7 43 -19 22 -37 29 -25
9 5 -8 2 -9 -11 -4 -15 5 -16 4 -5 -9 7 -9 20 -13 27 -10 19 7 12 -16 -9 -29
-12 -7 -25 -6 -45 3 -24 11 -26 14 -10 22 18 11 23 54 7 64 -5 3 -8 -7 -5 -24
2 -18 -2 -31 -10 -35 -15 -5 -71 58 -95 108 -8 17 -25 40 -37 52 -14 13 -19
25 -13 34 5 8 3 19 -6 27 -8 8 -11 19 -8 25 4 6 10 5 15 -3 6 -9 9 -10 9 -2 0
6 -6 18 -13 25 -7 7 -16 21 -20 31 -3 9 -11 17 -17 17 -7 0 -8 5 -3 13 4 6 8
23 9 37 1 14 0 17 -3 8 -6 -24 -23 -23 -23 1 0 11 -3 27 -7 37 -5 13 -3 16 10
11 9 -3 17 -2 17 3 0 6 -4 10 -9 10 -10 0 -22 34 -25 75 -2 17 -6 64 -10 105
-3 41 -7 141 -8 223 -1 88 -6 147 -12 147 -6 0 -6 4 1 11 14 14 4 59 -13 59
-17 0 -18 14 -3 42 9 16 8 19 -2 13 -9 -6 -10 -2 -5 16 3 13 9 36 12 51 5 19
11 25 22 21 10 -4 8 1 -6 15 -23 23 -29 42 -12 42 6 0 10 -7 10 -16 0 -14 3
-14 15 -4 13 10 15 9 15 -10 0 -30 11 -19 14 14 3 21 0 24 -14 16 -19 -10 -47
10 -33 23 3 4 1 7 -7 7 -8 0 -9 4 -3 13 5 6 9 35 8 62 -2 57 13 89 35 75 12
-7 12 -12 2 -22 -6 -6 -12 -19 -12 -27 0 -11 5 -8 16 7 9 13 14 29 11 35 -3 7
1 21 9 32 22 29 16 43 -6 15 -28 -36 -24 -17 6 32 20 32 28 38 36 27 7 -10 8
-8 3 9 -7 24 -5 25 19 16 9 -3 13 -11 9 -17 -3 -5 -1 -7 4 -4 6 4 9 20 7 36
-3 26 1 31 31 41 19 6 35 18 35 27 0 10 8 13 28 10 15 -2 21 -2 15 0 -7 3 -13
9 -13 14 0 5 6 9 13 9 6 0 25 7 40 15 20 10 27 11 24 2 -7 -20 12 -47 29 -40
14 5 13 8 -5 17 -21 12 -21 12 -1 29 14 11 20 13 21 4 0 -8 2 -9 5 -1 3 7 15
10 27 8 12 -2 16 -1 9 2 -17 8 15 33 43 34 11 0 29 7 39 15 11 8 25 15 30 15
6 -1 0 -7 -14 -15z m506 -149 c9 -3 12 -1 9 4 -3 6 -1 10 4 10 6 0 11 -5 11
-11 0 -6 10 -8 23 -5 12 3 16 3 9 0 -10 -5 -9 -11 5 -26 18 -20 17 -20 -17
-17 -44 4 -86 41 -75 66 7 16 8 16 12 1 2 -9 11 -19 19 -22z m155 -68 c24 -27
21 -30 -22 -18 -18 6 -46 10 -61 10 -44 0 -32 18 15 23 23 2 44 4 46 5 2 1 12
-8 22 -20z m-66 -28 c8 -13 -5 -13 -25 0 -13 8 -13 10 2 10 9 0 20 -4 23 -10z
m-1089 -604 c0 -14 -5 -21 -9 -17 -4 4 -5 15 -1 24 9 24 12 21 10 -7z m-26
-27 c0 -6 -4 -7 -10 -4 -5 3 -10 11 -10 16 0 6 5 7 10 4 6 -3 10 -11 10 -16z
m1312 -48 c-2 -28 -8 -48 -13 -45 -5 3 -9 -15 -9 -39 0 -31 -6 -49 -20 -62
-24 -22 -26 -35 -5 -35 8 0 15 -4 15 -10 0 -5 -11 -9 -25 -8 -23 2 -25 6 -25
55 0 28 5 55 10 58 6 3 10 11 10 16 0 6 -6 7 -12 3 -10 -6 -10 -4 0 8 7 9 12
22 11 30 -4 17 27 75 43 81 21 7 23 1 20 -52z m-1292 -76 c0 -8 -4 -15 -10
-15 -5 0 -7 7 -4 15 4 8 8 15 10 15 2 0 4 -7 4 -15z m-3 -127 c-3 -8 -6 -5 -6
6 -1 11 2 17 5 13 3 -3 4 -12 1 -19z m1255 -45 c5 -43 -9 -83 -29 -83 -9 0
-13 17 -13 60 0 52 2 60 19 60 14 0 20 -9 23 -37z m-1258 -18 c1 -19 -2 -35
-5 -35 -11 0 -20 47 -13 65 9 23 17 11 18 -30z m1193 -57 c2 -17 0 -19 -7 -8
-5 8 -6 18 -4 22 8 12 10 10 11 -14z m-87 -338 c0 -5 -4 -10 -10 -10 -5 0 -10
5 -10 10 0 6 5 10 10 10 6 0 10 -4 10 -10z m74 -96 c5 -14 4 -15 -9 -4 -17 14
-19 20 -6 20 5 0 12 -7 15 -16z"/>
<path d="M1528 2773 c10 -4 10 -8 1 -19 -14 -18 -8 -18 25 0 22 11 24 15 11
20 -9 3 -24 6 -33 5 -11 0 -13 -2 -4 -6z"/>
<path d="M1686 2755 c10 -8 26 -14 34 -14 9 0 4 6 -10 14 -33 19 -49 19 -24 0z"/>
<path d="M1595 2748 c5 -13 55 -19 55 -7 0 6 -35 19 -52 19 -4 0 -5 -6 -3 -12z"/>
<path d="M1276 2735 c4 -9 0 -15 -7 -15 -11 0 -11 -2 1 -9 8 -6 18 -7 22 -5
14 9 9 44 -7 44 -9 0 -12 -6 -9 -15z"/>
<path d="M1350 2739 c0 -5 5 -7 10 -4 6 3 10 8 10 11 0 2 -4 4 -10 4 -5 0 -10
-5 -10 -11z"/>
<path d="M1430 2740 c0 -5 5 -10 10 -10 6 0 10 5 10 10 0 6 -4 10 -10 10 -5 0
-10 -4 -10 -10z"/>
<path d="M1160 2664 c0 -8 5 -12 10 -9 6 3 10 10 10 16 0 5 -4 9 -10 9 -5 0
-10 -7 -10 -16z"/>
<path d="M1123 2635 c-9 -24 1 -27 15 -5 8 13 8 20 2 20 -6 0 -13 -7 -17 -15z"/>
<path d="M1360 2640 c0 -5 5 -10 11 -10 5 0 7 5 4 10 -3 6 -8 10 -11 10 -2 0
-4 -4 -4 -10z"/>
<path d="M1680 2636 c0 -9 5 -16 10 -16 6 0 10 4 10 9 0 6 -4 13 -10 16 -5 3
-10 -1 -10 -9z"/>
<path d="M1077 2623 c-13 -16 -14 -20 -1 -37 12 -17 14 -18 14 -3 0 9 -6 17
-12 17 -8 0 -5 7 6 15 11 8 17 17 14 20 -2 3 -12 -3 -21 -12z"/>
<path d="M1448 2633 c6 -2 18 -2 25 0 6 3 1 5 -13 5 -14 0 -19 -2 -12 -5z"/>
<path d="M1709 2600 c-4 -25 -10 -54 -14 -65 -7 -17 -4 -16 16 5 13 14 21 27
18 30 -4 3 -9 21 -11 40 -3 34 -3 34 -9 -10z"/>
<path d="M1298 2612 c-3 -11 0 -19 7 -19 7 0 10 8 7 19 -2 10 -6 18 -7 18 -1
0 -5 -8 -7 -18z"/>
<path d="M1460 2610 c-9 -6 -10 -10 -3 -10 6 0 15 5 18 10 8 12 4 12 -15 0z"/>
<path d="M1646 2607 c3 -10 9 -15 12 -12 3 3 0 11 -7 18 -10 9 -11 8 -5 -6z"/>
<path d="M1370 2600 c-13 -8 -12 -10 3 -10 9 0 17 5 17 10 0 12 -1 12 -20 0z"/>
<path d="M1422 2596 c7 -8 15 -12 17 -11 5 6 -10 25 -20 25 -5 0 -4 -6 3 -14z"/>
<path d="M1601 2602 c-1 -7 -5 -10 -11 -7 -6 3 -7 -1 -4 -10 4 -11 10 -13 16
-7 6 6 8 16 5 24 -4 10 -6 10 -6 0z"/>
<path d="M1754 2575 c0 -19 4 -35 8 -35 10 0 10 41 0 57 -5 8 -8 -1 -8 -22z"/>
<path d="M1220 2565 c-12 -23 -11 -27 8 -45 25 -24 43 -25 81 -5 16 8 30 13
32 11 2 -2 20 12 39 32 19 20 26 28 15 20 -14 -12 -25 -14 -38 -7 -11 7 -17 7
-17 -1 0 -5 5 -10 11 -10 5 0 7 -5 4 -10 -4 -6 -11 -8 -16 -5 -5 4 -9 1 -9 -5
0 -7 -8 -9 -20 -5 -12 4 -20 2 -20 -5 0 -6 -12 -10 -27 -8 -25 3 -28 7 -27 36
1 17 1 32 0 32 -2 0 -9 -11 -16 -25z"/>
<path d="M1676 2573 c-6 -15 -9 -15 -17 -3 -8 11 -9 8 -5 -12 4 -16 1 -28 -7
-31 -8 -4 -7 -6 3 -6 15 -1 47 55 37 65 -2 3 -8 -3 -11 -13z"/>
<path d="M1020 2560 c-6 -11 -15 -18 -20 -15 -5 3 -14 -5 -21 -17 -11 -21 -11
-22 4 -9 10 7 17 10 17 5 0 -4 11 3 25 16 26 24 32 40 15 40 -5 0 -14 -9 -20
-20z"/>
<path d="M1260 2560 c-8 -5 -10 -10 -5 -10 6 0 17 5 25 10 8 5 11 10 5 10 -5
0 -17 -5 -25 -10z"/>
<path d="M1565 2560 c3 -5 8 -10 11 -10 2 0 4 5 4 10 0 6 -5 10 -11 10 -5 0
-7 -4 -4 -10z"/>
<path d="M1054 2546 c-10 -8 -16 -17 -13 -20 3 -3 14 3 24 14 21 23 17 26 -11
6z"/>
<path d="M1516 2544 c-8 -20 -4 -25 11 -16 7 4 9 13 4 21 -6 10 -10 9 -15 -5z"/>
<path d="M1410 2529 c0 -5 5 -7 10 -4 6 3 10 8 10 11 0 2 -4 4 -10 4 -5 0 -10
-5 -10 -11z"/>
<path d="M1460 2533 c0 -4 5 -15 10 -23 8 -13 10 -13 10 2 0 9 -4 20 -10 23
-5 3 -10 3 -10 -2z"/>
<path d="M1182 2517 c-6 -7 -7 -19 -3 -26 6 -9 10 -5 13 13 6 30 5 31 -10 13z"/>
<path d="M1580 2511 c0 -5 9 -7 20 -4 11 3 20 7 20 9 0 2 -9 4 -20 4 -11 0
-20 -4 -20 -9z"/>
<path d="M982 2498 c-7 -7 -12 -8 -12 -4 0 5 -7 3 -15 -4 -16 -13 -20 -30 -7
-30 11 1 55 40 50 45 -2 3 -10 -1 -16 -7z"/>
<path d="M1135 2500 c3 -5 8 -10 11 -10 2 0 4 5 4 10 0 6 -5 10 -11 10 -5 0
-7 -4 -4 -10z"/>
<path d="M1647 2504 c-4 -4 -7 -14 -7 -23 0 -11 3 -12 11 -4 6 6 10 16 7 23
-2 6 -7 8 -11 4z"/>
<path d="M1577 2483 c-4 -3 -7 -11 -7 -17 0 -6 5 -5 12 2 6 6 9 14 7 17 -3 3
-9 2 -12 -2z"/>
<path d="M1523 2450 c2 -14 7 -24 11 -23 21 5 21 10 4 28 -18 19 -18 19 -15
-5z"/>
<path d="M933 2431 c-6 -10 -8 -23 -3 -30 5 -9 9 -3 13 16 6 34 5 37 -10 14z"/>
<path d="M1976 2435 c-3 -8 -1 -15 3 -15 5 0 11 7 15 15 3 8 1 15 -3 15 -5 0
-11 -7 -15 -15z"/>
<path d="M1588 2433 c7 -3 16 -2 19 1 4 3 -2 6 -13 5 -11 0 -14 -3 -6 -6z"/>
<path d="M1999 2410 c-21 -22 -30 -48 -19 -55 6 -4 10 1 10 11 0 9 7 22 16 29
9 6 15 16 13 21 -2 6 -11 3 -20 -6z"/>
<path d="M890 2380 c0 -7 7 -10 14 -7 10 4 13 1 9 -9 -3 -7 0 -14 7 -14 18 0
7 34 -13 38 -9 2 -17 -2 -17 -8z"/>
<path d="M2081 2354 c0 -11 3 -14 6 -6 3 7 2 16 -1 19 -3 4 -6 -2 -5 -13z"/>
<path d="M2022 2330 c0 -14 2 -19 5 -12 2 6 2 18 0 25 -3 6 -5 1 -5 -13z"/>
<path d="M890 2320 c-9 -16 -8 -18 5 -14 8 4 15 12 15 20 0 20 -7 17 -20 -6z"/>
<path d="M1170 2330 c0 -5 5 -10 11 -10 5 0 7 5 4 10 -3 6 -8 10 -11 10 -2 0
-4 -4 -4 -10z"/>
<path d="M2052 2300 c0 -14 2 -19 5 -12 2 6 2 18 0 25 -3 6 -5 1 -5 -13z"/>
<path d="M1185 2270 c3 -5 8 -10 11 -10 2 0 4 5 4 10 0 6 -5 10 -11 10 -5 0
-7 -4 -4 -10z"/>
<path d="M2022 2260 c0 -14 2 -19 5 -12 2 6 2 18 0 25 -3 6 -5 1 -5 -13z"/>
<path d="M923 2210 c-11 -16 -10 -18 2 -14 8 4 15 12 15 20 0 19 -3 18 -17 -6z"/>
<path d="M2040 2201 c0 -17 5 -31 10 -31 6 0 10 11 10 24 0 14 -4 28 -10 31
-6 4 -10 -7 -10 -24z"/>
<path d="M1061 2213 c-1 -6 -4 -20 -7 -30 -5 -17 -5 -17 6 0 6 10 9 23 6 30
-3 9 -5 9 -5 0z"/>
<path d="M900 2135 c-7 -9 -8 -15 -2 -15 5 0 12 7 16 15 3 8 4 15 2 15 -2 0
-9 -7 -16 -15z"/>
<path d="M1991 2130 c14 -31 19 -36 19 -24 0 6 -7 19 -16 30 -14 18 -14 18 -3
-6z"/>
<path d="M2070 2114 c0 -8 5 -12 10 -9 6 4 8 11 5 16 -9 14 -15 11 -15 -7z"/>
<path d="M860 2100 c0 -5 5 -10 10 -10 6 0 10 5 10 10 0 6 -4 10 -10 10 -5 0
-10 -4 -10 -10z"/>
<path d="M1980 2091 c0 -6 4 -13 10 -16 6 -3 7 1 4 9 -7 18 -14 21 -14 7z"/>
<path d="M2024 2058 c1 -54 7 -60 24 -23 7 15 8 25 2 25 -6 0 -11 -6 -11 -12
-1 -7 -5 3 -9 22 -7 33 -8 32 -6 -12z"/>
<path d="M1875 2069 c-4 -6 -5 -12 -2 -15 2 -3 7 2 10 11 7 17 1 20 -8 4z"/>
<path d="M1017 1972 c-44 -45 -45 -51 -12 -44 14 2 25 9 25 14 0 6 7 5 15 -2
9 -7 18 -10 22 -6 3 3 1 6 -5 6 -7 0 -12 4 -12 10 0 5 8 6 17 3 13 -5 15 -2
10 11 -4 10 -7 20 -7 22 0 3 -6 2 -12 -1 -7 -4 -4 1 6 9 15 12 16 16 5 16 -8
0 -32 -17 -52 -38z"/>
<path d="M1828 1988 c30 -15 23 -32 -14 -36 -16 -2 -32 -8 -35 -14 -5 -7 -13
-7 -25 0 -17 9 -16 11 11 17 53 12 51 13 -12 14 -43 1 -63 -3 -63 -11 0 -9 -3
-9 -12 0 -7 7 -28 12 -47 11 -20 0 -30 -3 -24 -6 10 -3 9 -8 -2 -20 -8 -8 -15
-22 -15 -31 0 -10 3 -13 8 -6 9 13 54 44 64 44 5 0 8 -4 8 -10 0 -5 -6 -10
-14 -10 -7 0 -19 -7 -26 -15 -12 -14 -9 -16 23 -13 21 1 37 5 37 8 0 3 30 5
68 5 37 -1 59 0 50 3 -30 6 -20 19 12 14 18 -3 30 0 30 7 0 6 5 11 11 11 6 0
9 -6 6 -13 -3 -7 8 -20 24 -29 16 -10 29 -13 29 -9 0 17 -83 101 -99 100 -11
0 -9 -4 7 -11z m-98 -40 c0 -4 -7 -8 -15 -8 -8 0 -15 4 -15 8 0 5 7 9 15 9 8
0 15 -4 15 -9z"/>
<path d="M1322 1958 c-6 -17 -9 -34 -7 -37 3 -2 5 1 5 8 0 7 4 10 9 7 11 -7
23 36 13 46 -4 4 -13 -7 -20 -24z"/>
<path d="M1094 1958 c-3 -11 -4 -21 -2 -23 8 -8 88 -13 88 -6 0 13 -30 22 -51
16 -11 -4 -19 -2 -19 3 0 14 30 24 43 15 17 -11 91 -10 99 2 4 5 10 6 14 2 4
-4 0 -15 -9 -25 -14 -14 -21 -14 -37 -5 -11 8 -21 9 -25 3 -7 -11 19 -25 63
-35 26 -5 32 -4 32 10 0 11 -5 15 -15 11 -13 -4 -13 -2 -5 14 19 36 12 39 -80
38 -79 -1 -90 -3 -96 -20z"/>
<path d="M1514 1956 c-9 -9 -8 -17 3 -32 14 -18 15 -18 8 6 -6 21 -3 20 14 -7
25 -39 30 -41 24 -9 -7 35 -34 58 -49 42z"/>
<path d="M1430 1946 c0 -2 8 -10 18 -17 15 -13 16 -12 3 4 -13 16 -21 21 -21
13z"/>
<path d="M1577 1943 c-4 -3 -7 -11 -7 -17 0 -6 5 -5 12 2 6 6 9 14 7 17 -3 3
-9 2 -12 -2z"/>
<path d="M1365 1930 c-3 -5 -1 -10 4 -10 6 0 11 5 11 10 0 6 -2 10 -4 10 -3 0
-8 -4 -11 -10z"/>
<path d="M1400 1916 c0 -19 27 -39 40 -31 8 5 6 13 -6 26 -20 22 -34 25 -34 5z"/>
<path d="M988 1903 c7 -3 16 -2 19 1 4 3 -2 6 -13 5 -11 0 -14 -3 -6 -6z"/>
<path d="M977 1879 c7 -7 15 -10 18 -7 3 3 -2 9 -12 12 -14 6 -15 5 -6 -5z"/>
<path d="M1105 1873 c-47 -19 -50 -21 -43 -29 4 -3 18 2 31 11 14 9 49 19 79
22 60 5 107 -10 150 -51 28 -27 43 -21 31 11 -13 35 -39 51 -34 20 1 -4 -17 2
-39 13 -47 24 -119 25 -175 3z"/>
<path d="M1617 1869 c-9 -5 -23 -7 -30 -3 -6 4 -9 4 -5 -1 9 -9 -9 -35 -24
-35 -6 0 -4 8 3 17 12 15 12 16 -4 10 -10 -4 -21 -7 -23 -7 -2 0 -4 -11 -4
-25 0 -23 2 -24 23 -13 12 7 24 16 27 19 3 4 23 16 45 28 22 11 33 21 25 21
-8 0 -23 -5 -33 -11z"/>
<path d="M1693 1873 c9 -2 23 -2 30 0 6 3 -1 5 -18 5 -16 0 -22 -2 -12 -5z"/>
<path d="M1740 1872 c0 -4 28 -17 62 -30 34 -12 57 -17 52 -12 -15 15 -114 52
-114 42z"/>
<path d="M1104 1843 c-23 -9 -47 -25 -53 -36 -12 -18 -11 -19 13 -13 18 4 35
-1 62 -19 20 -14 41 -22 48 -18 6 4 1 10 -14 14 -14 4 -18 8 -10 9 8 1 3 6
-12 12 -32 11 -35 20 -11 39 13 11 17 11 21 1 14 -44 68 -54 87 -16 10 20 13
21 38 8 28 -15 38 -40 12 -30 -8 3 -25 1 -37 -4 -19 -7 -14 -9 25 -9 40 -1 48
2 45 16 -9 48 -140 76 -214 46z m86 -13 c0 -5 -4 -10 -10 -10 -5 0 -10 5 -10
10 0 6 5 10 10 10 6 0 10 -4 10 -10z m40 6 c0 -11 -19 -15 -25 -6 -3 5 1 10 9
10 9 0 16 -2 16 -4z"/>
<path d="M1640 1840 c-32 -8 -70 -41 -70 -60 0 -5 8 -6 18 -4 9 2 31 0 47 -5
29 -9 28 -9 -15 -11 l-45 -1 29 -15 c15 -9 37 -14 47 -11 10 3 19 1 19 -4 0
-5 10 -8 23 -8 16 1 18 2 5 6 -29 7 -20 18 18 21 43 3 80 20 67 33 -10 10 -55
0 -48 -11 3 -4 -11 -8 -30 -8 -19 0 -33 4 -30 8 3 5 -11 12 -32 15 -59 10 -60
11 -26 29 31 16 33 16 45 -4 15 -24 66 -27 74 -5 4 8 13 15 20 15 8 0 17 -7
20 -15 4 -9 19 -15 40 -15 43 0 44 16 2 25 -18 4 -38 11 -44 16 -17 14 -95 19
-134 9z m50 -10 c0 -5 -4 -10 -10 -10 -5 0 -10 5 -10 10 0 6 5 10 10 10 6 0
10 -4 10 -10z m30 0 c0 -5 -4 -10 -10 -10 -5 0 -10 5 -10 10 0 6 5 10 10 10 6
0 10 -4 10 -10z"/>
<path d="M1489 1835 c-7 -35 -1 -60 16 -64 17 -3 18 -1 6 13 -7 9 -10 16 -6
16 4 0 2 6 -4 13 -6 8 -8 17 -4 20 3 4 3 7 0 7 -4 0 -7 -2 -8 -5z"/>
<path d="M1435 1800 c-3 -5 -1 -10 4 -10 6 0 11 5 11 10 0 6 -2 10 -4 10 -3 0
-8 -4 -11 -10z"/>
<path d="M1330 1783 c0 -6 -3 -20 -6 -30 -7 -17 -6 -17 12 -1 14 14 16 21 6
30 -8 8 -12 9 -12 1z"/>
<path d="M1540 1771 c0 -10 28 -41 36 -41 2 0 -3 11 -12 25 -17 26 -24 31 -24
16z"/>
<path d="M1190 1760 c0 -5 5 -10 10 -10 6 0 10 5 10 10 0 6 -4 10 -10 10 -5 0
-10 -4 -10 -10z"/>
<path d="M1244 1753 c7 -17 -48 -26 -118 -20 -31 2 -56 1 -56 -4 0 -8 34 -11
114 -9 39 1 126 31 126 43 0 2 -16 3 -35 3 -25 0 -34 -4 -31 -13z"/>
<path d="M1773 1738 c1 -7 -11 -15 -28 -19 -28 -6 -28 -7 -4 -8 14 0 33 5 43
12 17 12 17 14 3 20 -10 4 -16 2 -14 -5z"/>
<path d="M1254 1704 c-18 -14 -18 -15 4 -4 12 6 22 13 22 15 0 8 -5 6 -26 -11z"/>
<path d="M1615 1700 c12 -19 87 -50 122 -50 17 0 34 -6 37 -12 3 -7 5 -4 3 7
-2 16 -12 21 -53 26 -27 4 -65 14 -83 23 -19 10 -30 12 -26 6z"/>
<path d="M1374 1678 l-19 -23 23 19 c21 18 27 26 19 26 -2 0 -12 -10 -23 -22z"/>
<path d="M1471 1700 c-8 -20 -8 -61 0 -66 15 -9 16 -3 8 36 -3 19 -7 33 -8 30z"/>
<path d="M1190 1678 c-14 -5 -38 -11 -53 -13 -40 -4 -43 -12 -5 -13 31 -1 98
21 98 32 0 8 -11 6 -40 -6z"/>
<path d="M1305 1669 c-4 -6 -5 -12 -2 -15 2 -3 7 2 10 11 7 17 1 20 -8 4z"/>
<path d="M1570 1647 c-12 -20 -12 -21 2 -9 13 10 17 10 21 0 4 -9 6 -7 6 4 1
26 -14 29 -29 5z"/>
<path d="M1790 1666 c0 -2 7 -7 16 -10 8 -3 12 -2 9 4 -6 10 -25 14 -25 6z"/>
<path d="M1050 1619 c0 -5 5 -7 10 -4 6 3 10 8 10 11 0 2 -4 4 -10 4 -5 0 -10
-5 -10 -11z"/>
<path d="M1280 1593 c-11 -14 -20 -32 -20 -41 0 -9 8 -5 21 12 12 15 31 31 42
35 20 8 20 8 -1 13 -16 5 -28 -1 -42 -19z"/>
<path d="M920 1600 c0 -5 5 -10 11 -10 5 0 7 5 4 10 -3 6 -8 10 -11 10 -2 0
-4 -4 -4 -10z"/>
<path d="M1550 1600 c-9 -6 -6 -10 9 -15 11 -3 26 -15 31 -25 14 -25 -7 -70
-32 -70 -10 0 -28 -9 -40 -20 -12 -11 -28 -20 -35 -20 -7 0 -13 -4 -13 -10 0
-5 5 -10 11 -10 6 0 19 -10 28 -22 15 -18 19 -19 24 -5 4 11 2 14 -7 11 -16
-6 -29 23 -14 32 5 4 14 1 18 -6 6 -9 13 -7 29 9 11 11 22 24 22 29 1 4 8 17
17 29 30 47 -7 118 -48 93z m0 -140 c0 -5 -4 -10 -10 -10 -5 0 -10 5 -10 10 0
6 5 10 10 10 6 0 10 -4 10 -10z"/>
<path d="M1310 1570 c-6 -11 -8 -20 -6 -20 3 0 10 9 16 20 6 11 8 20 6 20 -3
0 -10 -9 -16 -20z"/>
<path d="M1515 1580 c3 -5 8 -10 11 -10 2 0 4 5 4 10 0 6 -5 10 -11 10 -5 0
-7 -4 -4 -10z"/>
<path d="M1641 1538 c7 -12 25 -36 40 -53 16 -16 29 -33 29 -36 0 -4 7 -9 15
-13 12 -4 13 -2 2 14 -6 11 -15 20 -18 20 -4 0 -20 20 -36 45 -28 46 -54 63
-32 23z"/>
<path d="M1882 1551 c-11 -7 -11 -9 2 -14 10 -4 16 -1 16 8 0 17 -1 17 -18 6z"/>
<path d="M1215 1539 c-12 -19 5 -23 22 -6 16 16 16 17 1 17 -9 0 -20 -5 -23
-11z"/>
<path d="M1260 1523 c0 -13 47 -53 63 -53 5 0 4 7 -3 15 -7 8 -17 15 -23 15
-5 0 -16 8 -23 18 -7 9 -14 12 -14 5z"/>
<path d="M1496 1500 c-10 -17 -13 -30 -6 -30 10 0 34 49 27 56 -2 2 -11 -10
-21 -26z"/>
<path d="M1330 1501 c15 -30 30 -35 17 -6 -7 14 -16 25 -20 25 -4 0 -3 -9 3
-19z"/>
<path d="M1590 1473 c0 -13 27 -49 33 -43 3 3 -3 16 -14 29 -10 13 -19 19 -19
14z"/>
<path d="M1800 1460 c0 -5 5 -10 11 -10 5 0 7 5 4 10 -3 6 -8 10 -11 10 -2 0
-4 -4 -4 -10z"/>
<path d="M1300 1449 c0 -5 4 -8 9 -4 20 12 21 -15 2 -32 -20 -17 -45 -23 -89
-25 -18 0 -20 -2 -10 -12 7 -6 19 -18 27 -26 11 -13 12 -12 7 6 -5 16 -2 23
15 27 15 4 19 2 15 -9 -3 -8 -1 -14 4 -14 6 0 10 6 11 13 0 15 58 62 66 54 9
-10 -6 -39 -17 -32 -6 4 -7 -1 -3 -11 5 -13 3 -16 -10 -11 -11 4 -17 1 -17 -8
0 -18 12 -19 28 -3 9 9 12 9 12 -1 0 -7 4 -10 8 -7 5 3 26 1 47 -5 50 -14 85
1 85 36 0 16 -6 25 -15 25 -8 0 -15 6 -15 13 0 8 -4 7 -10 -3 -14 -22 -12 -33
5 -26 16 6 16 -14 0 -26 -20 -15 -34 -8 -37 19 -2 19 -13 32 -33 43 -16 8 -31
18 -33 23 -5 11 -52 8 -52 -4z m109 -62 c0 -12 -3 -16 -6 -10 -3 9 -10 10 -22
3 -10 -5 -21 -6 -25 -3 -9 10 11 29 33 30 16 1 21 -4 20 -20z"/>
<path d="M1272 1436 c7 -8 15 -12 17 -11 5 6 -10 25 -20 25 -5 0 -4 -6 3 -14z"/>
<path d="M1770 1446 c0 -2 8 -10 18 -17 15 -13 16 -12 3 4 -13 16 -21 21 -21
13z"/>
<path d="M947 1429 c7 -7 15 -10 18 -7 3 3 -2 9 -12 12 -14 6 -15 5 -6 -5z"/>
<path d="M1057 1430 c9 -9 9 -19 2 -34 -10 -21 -10 -21 6 -1 17 22 16 37 -6
43 -11 4 -11 2 -2 -8z"/>
<path d="M1191 1416 c-7 -17 -18 -26 -33 -26 -20 -1 -21 -2 -6 -11 10 -5 15
-16 12 -24 -4 -9 0 -15 10 -15 9 0 16 5 16 11 0 6 7 9 15 5 8 -3 15 -1 15 4 0
6 -11 10 -25 10 l-26 0 22 30 c13 16 20 33 16 36 -4 4 -11 -5 -16 -20z"/>
<path d="M1660 1433 c0 -6 8 -17 18 -24 16 -13 16 -13 2 6 -8 11 -16 22 -17
24 -2 2 -3 0 -3 -6z"/>
<path d="M1861 1421 c-8 -11 -18 -18 -22 -15 -4 2 -10 0 -13 -5 -8 -12 13 -9
38 6 10 5 17 15 15 22 -3 7 -10 4 -18 -8z"/>
<path d="M1220 1410 c0 -5 5 -10 10 -10 6 0 10 5 10 10 0 6 -4 10 -10 10 -5 0
-10 -4 -10 -10z"/>
<path d="M1556 1403 c-6 -14 -5 -15 5 -6 7 7 10 15 7 18 -3 3 -9 -2 -12 -12z"/>
<path d="M1603 1400 c2 -14 8 -25 13 -26 21 -2 43 -17 38 -25 -3 -5 2 -6 10
-3 9 3 13 10 10 15 -3 5 -1 9 5 9 5 0 13 -4 16 -10 3 -5 11 -10 16 -10 6 0 7
5 4 10 -3 6 -2 10 3 10 6 0 12 -7 16 -15 3 -10 -1 -15 -11 -15 -9 0 -14 -3
-10 -6 3 -4 14 -3 24 1 10 5 21 7 26 7 4 -1 7 3 7 8 0 5 -7 10 -16 10 -9 0
-14 6 -11 13 2 7 -6 18 -20 24 -21 10 -23 9 -18 -7 5 -16 1 -18 -22 -15 -15 2
-31 4 -35 4 -4 1 -17 11 -28 23 l-21 22 4 -24z"/>
<path d="M1004 1378 c-4 -6 -2 -14 4 -16 7 -2 10 -8 6 -13 -3 -5 0 -9 5 -9 14
0 14 17 1 25 -6 4 -8 11 -5 16 4 5 4 9 1 9 -3 0 -8 -5 -12 -12z"/>
<path d="M1800 1378 c0 -9 5 -20 10 -23 13 -8 13 5 0 25 -8 13 -10 13 -10 -2z"/>
<path d="M970 1371 c0 -5 5 -13 10 -16 6 -3 10 -2 10 4 0 5 -4 13 -10 16 -5 3
-10 2 -10 -4z"/>
<path d="M1507 1373 c-12 -11 -8 -23 8 -23 8 0 15 7 15 15 0 16 -12 20 -23 8z"/>
<path d="M1555 1370 c3 -5 1 -10 -5 -10 -7 0 -6 -5 2 -14 11 -12 14 -12 21 0
9 16 1 34 -14 34 -6 0 -7 -4 -4 -10z"/>
<path d="M1870 1360 c0 -6 7 -19 16 -27 14 -15 16 -14 12 7 -3 24 -28 41 -28
20z"/>
<path d="M1930 1360 c-13 -8 -12 -10 3 -10 9 0 17 5 17 10 0 12 -1 12 -20 0z"/>
<path d="M1970 1339 c0 -5 5 -7 10 -4 6 3 10 8 10 11 0 2 -4 4 -10 4 -5 0 -10
-5 -10 -11z"/>
<path d="M1126 1308 c6 -45 14 -48 14 -5 0 21 -4 37 -9 37 -4 0 -7 -14 -5 -32z"/>
<path d="M1927 1333 c-4 -3 -7 -11 -7 -17 0 -6 5 -5 12 2 6 6 9 14 7 17 -3 3
-9 2 -12 -2z"/>
<path d="M1020 1321 c0 -5 5 -13 10 -16 6 -3 10 -2 10 4 0 5 -4 13 -10 16 -5
3 -10 2 -10 -4z"/>
<path d="M1219 1318 c-11 -4 -17 -12 -14 -18 3 -5 -5 -14 -19 -20 -14 -5 -26
-15 -26 -21 0 -6 7 -8 17 -5 13 5 12 1 -5 -17 l-23 -24 26 0 c17 0 22 2 15 7
-10 6 -8 15 9 38 11 17 21 35 21 41 0 8 6 9 19 1 12 -6 22 -6 25 -1 6 10 81
-22 91 -39 4 -6 11 -8 16 -4 6 3 3 12 -8 19 -15 12 -5 13 71 8 72 -5 88 -4 84
7 -3 10 -19 13 -56 11 -38 -2 -52 1 -52 11 0 8 -3 9 -8 3 -4 -5 -18 -9 -32 -9
-74 4 -75 4 -61 13 17 11 -59 10 -90 -1z"/>
<path d="M1752 1318 c-16 -16 -15 -25 3 -25 8 0 15 9 15 19 0 21 -2 22 -18 6z"/>
<path d="M1820 1321 c0 -5 5 -13 10 -16 6 -3 10 -2 10 4 0 5 -4 13 -10 16 -5
3 -10 2 -10 -4z"/>
<path d="M1638 1314 c-3 -2 -26 -5 -52 -5 -26 -1 -50 -7 -53 -12 -4 -6 22 -7
71 -2 78 7 84 4 77 -37 0 -5 6 -8 15 -8 14 0 15 2 3 17 -11 13 -11 17 -1 20 6
3 12 10 12 16 0 5 -3 8 -6 5 -3 -4 -18 -2 -34 2 -16 4 -30 6 -32 4z"/>
<path d="M1048 1275 c-3 -14 -1 -25 3 -25 5 0 9 11 9 25 0 14 -2 25 -4 25 -2
0 -6 -11 -8 -25z"/>
<path d="M1860 1280 c-6 -11 -8 -20 -6 -20 3 0 10 9 16 20 6 11 8 20 6 20 -3
0 -10 -9 -16 -20z"/>
<path d="M1931 1288 c0 -9 -7 -18 -13 -21 -7 -2 -10 -8 -5 -12 11 -13 29 11
24 31 -4 16 -5 16 -6 2z"/>
<path d="M990 1263 c0 -5 4 -13 9 -18 5 -6 11 -19 14 -30 4 -16 5 -14 6 6 0
15 -6 32 -14 39 -8 7 -15 8 -15 3z"/>
<path d="M1510 1253 c0 -13 -2 -15 -8 -5 -6 9 -16 10 -32 4 -24 -9 -23 -9 8
-14 23 -3 37 1 49 14 15 17 15 18 0 18 -10 0 -17 -8 -17 -17z"/>
<path d="M1395 1250 c-3 -5 -1 -10 4 -10 6 0 11 5 11 10 0 6 -2 10 -4 10 -3 0
-8 -4 -11 -10z"/>
<path d="M1820 1250 c0 -5 5 -10 11 -10 5 0 7 5 4 10 -3 6 -8 10 -11 10 -2 0
-4 -4 -4 -10z"/>
<path d="M1863 1237 c-17 -35 -23 -57 -15 -57 7 0 33 72 28 77 -1 2 -7 -7 -13
-20z"/>
<path d="M1130 1239 c0 -5 5 -7 10 -4 6 3 10 8 10 11 0 2 -4 4 -10 4 -5 0 -10
-5 -10 -11z"/>
<path d="M1053 1233 c-7 -2 -13 -12 -13 -21 1 -15 2 -14 11 2 9 15 13 16 20 5
7 -11 9 -10 9 4 0 17 -5 19 -27 10z"/>
<path d="M1220 1230 c-9 -6 -10 -10 -3 -10 6 0 15 5 18 10 8 12 4 12 -15 0z"/>
<path d="M1535 1229 c-11 -17 1 -21 15 -4 8 9 8 15 2 15 -6 0 -14 -5 -17 -11z"/>
<path d="M1701 1224 c0 -11 3 -14 6 -6 3 7 2 16 -1 19 -3 4 -6 -2 -5 -13z"/>
<path d="M1900 1225 c-7 -9 -11 -18 -8 -20 3 -3 11 1 18 10 7 9 11 18 8 20 -3
3 -11 -1 -18 -10z"/>
<path d="M1720 1220 c0 -5 7 -10 15 -10 9 0 12 -6 9 -17 -5 -15 -4 -15 4 -3 8
10 8 18 0 27 -12 15 -28 17 -28 3z"/>
<path d="M1240 1210 c0 -6 7 -13 15 -16 8 -4 12 -11 9 -16 -4 -6 2 -5 14 1 12
7 23 7 26 2 4 -5 -7 -15 -24 -23 -44 -19 -37 -30 8 -12 26 11 33 12 25 3 -21
-22 -15 -32 17 -27 17 3 30 1 30 -3 0 -5 49 -7 109 -5 86 3 112 1 122 -10 6
-8 16 -14 21 -14 6 0 -3 13 -18 28 -16 15 -34 36 -39 46 -15 27 -55 13 -47
-16 4 -15 2 -19 -8 -13 -7 4 -16 2 -20 -5 -4 -7 -13 -9 -19 -6 -14 9 -14 36 0
36 5 0 7 -4 4 -10 -3 -6 1 -7 9 -4 29 11 17 24 -21 24 -21 0 -67 7 -103 14
-36 8 -68 12 -72 9 -5 -2 -8 3 -8 11 0 9 -7 16 -15 16 -8 0 -15 -5 -15 -10z
m300 -73 c0 -5 -4 -5 -10 -2 -5 3 -10 14 -10 23 0 15 2 15 10 2 5 -8 10 -19
10 -23z m-190 13 c0 -5 -2 -10 -4 -10 -3 0 -8 5 -11 10 -3 6 -1 10 4 10 6 0
11 -4 11 -10z m34 -5 c-6 -16 -24 -21 -24 -7 0 11 11 22 21 22 5 0 6 -7 3 -15z
m36 6 c0 -5 -7 -12 -16 -15 -14 -5 -15 -4 -4 9 14 17 20 19 20 6z"/>
<path d="M1635 1210 c3 -5 8 -10 11 -10 2 0 4 5 4 10 0 6 -5 10 -11 10 -5 0
-7 -4 -4 -10z"/>
<path d="M1606 1201 c-4 -6 -16 -11 -27 -11 -23 0 -25 -15 -3 -24 8 -3 12 -10
9 -16 -3 -5 -1 -10 5 -10 6 0 14 8 17 18 4 9 11 20 17 24 8 5 7 11 0 18 -9 9
-14 9 -18 1z"/>
<path d="M1807 1203 c-4 -3 -7 -11 -7 -17 0 -6 5 -5 12 2 6 6 9 14 7 17 -3 3
-9 2 -12 -2z"/>
<path d="M1172 1191 c-11 -6 -10 -10 4 -15 20 -8 32 0 18 14 -5 5 -15 5 -22 1z"/>
<path d="M1680 1190 c0 -5 5 -10 10 -10 6 0 10 5 10 10 0 6 -4 10 -10 10 -5 0
-10 -4 -10 -10z"/>
<path d="M1070 1166 c0 -9 -4 -14 -10 -11 -5 3 -10 1 -10 -4 0 -6 5 -11 10
-11 13 0 25 28 16 37 -3 4 -6 -1 -6 -11z"/>
<path d="M1210 1161 c0 -6 5 -13 10 -16 6 -3 10 1 10 9 0 9 -4 16 -10 16 -5 0
-10 -4 -10 -9z"/>
<path d="M1667 1153 c3 -7 9 -10 14 -7 14 8 11 21 -5 21 -8 0 -12 -6 -9 -14z"/>
<path d="M1730 1157 c0 -7 5 -18 12 -25 9 -9 8 -17 -2 -37 -15 -28 -28 -28
-44 -2 -8 13 -7 20 4 27 20 13 4 13 -21 0 -22 -12 -25 -30 -6 -30 8 0 22 -10
33 -22 16 -18 17 -21 2 -15 -12 4 -15 2 -11 -9 7 -20 21 -17 28 6 3 11 10 20
15 20 14 0 21 31 14 66 -6 33 -24 48 -24 21z"/>
<path d="M1150 1150 c0 -5 7 -7 15 -4 8 4 15 8 15 10 0 2 -7 4 -15 4 -8 0 -15
-4 -15 -10z"/>
<path d="M1635 1150 c3 -5 8 -10 11 -10 2 0 4 5 4 10 0 6 -5 10 -11 10 -5 0
-7 -4 -4 -10z"/>
<path d="M1776 1145 c4 -8 11 -15 16 -15 6 0 5 6 -2 15 -7 8 -14 15 -16 15 -2
0 -1 -7 2 -15z"/>
<path d="M1120 1139 c0 -5 5 -7 10 -4 6 3 10 8 10 11 0 2 -4 4 -10 4 -5 0 -10
-5 -10 -11z"/>
<path d="M1841 1134 c0 -11 3 -14 6 -6 3 7 2 16 -1 19 -3 4 -6 -2 -5 -13z"/>
<path d="M1081 1121 c-12 -8 -12 -12 2 -25 20 -21 33 -21 16 0 -10 13 -10 17
2 25 8 5 10 9 4 9 -5 0 -16 -4 -24 -9z"/>
<path d="M1118 1103 c7 -3 16 -2 19 1 4 3 -2 6 -13 5 -11 0 -14 -3 -6 -6z"/>
<path d="M1235 1100 c-4 -6 -11 -8 -16 -5 -5 4 -9 2 -9 -4 0 -19 16 -19 28 0
7 10 10 19 8 19 -3 0 -8 -5 -11 -10z"/>
<path d="M1807 1095 c-4 -8 -2 -17 3 -20 6 -4 10 -4 10 -1 0 2 3 11 6 20 3 9
2 16 -4 16 -5 0 -12 -7 -15 -15z"/>
<path d="M1150 1084 c0 -8 5 -12 10 -9 6 3 10 10 10 16 0 5 -4 9 -10 9 -5 0
-10 -7 -10 -16z"/>
<path d="M1383 1088 c-23 -30 -24 -41 -2 -21 12 12 20 25 17 28 -3 3 -10 0
-15 -7z"/>
<path d="M1290 1080 c0 -7 -6 -10 -12 -8 -13 5 -43 -41 -33 -50 2 -3 17 -5 32
-6 20 -1 28 -6 27 -18 -1 -10 2 -16 6 -13 11 7 9 55 -2 55 -5 0 -18 -5 -29
-10 -21 -12 -26 -1 -8 17 6 6 18 9 25 6 16 -6 19 22 4 32 -5 3 -10 1 -10 -5z"/>
<path d="M1325 1080 c-3 -5 -2 -18 3 -27 5 -10 7 -24 4 -32 -3 -8 0 -11 6 -7
13 8 12 46 -1 46 -5 0 -4 7 3 15 8 9 9 15 2 15 -6 0 -14 -4 -17 -10z"/>
<path d="M1554 1065 c11 -8 22 -12 25 -9 6 6 -19 24 -34 24 -5 -1 -1 -7 9 -15z"/>
<path d="M1622 1073 c-6 -2 -10 -9 -6 -14 8 -14 21 -11 21 6 0 8 -1 15 -1 14
-1 0 -7 -3 -14 -6z"/>
<path d="M1656 1072 c-2 -4 -1 -14 5 -22 7 -12 9 -10 9 8 0 23 -5 28 -14 14z"/>
<path d="M1841 1039 c-7 -16 -16 -27 -21 -24 -4 3 -13 -2 -20 -10 -7 -8 -9
-15 -4 -15 4 0 -28 -26 -70 -57 -43 -32 -83 -58 -89 -58 -6 0 -12 -6 -14 -12
-7 -20 3 -16 69 27 34 22 66 40 70 40 4 0 8 6 8 13 0 8 11 20 25 27 13 7 22
17 19 22 -4 7 2 9 26 11 3 0 12 8 21 17 12 13 13 20 5 33 -10 13 -14 11 -25
-14z"/>
<path d="M1490 1053 c0 -15 18 -35 23 -27 3 5 -1 15 -9 22 -8 7 -14 9 -14 5z"/>
<path d="M1776 1045 c-3 -8 -1 -15 4 -15 6 0 10 7 10 15 0 8 -2 15 -4 15 -2 0
-6 -7 -10 -15z"/>
<path d="M1586 1034 c-21 -20 -20 -34 2 -34 13 0 14 2 3 9 -8 5 -9 11 -3 15 6
3 13 2 17 -4 10 -16 25 -12 25 8 0 14 -2 15 -10 2 -9 -13 -14 -7 -11 13 2 11
-6 8 -23 -9z"/>
<path d="M1443 1021 c0 -11 5 -17 9 -15 11 7 10 34 -1 34 -6 0 -9 -9 -8 -19z"/>
<path d="M1394 1023 c3 -6 -1 -19 -10 -27 -8 -9 -11 -16 -6 -16 5 0 15 7 22
15 11 13 11 18 0 28 -9 8 -11 9 -6 0z"/>
<path d="M1470 1016 c0 -2 7 -9 15 -16 9 -7 15 -8 15 -2 0 5 -7 12 -15 16 -8
3 -15 4 -15 2z"/>
<path d="M1678 1013 c6 -2 18 -2 25 0 6 3 1 5 -13 5 -14 0 -19 -2 -12 -5z"/>
<path d="M1646 984 c-3 -8 -10 -13 -15 -10 -5 3 -11 -1 -15 -9 -8 -21 11 -18
34 5 12 12 26 18 32 14 7 -4 8 -3 4 4 -10 17 -33 15 -40 -4z"/>
<path d="M1541 973 c0 -11 3 -13 6 -5 2 6 10 9 15 6 7 -4 8 -2 4 4 -11 18 -26
14 -25 -5z"/>
<path d="M1725 981 c-3 -5 -1 -12 5 -16 5 -3 10 1 10 9 0 18 -6 21 -15 7z"/>
<path d="M1040 975 c0 -2 10 -10 23 -16 20 -11 21 -11 8 4 -13 16 -31 23 -31
12z"/>
<path d="M1296 954 c-4 -9 -4 -19 -1 -22 2 -3 7 3 11 12 4 9 4 19 1 22 -2 3
-7 -3 -11 -12z"/>
<path d="M1580 949 c0 -5 -4 -8 -9 -4 -5 3 -13 0 -16 -6 -4 -5 -13 -8 -21 -5
-7 3 -16 1 -19 -4 -3 -5 -30 -7 -60 -5 -30 2 -57 -1 -61 -6 -3 -5 1 -10 8 -10
7 -1 23 -3 36 -4 12 -1 25 1 27 5 7 11 45 0 45 -12 0 -6 7 -4 16 3 9 8 22 14
28 14 22 2 46 18 46 31 0 8 -4 14 -10 14 -5 0 -10 -5 -10 -11z"/>
<path d="M1320 940 c0 -5 5 -10 10 -10 6 0 10 5 10 10 0 6 -4 10 -10 10 -5 0
-10 -4 -10 -10z"/>
<path d="M1090 937 c0 -3 17 -17 37 -33 20 -15 33 -23 29 -16 -8 13 -66 56
-66 49z"/>
<path d="M1200 927 c0 -9 17 -24 38 -34 20 -9 39 -20 42 -25 3 -4 36 -19 73
-32 55 -21 79 -25 140 -22 75 4 117 20 117 43 0 7 -7 10 -15 7 -8 -4 -15 -10
-15 -15 0 -5 -13 -9 -30 -9 -16 0 -30 -5 -30 -11 0 -5 -5 -7 -10 -4 -6 4 -7
11 -4 17 5 7 2 8 -5 4 -20 -13 -111 -13 -111 -1 0 6 -10 11 -22 12 -11 1 -25
8 -29 14 -6 10 -11 10 -22 1 -7 -7 -17 -9 -20 -5 -10 9 -9 25 1 19 5 -3 9 1 9
9 0 10 -8 12 -30 8 -17 -4 -28 -2 -25 3 3 5 -1 16 -10 24 -14 13 -15 12 -8 -5
7 -18 6 -18 -14 0 -17 16 -20 16 -20 2z"/>
<path d="M1343 922 c-7 -5 -3 -13 12 -25 18 -13 25 -14 31 -5 4 7 3 9 -1 5 -5
-4 -14 1 -20 12 -6 11 -15 17 -22 13z"/>
<path d="M1809 913 c-13 -16 -12 -17 4 -4 16 13 21 21 13 21 -2 0 -10 -8 -17
-17z"/>
<path d="M1150 856 c0 -3 9 -10 20 -16 11 -6 20 -8 20 -6 0 3 -9 10 -20 16
-11 6 -20 8 -20 6z"/>
<path d="M1676 837 c-15 -11 -13 -13 18 -12 20 1 39 5 43 10 5 4 -3 4 -16 0
-16 -5 -21 -4 -17 4 10 15 -6 14 -28 -2z"/>
<path d="M1240 830 c0 -5 5 -10 11 -10 5 0 7 5 4 10 -3 6 -8 10 -11 10 -2 0
-4 -4 -4 -10z"/>
<path d="M1304 795 c11 -8 25 -15 30 -15 6 0 2 7 -8 15 -11 8 -25 15 -30 15
-6 0 -2 -7 8 -15z"/>
<path d="M1610 794 c-25 -7 -74 -17 -110 -22 l-65 -9 56 -2 c48 -1 179 32 179
45 0 6 -9 4 -60 -12z"/>
<path d="M1385 770 c3 -5 14 -10 23 -10 15 0 15 2 2 10 -20 13 -33 13 -25 0z"/>
<path d="M1470 679 c0 -5 5 -7 10 -4 6 3 10 8 10 11 0 2 -4 4 -10 4 -5 0 -10
-5 -10 -11z"/>
<path d="M890 1159 c-19 -22 -42 -41 -50 -43 -20 -2 -110 -45 -136 -65 -12 -9
-32 -23 -44 -31 -12 -8 -32 -23 -44 -33 l-21 -18 24 7 c17 4 21 3 16 -6 -4 -6
-16 -9 -27 -6 -12 2 -43 -7 -72 -21 -28 -14 -61 -31 -73 -37 -13 -6 -23 -14
-23 -17 0 -4 -26 -19 -57 -35 -32 -16 -61 -33 -65 -39 -4 -5 -8 -6 -8 -1 0 5
-12 -3 -26 -18 -25 -24 -32 -28 -50 -25 -4 0 -10 -3 -13 -8 -3 -5 -27 -21 -54
-36 -50 -30 -59 -43 -28 -43 11 0 17 4 15 8 -3 5 3 11 13 15 10 4 33 18 51 31
17 13 32 21 32 16 0 -4 11 3 24 15 14 13 29 20 34 17 5 -3 12 4 15 15 5 17 12
21 35 17 22 -3 29 0 28 11 -1 12 9 16 41 16 23 0 45 4 50 9 4 5 3 6 -3 3 -7
-4 -17 0 -24 8 -11 14 -7 19 13 16 4 0 7 3 7 8 0 12 29 23 42 15 5 -3 1 -12
-9 -20 -22 -16 -10 -18 18 -3 20 10 20 11 2 25 -17 14 -16 15 7 10 14 -3 32
-1 40 4 12 8 11 10 -5 10 -17 0 -17 2 -5 10 8 5 23 7 33 4 10 -3 25 0 33 7 11
9 18 8 35 -7 17 -16 19 -16 13 -1 -7 20 -1 21 28 6 15 -8 19 -8 13 0 -3 6 -21
18 -38 25 -18 8 -26 15 -19 15 7 1 22 -4 34 -10 11 -6 22 -8 25 -5 3 3 -7 10
-23 16 l-28 11 29 24 c17 13 34 21 39 18 5 -4 6 0 1 8 -8 12 -6 12 8 0 15 -12
17 -11 17 2 0 17 34 32 50 22 5 -3 10 -12 10 -20 0 -8 5 -17 12 -21 8 -5 9 0
5 16 -4 17 2 31 28 56 27 26 73 95 63 94 -2 -1 -19 -19 -38 -41z"/>
<path d="M857 1025 c-4 -8 -2 -17 3 -20 6 -4 10 3 10 14 0 25 -6 27 -13 6z"/>
<path d="M735 1010 c3 -5 11 -10 16 -10 6 0 7 5 4 10 -3 6 -11 10 -16 10 -6 0
-7 -4 -4 -10z"/>
<path d="M778 981 c-26 -21 -45 -41 -42 -44 3 -3 -2 -19 -10 -36 -18 -35 -20
-51 -6 -51 6 0 10 7 10 15 0 27 39 88 77 122 51 46 28 41 -29 -6z"/>
<path d="M1992 985 c-1 -22 -5 -51 -8 -65 -5 -19 -4 -22 5 -14 8 7 11 32 8 65
-3 44 -4 47 -5 14z"/>
<path d="M2090 986 c0 -31 6 -34 13 -6 3 11 1 23 -4 26 -5 3 -9 -6 -9 -20z"/>
<path d="M836 945 c2 -32 7 -68 11 -80 4 -11 7 -28 7 -37 1 -20 165 -192 174
-183 3 3 -17 29 -45 58 -28 28 -61 68 -73 87 -12 19 -19 26 -16 16 5 -15 4
-17 -7 -7 -17 13 -30 77 -30 143 0 26 -3 45 -8 43 -4 -3 -10 1 -12 7 -3 7 -4
-14 -1 -47z"/>
<path d="M2028 983 c7 -3 16 -2 19 1 4 3 -2 6 -13 5 -11 0 -14 -3 -6 -6z"/>
<path d="M930 956 c0 -8 4 -17 9 -20 5 -4 7 3 4 14 -6 23 -13 26 -13 6z"/>
<path d="M2040 942 c0 -18 5 -32 10 -32 6 0 8 11 4 28 -10 39 -14 40 -14 4z"/>
<path d="M774 880 c-12 -36 -19 -72 -16 -80 4 -9 9 3 14 29 4 24 12 49 18 57
7 7 10 23 8 36 -2 15 -9 3 -24 -42z"/>
<path d="M600 909 c0 -5 5 -7 10 -4 6 3 10 8 10 11 0 2 -4 4 -10 4 -5 0 -10
-5 -10 -11z"/>
<path d="M2081 898 c-1 -35 -19 -81 -34 -90 -8 -5 -6 -8 5 -8 19 0 42 67 35
103 -4 18 -5 18 -6 -5z"/>
<path d="M570 886 c0 -8 4 -17 9 -20 5 -4 7 3 4 14 -6 23 -13 26 -13 6z"/>
<path d="M900 883 c0 -5 5 -14 11 -20 6 -6 12 -19 13 -29 2 -10 8 -20 15 -22
8 -3 8 3 -1 25 -14 30 -38 60 -38 46z"/>
<path d="M1971 881 c-8 -5 -9 -11 -3 -15 5 -3 12 1 16 9 6 17 6 18 -13 6z"/>
<path d="M2130 875 c0 -8 4 -15 10 -15 5 0 7 7 4 15 -4 8 -8 15 -10 15 -2 0
-4 -7 -4 -15z"/>
<path d="M2284 879 c-6 -10 35 -133 43 -126 2 3 -5 29 -17 58 -24 65 -24 70
-5 63 8 -4 15 -4 15 -1 0 11 -30 16 -36 6z"/>
<path d="M2365 880 c-3 -5 -2 -10 4 -10 5 0 18 -3 28 -7 16 -6 16 -5 4 10 -15
19 -27 22 -36 7z"/>
<path d="M2470 870 c0 -5 5 -10 11 -10 5 0 7 5 4 10 -3 6 -8 10 -11 10 -2 0
-4 -4 -4 -10z"/>
<path d="M880 861 c0 -5 5 -13 10 -16 6 -3 10 -2 10 4 0 5 -4 13 -10 16 -5 3
-10 2 -10 -4z"/>
<path d="M2221 865 c1 -19 18 -51 18 -35 0 8 -4 22 -9 30 -5 8 -9 11 -9 5z"/>
<path d="M535 817 c-4 -26 -5 -51 -1 -54 3 -4 6 5 6 19 0 14 7 31 15 38 8 7
15 18 15 24 0 6 -4 5 -9 -3 -7 -11 -10 -10 -13 5 -3 11 -8 -2 -13 -29z"/>
<path d="M2317 853 c-3 -5 -1 -17 4 -28 7 -17 8 -17 8 8 1 27 -4 34 -12 20z"/>
<path d="M1953 831 c0 -11 5 -17 9 -15 4 3 8 0 8 -7 0 -7 3 -10 6 -6 8 8 -5
47 -16 47 -5 0 -8 -9 -7 -19z"/>
<path d="M2141 839 c-1 -9 5 -35 13 -57 8 -22 12 -43 9 -45 -3 -3 0 -14 7 -24
9 -15 10 -9 6 29 -6 48 -34 126 -35 97z"/>
<path d="M2476 835 c3 -8 10 -13 14 -10 5 3 11 -3 13 -12 4 -16 5 -17 6 -1 0
10 -8 22 -19 28 -16 9 -18 8 -14 -5z"/>
<path d="M442 828 c10 -8 10 -11 0 -15 -12 -5 -37 -43 -28 -43 2 0 20 15 40
33 l35 34 -30 0 c-21 0 -26 -3 -17 -9z"/>
<path d="M600 824 c0 -8 5 -12 10 -9 6 4 8 11 5 16 -9 14 -15 11 -15 -7z"/>
<path d="M675 820 c-3 -5 -1 -10 4 -10 6 0 11 5 11 10 0 6 -2 10 -4 10 -3 0
-8 -4 -11 -10z"/>
<path d="M790 820 c0 -5 5 -10 11 -10 5 0 7 5 4 10 -3 6 -8 10 -11 10 -2 0 -4
-4 -4 -10z"/>
<path d="M977 819 c6 -6 9 -18 6 -25 -3 -8 0 -14 6 -14 6 0 11 11 11 25 0 17
-6 25 -17 25 -13 0 -14 -3 -6 -11z"/>
<path d="M1050 820 c0 -6 10 -21 21 -33 12 -12 19 -15 15 -7 -3 8 -9 23 -12
33 -7 18 -24 24 -24 7z"/>
<path d="M628 813 c-3 -4 -5 -30 -6 -58 l0 -50 9 54 c9 50 7 74 -3 54z"/>
<path d="M481 788 c-7 -11 -9 -24 -4 -29 4 -4 13 3 20 16 14 31 2 41 -16 13z"/>
<path d="M1894 802 c4 -7 3 -12 -2 -12 -5 0 -12 -11 -14 -25 -7 -33 -3 -32 15
5 11 20 12 32 5 36 -7 4 -8 2 -4 -4z"/>
<path d="M2238 776 c-2 -22 1 -37 8 -40 9 -4 11 5 7 32 -8 49 -10 50 -15 8z"/>
<path d="M2531 794 c0 -11 3 -14 6 -6 3 7 2 16 -1 19 -3 4 -6 -2 -5 -13z"/>
<path d="M2417 781 c5 -20 33 -19 33 2 0 6 -3 7 -7 4 -3 -4 -12 -2 -19 4 -9 8
-11 5 -7 -10z"/>
<path d="M2034 775 c-5 -13 -9 -13 -23 -3 -14 12 -15 11 -2 -4 11 -15 11 -21
1 -33 -7 -8 -9 -15 -6 -15 12 0 33 25 40 48 8 25 -1 31 -10 7z"/>
<path d="M354 769 c-9 -16 2 -22 21 -11 15 8 16 10 1 15 -8 3 -18 2 -22 -4z"/>
<path d="M751 764 c0 -11 3 -14 6 -6 3 7 2 16 -1 19 -3 4 -6 -2 -5 -13z"/>
<path d="M2344 755 c4 -16 12 -34 17 -40 5 -5 4 6 -2 25 -15 45 -24 54 -15 15z"/>
<path d="M2587 761 c-4 -17 -3 -21 5 -13 5 5 8 16 6 23 -3 8 -7 3 -11 -10z"/>
<path d="M591 754 c0 -11 3 -14 6 -6 3 7 2 16 -1 19 -3 4 -6 -2 -5 -13z"/>
<path d="M780 730 c0 -22 2 -40 4 -40 2 0 6 18 8 40 2 22 0 40 -4 40 -5 0 -8
-18 -8 -40z"/>
<path d="M306 753 c-4 -5 -11 -8 -14 -9 -19 -2 -50 -20 -71 -41 -29 -28 -19
-30 16 -4 13 11 31 17 40 14 11 -4 14 -2 9 5 -4 7 -3 12 1 12 14 0 50 29 37
30 -6 0 -14 -3 -18 -7z"/>
<path d="M551 744 c0 -11 3 -14 6 -6 3 7 2 16 -1 19 -3 4 -6 -2 -5 -13z"/>
<path d="M670 744 c0 -8 5 -12 10 -9 6 3 10 10 10 16 0 5 -4 9 -10 9 -5 0 -10
-7 -10 -16z"/>
<path d="M1901 720 c-11 -22 -17 -40 -13 -40 9 1 45 71 39 77 -3 2 -14 -14
-26 -37z"/>
<path d="M1941 724 c-17 -46 -2 -67 29 -39 11 10 18 21 15 23 -3 3 -12 -3 -19
-14 -20 -27 -32 -9 -16 24 8 15 16 30 18 35 2 4 -1 7 -5 7 -5 0 -15 -16 -22
-36z"/>
<path d="M2450 750 c0 -5 5 -10 11 -10 5 0 7 5 4 10 -3 6 -8 10 -11 10 -2 0
-4 -4 -4 -10z"/>
<path d="M523 735 c0 -8 4 -15 9 -15 4 0 8 4 8 9 0 6 -4 12 -8 15 -5 3 -9 -1
-9 -9z"/>
<path d="M1090 740 c0 -5 5 -10 11 -10 5 0 7 5 4 10 -3 6 -8 10 -11 10 -2 0
-4 -4 -4 -10z"/>
<path d="M2125 740 c3 -5 8 -10 11 -10 2 0 4 5 4 10 0 6 -5 10 -11 10 -5 0 -7
-4 -4 -10z"/>
<path d="M1779 738 c-6 -11 -3 -58 3 -58 4 0 6 13 5 30 -2 27 -4 35 -8 28z"/>
<path d="M1827 726 c-4 -10 -1 -13 9 -9 15 6 19 23 5 23 -5 0 -11 -7 -14 -14z"/>
<path d="M2600 725 c0 -8 2 -15 4 -15 2 0 6 7 10 15 3 8 1 15 -4 15 -6 0 -10
-7 -10 -15z"/>
<path d="M408 723 c7 -3 16 -2 19 1 4 3 -2 6 -13 5 -11 0 -14 -3 -6 -6z"/>
<path d="M467 716 c-4 -10 -1 -13 8 -9 8 3 12 9 9 14 -7 12 -11 11 -17 -5z"/>
<path d="M1051 714 c0 -11 3 -14 6 -6 3 7 2 16 -1 19 -3 4 -6 -2 -5 -13z"/>
<path d="M2535 700 c3 -19 6 -41 7 -47 2 -18 15 -16 22 2 3 8 1 15 -4 15 -5 0
-14 15 -20 33 l-10 32 5 -35z"/>
<path d="M2660 713 c0 -10 4 -34 9 -53 5 -19 12 -73 15 -119 2 -46 7 -86 10
-89 6 -5 11 83 6 103 -1 6 -4 28 -5 50 -4 68 -35 162 -35 108z"/>
<path d="M2790 722 c0 -12 19 -26 26 -19 2 2 -2 10 -11 17 -9 8 -15 8 -15 2z"/>
<path d="M1726 692 c-4 -13 -5 -26 -2 -29 10 -11 18 4 14 29 l-4 23 -8 -23z"/>
<path d="M2037 664 c3 -27 7 -51 9 -53 8 -9 3 75 -5 88 -5 8 -7 -5 -4 -35z"/>
<path d="M2230 700 c0 -5 7 -7 15 -4 8 4 15 8 15 10 0 2 -7 4 -15 4 -8 0 -15
-4 -15 -10z"/>
<path d="M2459 695 c-7 -25 5 -77 12 -55 3 8 3 29 -1 45 -5 25 -7 26 -11 10z"/>
<path d="M2728 704 c-4 -3 -2 -18 2 -34 4 -16 6 -31 3 -33 -3 -3 0 -14 7 -24
11 -17 11 -17 6 1 -6 16 -4 17 9 6 14 -12 15 -10 9 16 -9 37 -22 74 -27 74 -2
0 -6 -3 -9 -6z"/>
<path d="M2350 691 c0 -5 5 -13 10 -16 6 -3 10 -2 10 4 0 5 -4 13 -10 16 -5 3
-10 2 -10 -4z"/>
<path d="M2420 691 c0 -6 4 -13 10 -16 6 -3 7 1 4 9 -7 18 -14 21 -14 7z"/>
<path d="M2605 690 c3 -5 8 -10 11 -10 2 0 4 5 4 10 0 6 -5 10 -11 10 -5 0 -7
-4 -4 -10z"/>
<path d="M94 676 c-3 -9 -10 -13 -15 -10 -5 3 -9 0 -9 -6 0 -6 -12 -16 -27
-23 -29 -12 -43 -25 -43 -41 0 -6 9 0 20 12 26 27 62 30 53 5 -3 -10 -3 -15 1
-11 4 3 8 12 10 20 3 25 17 39 29 29 8 -6 16 -4 25 5 7 8 10 15 7 15 -3 1 -8
2 -12 3 -5 1 -14 5 -21 9 -7 5 -14 2 -18 -7z"/>
<path d="M513 660 c0 -20 3 -26 9 -18 10 17 10 48 0 48 -5 0 -9 -14 -9 -30z"/>
<path d="M2171 674 c0 -11 3 -14 6 -6 3 7 2 16 -1 19 -3 4 -6 -2 -5 -13z"/>
<path d="M400 670 c-8 -5 -10 -10 -5 -10 6 0 17 5 25 10 8 5 11 10 5 10 -5 0
-17 -5 -25 -10z"/>
<path d="M780 635 c0 -27 2 -46 5 -43 8 8 9 77 2 85 -4 3 -7 -15 -7 -42z"/>
<path d="M1795 669 c-4 -6 2 -19 14 -30 12 -11 21 -15 21 -10 0 5 -5 13 -11
16 -6 4 -8 13 -5 21 6 16 -10 19 -19 3z"/>
<path d="M1992 655 c0 -16 2 -22 5 -12 2 9 2 23 0 30 -3 6 -5 -1 -5 -18z"/>
<path d="M2822 655 c0 -16 2 -22 5 -12 2 9 2 23 0 30 -3 6 -5 -1 -5 -18z"/>
<path d="M1595 659 c-11 -16 -1 -19 13 -3 7 8 8 14 3 14 -5 0 -13 -5 -16 -11z"/>
<path d="M1866 655 c-9 -26 -7 -32 5 -12 6 10 9 21 6 23 -2 3 -7 -2 -11 -11z"/>
<path d="M1900 645 c-13 -14 -19 -25 -13 -25 12 0 48 38 41 45 -2 3 -15 -6
-28 -20z"/>
<path d="M2258 650 c-7 -24 -3 -38 8 -28 3 4 4 17 2 30 l-3 23 -7 -25z"/>
<path d="M465 650 c-3 -5 -1 -10 4 -10 6 0 11 5 11 10 0 6 -2 10 -4 10 -3 0
-8 -4 -11 -10z"/>
<path d="M1260 651 c0 -6 4 -13 10 -16 6 -3 7 1 4 9 -7 18 -14 21 -14 7z"/>
<path d="M1310 656 c0 -2 8 -10 18 -17 15 -13 16 -12 3 4 -13 16 -21 21 -21
13z"/>
<path d="M1747 639 c-19 -22 -16 -49 5 -49 10 0 10 2 -1 9 -11 7 -10 13 4 35
21 31 16 34 -8 5z"/>
<path d="M1952 611 c-2 -27 2 -52 8 -56 6 -4 10 13 10 49 0 69 -14 74 -18 7z"/>
<path d="M2375 649 c-4 -6 -5 -12 -2 -15 2 -3 7 2 10 11 7 17 1 20 -8 4z"/>
<path d="M2430 650 c0 -5 5 -10 11 -10 5 0 7 5 4 10 -3 6 -8 10 -11 10 -2 0
-4 -4 -4 -10z"/>
<path d="M620 641 c0 -7 -4 -10 -8 -7 -4 2 -8 -4 -8 -15 0 -10 3 -19 7 -19 8
0 20 42 14 49 -3 2 -5 -1 -5 -8z"/>
<path d="M2900 643 c0 -4 5 -15 10 -23 8 -13 10 -13 10 2 0 9 -4 20 -10 23 -5
3 -10 3 -10 -2z"/>
<path d="M187 633 c-10 -9 -9 -51 1 -57 4 -2 8 11 8 30 0 37 0 37 -9 27z"/>
<path d="M390 631 c0 -10 19 -25 25 -20 1 2 -3 10 -11 17 -8 7 -14 8 -14 3z"/>
<path d="M936 625 c-3 -8 -1 -15 4 -15 6 0 10 7 10 15 0 8 -2 15 -4 15 -2 0
-6 -7 -10 -15z"/>
<path d="M1630 629 c0 -5 5 -7 10 -4 6 3 10 8 10 11 0 2 -4 4 -10 4 -5 0 -10
-5 -10 -11z"/>
<path d="M1770 625 c-11 -13 -10 -14 4 -9 9 3 16 10 16 15 0 13 -6 11 -20 -6z"/>
<path d="M2615 630 c3 -5 8 -10 11 -10 2 0 4 5 4 10 0 6 -5 10 -11 10 -5 0 -7
-4 -4 -10z"/>
<path d="M466 621 c-4 -7 -5 -15 -2 -18 9 -9 19 4 14 18 -4 11 -6 11 -12 0z"/>
<path d="M987 615 c3 -8 9 -12 14 -9 12 7 11 11 -5 17 -10 4 -13 1 -9 -8z"/>
<path d="M2435 621 c-3 -5 -1 -12 5 -16 5 -3 10 1 10 9 0 18 -6 21 -15 7z"/>
<path d="M511 608 c-1 -20 14 -24 25 -6 4 6 3 8 -4 4 -5 -3 -13 0 -15 6 -3 8
-6 6 -6 -4z"/>
<path d="M1656 590 c-16 -17 -26 -30 -21 -30 8 0 55 47 55 56 0 7 -4 4 -34
-26z"/>
<path d="M1835 611 c-3 -5 2 -11 10 -15 8 -3 17 -1 20 3 3 5 -2 11 -10 15 -8
3 -17 1 -20 -3z"/>
<path d="M2151 604 c0 -11 3 -14 6 -6 3 7 2 16 -1 19 -3 4 -6 -2 -5 -13z"/>
<path d="M2471 604 c0 -11 3 -14 6 -6 3 7 2 16 -1 19 -3 4 -6 -2 -5 -13z"/>
<path d="M1587 583 c-11 -13 -17 -26 -14 -29 2 -3 12 7 21 22 23 33 17 39 -7
7z"/>
<path d="M1890 595 c0 -8 2 -15 4 -15 2 0 6 7 10 15 3 8 1 15 -4 15 -6 0 -10
-7 -10 -15z"/>
<path d="M2094 585 c7 -37 16 -44 16 -12 0 14 -5 29 -10 32 -7 4 -9 -3 -6 -20z"/>
<path d="M2257 603 c-12 -11 -8 -30 7 -30 8 0 11 8 8 19 -5 20 -6 21 -15 11z"/>
<path d="M2302 590 c0 -14 2 -19 5 -12 2 6 2 18 0 25 -3 6 -5 1 -5 -13z"/>
<path d="M2851 594 c0 -11 3 -14 6 -6 3 7 2 16 -1 19 -3 4 -6 -2 -5 -13z"/>
<path d="M220 589 c0 -5 5 -7 10 -4 6 3 10 8 10 11 0 2 -4 4 -10 4 -5 0 -10
-5 -10 -11z"/>
<path d="M1808 592 c9 -6 6 -12 -13 -20 -14 -6 -25 -17 -25 -23 0 -8 6 -7 18
3 9 8 26 18 37 22 16 6 17 9 5 16 -8 6 -19 10 -25 10 -5 0 -4 -4 3 -8z"/>
<path d="M2550 585 c0 -8 4 -15 10 -15 5 0 7 7 4 15 -4 8 -8 15 -10 15 -2 0
-4 -7 -4 -15z"/>
<path d="M2916 570 c6 -38 11 -47 21 -37 3 4 -1 22 -10 40 l-16 32 5 -35z"/>
<path d="M100 575 c0 -8 4 -15 10 -15 5 0 7 7 4 15 -4 8 -8 15 -10 15 -2 0 -4
-7 -4 -15z"/>
<path d="M400 580 c0 -5 5 -10 10 -10 6 0 10 5 10 10 0 6 -4 10 -10 10 -5 0
-10 -4 -10 -10z"/>
<path d="M1265 568 c19 -26 61 -45 73 -33 3 3 -2 5 -11 5 -8 0 -30 12 -48 28
l-33 27 19 -27z"/>
<path d="M1993 555 c0 -22 2 -30 4 -17 2 12 2 30 0 40 -3 9 -5 -1 -4 -23z"/>
<path d="M2762 570 c0 -14 2 -19 5 -12 2 6 2 18 0 25 -3 6 -5 1 -5 -13z"/>
<path d="M770 569 c0 -5 5 -7 10 -4 6 3 10 8 10 11 0 2 -4 4 -10 4 -5 0 -10
-5 -10 -11z"/>
<path d="M1931 564 c0 -11 3 -14 6 -6 3 7 2 16 -1 19 -3 4 -6 -2 -5 -13z"/>
<path d="M2642 560 c0 -14 2 -19 5 -12 2 6 2 18 0 25 -3 6 -5 1 -5 -13z"/>
<path d="M682 550 c0 -14 2 -19 5 -12 2 6 2 18 0 25 -3 6 -5 1 -5 -13z"/>
<path d="M1840 538 c-14 -18 -44 -52 -67 -76 -24 -24 -43 -46 -43 -48 0 -11
20 -1 38 19 57 62 72 81 72 88 0 5 7 9 15 9 8 0 15 9 15 20 0 25 0 25 -30 -12z"/>
<path d="M2147 558 c4 -7 8 -16 8 -20 0 -14 11 -15 23 -2 11 12 10 14 -3 14
-8 0 -15 5 -15 10 0 6 -5 10 -11 10 -6 0 -7 -5 -2 -12z"/>
<path d="M2801 554 c0 -11 3 -14 6 -6 3 7 2 16 -1 19 -3 4 -6 -2 -5 -13z"/>
<path d="M226 545 c4 -8 8 -15 10 -15 2 0 4 7 4 15 0 8 -4 15 -10 15 -5 0 -7
-7 -4 -15z"/>
<path d="M286 547 c3 -10 9 -15 12 -12 3 3 0 11 -7 18 -10 9 -11 8 -5 -6z"/>
<path d="M1230 556 c0 -2 7 -7 16 -10 8 -3 12 -2 9 4 -6 10 -25 14 -25 6z"/>
<path d="M1891 517 c-1 -40 1 -46 13 -35 9 8 10 15 4 19 -6 4 -8 11 -6 15 3 5
2 18 -3 29 -5 14 -8 7 -8 -28z"/>
<path d="M2454 538 c3 -13 6 -40 6 -60 0 -21 5 -38 11 -38 5 0 8 4 5 8 -3 5
-6 32 -7 60 -2 29 -7 52 -12 52 -5 0 -7 -10 -3 -22z"/>
<path d="M2257 539 c7 -7 15 -10 18 -7 3 3 -2 9 -12 12 -14 6 -15 5 -6 -5z"/>
<path d="M2822 525 c0 -16 2 -22 5 -12 2 9 2 23 0 30 -3 6 -5 -1 -5 -18z"/>
<path d="M190 525 c0 -8 4 -15 10 -15 5 0 7 7 4 15 -4 8 -8 15 -10 15 -2 0 -4
-7 -4 -15z"/>
<path d="M1690 530 c-12 -8 -11 -10 7 -10 12 0 25 5 28 10 8 13 -15 13 -35 0z"/>
<path d="M1958 533 c-2 -4 -5 -26 -6 -48 l-1 -40 9 44 c9 41 8 63 -2 44z"/>
<path d="M2545 530 c-3 -5 -1 -10 4 -10 6 0 11 5 11 10 0 6 -2 10 -4 10 -3 0
-8 -4 -11 -10z"/>
<path d="M420 521 c0 -6 4 -13 10 -16 6 -3 7 1 4 9 -7 18 -14 21 -14 7z"/>
<path d="M1370 520 c0 -5 5 -10 10 -10 6 0 10 5 10 10 0 6 -4 10 -10 10 -5 0
-10 -4 -10 -10z"/>
<path d="M1572 515 l-23 -12 25 -5 c15 -3 23 -1 19 5 -3 5 1 13 8 18 21 13 -3
9 -29 -6z"/>
<path d="M1736 513 c-6 -14 -5 -15 5 -6 7 7 10 15 7 18 -3 3 -9 -2 -12 -12z"/>
<path d="M2481 503 c-1 -17 4 -35 9 -38 12 -7 12 22 0 50 -7 17 -9 15 -9 -12z"/>
<path d="M2891 514 c0 -11 3 -14 6 -6 3 7 2 16 -1 19 -3 4 -6 -2 -5 -13z"/>
<path d="M277 514 c-13 -13 -7 -26 9 -20 13 5 15 1 10 -19 -4 -15 -2 -25 4
-25 14 0 9 62 -6 67 -5 2 -13 0 -17 -3z"/>
<path d="M2310 507 c0 -9 4 -18 9 -21 5 -4 8 1 7 9 -3 21 -16 31 -16 12z"/>
<path d="M1707 496 c-4 -10 -5 -21 -2 -24 9 -9 17 6 13 25 -3 17 -4 17 -11 -1z"/>
<path d="M1995 500 c3 -5 8 -10 11 -10 2 0 4 5 4 10 0 6 -5 10 -11 10 -5 0 -7
-4 -4 -10z"/>
<path d="M2157 490 c3 -11 7 -20 9 -20 2 0 4 9 4 20 0 11 -4 20 -9 20 -5 0 -7
-9 -4 -20z"/>
<path d="M2601 494 c0 -11 3 -14 6 -6 3 7 2 16 -1 19 -3 4 -6 -2 -5 -13z"/>
<path d="M652 480 c0 -14 2 -19 5 -12 2 6 2 18 0 25 -3 6 -5 1 -5 -13z"/>
<path d="M2100 489 c0 -5 5 -7 10 -4 6 3 10 8 10 11 0 2 -4 4 -10 4 -5 0 -10
-5 -10 -11z"/>
<path d="M2525 490 c3 -5 8 -10 11 -10 2 0 4 5 4 10 0 6 -5 10 -11 10 -5 0 -7
-4 -4 -10z"/>
<path d="M21 474 c0 -11 3 -14 6 -6 3 7 2 16 -1 19 -3 4 -6 -2 -5 -13z"/>
<path d="M1000 481 c0 -6 4 -13 10 -16 6 -3 7 1 4 9 -7 18 -14 21 -14 7z"/>
<path d="M1492 453 l1 -38 4 33 c4 28 7 31 19 21 12 -10 13 -9 8 5 -12 32 -34
18 -32 -21z"/>
<path d="M1854 470 c0 -11 4 -20 8 -20 4 0 8 9 8 20 0 11 -4 20 -8 20 -4 0 -8
-9 -8 -20z"/>
<path d="M2072 470 c0 -14 2 -19 5 -12 2 6 2 18 0 25 -3 6 -5 1 -5 -13z"/>
<path d="M2560 469 c0 -11 4 -18 10 -14 5 3 7 12 3 20 -7 21 -13 19 -13 -6z"/>
<path d="M2891 474 c-1 -23 24 -40 34 -24 4 6 -1 10 -9 10 -8 0 -17 8 -19 18
-4 13 -5 12 -6 -4z"/>
<path d="M530 465 c0 -8 4 -15 10 -15 5 0 7 7 4 15 -4 8 -8 15 -10 15 -2 0 -4
-7 -4 -15z"/>
<path d="M392 440 c0 -19 2 -27 5 -17 2 9 2 25 0 35 -3 9 -5 1 -5 -18z"/>
<path d="M1540 460 c0 -6 4 -10 9 -10 4 0 7 -12 4 -27 -3 -24 -2 -25 6 -8 14
29 13 42 -4 49 -8 3 -15 1 -15 -4z"/>
<path d="M1990 460 c0 -5 5 -10 10 -10 6 0 10 5 10 10 0 6 -4 10 -10 10 -5 0
-10 -4 -10 -10z"/>
<path d="M2031 454 c0 -11 3 -14 6 -6 3 7 2 16 -1 19 -3 4 -6 -2 -5 -13z"/>
<path d="M2603 450 c5 -31 17 -36 17 -7 0 15 -4 27 -10 27 -5 0 -9 -9 -7 -20z"/>
<path d="M2636 453 c-6 -14 -5 -15 5 -6 7 7 10 15 7 18 -3 3 -9 -2 -12 -12z"/>
<path d="M116 435 c8 -37 14 -45 14 -19 0 10 -5 26 -10 34 -8 11 -9 7 -4 -15z"/>
<path d="M861 444 c0 -11 3 -14 6 -6 3 7 2 16 -1 19 -3 4 -6 -2 -5 -13z"/>
<path d="M1711 444 c0 -11 3 -14 6 -6 3 7 2 16 -1 19 -3 4 -6 -2 -5 -13z"/>
<path d="M1891 444 c0 -11 3 -14 6 -6 3 7 2 16 -1 19 -3 4 -6 -2 -5 -13z"/>
<path d="M1007 443 c-4 -3 -7 -11 -7 -17 0 -6 5 -5 12 2 6 6 9 14 7 17 -3 3
-9 2 -12 -2z"/>
<path d="M1430 443 c0 -6 -11 -9 -24 -8 -29 4 -40 -16 -22 -40 16 -22 44 -16
63 11 12 18 11 23 -2 34 -8 7 -15 8 -15 3z"/>
<path d="M1633 428 c-2 -16 1 -18 10 -9 7 7 8 14 1 21 -6 6 -10 2 -11 -12z"/>
<path d="M2164 440 c2 -16 20 -14 24 2 3 10 2 10 -6 -1 -7 -9 -11 -10 -15 -2
-4 7 -5 8 -3 1z"/>
<path d="M2390 439 c0 -5 5 -7 10 -4 6 3 10 8 10 11 0 2 -4 4 -10 4 -5 0 -10
-5 -10 -11z"/>
<path d="M2491 434 c0 -11 3 -14 6 -6 3 7 2 16 -1 19 -3 4 -6 -2 -5 -13z"/>
<path d="M355 430 c-3 -5 -1 -10 4 -10 6 0 11 5 11 10 0 6 -2 10 -4 10 -3 0
-8 -4 -11 -10z"/>
<path d="M655 430 c3 -5 8 -10 11 -10 2 0 4 5 4 10 0 6 -5 10 -11 10 -5 0 -7
-4 -4 -10z"/>
<path d="M1952 415 c0 -16 2 -22 5 -12 2 9 2 23 0 30 -3 6 -5 -1 -5 -18z"/>
<path d="M1990 435 c0 -5 5 -17 10 -25 5 -8 10 -10 10 -5 0 6 -5 17 -10 25 -5
8 -10 11 -10 5z"/>
<path d="M2100 433 c0 -4 5 -15 10 -23 8 -13 10 -13 10 2 0 9 -4 20 -10 23 -5
3 -10 3 -10 -2z"/>
<path d="M2220 425 c-11 -13 -10 -14 4 -9 9 3 16 10 16 15 0 13 -6 11 -20 -6z"/>
<path d="M2280 430 c0 -5 7 -7 15 -4 8 4 15 8 15 10 0 2 -7 4 -15 4 -8 0 -15
-4 -15 -10z"/>
<path d="M2690 420 c0 -11 4 -20 9 -20 5 0 7 9 4 20 -3 11 -7 20 -9 20 -2 0
-4 -9 -4 -20z"/>
<path d="M530 400 c0 -16 2 -30 4 -30 2 0 6 14 8 30 3 17 1 30 -4 30 -4 0 -8
-13 -8 -30z"/>
<path d="M2901 403 c-1 -17 4 -35 9 -38 12 -7 12 22 0 50 -7 17 -9 15 -9 -12z"/>
<path d="M161 393 c-1 -18 4 -33 9 -33 12 0 12 17 0 45 -7 17 -9 15 -9 -12z"/>
<path d="M751 404 c0 -11 3 -14 6 -6 3 7 2 16 -1 19 -3 4 -6 -2 -5 -13z"/>
<path d="M1572 414 c4 -4 3 -15 -3 -25 -13 -24 -8 -24 13 0 15 18 15 20 0 26
-9 3 -13 3 -10 -1z"/>
<path d="M1710 406 c0 -9 -7 -16 -16 -16 -8 0 -12 -4 -9 -10 8 -13 18 -13 39
3 16 12 16 14 2 26 -14 11 -16 11 -16 -3z"/>
<path d="M1777 401 c-3 -11 1 -22 8 -24 8 -4 10 3 7 19 -5 29 -8 30 -15 5z"/>
<path d="M1884 390 c3 -40 15 -50 14 -11 -1 18 -4 34 -9 36 -4 3 -6 -8 -5 -25z"/>
<path d="M2470 374 c0 -28 -6 -56 -12 -64 -11 -12 -10 -12 3 -2 9 6 18 9 21 7
3 -3 4 18 1 47 -5 68 -13 75 -13 12z"/>
<path d="M2730 406 c0 -9 5 -16 10 -16 6 0 10 4 10 9 0 6 -4 13 -10 16 -5 3
-10 -1 -10 -9z"/>
<path d="M305 401 c-3 -5 -1 -12 5 -16 5 -3 10 1 10 9 0 18 -6 21 -15 7z"/>
<path d="M1846 402 c-3 -5 1 -15 9 -22 16 -14 20 -3 6 19 -5 8 -11 9 -15 3z"/>
<path d="M372 375 c0 -16 2 -22 5 -12 2 9 2 23 0 30 -3 6 -5 -1 -5 -18z"/>
<path d="M411 389 c0 -9 6 -22 14 -29 10 -9 15 -9 15 -1 0 6 -4 11 -9 11 -5 0
-12 8 -14 18 -4 14 -5 14 -6 1z"/>
<path d="M1626 391 c-4 -5 -2 -20 3 -33 9 -21 10 -21 10 10 1 32 -3 39 -13 23z"/>
<path d="M2172 380 c0 -14 2 -19 5 -12 2 6 2 18 0 25 -3 6 -5 1 -5 -13z"/>
<path d="M1521 378 c-1 -12 -6 -15 -18 -11 -10 3 -15 3 -11 -2 4 -4 -2 -19
-12 -33 -34 -42 -22 -49 16 -9 21 22 34 44 31 55 -4 16 -5 16 -6 0z"/>
<path d="M1995 380 c3 -5 11 -10 16 -10 6 0 7 5 4 10 -3 6 -11 10 -16 10 -6 0
-7 -4 -4 -10z"/>
<path d="M2310 373 c0 -14 2 -15 9 -5 11 17 21 17 33 0 8 -10 9 -10 5 2 -6 23
-47 26 -47 3z"/>
<path d="M2822 360 c0 -19 2 -27 5 -17 2 9 2 25 0 35 -3 9 -5 1 -5 -18z"/>
<path d="M746 371 c-4 -7 -5 -15 -2 -18 9 -9 19 4 14 18 -4 11 -6 11 -12 0z"/>
<path d="M2100 348 c0 -23 3 -29 9 -19 8 12 4 51 -5 51 -2 0 -4 -15 -4 -32z"/>
<path d="M2381 355 c0 -16 4 -39 9 -50 7 -17 9 -16 9 10 0 17 -4 39 -9 50 -7
17 -9 16 -9 -10z"/>
<path d="M2991 364 c0 -11 3 -14 6 -6 3 7 2 16 -1 19 -3 4 -6 -2 -5 -13z"/>
<path d="M1662 350 c-7 -11 -10 -20 -6 -20 7 0 34 27 34 34 0 13 -16 5 -28
-14z"/>
<path d="M2606 343 c1 -16 3 -50 3 -77 1 -33 4 -47 11 -40 10 10 2 144 -9 144
-4 0 -6 -12 -5 -27z"/>
<path d="M2742 350 c0 -14 2 -19 5 -12 2 6 2 18 0 25 -3 6 -5 1 -5 -13z"/>
<path d="M160 322 c0 -18 5 -32 10 -32 6 0 8 11 4 28 -10 39 -14 40 -14 4z"/>
<path d="M1550 330 c0 -11 2 -20 4 -20 2 0 6 9 9 20 3 11 1 20 -4 20 -5 0 -9
-9 -9 -20z"/>
<path d="M1780 336 c0 -9 5 -16 10 -16 6 0 10 4 10 9 0 6 -4 13 -10 16 -5 3
-10 -1 -10 -9z"/>
<path d="M1962 325 c0 -16 2 -22 5 -12 2 9 2 23 0 30 -3 6 -5 -1 -5 -18z"/>
<path d="M305 330 c3 -5 11 -10 16 -10 6 0 7 5 4 10 -3 6 -11 10 -16 10 -6 0
-7 -4 -4 -10z"/>
<path d="M1421 324 c0 -11 3 -14 6 -6 3 7 2 16 -1 19 -3 4 -6 -2 -5 -13z"/>
<path d="M1726 325 c4 -8 8 -15 10 -15 2 0 4 7 4 15 0 8 -4 15 -10 15 -5 0 -7
-7 -4 -15z"/>
<path d="M2004 327 c-8 -9 -7 -16 3 -25 11 -11 13 -8 13 13 0 28 -1 29 -16 12z"/>
<path d="M2292 315 c0 -16 2 -22 5 -12 2 9 2 23 0 30 -3 6 -5 -1 -5 -18z"/>
<path d="M90 321 c0 -6 4 -13 10 -16 6 -3 7 1 4 9 -7 18 -14 21 -14 7z"/>
<path d="M941 314 c0 -11 3 -14 6 -6 3 7 2 16 -1 19 -3 4 -6 -2 -5 -13z"/>
<path d="M1390 315 c0 -8 2 -15 4 -15 2 0 6 7 10 15 3 8 1 15 -4 15 -6 0 -10
-7 -10 -15z"/>
<path d="M1625 320 c-3 -5 -1 -10 4 -10 6 0 11 5 11 10 0 6 -2 10 -4 10 -3 0
-8 -4 -11 -10z"/>
<path d="M2077 315 c-4 -8 -2 -17 3 -20 6 -4 10 3 10 14 0 25 -6 27 -13 6z"/>
<path d="M1850 305 c0 -8 4 -15 10 -15 5 0 7 7 4 15 -4 8 -8 15 -10 15 -2 0
-4 -7 -4 -15z"/>
<path d="M2186 311 c-4 -5 -2 -12 3 -15 5 -4 12 -2 15 3 4 5 2 12 -3 15 -5 4
-12 2 -15 -3z"/>
<path d="M1785 270 c0 -51 9 -58 13 -10 1 21 -1 41 -6 43 -4 3 -7 -12 -7 -33z"/>
<path d="M2100 289 c0 -13 5 -31 10 -39 7 -11 8 -5 4 20 -8 43 -14 51 -14 19z"/>
<path d="M2875 300 c3 -5 8 -10 11 -10 2 0 4 5 4 10 0 6 -5 10 -11 10 -5 0 -7
-4 -4 -10z"/>
<path d="M470 296 c0 -2 7 -6 15 -10 8 -3 15 -1 15 4 0 6 -7 10 -15 10 -8 0
-15 -2 -15 -4z"/>
<path d="M1893 265 c0 -22 2 -30 4 -17 2 12 2 30 0 40 -3 9 -5 -1 -4 -23z"/>
<path d="M90 280 c0 -5 5 -10 11 -10 5 0 7 5 4 10 -3 6 -8 10 -11 10 -2 0 -4
-4 -4 -10z"/>
<path d="M892 270 c0 -14 2 -19 5 -12 2 6 2 18 0 25 -3 6 -5 1 -5 -13z"/>
<path d="M1420 275 c0 -8 4 -15 10 -15 5 0 7 7 4 15 -4 8 -8 15 -10 15 -2 0
-4 -7 -4 -15z"/>
<path d="M1546 267 c-9 -36 -7 -107 4 -107 6 0 8 13 5 28 -2 16 -1 43 4 60 5
17 6 34 1 37 -4 3 -10 -5 -14 -18z"/>
<path d="M1732 265 c0 -16 2 -22 5 -12 2 9 2 23 0 30 -3 6 -5 -1 -5 -18z"/>
<path d="M2152 270 c0 -14 2 -19 5 -12 2 6 2 18 0 25 -3 6 -5 1 -5 -13z"/>
<path d="M371 264 c0 -11 3 -14 6 -6 3 7 2 16 -1 19 -3 4 -6 -2 -5 -13z"/>
<path d="M1459 274 c0 -5 -6 -61 -13 -124 -8 -63 -10 -118 -7 -123 4 -4 13 50
19 119 7 70 10 129 7 132 -3 3 -5 1 -6 -4z"/>
<path d="M1962 260 c0 -14 2 -19 5 -12 2 6 2 18 0 25 -3 6 -5 1 -5 -13z"/>
<path d="M2570 270 c0 -8 5 -22 10 -30 9 -13 10 -13 10 0 0 8 -5 22 -10 30 -9
13 -10 13 -10 0z"/>
<path d="M420 250 c0 -11 2 -20 4 -20 2 0 6 9 9 20 3 11 1 20 -4 20 -5 0 -9
-9 -9 -20z"/>
<path d="M1291 254 c0 -11 3 -14 6 -6 3 7 2 16 -1 19 -3 4 -6 -2 -5 -13z"/>
<path d="M1830 260 c0 -6 7 -10 15 -10 8 0 15 2 15 4 0 2 -7 6 -15 10 -8 3
-15 1 -15 -4z"/>
<path d="M2316 261 c-4 -7 -5 -15 -2 -18 9 -9 19 4 14 18 -4 11 -6 11 -12 0z"/>
<path d="M2641 254 c0 -11 3 -14 6 -6 3 7 2 16 -1 19 -3 4 -6 -2 -5 -13z"/>
<path d="M2926 257 c3 -10 9 -15 12 -12 3 3 0 11 -7 18 -10 9 -11 8 -5 -6z"/>
<path d="M96 251 c-4 -5 -2 -20 4 -33 8 -21 9 -20 7 10 -1 34 -3 37 -11 23z"/>
<path d="M2042 230 c0 -19 2 -27 5 -17 2 9 2 25 0 35 -3 9 -5 1 -5 -18z"/>
<path d="M2891 244 c0 -11 3 -14 6 -6 3 7 2 16 -1 19 -3 4 -6 -2 -5 -13z"/>
<path d="M556 238 c3 -5 10 -6 15 -3 13 9 11 12 -6 12 -8 0 -12 -4 -9 -9z"/>
<path d="M819 238 c-5 -60 -5 -89 1 -93 3 -2 7 21 8 51 0 30 -1 54 -3 54 -3 0
-5 -6 -6 -12z"/>
<path d="M2262 230 c0 -14 2 -19 5 -12 2 6 2 18 0 25 -3 6 -5 1 -5 -13z"/>
<path d="M2356 233 c-6 -14 -5 -15 5 -6 7 7 10 15 7 18 -3 3 -9 -2 -12 -12z"/>
<path d="M2742 220 c0 -19 2 -27 5 -17 2 9 2 25 0 35 -3 9 -5 1 -5 -18z"/>
<path d="M368 225 c-6 -25 6 -66 14 -44 2 8 2 25 -2 39 -6 23 -7 23 -12 5z"/>
<path d="M491 224 c0 -11 3 -14 6 -6 3 7 2 16 -1 19 -3 4 -6 -2 -5 -13z"/>
<path d="M872 210 c0 -19 2 -27 5 -17 2 9 2 25 0 35 -3 9 -5 1 -5 -18z"/>
<path d="M896 227 c3 -10 9 -15 12 -12 3 3 0 11 -7 18 -10 9 -11 8 -5 -6z"/>
<path d="M2393 205 c0 -22 2 -30 4 -17 2 12 2 30 0 40 -3 9 -5 -1 -4 -23z"/>
<path d="M295 219 c-4 -6 -5 -12 -2 -15 2 -3 7 2 10 11 7 17 1 20 -8 4z"/>
<path d="M330 215 c0 -8 2 -15 4 -15 2 0 6 7 10 15 3 8 1 15 -4 15 -6 0 -10
-7 -10 -15z"/>
<path d="M1072 200 c0 -19 2 -27 5 -17 2 9 2 25 0 35 -3 9 -5 1 -5 -18z"/>
<path d="M1290 221 c0 -5 5 -13 10 -16 6 -3 10 -2 10 4 0 5 -4 13 -10 16 -5 3
-10 2 -10 -4z"/>
<path d="M1720 226 c0 -2 7 -6 15 -10 8 -3 15 -1 15 4 0 6 -7 10 -15 10 -8 0
-15 -2 -15 -4z"/>
<path d="M2477 216 c-4 -10 -5 -21 -2 -24 9 -9 17 6 13 25 -3 17 -4 17 -11 -1z"/>
<path d="M562 195 c0 -16 2 -22 5 -12 2 9 2 23 0 30 -3 6 -5 -1 -5 -18z"/>
<path d="M1272 195 c0 -16 2 -22 5 -12 2 9 2 23 0 30 -3 6 -5 -1 -5 -18z"/>
<path d="M1421 204 c0 -11 3 -14 6 -6 3 7 2 16 -1 19 -3 4 -6 -2 -5 -13z"/>
<path d="M1595 210 c3 -5 8 -10 11 -10 2 0 4 5 4 10 0 6 -5 10 -11 10 -5 0 -7
-4 -4 -10z"/>
<path d="M2093 185 c0 -22 2 -30 4 -17 2 12 2 30 0 40 -3 9 -5 -1 -4 -23z"/>
<path d="M2320 199 c0 -11 4 -18 10 -14 5 3 7 12 3 20 -7 21 -13 19 -13 -6z"/>
<path d="M2515 210 c-3 -5 1 -10 9 -10 9 0 16 5 16 10 0 6 -4 10 -9 10 -6 0
-13 -4 -16 -10z"/>
<path d="M1510 201 c0 -7 -4 -10 -9 -6 -5 3 -12 1 -16 -5 -3 -5 1 -10 9 -10
17 0 31 18 22 27 -3 4 -6 1 -6 -6z"/>
<path d="M691 184 c0 -11 3 -14 6 -6 3 7 2 16 -1 19 -3 4 -6 -2 -5 -13z"/>
<path d="M902 175 c0 -16 2 -22 5 -12 2 9 2 23 0 30 -3 6 -5 -1 -5 -18z"/>
<path d="M2862 180 c0 -14 2 -19 5 -12 2 6 2 18 0 25 -3 6 -5 1 -5 -13z"/>
<path d="M950 149 c0 -22 4 -38 8 -35 8 5 4 76 -4 76 -2 0 -4 -18 -4 -41z"/>
<path d="M1670 171 c-6 -11 -6 -22 -1 -25 5 -3 11 5 13 19 6 30 2 32 -12 6z"/>
<path d="M1992 170 c0 -14 2 -19 5 -12 2 6 2 18 0 25 -3 6 -5 1 -5 -13z"/>
<path d="M2151 116 c-1 -44 1 -77 3 -75 8 9 13 115 5 134 -5 12 -8 -10 -8 -59z"/>
<path d="M2535 136 c3 -33 8 -62 10 -64 9 -9 2 96 -6 109 -6 9 -7 -9 -4 -45z"/>
<path d="M497 159 c4 -13 8 -18 11 -10 2 7 -1 18 -6 23 -8 8 -9 4 -5 -13z"/>
<path d="M656 167 c3 -10 9 -15 12 -12 3 3 0 11 -7 18 -10 9 -11 8 -5 -6z"/>
<path d="M1350 139 c0 -22 4 -38 8 -35 8 5 4 76 -4 76 -2 0 -4 -18 -4 -41z"/>
<path d="M1596 164 c-3 -9 -2 -22 2 -31 6 -10 9 -5 9 16 0 35 -2 38 -11 15z"/>
<path d="M2481 170 c-4 -20 0 -84 5 -89 8 -9 9 5 3 54 -3 28 -7 43 -8 35z"/>
<path d="M70 144 c0 -14 4 -23 9 -20 5 3 7 15 4 26 -7 28 -13 25 -13 -6z"/>
<path d="M148 140 c-3 -17 -1 -30 4 -30 4 0 8 14 8 30 0 17 -2 30 -4 30 -2 0
-6 -13 -8 -30z"/>
<path d="M335 160 c-3 -5 -1 -10 4 -10 6 0 11 5 11 10 0 6 -2 10 -4 10 -3 0
-8 -4 -11 -10z"/>
<path d="M420 118 c0 -28 3 -49 6 -45 11 10 13 97 3 97 -5 0 -9 -23 -9 -52z"/>
<path d="M871 154 c0 -11 3 -14 6 -6 3 7 2 16 -1 19 -3 4 -6 -2 -5 -13z"/>
<path d="M1101 154 c0 -11 3 -14 6 -6 3 7 2 16 -1 19 -3 4 -6 -2 -5 -13z"/>
<path d="M2319 168 c-7 -27 -6 -68 1 -68 6 0 10 16 10 35 0 19 -2 35 -5 35 -3
0 -5 -1 -6 -2z"/>
<path d="M2441 154 c0 -11 3 -14 6 -6 3 7 2 16 -1 19 -3 4 -6 -2 -5 -13z"/>
<path d="M560 146 c0 -8 4 -17 8 -20 4 -2 8 4 8 15 0 10 -4 19 -8 19 -4 0 -8
-6 -8 -14z"/>
<path d="M108 123 c5 -21 7 -23 10 -9 2 10 0 22 -6 28 -6 6 -7 0 -4 -19z"/>
<path d="M1812 105 c1 -24 5 -42 8 -39 8 9 6 84 -2 84 -4 0 -7 -20 -6 -45z"/>
<path d="M2040 140 c0 -5 5 -10 11 -10 5 0 7 5 4 10 -3 6 -8 10 -11 10 -2 0
-4 -4 -4 -10z"/>
<path d="M2860 130 c0 -11 4 -20 9 -20 5 0 7 9 4 20 -3 11 -7 20 -9 20 -2 0
-4 -9 -4 -20z"/>
<path d="M2930 135 c0 -8 4 -15 10 -15 5 0 7 7 4 15 -4 8 -8 15 -10 15 -2 0
-4 -7 -4 -15z"/>
<path d="M1766 124 c-8 -21 -8 -49 1 -41 7 7 14 57 8 57 -1 0 -6 -7 -9 -16z"/>
<path d="M1880 129 c0 -5 5 -7 10 -4 6 3 10 8 10 11 0 2 -4 4 -10 4 -5 0 -10
-5 -10 -11z"/>
<path d="M340 103 c0 -21 3 -24 9 -14 5 8 7 20 4 28 -8 21 -13 15 -13 -14z"/>
<path d="M501 114 c0 -11 3 -14 6 -6 3 7 2 16 -1 19 -3 4 -6 -2 -5 -13z"/>
<path d="M870 121 c0 -6 4 -13 10 -16 6 -3 7 1 4 9 -7 18 -14 21 -14 7z"/>
<path d="M1150 114 c0 -8 5 -12 10 -9 6 4 8 11 5 16 -9 14 -15 11 -15 -7z"/>
<path d="M1671 114 c0 -11 3 -14 6 -6 3 7 2 16 -1 19 -3 4 -6 -2 -5 -13z"/>
<path d="M2568 123 c-2 -5 -1 -24 3 -43 7 -35 7 -35 6 8 -1 42 -3 48 -9 35z"/>
<path d="M655 91 c1 -17 5 -34 9 -38 9 -10 7 40 -3 56 -6 9 -8 4 -6 -18z"/>
<path d="M1002 100 c0 -14 2 -19 5 -12 2 6 2 18 0 25 -3 6 -5 1 -5 -13z"/>
<path d="M1271 104 c0 -11 3 -14 6 -6 3 7 2 16 -1 19 -3 4 -6 -2 -5 -13z"/>
<path d="M70 81 c0 -17 2 -31 4 -31 8 0 13 51 5 56 -5 3 -9 -9 -9 -25z"/>
<path d="M257 103 c-4 -3 -7 -11 -7 -17 0 -6 5 -5 12 2 6 6 9 14 7 17 -3 3 -9
2 -12 -2z"/>
<path d="M380 83 c0 -21 3 -24 9 -14 5 8 7 20 4 28 -8 21 -13 15 -13 -14z"/>
<path d="M1623 75 c0 -22 2 -30 4 -17 2 12 2 30 0 40 -3 9 -5 -1 -4 -23z"/>
<path d="M1945 100 c-3 -5 -1 -10 4 -10 6 0 11 5 11 10 0 6 -2 10 -4 10 -3 0
-8 -4 -11 -10z"/>
<path d="M2370 100 c0 -5 5 -10 11 -10 5 0 7 5 4 10 -3 6 -8 10 -11 10 -2 0
-4 -4 -4 -10z"/>
<path d="M2751 94 c0 -11 3 -14 6 -6 3 7 2 16 -1 19 -3 4 -6 -2 -5 -13z"/>
<path d="M1591 63 c1 -34 2 -35 9 -13 11 36 11 50 0 50 -5 0 -10 -17 -9 -37z"/>
<path d="M106 73 c-6 -14 -5 -15 5 -6 7 7 10 15 7 18 -3 3 -9 -2 -12 -12z"/>
<path d="M501 74 c0 -11 3 -14 6 -6 3 7 2 16 -1 19 -3 4 -6 -2 -5 -13z"/>
<path d="M567 58 c7 -46 13 -48 13 -5 0 21 -4 37 -9 37 -5 0 -7 -15 -4 -32z"/>
<path d="M2040 80 c0 -5 5 -10 10 -10 6 0 10 5 10 10 0 6 -4 10 -10 10 -5 0
-10 -4 -10 -10z"/>
<path d="M2235 80 c3 -5 8 -10 11 -10 2 0 4 5 4 10 0 6 -5 10 -11 10 -5 0 -7
-4 -4 -10z"/>
<path d="M2320 74 c0 -8 5 -12 10 -9 6 4 8 11 5 16 -9 14 -15 11 -15 -7z"/>
<path d="M2863 45 c0 -27 2 -38 4 -22 2 15 2 37 0 50 -2 12 -4 0 -4 -28z"/>
<path d="M526 64 c-4 -9 -4 -19 -1 -22 2 -3 7 3 11 12 4 9 4 19 1 22 -2 3 -7
-3 -11 -12z"/>
<path d="M950 75 c0 -5 5 -17 10 -25 5 -8 10 -10 10 -5 0 6 -5 17 -10 25 -5 8
-10 11 -10 5z"/>
<path d="M1390 74 c0 -5 7 -19 15 -30 8 -10 15 -14 15 -8 0 5 -7 19 -15 30 -8
10 -15 14 -15 8z"/>
<path d="M1150 61 c0 -6 4 -13 10 -16 6 -3 7 1 4 9 -7 18 -14 21 -14 7z"/>
<path d="M2271 54 c0 -11 3 -14 6 -6 3 7 2 16 -1 19 -3 4 -6 -2 -5 -13z"/>
<path d="M631 34 c0 -11 3 -14 6 -6 3 7 2 16 -1 19 -3 4 -6 -2 -5 -13z"/>
<path d="M1526 34 c-9 -8 -16 -21 -16 -27 0 -9 2 -9 8 0 5 8 13 9 22 3 22 -14
40 -12 40 5 0 24 -36 37 -54 19z"/>
<path d="M2322 30 c0 -14 2 -19 5 -12 2 6 2 18 0 25 -3 6 -5 1 -5 -13z"/>
<path d="M1161 14 c0 -11 3 -14 6 -6 3 7 2 16 -1 19 -3 4 -6 -2 -5 -13z"/>
<path d="M2150 16 c0 -9 5 -16 10 -16 6 0 10 4 10 9 0 6 -4 13 -10 16 -5 3
-10 -1 -10 -9z"/>
<path d="M2271 14 c0 -11 3 -14 6 -6 3 7 2 16 -1 19 -3 4 -6 -2 -5 -13z"/>
</g>
</svg>
