<?xml version="1.0" encoding="UTF-8" standalone="no"?>
<svg
   xmlns:dc="http://purl.org/dc/elements/1.1/"
   xmlns:cc="http://creativecommons.org/ns#"
   xmlns:rdf="http://www.w3.org/1999/02/22-rdf-syntax-ns#"
   xmlns:svg="http://www.w3.org/2000/svg"
   xmlns="http://www.w3.org/2000/svg"
   version="1.1"
   id="svg46"
   xml:space="preserve"
   width="377.95999"
   height="389.79999"
   viewBox="0 0 377.95999 389.79999"><metadata
     id="metadata52"><rdf:RDF><cc:Work
         rdf:about=""><dc:format>image/svg+xml</dc:format><dc:type
           rdf:resource="http://purl.org/dc/dcmitype/StillImage" /><dc:title></dc:title></cc:Work></rdf:RDF></metadata><defs
     id="defs50" /><g
     id="g54"
     transform="matrix(1.3333333,0,0,-1.3333333,0,389.8)"><g
       id="g56"
       transform="scale(0.1)"><path
         d="m 594.375,789.93 c -1.312,5.25 -1.312,11.82 -2.629,22.332 -1.312,5.25 -1.312,9.179 -1.312,14.449 l -21.016,-2.629 h -5.254 C 511.621,822.762 451.199,826.711 392.09,835.898 334.293,846.41 277.813,862.172 234.469,881.871 145.145,923.91 70.2734,983.02 36.1211,1028.99 c -21.0156,28.9 -34.14844,60.42 -35.46485,91.95 -5.25781,60.42 21.01175,107.7 80.12505,135.29 34.1567,17.08 80.1247,21.02 140.5507,9.2 77.496,-17.08 126.102,-27.59 156.309,-34.16 -137.918,227.24 -239.063,472.88 -298.1722,690.93 -84.07036,299.48 -84.07036,560.87 5.2539,676.47 136.6093,173.38 304.7423,260.08 468.9333,299.48 240.375,56.49 479.444,5.26 580.584,-24.95 28.9,5.25 57.8,9.19 88.01,13.13 43.35,3.94 85.38,6.57 127.41,7.88 84.06,1.32 158.93,-10.5 227.24,-30.21 51.23,-14.45 98.52,-35.46 140.55,-60.42 249.57,84.06 1166.42,328.39 1115.2,-690.92 -5.27,-122.16 -101.15,-617.36 -245.64,-960.2 -49.91,-118.22 -106.39,-221.98 -170.76,-291.601 -86.7,-97.207 -187.83,-140.55 -302.11,-99.839 -30.21,11.832 -60.43,28.91 -90.63,52.539 -3.95,-5.239 -9.2,-11.809 -15.77,-17.067 -34.15,-32.84 -89.32,-57.793 -133.98,-68.301 -52.54,-13.132 -139.24,-28.89 -237.75,-13.132 -35.46,6.562 -73.56,17.07 -110.34,32.832 1.32,-14.442 2.63,-31.52 2.63,-49.911 -1.31,-24.96 -1.31,-51.23 -2.63,-69.621 -2.62,-61.738 -5.25,-122.16 -11.82,-182.578 -7.88,-61.742 -18.39,-116.902 -34.15,-161.562 -2.63,-6.567 -3.94,-11.828 -6.57,-18.399 C 1436.35,150.23 1368.05,-54.6797 1050.18,13.6211 926.699,39.9023 816.363,74.0508 728.355,200.152 650.859,309.172 602.258,485.18 594.375,789.93 v 0"
         style="fill:#65728b;fill-opacity:1;fill-rule:evenodd;stroke:none"
         id="path58" /><path
         d="m 502.426,1191.86 c -19.699,-18.38 -82.746,-45.96 -296.856,-2.62 -42.035,9.2 -70.929,6.57 -90.632,-1.31 -23.6489,-11.83 -35.4692,-31.52 -32.8442,-57.8 1.3164,-14.45 7.8867,-31.53 19.7032,-47.29 27.59,-38.08 90.637,-86.688 166.82,-122.16 57.793,-26.27 144.488,-44.66 224.613,-48.598 47.29,-2.621 91.95,-1.312 128.727,6.57 9.195,1.309 17.074,3.95 24.957,6.567 7.887,-60.43 17.074,-144.489 27.59,-229.867 13.133,-106.403 28.894,-212.793 38.09,-270.59 17.074,-97.203 45.969,-169.453 98.515,-223.301 52.539,-55.172 124.789,-89.32 231.181,-111.6524 132.67,-28.8867 219.37,2.6328 277.15,52.5434 57.81,48.609 85.38,112.957 102.46,156.308 18.39,43.352 28.9,143.18 35.47,273.211 3.94,93.27 6.57,204.93 5.26,319.188 59.1,-53.84 124.78,-80.11 187.83,-90.629 82.75,-14.438 157.63,0 203.59,10.519 32.84,9.192 73.57,27.571 98.52,49.91 14.45,13.133 23.65,28.903 26.27,47.282 2.62,19.711 -3.94,40.73 -22.33,59.121 -18.38,17.07 -52.55,32.828 -109.02,44.648 -126.1,26.27 -137.92,39.41 -173.39,85.38 -9.2,11.82 -19.71,23.65 -28.89,34.15 0,2.63 0,3.95 0,5.26 14.45,1.32 27.57,2.63 40.72,3.94 43.34,6.57 84.06,19.7 122.16,40.72 34.15,-36.78 124.78,-135.3 224.61,-254.829 35.46,-43.351 72.24,-69.621 109.02,-82.75 77.5,-27.59 149.74,3.938 214.11,76.18 57.79,63.059 109.02,158.949 156.31,269.279 140.55,333.64 232.49,814.4 239.06,931.3 48.6,968.08 -895.83,655.46 -1046.89,600.29 -89.32,60.42 -204.91,98.51 -353.33,95.88 -72.25,-1.3 -140.55,-10.5 -202.29,-24.95 -28.9,7.88 -70.94,19.7 -73.56,21.01 -6.57,1.32 -13.14,2.64 -21.02,3.94 -111.649,26.28 -313.934,55.17 -520.161,-3.94 -136.605,-39.4 -273.211,-116.9 -384.863,-260.07 -73.5587,-94.58 -66.9922,-327.07 9.195,-604.23 65.672,-237.75 182.582,-512.28 344.145,-756.61 z m 148.433,831.48 v 0 c -1.316,-7.88 5.25,-22.33 17.075,-35.46 14.449,-14.45 30.211,-23.65 48.597,-24.97 13.137,-1.3 27.586,1.32 42.032,7.89 17.078,10.5 28.902,22.33 28.902,35.47 0,9.19 -5.254,17.07 -18.387,24.95 -11.82,6.57 -27.59,11.82 -45.976,14.45 -17.079,2.63 -34.153,1.32 -47.286,-1.31 -14.449,-3.95 -23.648,-10.51 -24.957,-21.02 z m -99.836,-890.59 c 6.575,-1.31 13.141,-3.93 21.024,-5.24 27.582,-9.2 72.246,-21.02 68.305,-118.22 -3.942,-3.94 -15.766,-7.88 -35.469,-10.509 -27.582,-6.57 -66.988,-7.883 -107.711,-5.261 -70.926,3.941 -145.805,19.7 -194.402,40.72 -49.918,23.65 -90.629,51.23 -116.907,76.19 106.399,-19.71 269.278,-49.91 365.16,22.32 z m 23.649,948.39 c 186.519,22.32 258.769,-28.9 271.898,-107.71 22.336,-143.18 -106.394,-375.68 -173.382,-493.89 -17.079,-32.85 -30.215,-56.49 -36.778,-70.94 -7.887,-17.08 -14.453,-31.52 -22.332,-44.66 -48.605,103.77 -35.465,210.17 -23.644,311.31 6.57,52.54 11.824,103.77 10.507,153.69 -1.312,51.23 -7.878,94.57 -14.449,135.29 -6.566,38.09 -11.82,74.88 -11.82,116.91 z m 1111.258,-57.8 c -30.22,6.57 -70.94,1.31 -98.52,-13.14 -14.45,-9.19 -23.65,-21.01 -22.33,-34.15 v 0 c 1.32,-9.19 11.82,-23.64 26.27,-34.15 14.45,-9.2 34.15,-15.76 55.17,-13.13 v 0 0 c 19.7,2.62 38.09,14.44 51.22,27.58 11.83,13.14 19.71,27.58 19.71,39.41 -1.32,13.13 -10.51,22.33 -31.52,27.58 z m 243,-34.15 c 0,-11.82 -1.31,-23.64 -1.31,-36.78 -5.26,-68.3 -13.14,-200.97 9.19,-352.03 3.94,-30.21 3.94,-59.11 1.32,-85.38 -6.58,-77.5 -39.41,-145.8 -86.7,-197.03 -47.29,-52.54 -109.03,-86.7 -177.33,-95.89 -11.82,-2.63 -24.96,-2.63 -36.78,-3.95 -6.57,24.96 -14.45,51.23 -24.96,78.82 -13.13,36.78 -17.07,52.54 -47.28,116.91 -45.98,102.46 -105.08,233.81 -36.78,546.43 11.82,60.42 44.66,91.95 84.06,103.77 28.9,10.51 64.37,10.51 99.84,5.26 38.08,-6.58 76.18,-18.4 111.65,-32.85 59.1,-23.64 103.77,-44.65 105.08,-47.28 z m -920.79,755.28 c -223.3,-98.51 -362.538,-277.15 -440.035,-416.39 -27.585,-49.91 -47.285,-95.89 -59.113,-131.35 -14.445,-39.41 -19.699,-70.93 -17.074,-84.07 0,-1.31 1.312,-2.62 1.312,-3.94 -2.625,-57.8 3.942,-106.4 13.137,-156.31 5.254,-38.09 11.821,-78.81 13.137,-126.1 1.316,-44.66 -3.941,-91.95 -10.512,-141.86 -14.445,-124.79 -31.519,-257.46 52.539,-395.38 -1.304,-2.63 -2.621,-3.94 -3.933,-5.25 -2.625,-5.26 -6.575,-9.2 -9.2,-13.14 -145.8,228.56 -250.882,479.44 -311.304,698.81 -70.934,253.51 -81.442,459.73 -23.649,533.29 99.832,127.42 221.989,197.03 342.84,232.5 172.07,49.91 344.145,30.21 451.855,9.19 z m 866.94,-1517.14 c 13.12,10.51 24.95,22.33 36.78,34.15 59.1,65.68 98.51,151.06 107.7,245.64 2.63,34.15 2.63,68.3 -2.63,103.77 -19.69,143.18 -11.81,270.59 -7.88,337.58 1.32,17.08 1.32,30.21 1.32,40.72 0,3.94 11.82,430.84 -232.5,669.9 220.67,72.25 929.98,245.63 891.9,-534.61 -5.26,-114.28 -95.89,-579.27 -232.5,-903.72 -43.35,-102.45 -91.95,-189.15 -141.87,-245.619 -42.03,-47.289 -85.38,-69.621 -126.09,-55.18 -23.65,7.891 -47.29,27.59 -73.56,59.109 -93.27,111.65 -179.96,206.23 -220.67,248.26 z m -44.67,-295.541 c -154.99,31.52 -170.75,51.231 -220.67,115.591 -18.39,22.33 -36.78,44.66 -57.8,64.36 -6.57,6.57 -13.13,9.2 -18.39,9.2 -11.82,1.31 -27.58,-5.26 -36.77,-11.83 -13.14,-10.51 -24.96,-26.27 -31.54,-44.66 -6.56,-18.39 -9.19,-40.72 2.64,-56.47 59.11,-81.449 130.04,-115.601 197.02,-126.109 66.99,-11.82 131.36,0 169.46,9.188 18.38,3.953 40.72,13.14 55.16,23.652 -11.81,5.25 -30.21,11.82 -59.11,17.078 z M 721.785,1005.35 c 7.883,154.99 -68.301,183.89 -122.156,198.34 5.254,7.88 13.137,18.39 22.328,28.9 27.586,32.84 61.738,76.18 89.32,144.49 3.942,10.51 17.078,32.83 34.153,63.05 69.621,126.1 208.855,374.36 181.269,545.12 -19.703,122.16 -111.648,202.29 -342.832,178.64 0,1.31 1.313,3.94 2.625,6.56 10.512,31.53 27.586,72.25 53.86,118.23 101.136,183.89 320.5,440.03 711.938,446.6 471.56,7.88 558.25,-462.37 574.01,-659.4 -22.34,13.14 -45.98,26.27 -72.25,36.78 -39.4,15.76 -84.06,30.21 -130.04,36.78 -45.96,6.56 -93.26,6.56 -136.6,-6.57 -65.68,-21.01 -119.53,-70.93 -139.24,-165.5 -73.55,-337.58 -7.88,-483.39 43.35,-597.66 36.78,-81.45 21.02,-45.98 44.66,-112.97 9.19,-23.65 15.76,-45.98 21.02,-66.99 -5.26,1.31 -11.83,2.62 -17.08,2.62 -30.21,2.63 -65.68,-9.19 -90.63,-27.58 -27.59,-18.38 -48.6,-48.6 -61.74,-82.75 -10.5,-31.52 -9.2,-60.43 -9.2,-93.259 3.95,-152.371 2.64,-302.121 -2.62,-424.281 -5.26,-120.84 -15.76,-211.469 -28.9,-245.621 -14.44,-35.469 -36.78,-88.008 -80.13,-124.789 -42.03,-35.469 -105.07,-56.481 -207.53,-34.149 -89.319,18.379 -149.745,45.969 -189.155,88 -40.719,40.719 -63.047,99.829 -77.496,181.27 -9.196,59.109 -23.641,162.879 -36.778,266.648 -15.765,124.782 -30.214,254.821 -34.156,299.491 v 0"
         style="fill:#ffffff;fill-opacity:1;fill-rule:evenodd;stroke:none"
         id="path60" /></g></g></svg>
