<?xml version="1.0" standalone="no"?>
<!DOCTYPE svg PUBLIC "-//W3C//DTD SVG 20010904//EN"
 "http://www.w3.org/TR/2001/REC-SVG-20010904/DTD/svg10.dtd">
<svg version="1.0" xmlns="http://www.w3.org/2000/svg"
 width="300.000000pt" height="212.000000pt" viewBox="0 0 300.000000 212.000000"
 preserveAspectRatio="xMidYMid meet">
<metadata>
Created by potrace 1.10, written by Peter Selinger 2001-2011
</metadata>
<g transform="translate(0.000000,212.000000) scale(0.100000,-0.100000)"
fill="#000000" stroke="none">
<path d="M1324 2096 c-12 -8 -24 -13 -27 -10 -12 12 -27 -8 -18 -24 10 -19 4
-42 -10 -42 -6 0 -7 4 -4 10 4 6 -1 7 -11 3 -15 -6 -15 -7 0 -15 12 -7 14 -14
8 -21 -17 -21 -24 -75 -13 -95 6 -11 13 -41 15 -66 3 -25 15 -64 27 -86 22
-38 39 -52 39 -30 0 6 14 3 31 -6 39 -20 85 -12 121 20 25 24 27 24 42 7 13
-14 14 -24 7 -43 -12 -31 -61 -68 -90 -68 -12 0 -21 -4 -21 -10 0 -23 55 -9
87 22 32 31 33 31 48 12 14 -19 14 -18 15 4 0 12 -3 21 -7 21 -21 -3 -22 3 -8
31 19 36 20 60 2 35 -12 -15 -15 -16 -23 -4 -5 8 -9 18 -9 23 0 5 -9 10 -20
11 -11 2 -29 6 -40 10 -16 5 -15 3 5 -14 21 -17 22 -21 7 -21 -11 0 -15 -4
-11 -12 5 -8 2 -9 -10 -5 -10 4 -22 7 -28 7 -6 0 -6 6 2 15 14 17 4 19 -40 6
-23 -7 -22 -9 18 -21 29 -9 39 -16 30 -22 -18 -11 -58 -10 -58 2 0 6 -9 10
-20 10 -19 0 -19 2 -5 23 8 13 12 27 8 30 -3 4 -2 7 3 7 5 0 9 15 9 32 0 42
-40 60 -78 35 l-24 -16 -6 50 c-10 82 13 111 77 100 5 -1 6 5 3 14 -7 16 8 21
18 5 11 -18 45 13 45 43 0 15 4 26 9 23 5 -4 12 0 14 6 3 7 5 1 4 -14 -1 -15
-5 -24 -9 -22 -4 3 -8 0 -8 -6 0 -7 10 -9 28 -6 17 4 35 1 47 -8 27 -21 35
-20 35 5 0 18 2 19 15 9 13 -11 13 -14 -2 -26 -17 -12 -16 -15 12 -45 17 -18
23 -28 14 -21 -9 6 -19 9 -22 5 -10 -9 -9 -25 1 -19 4 2 6 -13 4 -34 -2 -21 1
-41 7 -44 7 -5 11 3 11 22 0 36 26 63 36 38 8 -22 -3 -49 -17 -40 -8 5 -8 1 0
-14 16 -29 14 -52 -4 -52 -18 0 -12 -40 12 -79 13 -20 13 -25 2 -32 -10 -6
-11 -9 -1 -9 6 0 12 -7 12 -16 0 -8 -4 -12 -10 -9 -6 3 -7 -1 -4 -9 8 -22 21
-20 34 4 6 11 15 18 20 15 4 -3 6 4 3 15 -4 14 0 20 11 20 9 0 19 7 22 15 4 8
11 15 16 15 6 0 19 10 29 21 10 12 25 19 33 16 10 -4 13 -1 10 8 -7 17 41 49
62 41 11 -4 18 1 21 14 3 11 10 20 15 20 5 0 7 -4 4 -8 -2 -4 7 -9 22 -10 25
-1 25 0 9 12 -15 12 -14 13 18 12 19 0 35 -4 35 -8 0 -5 11 -8 25 -8 28 0 29
-3 15 -30 -7 -13 -6 -19 5 -24 8 -3 15 -11 15 -17 0 -7 -8 -5 -20 6 -10 9 -18
21 -17 25 1 4 -2 8 -8 8 -5 0 -9 -4 -7 -9 1 -5 -2 -9 -8 -9 -5 0 -10 9 -10 21
0 11 -4 18 -9 15 -5 -3 -7 -16 -4 -29 4 -22 4 -22 -12 -2 -16 20 -17 20 -13
-5 2 -21 8 -25 32 -22 16 2 36 -4 46 -13 10 -9 27 -18 37 -19 11 -2 19 -12 20
-27 2 -22 2 -23 -7 -4 -9 17 -9 16 -3 -5 4 -14 7 -72 7 -130 0 -99 -2 -108
-33 -165 -18 -33 -30 -50 -28 -37 6 25 -5 29 -23 7 -21 -25 -73 -19 -102 13
-39 42 -57 84 -59 143 -2 70 17 143 36 135 8 -3 17 0 21 6 4 7 3 8 -4 4 -7 -4
-12 -3 -12 2 0 5 -7 9 -15 9 -8 0 -15 -6 -15 -12 0 -16 -35 -47 -43 -38 -4 3
-7 1 -7 -6 0 -8 6 -11 16 -7 12 5 15 2 9 -11 -4 -10 -7 -24 -6 -30 2 -20 2
-35 -1 -74 -1 -21 5 -48 16 -64 10 -15 15 -29 12 -32 -3 -4 3 -12 13 -20 16
-11 19 -22 15 -63 -3 -31 -1 -50 6 -50 5 0 10 7 10 16 0 8 4 13 9 10 5 -4 7 7
5 24 -3 17 -1 30 5 30 6 0 11 -5 11 -11 0 -5 4 -8 9 -4 5 3 13 1 16 -5 5 -8
14 -6 29 4 27 17 50 8 36 -14 -6 -8 -10 -19 -10 -24 0 -17 22 12 40 51 l17 38
7 -38 c7 -35 10 -38 32 -33 16 4 23 3 20 -3 -4 -5 -1 -13 5 -17 8 -5 9 -3 4 6
-5 9 -2 11 11 7 11 -4 31 -9 46 -13 24 -5 26 -9 17 -26 -13 -24 -8 -31 15 -22
14 5 15 9 4 15 -10 7 -10 11 0 21 19 19 33 -9 26 -53 -7 -42 7 -57 30 -33 14
13 16 13 16 0 0 -8 6 -21 14 -28 7 -8 17 -41 22 -73 l8 -60 6 55 c5 48 7 52
14 28 4 -16 12 -28 17 -28 13 0 11 -127 -1 -135 -6 -4 -9 -18 -8 -32 2 -14 -3
-28 -9 -30 -9 -3 -13 8 -14 34 -1 21 -1 42 0 46 1 5 -4 5 -10 2 -7 -5 -8 -20
-4 -44 4 -20 7 -40 6 -46 0 -5 -3 -35 -5 -65 -3 -30 -7 -66 -9 -80 -2 -14 2
-51 10 -83 17 -76 2 -142 -31 -133 -12 3 -26 6 -32 6 -7 0 -7 20 0 68 12 81
11 274 -1 296 -12 22 -15 -107 -3 -139 5 -13 5 -27 1 -30 -5 -3 -12 2 -15 11
-10 26 -7 172 4 179 6 4 8 11 4 16 -3 6 -7 37 -8 70 -1 33 -7 63 -12 67 -6 4
-18 39 -29 77 -10 39 -22 75 -26 81 -5 6 -5 14 -1 19 4 4 0 5 -8 2 -8 -3 -40
-14 -70 -23 -30 -9 -50 -19 -45 -21 6 -2 33 3 60 11 48 15 65 14 65 -5 0 -6
-3 -8 -8 -5 -4 2 -25 -4 -47 -14 -22 -11 -48 -19 -57 -20 -9 0 -19 -4 -22 -8
-6 -10 59 -8 91 3 17 6 22 2 26 -17 3 -17 5 -14 6 12 1 29 3 32 12 18 5 -10 9
-24 8 -30 -1 -7 3 -26 9 -41 7 -16 12 -36 12 -46 0 -10 3 -21 7 -25 4 -4 6
-23 4 -42 -1 -19 3 -42 11 -51 11 -14 11 -16 -4 -10 -16 6 -17 -5 -15 -125 2
-114 0 -132 -14 -135 -14 -4 -15 -11 -8 -44 5 -22 7 -44 5 -48 -3 -4 -6 -66
-7 -138 0 -72 -5 -136 -11 -144 -6 -9 -7 46 -5 154 3 99 1 167 -4 167 -6 0 -5
9 1 20 7 14 7 20 0 20 -5 0 -10 5 -10 11 0 5 5 7 10 4 6 -3 10 -1 10 5 0 6 4
9 9 6 5 -4 11 0 14 6 5 17 -3 49 -12 44 -4 -3 -3 28 1 67 4 40 6 117 6 172 -1
85 -2 92 -8 45 l-7 -55 -3 65 c-1 36 -2 68 -1 73 0 4 -2 7 -7 7 -4 0 -23 -28
-41 -62 -32 -59 -87 -128 -101 -128 -4 0 -12 10 -18 23 -7 12 -11 15 -11 7 2
-31 -2 -40 -18 -40 -25 1 -56 28 -82 75 -33 56 -100 255 -87 255 2 0 22 -19
45 -41 23 -23 44 -40 46 -37 9 9 -6 38 -19 38 -7 0 -25 14 -41 30 -16 17 -32
30 -36 30 -4 0 -10 -17 -13 -37 -10 -57 -17 -74 -25 -69 -11 7 -41 -60 -31
-70 5 -5 18 -57 30 -116 28 -143 23 -243 -15 -299 -23 -32 -33 -39 -61 -39
-38 0 -38 0 -23 34 9 19 9 32 -1 56 -7 16 -16 30 -20 30 -5 0 -2 -13 6 -30 25
-49 -4 -100 -56 -100 -20 0 -42 12 -69 38 -22 21 -45 36 -51 32 -5 -3 13 -23
40 -44 28 -21 59 -51 70 -67 25 -34 71 -153 75 -194 2 -16 6 -55 10 -86 7 -50
5 -58 -15 -77 -28 -26 -102 -52 -147 -52 -19 0 -41 -6 -48 -14 -23 -23 -83
-29 -101 -11 -8 8 -19 15 -24 15 -5 0 -17 3 -27 6 -10 3 0 -5 21 -18 22 -12
42 -29 44 -37 4 -11 -1 -10 -19 2 -13 10 -33 17 -45 17 -12 0 -25 6 -27 13 -3
6 -6 8 -6 2 -1 -29 69 -73 109 -69 8 1 22 2 30 3 10 2 7 6 -7 11 -34 14 -28
32 10 28 l32 -3 1 -63 c2 -63 14 -103 14 -44 0 17 5 34 10 37 6 4 7 12 3 18
-4 7 -8 17 -8 22 -1 6 -5 18 -9 28 -10 22 -1 32 36 41 20 4 30 1 38 -11 11
-17 11 -17 6 -1 -3 10 0 18 7 19 29 2 50 8 74 24 l25 17 -7 -51 c-4 -28 -12
-78 -19 -111 -7 -33 -9 -60 -5 -60 9 0 19 37 19 71 0 14 4 29 9 35 5 5 12 29
15 52 2 24 7 46 9 49 4 4 20 -76 31 -162 2 -17 2 15 0 70 -9 198 -9 390 1 405
5 8 10 21 11 30 2 8 5 24 8 35 2 11 5 24 5 28 1 5 4 6 9 4 4 -3 7 8 8 25 1 16
6 34 12 40 7 7 9 -2 6 -33 -4 -36 -3 -40 6 -21 5 13 12 39 14 57 2 18 9 41 14
52 15 28 25 170 12 178 -5 3 -10 16 -10 29 0 12 -6 28 -12 36 -11 12 -10 12 4
2 11 -9 18 -10 23 -2 9 15 -6 171 -16 164 -5 -3 -6 -24 -3 -47 5 -33 2 -46
-11 -57 -16 -14 -17 -10 -10 50 4 36 11 69 16 75 5 5 10 20 10 35 1 19 2 21 6
5 2 -11 10 -36 18 -55 7 -19 16 -71 18 -115 2 -45 1 -69 -3 -55 -6 18 -8 5 -9
-42 -1 -38 2 -68 7 -68 4 0 7 -12 7 -27 0 -16 4 -41 8 -58 12 -43 -9 -19 -22
25 l-10 35 0 -45 c-1 -65 -3 -80 -11 -75 -7 5 -23 -79 -24 -122 0 -12 -3 -20
-7 -18 -8 6 -4 -69 5 -84 11 -16 22 -6 35 31 10 31 10 32 -5 13 -14 -19 -15
-17 -9 25 4 25 11 58 15 73 5 15 7 33 4 41 -3 7 2 19 11 26 8 7 15 18 15 25 0
7 6 15 14 18 11 5 11 1 -1 -24 -8 -16 -18 -31 -23 -34 -5 -3 -7 -12 -4 -20 3
-8 1 -30 -6 -49 -9 -30 -8 -39 7 -63 11 -17 13 -24 4 -19 -10 7 -12 3 -6 -14
4 -14 3 -20 -3 -16 -15 9 -23 -38 -18 -97 4 -42 3 -45 -3 -17 -6 23 -8 -16 -8
-115 0 -91 3 -136 7 -115 4 19 5 -11 2 -68 -4 -90 -3 -102 11 -102 12 0 17 9
18 33 l2 32 7 -35 7 -35 2 43 c0 23 -2 42 -6 42 -5 0 -7 84 -6 187 3 267 7
353 16 353 5 0 6 13 2 29 -5 23 -1 33 17 46 16 12 19 19 10 22 -10 4 -9 8 4
18 16 12 17 14 2 29 -11 11 -18 43 -23 103 -9 113 -12 142 -20 178 -6 28 -5
27 13 -7 15 -30 21 -63 24 -149 3 -89 7 -114 19 -122 13 -8 14 -15 5 -41 -6
-17 -17 -35 -23 -39 -7 -4 -13 -13 -13 -18 0 -6 4 -8 9 -4 6 3 14 -2 19 -10 7
-13 11 -11 22 12 7 15 12 34 11 42 -1 8 2 10 11 5 11 -6 11 -5 0 8 -10 13 -10
17 2 21 11 4 16 26 19 79 4 71 4 71 3 -13 0 -63 4 -91 17 -109 11 -16 15 -37
12 -64 -14 -135 -15 -161 -4 -146 8 11 8 9 2 -10 -18 -55 -1 -510 18 -465 5
14 8 16 8 4 1 -9 8 -16 16 -16 10 0 15 10 14 26 0 24 -1 24 -10 6 -7 -15 -7
-11 -3 14 3 19 3 86 -2 150 -7 100 -9 109 -15 66 -6 -50 -6 -50 -8 -10 -1 22
-4 47 -6 56 -2 12 2 15 19 11 18 -5 19 -3 8 11 -8 9 -11 20 -9 24 3 5 8 71 12
148 3 76 9 143 12 148 3 4 5 25 5 45 0 34 1 35 10 12 5 -14 11 -52 12 -85 3
-56 3 -57 -4 -15 -7 40 -8 36 -6 -27 1 -40 -2 -67 -6 -60 -4 7 -8 -3 -8 -23 0
-19 -3 -66 -7 -105 l-6 -70 22 19 c21 19 21 19 21 -5 0 -19 -2 -21 -10 -9 -18
28 -23 -19 -16 -149 6 -109 23 -222 25 -168 1 10 6 15 11 12 6 -4 7 -11 4 -17
-4 -7 -2 -8 4 -4 7 4 12 22 12 41 0 25 -5 35 -21 40 -15 5 -19 12 -15 28 3 12
6 42 7 67 1 36 2 40 8 20 4 -14 8 56 8 156 0 99 4 200 8 223 6 35 5 42 -6 36
-11 -6 -12 -5 -1 6 14 16 16 33 2 24 -15 -10 -12 6 4 19 19 14 33 172 26 286
-4 69 -2 92 13 125 l18 40 -5 -35 c-5 -30 -8 -210 -7 -318 1 -19 5 -31 11 -27
6 3 10 2 10 -3 0 -6 -7 -12 -15 -16 -10 -3 -15 1 -15 11 0 9 -3 14 -6 10 -4
-3 -2 -19 4 -36 8 -21 7 -31 -1 -34 -12 -4 -14 -19 -20 -222 -3 -92 -2 -136 3
-115 7 27 8 21 4 -25 -7 -91 -15 -135 -24 -135 -4 0 -6 -9 -3 -21 3 -12 1 -24
-6 -28 -9 -6 -8 -11 4 -21 13 -11 14 -10 9 5 -5 11 -4 16 3 12 6 -4 8 3 6 17
-3 14 0 32 6 43 9 14 11 6 10 -42 -4 -104 0 -135 16 -135 8 0 15 5 15 11 0 5
4 8 8 5 5 -3 7 7 4 23 -2 16 5 43 17 65 20 34 20 36 2 27 -10 -6 -22 -7 -27
-3 -5 4 -3 -1 4 -10 11 -13 11 -20 0 -37 -7 -12 -16 -21 -20 -21 -4 0 -8 49
-10 109 -2 60 0 107 5 104 4 -2 7 3 7 11 0 9 5 16 10 16 6 0 16 13 23 29 10
23 16 27 33 21 15 -6 20 -16 18 -39 -1 -17 2 -29 6 -26 4 3 6 15 3 26 -4 16
-2 20 8 17 8 -3 15 -16 15 -29 1 -13 3 -59 5 -101 2 -43 7 -78 10 -78 4 0 6
-18 5 -39 0 -22 -5 -37 -9 -34 -5 3 -7 18 -5 34 3 16 1 29 -4 29 -4 0 -8 12
-8 28 0 20 -3 23 -9 13 -6 -9 -6 -22 0 -32 5 -10 9 -31 9 -48 0 -16 4 -32 10
-36 5 -3 7 -11 4 -18 -3 -8 4 -13 17 -14 21 -2 22 0 16 80 -4 45 -7 114 -8
152 -1 54 -3 63 -9 40 -8 -29 -8 -29 -7 7 1 20 5 34 9 32 4 -3 8 -1 8 5 0 6
-9 15 -19 21 -27 14 -37 49 -18 63 26 20 25 69 0 90 -13 10 -23 25 -23 34 0
18 2 18 78 -37 58 -41 61 -45 40 -53 -13 -5 -32 -4 -45 2 -21 10 -22 8 -17
-22 10 -55 13 -62 26 -49 20 20 32 14 15 -6 -19 -21 -13 -34 11 -25 10 4 13 2
8 -5 -11 -19 11 -23 40 -7 16 8 34 15 41 15 7 0 16 6 20 13 4 6 13 12 18 12
36 1 105 18 100 24 -2 5 9 11 25 14 20 5 28 11 24 21 -3 7 6 22 20 34 27 21
35 38 14 27 -7 -4 -4 1 6 9 11 9 15 16 10 16 -12 0 -11 47 1 57 4 5 5 1 0 -7
-5 -9 2 -6 16 6 13 11 38 26 54 31 17 6 39 15 50 19 11 4 23 8 27 8 4 1 13 7
20 15 15 16 13 15 -60 -14 -24 -10 -45 -15 -48 -12 -7 7 -35 147 -33 167 1 8
1 29 0 45 -1 23 -3 27 -11 15 -20 -32 0 -191 28 -219 12 -12 11 -16 -3 -24 -9
-5 -18 -7 -21 -5 -3 4 -11 40 -13 61 -1 5 -5 6 -9 3 -10 -6 -12 23 -5 119 l5
81 43 18 c62 25 71 38 56 86 -6 22 -16 40 -21 40 -5 0 -2 -12 6 -27 19 -37 18
-47 -6 -68 -19 -17 -20 -17 -20 -1 0 9 -3 15 -7 13 -5 -3 -8 22 -7 55 0 46 4
62 17 70 9 5 17 14 17 20 0 6 -11 1 -24 -11 -30 -28 -47 -9 -19 22 40 46 46
61 10 28 -49 -46 -59 -21 -18 45 17 26 31 54 31 61 0 7 -17 24 -37 37 -25 17
-32 27 -22 30 43 14 44 14 26 15 -12 1 -16 5 -11 14 6 8 3 8 -9 -1 -9 -8 -21
-11 -26 -8 -5 4 -13 1 -17 -5 -5 -8 -3 -9 7 -4 12 8 12 6 0 -8 -8 -10 -16 -16
-18 -14 -6 7 -8 195 -2 191 9 -5 -19 93 -34 125 -6 13 -30 36 -52 51 -91 62
-192 25 -263 -97 -32 -54 -42 -82 -47 -135 -7 -64 -9 -68 -32 -68 -19 0 -23 3
-15 13 35 42 39 258 7 365 -30 100 -135 182 -232 182 -56 0 -124 -17 -138 -34
-5 -6 -28 -25 -50 -41 -22 -16 -54 -42 -71 -58 -27 -25 -35 -27 -53 -17 -20
10 -20 12 -6 27 9 8 13 18 10 21 -3 4 -10 0 -15 -8 -8 -13 -10 -12 -10 3 0 10
6 20 14 23 9 3 14 18 14 37 -1 18 1 55 5 82 3 28 4 42 1 33 -12 -38 -24 -19
-25 39 -1 13 -6 20 -11 17 -7 -5 -9 5 -6 25 7 51 -14 60 -157 68 -61 3 -85 0
-101 -11z m72 -21 c3 -13 4 -30 1 -37 -3 -7 -6 -2 -6 13 -1 14 -6 30 -13 37
-9 9 -9 12 0 12 6 0 14 -11 18 -25z m-32 9 c18 -7 23 -64 6 -64 -5 0 -10 14
-10 31 0 17 -4 28 -10 24 -5 -3 -10 -1 -10 4 0 13 3 13 24 5z m142 -8 c3 -8
12 -12 21 -9 12 5 11 1 -3 -16 -10 -12 -20 -17 -22 -11 -2 5 -9 7 -15 4 -8 -5
-8 -2 1 7 13 14 17 33 5 26 -5 -3 -17 -1 -28 4 -17 7 -16 8 8 8 15 1 30 -5 33
-13z m-164 -26 c15 0 1 -13 -16 -16 -7 -1 -12 7 -10 20 3 30 6 33 11 14 2 -10
9 -18 15 -18z m128 10 c0 -5 -5 -10 -11 -10 -5 0 -7 5 -4 10 3 6 8 10 11 10 2
0 4 -4 4 -10z m-145 -50 c3 -5 2 -10 -4 -10 -5 0 -13 5 -16 10 -3 6 -2 10 4
10 5 0 13 -4 16 -10z m519 -158 c3 -5 -1 -9 -9 -9 -8 0 -12 4 -9 9 3 4 7 8 9
8 2 0 6 -4 9 -8z m-484 -12 c12 -8 9 -10 -13 -10 -16 0 -37 -5 -48 -10 -22
-12 -25 -6 -6 15 14 17 46 19 67 5z m688 -31 c9 -1 22 -1 27 0 6 1 1 -6 -9
-14 -11 -8 -22 -15 -26 -15 -12 0 -30 41 -23 53 5 8 9 7 11 -5 2 -10 11 -19
20 -19z m-693 1 c3 -5 -1 -10 -10 -10 -9 0 -13 5 -10 10 3 6 8 10 10 10 2 0 7
-4 10 -10z m740 -41 c-4 -5 -2 -9 3 -9 5 0 12 -9 15 -21 5 -18 2 -20 -19 -16
-30 5 -30 3 2 -18 15 -9 23 -12 20 -6 -4 6 -2 11 3 11 6 0 11 -9 11 -20 0 -24
-13 -26 -34 -5 -9 9 -17 11 -21 5 -3 -5 -11 -10 -17 -10 -7 0 -7 5 1 14 6 7 9
21 5 30 -4 10 -1 16 7 16 11 0 11 2 0 9 -8 5 -24 8 -35 5 -20 -3 -20 -2 -3 10
10 8 27 11 39 8 16 -4 19 -2 13 8 -5 9 -4 11 4 6 6 -4 9 -12 6 -17z m-754 -12
c-18 -18 -21 -19 -35 -4 -22 22 -21 23 19 23 35 0 35 0 16 -19z m295 -74 c-4
-4 -12 -1 -19 7 -9 10 -9 11 1 6 7 -4 12 -2 13 6 0 11 2 11 6 0 3 -7 2 -16 -1
-19z m474 -22 c0 -6 -4 -13 -10 -16 -5 -3 -10 1 -10 9 0 9 5 16 10 16 6 0 10
-4 10 -9z m33 -8 c4 -3 3 -11 -3 -18 -6 -7 -4 -21 5 -39 18 -34 19 -46 4 -46
-5 0 -7 5 -4 10 3 6 1 10 -5 10 -6 0 -8 5 -5 10 3 6 1 10 -4 10 -14 0 -14 -6
0 -32 27 -51 21 -85 -14 -79 -5 1 -6 -3 -2 -8 3 -6 12 -8 19 -5 9 3 13 -2 11
-18 -1 -13 -3 -34 -4 -48 -1 -18 -4 -21 -10 -12 -7 11 -10 10 -15 -3 -3 -9 -4
-21 0 -26 12 -20 -8 -30 -26 -14 -10 9 -23 15 -27 12 -10 -6 -9 29 1 61 4 12
12 19 18 16 7 -5 8 -2 2 7 -5 8 -9 56 -9 106 0 81 2 92 16 88 10 -3 19 1 23
10 6 16 18 19 29 8z m257 -48 c-7 -19 -6 -25 5 -25 7 0 17 5 21 12 4 7 3 8 -4
4 -7 -4 -12 -2 -12 3 0 6 6 11 13 11 17 0 49 -34 41 -43 -3 -3 1 -16 10 -29 9
-12 16 -17 16 -11 0 7 -5 15 -11 18 -6 4 -8 13 -5 20 3 8 -2 19 -9 25 -8 7
-12 17 -8 23 3 5 1 7 -5 3 -6 -3 -13 -2 -17 4 -3 5 2 10 13 10 24 0 72 -37 72
-56 0 -8 4 -14 9 -14 19 0 31 -67 35 -190 1 -47 8 -95 15 -108 7 -13 9 -36 6
-56 -5 -23 -3 -37 7 -42 12 -8 38 -48 38 -59 0 -15 -50 21 -53 39 -3 11 -4 3
-2 -20 2 -23 9 -54 17 -70 8 -16 13 -38 11 -49 -3 -15 -2 -16 5 -7 18 26 24
-37 7 -70 -19 -39 -19 -59 0 -33 23 29 35 84 25 110 -6 17 -5 25 5 29 15 5 30
-27 20 -44 -3 -5 -2 -10 2 -10 5 0 9 -10 10 -22 2 -22 1 -22 -13 -4 -18 25
-18 18 1 -27 18 -43 19 -50 5 -42 -5 3 -10 1 -10 -4 0 -6 -4 -11 -10 -11 -5 0
-7 8 -5 18 3 9 -2 1 -11 -18 -13 -28 -16 -67 -16 -195 0 -91 -4 -172 -10 -188
-6 -15 -36 -46 -66 -67 -54 -39 -80 -50 -67 -30 10 16 -8 11 -44 -13 -67 -43
-74 -46 -93 -36 -25 13 -23 27 7 41 13 6 22 15 19 20 -3 5 -14 2 -24 -7 -14
-13 -19 -13 -23 -3 -3 9 -9 8 -21 -7 -8 -11 -16 -15 -16 -9 0 16 39 54 58 56
9 0 22 2 27 2 6 1 33 12 62 25 38 18 57 34 68 57 9 18 23 37 31 42 11 6 14 16
9 31 -3 12 -10 19 -15 16 -5 -3 -7 -12 -4 -19 3 -8 1 -17 -5 -20 -7 -4 -10 6
-9 28 1 19 -6 46 -15 59 -18 27 -34 227 -19 227 5 0 7 13 4 30 -2 16 3 48 12
70 19 48 21 75 3 42 -7 -12 -16 -19 -21 -15 -4 4 -4 -1 0 -11 5 -13 4 -17 -3
-13 -6 4 -13 -7 -17 -26 -5 -26 -9 -29 -17 -17 -9 12 -10 12 -5 -3 19 -60 18
-152 -2 -120 -4 6 -7 -26 -8 -72 0 -45 -6 -97 -14 -114 -13 -31 -13 -31 -28
-10 -10 15 -17 17 -22 9 -5 -8 -14 -3 -29 16 -20 25 -21 36 -17 132 3 75 9
108 20 121 9 10 16 31 16 47 0 16 4 24 8 18 4 -7 8 20 9 60 4 91 -16 145 -59
166 -37 18 -67 82 -67 149 -1 35 2 42 15 37 9 -3 28 -6 42 -6 l27 0 -32 -20
c-18 -11 -33 -25 -33 -32 0 -8 6 -7 16 4 15 15 19 15 41 1 19 -13 27 -13 36
-4 9 10 9 12 -3 10 -8 -1 -23 1 -33 6 -15 6 -16 10 -5 16 7 5 13 12 14 16 2
16 16 43 23 43 8 0 34 -61 32 -74 -1 -4 3 -14 10 -22 6 -7 8 -17 5 -23 -3 -5
-2 -19 2 -32 9 -22 9 -22 20 8 9 27 8 34 -10 50 -20 18 -20 18 13 23 28 4 37
12 53 45 10 22 23 43 30 48 8 5 8 9 0 15 -6 4 -11 14 -11 22 1 43 -92 125
-116 101 -8 -8 -6 -11 9 -12 12 0 14 -2 5 -6 -9 -4 -4 -10 16 -18 18 -8 38
-29 51 -54 12 -23 22 -43 22 -44 0 -1 -30 -2 -68 -2 -50 0 -74 5 -96 20 -21
14 -31 16 -34 7 -2 -6 -12 -12 -22 -12 -10 0 -20 -6 -23 -12 -2 -7 -4 -1 -3
14 1 20 6 28 19 28 9 0 17 4 17 9 0 18 52 71 69 71 10 0 20 12 26 33 7 23 15
31 29 29 12 -2 16 1 10 9 -4 8 -3 10 4 5 8 -4 8 -15 2 -31z m-135 -194 c3 -5
1 -13 -5 -16 -15 -9 -43 3 -35 15 8 13 32 13 40 1z m195 -5 c0 -3 -4 -16 -10
-30 -7 -20 -17 -26 -39 -26 -16 0 -32 4 -35 9 -4 5 5 8 19 6 16 -1 25 3 25 11
0 8 6 14 13 14 8 0 7 4 -3 10 -12 8 -11 10 8 10 12 0 22 -2 22 -4z m230 -201
c0 -8 -6 -15 -14 -15 -7 0 -16 -9 -19 -20 -3 -11 -10 -20 -17 -20 -7 0 -6 8 4
22 19 26 21 48 5 48 -6 0 -9 -7 -5 -15 3 -8 -2 -22 -11 -31 -11 -11 -18 -13
-21 -5 -2 6 -7 9 -11 7 -4 -3 -7 4 -7 15 0 25 53 51 78 38 10 -5 18 -16 18
-24z m-80 -121 c0 -8 4 -13 9 -9 13 7 24 -12 15 -26 -4 -7 -15 -1 -29 17 -13
16 -21 32 -18 37 7 11 23 -2 23 -19z m-840 -59 c0 -8 -2 -15 -4 -15 -2 0 -6 7
-10 15 -3 8 -1 15 4 15 6 0 10 -7 10 -15z m316 -25 c0 -10 -2 -17 -4 -15 -3 2
-11 -3 -19 -11 -13 -12 -15 -39 -11 -144 2 -72 0 -130 -4 -130 -4 0 -8 17 -8
38 0 20 -4 54 -9 74 -5 21 -6 36 -2 33 4 -2 7 20 7 50 -1 45 -3 51 -16 42 -8
-7 3 9 25 36 22 26 40 47 40 47 0 0 1 -9 1 -20z m-219 -122 c-2 -18 -4 -4 -4
32 0 36 2 50 4 33 2 -18 2 -48 0 -65z m53 -38 c0 -121 -19 -119 -22 3 l-2 92
-6 -85 -6 -85 -2 93 c-2 90 -1 92 18 82 18 -9 20 -21 20 -100z m540 73 c0 -20
-3 -24 -11 -16 -7 7 -9 19 -6 27 10 24 17 19 17 -11z m-471 -140 c1 -48 -3
-85 -10 -89 -6 -3 -10 1 -9 12 1 11 2 63 1 117 -1 93 -2 97 -23 98 -22 1 -22
1 2 8 23 6 26 4 32 -28 4 -20 7 -73 7 -118z m78 115 c-3 -7 -5 -2 -5 12 0 14
2 19 5 13 2 -7 2 -19 0 -25z m-70 0 c-3 -8 -6 -5 -6 6 -1 11 2 17 5 13 3 -3 4
-12 1 -19z m-40 -40 c-3 -8 -6 -5 -6 6 -1 11 2 17 5 13 3 -3 4 -12 1 -19z
m130 -10 c-3 -8 -6 -5 -6 6 -1 11 2 17 5 13 3 -3 4 -12 1 -19z m-130 -60 c-2
-13 -4 -5 -4 17 -1 22 1 32 4 23 2 -10 2 -28 0 -40z m130 10 c-3 -7 -5 -2 -5
12 0 14 2 19 5 13 2 -7 2 -19 0 -25z m365 -25 c0 -27 1 -56 0 -65 -2 -25 16
-70 26 -64 5 3 9 -8 10 -25 1 -25 -3 -29 -16 -25 -15 5 -15 5 1 -8 18 -14 23
-36 8 -36 -20 0 -33 31 -28 65 3 19 2 35 -3 35 -12 0 -20 -28 -13 -48 6 -15 5
-16 -12 -2 -12 10 -16 10 -11 2 4 -7 5 -20 1 -30 -5 -13 -8 -14 -14 -3 -10 15
9 72 21 65 8 -5 13 55 11 139 -1 26 3 47 8 47 5 0 10 -21 11 -47z m-445 -55
c-2 -13 -4 -3 -4 22 0 25 2 35 4 23 2 -13 2 -33 0 -45z m203 -74 c-3 -51 -9
-96 -13 -100 -6 -6 -9 2 -9 26 -1 3 2 20 6 38 3 18 2 31 -2 28 -4 -2 -6 19 -4
48 2 32 8 53 15 53 9 0 11 -26 7 -93z m-213 -61 c-2 -16 -4 -5 -4 22 0 28 2
40 4 28 2 -13 2 -35 0 -50z m650 61 c-3 -3 -2 -17 3 -30 7 -19 6 -24 -5 -24
-10 0 -15 10 -15 30 0 17 5 30 12 30 6 0 9 -3 5 -6z m-977 -11 c0 -5 -8 -36
-18 -71 -17 -61 -32 -73 -32 -25 0 12 -9 32 -20 43 -37 37 -23 54 48 59 12 0
22 -2 22 -6z m307 -45 c-2 -13 -4 -5 -4 17 -1 22 1 32 4 23 2 -10 2 -28 0 -40z
m404 -8 c24 -42 52 -57 92 -47 21 6 21 5 -3 -14 -89 -71 -147 -69 -152 5 -3
47 11 96 29 96 6 0 22 -18 34 -40z m-214 -22 c-3 -7 -5 -2 -5 12 0 14 2 19 5
13 2 -7 2 -19 0 -25z m283 -6 c0 -15 -2 -15 -10 -2 -8 12 -10 12 -10 1 0 -8
-3 -12 -6 -8 -4 3 -4 13 0 22 7 20 26 10 26 -13z m-460 -25 c0 -5 -4 -5 -10
-2 -5 3 -10 14 -10 23 0 15 2 15 10 2 5 -8 10 -19 10 -23z m67 1 c-3 -8 -6 -5
-6 6 -1 11 2 17 5 13 3 -3 4 -12 1 -19z m50 -20 c-3 -7 -5 -2 -5 12 0 14 2 19
5 13 2 -7 2 -19 0 -25z m60 -10 c-3 -7 -5 -2 -5 12 0 14 2 19 5 13 2 -7 2 -19
0 -25z m50 -3 c15 -24 17 -65 3 -65 -5 0 -10 -9 -10 -20 0 -21 -7 -25 -28 -12
-10 7 -11 19 -2 56 6 26 8 52 4 57 -3 5 0 8 8 7 7 -2 18 -12 25 -23z m-180
-47 c-2 -13 -4 -3 -4 22 0 25 2 35 4 23 2 -13 2 -33 0 -45z m20 -5 c-3 -10 -5
-4 -5 12 0 17 2 24 5 18 2 -7 2 -21 0 -30z m-67 4 c0 -7 -4 -6 -10 3 -8 12
-10 12 -10 1 0 -8 -3 -12 -6 -8 -9 9 6 28 17 22 5 -4 9 -12 9 -18z m-193 -29
c-3 -7 -5 -2 -5 12 0 14 2 19 5 13 2 -7 2 -19 0 -25z m310 10 c-3 -8 -6 -5 -6
6 -1 11 2 17 5 13 3 -3 4 -12 1 -19z m-120 -30 c-3 -8 -6 -5 -6 6 -1 11 2 17
5 13 3 -3 4 -12 1 -19z m60 -10 c-3 -8 -6 -5 -6 6 -1 11 2 17 5 13 3 -3 4 -12
1 -19z m50 0 c-3 -8 -6 -5 -6 6 -1 11 2 17 5 13 3 -3 4 -12 1 -19z m20 -15
c-3 -10 -5 -4 -5 12 0 17 2 24 5 18 2 -7 2 -21 0 -30z m-127 3 c0 -11 -19 -15
-25 -6 -3 5 1 10 9 10 9 0 16 -2 16 -4z m127 -48 c-3 -8 -6 -5 -6 6 -1 11 2
17 5 13 3 -3 4 -12 1 -19z m-80 -100 c-2 -18 -4 -4 -4 32 0 36 2 50 4 33 2
-18 2 -48 0 -65z m20 30 c-2 -13 -4 -5 -4 17 -1 22 1 32 4 23 2 -10 2 -28 0
-40z m200 -60 c-3 -8 -6 -5 -6 6 -1 11 2 17 5 13 3 -3 4 -12 1 -19z m-280 -40
c-3 -8 -6 -5 -6 6 -1 11 2 17 5 13 3 -3 4 -12 1 -19z m-180 -20 c-3 -8 -6 -5
-6 6 -1 11 2 17 5 13 3 -3 4 -12 1 -19z m200 0 c-3 -8 -6 -5 -6 6 -1 11 2 17
5 13 3 -3 4 -12 1 -19z m-20 -30 c-3 -8 -6 -5 -6 6 -1 11 2 17 5 13 3 -3 4
-12 1 -19z m20 -10 c-3 -8 -6 -5 -6 6 -1 11 2 17 5 13 3 -3 4 -12 1 -19z
m-210 -55 c-3 -10 -5 -2 -5 17 0 19 2 27 5 18 2 -10 2 -26 0 -35z m280 15 c-3
-8 -6 -5 -6 6 -1 11 2 17 5 13 3 -3 4 -12 1 -19z"/>
<path d="M2090 1609 c0 -5 5 -7 10 -4 6 3 10 8 10 11 0 2 -4 4 -10 4 -5 0 -10
-5 -10 -11z"/>
<path d="M2113 1533 c-7 -2 -13 -14 -13 -24 0 -25 16 -17 23 11 3 11 4 20 4
19 -1 0 -8 -3 -14 -6z"/>
<path d="M2097 1440 c3 -11 7 -20 9 -20 2 0 4 9 4 20 0 11 -4 20 -9 20 -5 0
-7 -9 -4 -20z"/>
<path d="M2090 1395 c-7 -9 -10 -18 -7 -21 3 -3 10 4 17 15 13 25 8 27 -10 6z"/>
<path d="M2521 1474 c0 -11 3 -14 6 -6 3 7 2 16 -1 19 -3 4 -6 -2 -5 -13z"/>
<path d="M2527 1420 c-3 -11 -1 -20 4 -20 5 0 9 9 9 20 0 11 -2 20 -4 20 -2 0
-6 -9 -9 -20z"/>
<path d="M2486 1409 c-2 -8 -7 -39 -10 -69 -6 -60 -26 -94 -73 -125 -70 -46
-70 -46 -48 -42 42 9 50 12 69 30 11 9 24 17 29 17 5 0 6 -8 2 -17 -5 -10 -9
-35 -11 -55 -2 -21 -17 -88 -35 -150 -18 -62 -32 -126 -31 -143 0 -24 -1 -26
-7 -10 -5 12 -10 -14 -15 -73 -5 -74 -4 -98 9 -122 8 -16 18 -30 21 -30 2 0 0
9 -6 21 -12 21 -4 159 9 169 4 3 8 19 9 35 4 67 12 118 20 129 13 18 35 89 37
116 1 14 4 31 8 37 4 6 1 13 -5 16 -9 3 -7 10 7 22 11 9 14 14 7 10 -18 -9 -5
42 20 75 22 31 30 142 11 161 -10 10 -13 9 -17 -2z"/>
<path d="M2532 1300 c0 -14 2 -19 5 -12 2 6 2 18 0 25 -3 6 -5 1 -5 -13z"/>
<path d="M2281 1280 c9 -23 17 -30 37 -30 15 0 34 5 42 11 11 8 6 9 -22 7 -20
-2 -34 0 -32 4 3 4 0 8 -5 8 -6 0 -11 4 -11 9 0 5 21 7 48 5 l47 -3 -40 9
c-70 16 -75 14 -64 -20z"/>
<path d="M2531 1243 c-31 -49 -36 -99 -13 -148 15 -32 20 -36 25 -22 4 10 3
16 -2 13 -21 -14 -28 105 -8 141 11 19 12 14 10 -38 -1 -32 2 -59 8 -59 8 0
14 33 9 55 -1 6 -2 29 -1 53 0 23 -1 42 -2 42 -1 0 -13 -17 -26 -37z"/>
<path d="M2382 1070 c0 -19 2 -27 5 -17 2 9 2 25 0 35 -3 9 -5 1 -5 -18z"/>
<path d="M2480 1088 c0 -7 5 -20 10 -28 7 -12 12 -12 22 -2 9 9 8 12 -6 12 -9
0 -15 4 -11 9 3 5 1 12 -5 16 -5 3 -10 0 -10 -7z"/>
<path d="M2544 1052 c-6 -4 -11 -27 -13 -52 -1 -24 -7 -48 -14 -52 -9 -6 -9
-8 0 -8 9 0 10 -7 3 -25 -5 -14 -7 -25 -4 -25 3 0 10 14 16 31 9 27 12 29 20
15 6 -11 6 -28 -1 -48 -6 -17 -8 -34 -5 -39 3 -5 -4 -26 -16 -47 -12 -20 -15
-29 -7 -20 8 10 16 15 19 12 10 -9 41 84 33 97 -5 7 -4 10 2 6 6 -4 14 4 17
17 3 13 9 32 12 43 6 16 5 16 -9 -2 -14 -19 -15 -18 -10 9 5 22 3 27 -7 21
-10 -6 -11 -2 -6 18 10 41 -5 66 -30 49z m25 -96 c-1 -17 -2 -18 -6 -3 -2 9
-8 15 -11 13 -4 -2 -7 7 -7 20 0 22 1 23 13 7 6 -9 11 -26 11 -37z"/>
<path d="M2331 887 c-8 -10 -7 -19 5 -33 14 -18 15 -18 4 4 -9 18 -8 22 5 22
8 0 15 5 15 10 0 14 -16 12 -29 -3z"/>
<path d="M2417 865 c-4 -8 -2 -17 3 -20 6 -4 10 3 10 14 0 25 -6 27 -13 6z"/>
<path d="M2390 752 c0 -26 4 -41 10 -37 13 8 13 45 0 65 -7 11 -10 3 -10 -28z"/>
<path d="M2311 684 c0 -11 3 -14 6 -6 3 7 2 16 -1 19 -3 4 -6 -2 -5 -13z"/>
<path d="M2550 566 c0 -2 7 -7 16 -10 8 -3 12 -2 9 4 -6 10 -25 14 -25 6z"/>
<path d="M2380 385 c-7 -9 -8 -15 -2 -15 5 0 12 7 16 15 3 8 4 15 2 15 -2 0
-9 -7 -16 -15z"/>
<path d="M1612 2000 c0 -14 2 -19 5 -12 2 6 2 18 0 25 -3 6 -5 1 -5 -13z"/>
<path d="M1303 1920 c-11 -16 -10 -18 2 -14 8 4 15 12 15 20 0 19 -3 18 -17
-6z"/>
<path d="M275 1913 c6 -23 -8 -32 -20 -13 -3 6 -12 10 -18 9 -9 0 -9 -2 1 -6
17 -7 15 -21 -5 -27 -23 -8 -55 -59 -76 -120 -20 -58 -21 -76 -6 -76 7 0 9 9
6 21 -4 16 -3 18 8 9 11 -9 17 -6 30 14 19 28 101 86 122 86 25 0 13 -16 -22
-29 -33 -12 -130 -109 -119 -120 3 -3 9 1 14 9 5 8 15 24 24 35 14 18 14 16 2
-19 -13 -39 -38 -62 -56 -51 -5 3 -6 13 -3 22 4 10 2 14 -4 10 -5 -3 -20 -44
-33 -91 -17 -60 -30 -88 -45 -95 -19 -9 -18 -10 4 -7 14 2 26 7 27 12 1 5 5
22 8 37 4 15 10 26 15 23 4 -3 6 6 3 21 -3 18 -1 24 7 19 6 -4 9 -11 7 -15 -3
-4 0 -13 5 -21 9 -15 9 -11 -4 55 -2 11 -2 14 0 8 3 -7 8 -13 13 -13 5 0 11 6
14 13 2 6 3 -13 2 -44 -2 -31 -9 -65 -15 -78 -7 -12 -10 -25 -7 -30 7 -11 -12
-26 -43 -36 -21 -6 -23 -5 -18 14 3 12 1 19 -4 15 -6 -3 -9 -14 -7 -24 2 -10
-4 -26 -13 -36 -10 -11 -19 -37 -22 -59 -3 -22 -11 -73 -18 -113 -12 -69 -12
-81 11 -180 13 -59 24 -127 24 -152 1 -25 5 -51 9 -57 4 -7 5 -30 2 -50 -4
-28 -3 -33 4 -18 11 22 12 21 16 -12 1 -12 -1 -20 -6 -17 -9 5 -15 -26 -24
-121 -3 -33 -10 -91 -15 -130 -18 -123 -23 -250 -15 -369 4 -64 11 -116 16
-116 5 0 7 48 5 108 -3 75 -2 86 3 37 4 -50 8 2 13 180 6 188 12 274 27 345
18 86 19 96 4 107 -13 10 -13 19 -4 60 12 54 30 151 38 202 3 20 1 31 -5 27
-5 -3 -12 -25 -16 -48 -3 -24 -12 -74 -21 -113 l-14 -70 4 58 c4 38 2 56 -5
52 -14 -9 -12 21 4 58 32 76 36 90 30 109 -4 13 -2 18 4 14 19 -11 33 23 38
91 10 154 10 213 0 217 -6 2 -3 5 6 5 10 1 17 -6 17 -16 -1 -40 10 -132 21
-188 8 -40 11 -116 7 -226 -2 -92 -1 -173 4 -180 6 -10 9 -4 9 19 0 17 4 32
10 32 10 0 8 -55 -3 -66 -3 -4 1 -16 9 -29 8 -12 25 -48 37 -81 13 -32 46 -95
74 -140 67 -105 113 -198 114 -226 0 -13 3 -31 7 -40 4 -9 8 94 10 230 2 143
7 248 13 250 5 2 9 24 9 49 0 40 -2 44 -20 38 -14 -5 -20 -2 -20 9 0 12 11 16
44 16 41 0 45 -2 51 -30 4 -16 4 -39 0 -50 -6 -18 -3 -20 19 -14 16 4 26 2 26
-5 0 -6 -5 -11 -12 -11 -9 0 -9 -3 0 -12 16 -16 15 -65 0 -71 -10 -4 -10 -6 0
-6 9 -1 12 -41 12 -165 0 -99 4 -167 10 -171 6 -3 10 -24 10 -46 0 -26 4 -38
11 -34 6 4 7 19 3 38 -4 18 -7 52 -7 77 1 36 -1 40 -7 20 -6 -18 -8 -11 -7 27
2 54 12 70 20 31 9 -46 7 48 -2 107 -5 33 -13 102 -16 152 -4 51 -11 90 -16
87 -12 -7 -12 29 0 41 15 16 61 166 67 222 5 41 10 50 23 46 12 -3 11 -2 -2 7
-12 8 -17 21 -15 39 1 15 -6 40 -16 56 -27 41 -38 82 -41 150 -1 44 1 56 8 43
10 -14 14 -13 49 9 21 14 38 30 38 34 0 5 4 9 10 9 5 0 32 14 60 31 53 32 70
31 70 -4 0 -50 60 -97 124 -97 68 0 148 98 126 154 -6 18 -14 24 -25 19 -11
-4 -13 -9 -6 -16 5 -5 8 -15 6 -21 -2 -6 -6 -23 -9 -38 -6 -29 -51 -66 -88
-73 -29 -6 -50 13 -42 38 5 15 3 19 -9 14 -8 -3 -20 0 -26 6 -8 8 -11 8 -11
-1 0 -6 7 -15 16 -20 15 -8 15 -10 0 -15 -17 -7 -20 -3 -35 36 -9 22 -8 25 7
20 9 -3 -1 11 -22 31 -22 20 -34 36 -26 36 7 0 18 -8 25 -17 11 -15 17 -16 36
-5 64 32 109 35 59 4 -12 -7 -18 -17 -15 -22 9 -14 -9 -12 -23 2 -6 6 -15 8
-19 5 -4 -4 0 -15 9 -23 22 -22 61 -10 53 17 -10 31 11 22 25 -10 13 -34 8
-49 -24 -61 -19 -7 -19 -9 -4 -15 33 -13 93 83 72 116 -4 8 -3 9 4 5 12 -7 17
23 13 72 -1 13 5 35 13 48 18 26 21 71 6 94 -6 10 -10 11 -10 3 0 -27 -18 -11
-34 30 -9 24 -30 57 -47 73 -24 23 -39 29 -84 31 -45 1 -60 -3 -84 -23 -39
-33 -65 -90 -61 -139 1 -22 2 -52 2 -66 -1 -37 52 -99 86 -100 26 0 26 -1 5
-9 -15 -6 -21 -15 -17 -25 6 -14 2 -17 -28 -19 -7 -1 -24 -11 -38 -24 -14 -12
-31 -20 -37 -17 -7 2 -13 0 -13 -5 0 -6 -4 -10 -9 -10 -5 0 -8 7 -7 16 1 18
-30 28 -40 13 -3 -5 2 -9 10 -9 9 0 16 -4 16 -9 0 -16 -137 -23 -167 -9 -37
18 -31 32 16 34 21 1 49 5 61 9 18 6 22 4 18 -7 -4 -9 1 -14 13 -14 21 0 24 7
8 23 -10 10 62 25 118 25 13 0 20 4 17 9 -3 5 4 9 16 9 13 0 20 5 17 13 -2 6
-11 10 -18 8 -8 -1 -49 -9 -91 -17 -43 -7 -94 -20 -114 -29 -51 -21 -74 -19
-74 5 0 11 4 20 10 20 12 0 34 40 26 47 -3 3 -10 -5 -15 -18 -5 -13 -10 -17
-10 -9 -1 9 6 26 15 38 8 12 11 22 6 22 -16 0 -23 32 -11 46 9 11 9 14 0 14
-7 0 -11 14 -10 33 3 40 -21 92 -59 133 -30 32 -38 34 -112 36 -25 0 -49 6
-53 12 -5 6 -5 1 -2 -11z m140 -62 c1 -27 -3 -37 -11 -34 -9 3 -10 13 -3 35 4
17 6 36 2 42 -3 6 -2 7 2 3 5 -4 10 -25 10 -46z m527 7 c22 -24 37 -37 33 -29
-5 9 -4 12 3 7 6 -3 16 -23 23 -43 10 -31 9 -37 -5 -45 -9 -5 -16 -15 -16 -23
0 -9 -6 -12 -15 -9 -8 3 -31 -3 -50 -15 -22 -13 -53 -21 -81 -21 -24 0 -44 -4
-44 -10 0 -5 -7 -10 -15 -10 -10 0 -15 9 -14 28 l1 27 7 -25 c6 -21 8 -22 14
-7 3 9 2 28 -3 41 -5 15 -5 26 0 28 6 2 5 9 0 18 -9 13 -11 13 -20 0 -9 -13
-10 -13 -10 0 0 9 12 36 28 60 22 35 36 46 72 55 25 7 47 13 49 14 2 0 21 -18
43 -41z m-647 22 c-17 -7 -16 -9 10 -10 l30 -2 -35 -9 c-19 -4 -44 -6 -55 -4
-11 3 -14 2 -7 -1 10 -4 4 -15 -20 -35 -18 -15 -30 -28 -27 -29 3 0 19 11 35
25 16 14 33 24 39 23 5 -1 22 2 38 6 39 12 77 0 77 -24 0 -11 7 -20 15 -20 8
0 15 -5 15 -11 0 -5 -6 -7 -12 -3 -10 5 -10 4 -1 -6 20 -22 44 5 33 36 -11 27
-5 29 30 9 19 -11 21 -14 8 -15 -12 0 -15 -5 -11 -17 4 -10 2 -14 -5 -9 -21
13 -23 -15 -2 -32 16 -13 24 -35 31 -96 9 -70 8 -82 -11 -120 -22 -47 -26 -81
-8 -92 7 -4 8 -3 4 5 -4 7 -5 18 -2 26 4 11 16 8 58 -15 28 -16 55 -27 59 -24
11 7 16 -19 9 -51 l-6 -30 -7 32 c-3 18 -15 37 -26 43 -17 9 -19 7 -15 -12 3
-13 4 -59 3 -103 -2 -82 -2 -119 3 -227 1 -35 -1 -72 -6 -83 -7 -18 -10 -16
-28 19 -14 27 -17 41 -9 49 8 8 11 4 11 -13 0 -17 3 -21 11 -13 7 7 8 28 2 64
l-9 54 -15 -50 -16 -50 -16 39 c-18 40 -69 105 -96 120 -9 5 -7 -1 6 -15 12
-13 26 -35 31 -49 13 -34 36 -263 29 -289 -3 -14 0 -21 9 -21 15 0 18 -27 8
-54 -3 -9 -12 -16 -19 -16 -19 0 -25 -34 -25 -140 0 -52 -3 -105 -6 -118 l-7
-23 -13 27 c-9 17 -14 60 -14 123 0 105 7 144 22 135 6 -4 14 0 19 7 13 21 11
59 -3 59 -9 0 -12 14 -10 48 6 75 -24 274 -49 333 -20 45 -53 93 -137 195 -9
11 -25 24 -35 27 -17 6 -17 9 3 47 11 22 21 50 22 64 2 16 7 22 16 18 10 -3
13 -16 9 -44 -5 -36 -3 -39 14 -35 10 3 17 1 13 -4 -3 -5 -13 -9 -24 -9 -10 0
-21 -7 -24 -16 -9 -24 -1 -28 25 -13 19 10 24 9 28 -2 7 -22 65 -71 115 -99
l45 -24 25 23 c14 13 30 39 37 58 6 18 15 31 20 28 16 -11 9 2 -12 21 -21 19
-22 19 -15 -3 8 -25 -13 -82 -38 -102 -14 -12 -21 -11 -52 5 -73 39 -137 105
-115 119 5 3 16 -7 23 -22 7 -14 20 -29 28 -31 13 -5 13 -3 1 12 -13 16 -11
17 35 11 39 -6 53 -4 63 8 11 14 9 15 -18 4 -23 -9 -36 -9 -49 0 -12 7 -24 8
-35 1 -11 -6 -17 -5 -17 1 0 5 -11 22 -24 38 -22 27 -53 111 -51 143 1 8 9 34
19 57 15 35 25 45 56 53 46 12 66 33 48 47 -17 13 -60 24 -53 13 3 -4 -9 -13
-26 -20 -16 -7 -46 -31 -65 -54 -19 -22 -32 -32 -28 -22 5 14 4 17 -4 12 -7
-4 -12 -5 -12 -1 0 15 32 80 43 87 7 4 12 13 12 20 0 14 61 48 85 47 10 0 8
-3 -5 -9z m68 -7 c11 -10 17 -13 14 -6 -4 6 -3 14 3 18 5 3 10 -1 10 -9 0 -30
-42 -30 -54 0 -7 19 3 18 27 -3z m667 -196 c-6 -20 -8 -42 -5 -47 3 -5 1 -11
-5 -15 -5 -3 -10 -28 -10 -56 0 -29 -4 -49 -11 -49 -6 0 -8 7 -5 16 3 8 2 12
-4 9 -6 -3 -10 5 -10 19 0 13 6 26 13 29 22 7 -11 56 -34 50 -11 -3 -29 3 -42
13 -22 19 -22 19 -4 -2 9 -11 14 -24 10 -29 -5 -4 -2 -5 5 -1 7 4 25 5 40 1
26 -6 26 -7 8 -21 -23 -16 -50 -19 -41 -4 4 6 11 7 17 4 7 -5 8 -2 3 6 -6 10
-12 9 -24 -6 -10 -12 -26 -18 -41 -16 -20 2 -22 1 -10 -7 13 -9 13 -11 -2 -11
-22 0 -22 3 -2 41 8 17 14 36 11 42 -2 7 5 21 15 32 14 14 19 16 16 5 -2 -11
7 -16 32 -17 28 -2 31 -1 15 7 -16 7 -17 9 -3 9 9 1 19 7 21 14 5 11 11 -17 8
-35 0 -4 6 -5 14 -2 11 5 12 11 5 24 -14 25 -13 53 2 68 20 20 32 -26 18 -71z
m-73 17 c-3 -3 -12 -4 -19 -1 -8 3 -5 6 6 6 11 1 17 -2 13 -5z m-126 -37 c-7
-7 -14 -8 -21 -1 -6 6 -2 10 12 11 16 2 18 -1 9 -10z m28 -48 c-8 -5 -24 -9
-36 -9 -28 0 -21 32 10 46 18 8 24 6 31 -9 7 -13 6 -21 -5 -28z m-59 20 c0 -6
-4 -7 -10 -4 -5 3 -10 11 -10 16 0 6 5 7 10 4 6 -3 10 -11 10 -16z m-116 -180
c-12 -4 -25 -12 -29 -18 -4 -8 -16 -6 -36 4 -41 22 -30 31 33 26 40 -3 48 -5
32 -12z m-458 -143 l4 -51 -19 65 c-24 78 -27 122 -5 71 9 -19 17 -57 20 -85z
m-83 -24 c-2 -68 -7 -131 -13 -140 -12 -21 -12 29 -1 138 4 41 5 84 1 95 -4
12 -8 -5 -9 -44 -1 -35 -3 -66 -6 -70 -2 -4 -7 -45 -9 -90 -6 -87 -22 -161
-35 -161 -20 0 -16 247 5 281 10 17 11 70 1 76 -14 9 26 44 47 41 20 -3 21 -9
19 -126z m156 -26 c32 -99 66 -330 56 -377 -5 -21 -2 -28 17 -34 l23 -8 -22
-4 c-14 -3 -23 -12 -23 -22 0 -15 -8 -18 -43 -17 -52 2 -72 13 -57 31 6 7 8
20 4 29 -3 9 -1 16 5 16 6 0 12 -15 12 -32 2 -31 2 -31 6 -5 4 24 13 32 36 28
4 0 7 6 7 14 0 8 5 15 12 15 6 0 9 3 6 6 -4 3 -15 1 -26 -5 -17 -9 -21 -7 -27
17 -4 15 -9 63 -11 107 -2 44 -8 100 -13 125 -5 25 -12 79 -14 120 l-5 74 19
-34 c22 -43 24 -36 4 19 -8 23 -10 39 -5 36 5 -3 23 -48 39 -99z m281 55 c0
-9 9 -34 20 -56 13 -27 18 -32 15 -15 -4 19 -1 16 11 -9 8 -19 18 -56 21 -82
6 -51 -14 -172 -27 -164 -5 3 -6 -5 -2 -17 3 -14 1 -19 -6 -14 -8 5 -10 2 -6
-8 4 -11 0 -16 -10 -16 -9 0 -16 5 -16 12 0 6 -3 9 -6 5 -3 -3 1 -16 10 -29
20 -29 20 -35 -3 -47 -17 -9 -19 -6 -19 30 -1 23 -3 43 -5 46 -3 2 4 32 14 66
23 76 24 113 3 163 -21 48 -25 151 -6 151 6 0 12 -7 12 -16z m-85 -298 c-2 -8
-1 -12 4 -9 5 3 12 -1 15 -9 3 -8 11 -14 18 -13 8 2 13 -12 14 -40 2 -39 0
-43 -20 -40 -11 2 -27 12 -34 23 -12 19 -13 19 -7 -2 5 -18 3 -22 -9 -17 -9 3
-16 14 -16 24 0 10 -3 26 -6 35 -5 13 3 11 35 -10 24 -14 44 -25 46 -23 2 2
-13 19 -33 38 -19 19 -32 29 -28 22 4 -7 5 -12 2 -12 -3 0 -12 14 -21 30 -9
17 -11 30 -5 30 5 0 10 -4 10 -10 0 -5 5 -10 10 -10 18 0 11 29 -10 42 -11 7
-20 19 -20 27 0 7 14 -3 30 -24 17 -21 28 -45 25 -52z m-265 30 c-11 -17 -11
-17 -6 0 3 10 6 24 7 30 0 9 2 9 5 0 3 -7 0 -20 -6 -30z m26 -30 c-10 -10 -19
5 -10 18 6 11 8 11 12 0 2 -7 1 -15 -2 -18z m-12 -40 c-1 -15 4 -42 11 -60 15
-35 6 -44 -16 -17 -13 16 -21 81 -12 97 10 17 20 5 17 -20z m131 -162 c3 -5 1
-12 -5 -16 -5 -3 -10 1 -10 9 0 18 6 21 15 7z m-45 -103 c0 -45 -3 -78 -7 -75
-7 8 -42 103 -41 115 0 17 20 42 33 42 12 0 15 -17 15 -82z m129 35 c10 -86 4
-303 -10 -303 -5 0 -8 4 -5 9 3 5 -1 12 -9 15 -13 5 -14 24 -9 123 6 129 9
157 19 173 9 15 10 13 14 -17z m-412 -500 c-3 -10 -5 -2 -5 17 0 19 2 27 5 18
2 -10 2 -26 0 -35z"/>
<path d="M815 1851 c-3 -5 -2 -12 3 -15 5 -3 9 1 9 9 0 17 -3 19 -12 6z"/>
<path d="M783 1816 c5 -15 64 -15 64 1 0 8 -6 9 -19 2 -10 -5 -18 -6 -18 -1 0
5 -7 9 -15 9 -9 0 -14 -5 -12 -11z"/>
<path d="M946 1782 c-10 -16 -32 -34 -48 -41 -16 -7 -27 -15 -25 -18 8 -8 67
27 67 40 1 7 6 4 14 -6 12 -16 14 -16 20 -1 8 22 8 54 -1 54 -5 0 -16 -13 -27
-28z"/>
<path d="M796 1733 c-4 -10 1 -12 22 -7 36 9 37 11 8 16 -16 3 -27 0 -30 -9z"/>
<path d="M258 1863 c7 -3 16 -2 19 1 4 3 -2 6 -13 5 -11 0 -14 -3 -6 -6z"/>
<path d="M330 1833 c8 -3 18 -11 22 -17 4 -6 10 -7 15 -3 9 10 -16 27 -37 26
-13 -1 -13 -1 0 -6z"/>
<path d="M199 1763 l-24 -28 28 24 c15 14 27 26 27 28 0 8 -8 1 -31 -24z"/>
<path d="M385 1675 c-40 -18 -20 -18 30 0 22 8 31 14 20 14 -11 0 -33 -6 -50
-14z"/>
<path d="M248 1657 c-10 -6 -9 -8 3 -4 9 3 28 -1 43 -8 16 -9 24 -10 20 -3 -4
7 -3 8 4 4 16 -10 15 -31 -3 -66 l-16 -30 33 1 c18 1 25 3 16 6 -19 5 -25 23
-8 23 14 0 12 43 -2 62 -15 19 -72 28 -90 15z"/>
<path d="M395 1656 c-21 -9 -26 -14 -16 -20 8 -5 16 -4 21 4 4 6 10 11 14 11
22 -3 36 0 36 9 0 13 -18 12 -55 -4z"/>
<path d="M250 1630 c0 -5 9 -10 19 -10 11 0 23 5 26 10 4 6 -5 10 -19 10 -14
0 -26 -4 -26 -10z"/>
<path d="M414 1575 c17 -13 17 -15 3 -21 -10 -3 -24 -3 -33 0 -8 3 -12 2 -9
-4 4 -6 -10 -10 -34 -10 l-40 0 24 -26 c29 -32 64 -27 89 11 9 14 21 23 26 20
6 -4 10 -1 10 6 0 13 -29 38 -45 38 -5 0 -1 -6 9 -14z m-18 -50 c-23 -17 -42
-19 -51 -6 -4 8 12 14 60 19 6 1 1 -5 -9 -13z"/>
<path d="M258 1403 c7 -3 16 -2 19 1 4 3 -2 6 -13 5 -11 0 -14 -3 -6 -6z"/>
<path d="M414 1314 c3 -9 6 -18 6 -20 0 -2 7 -4 15 -4 8 0 15 9 15 20 0 14 -7
20 -21 20 -15 0 -19 -4 -15 -16z"/>
<path d="M830 1630 c-13 -8 -13 -10 2 -10 9 0 20 5 23 10 8 13 -5 13 -25 0z"/>
<path d="M301 1170 c0 -8 4 -22 9 -30 12 -18 12 -2 0 25 -6 13 -9 15 -9 5z"/>
<path d="M292 1040 c0 -19 2 -27 5 -17 2 9 2 25 0 35 -3 9 -5 1 -5 -18z"/>
<path d="M1410 1882 c-13 -5 -13 -32 1 -32 5 0 7 5 4 10 -6 9 34 15 78 12 9
-1 17 3 17 8 0 9 -73 10 -100 2z"/>
<path d="M1433 1850 c-13 -5 -23 -17 -23 -25 0 -9 4 -14 9 -10 5 3 12 1 16 -5
10 -17 44 -11 66 11 17 17 19 23 8 30 -18 11 -47 10 -76 -1z m47 -14 c0 -2 -7
-7 -16 -10 -8 -3 -12 -2 -9 4 6 10 25 14 25 6z"/>
<path d="M1820 1808 c0 -4 -7 -8 -15 -8 -18 0 -18 -5 -5 -30 8 -15 6 -17 -13
-13 -16 3 -18 2 -8 -5 8 -6 10 -12 3 -16 -6 -4 -15 0 -19 9 -7 12 -10 11 -21
-5 -7 -11 -8 -20 -3 -20 5 0 12 -10 14 -22 2 -13 3 -8 1 10 -1 18 1 30 7 27 5
-4 9 -13 9 -21 0 -8 5 -12 11 -9 6 4 8 9 6 12 -3 2 7 16 21 30 23 23 24 27 9
32 -15 6 -15 7 3 19 17 10 20 10 20 -3 0 -8 5 -15 10 -15 6 0 10 7 10 15 0 8
5 15 10 15 6 0 10 -6 10 -14 0 -8 6 -16 13 -19 9 -3 9 -7 -2 -20 -13 -17 -36
-13 -26 4 4 5 3 9 0 9 -12 0 -75 -70 -75 -83 0 -6 5 -4 11 6 7 13 18 17 33 13
15 -4 30 4 54 28 28 29 30 35 17 46 -8 7 -15 18 -15 25 0 8 -13 13 -35 12 -19
-1 -35 -5 -35 -9z m40 -83 c0 -9 -6 -12 -15 -9 -8 4 -12 10 -9 15 8 14 24 10
24 -6z"/>
<path d="M1500 1711 c0 -17 18 -21 24 -6 3 9 0 15 -9 15 -8 0 -15 -4 -15 -9z"/>
<path d="M1697 1704 c5 -13 1 -15 -18 -10 -13 3 -18 3 -11 0 20 -9 14 -31 -15
-54 -16 -12 -21 -18 -13 -14 8 4 23 14 33 22 27 24 20 -3 -10 -32 -20 -21 -22
-25 -7 -19 10 4 25 14 32 22 12 14 13 12 9 -11 -2 -16 0 -25 5 -22 6 4 8 17 5
30 -2 14 0 27 4 30 5 3 9 13 9 22 0 14 -2 15 -10 2 -5 -8 -13 -11 -17 -6 -4 4
0 14 11 21 10 8 15 18 11 24 -10 17 -25 13 -18 -5z"/>
<path d="M1260 1680 c-11 -11 -27 -20 -35 -20 -8 0 -15 -3 -15 -7 0 -5 -24 -9
-53 -11 -56 -4 -98 -19 -105 -39 -2 -8 6 -13 20 -13 26 0 107 -23 135 -39 11
-5 24 -31 32 -61 7 -29 32 -80 55 -114 53 -77 88 -145 81 -156 -3 -5 -1 -11 5
-15 5 -3 10 -24 10 -45 0 -32 -4 -39 -22 -43 -20 -4 -19 -4 4 -6 38 -2 92 -29
108 -55 18 -29 26 -171 10 -181 -9 -5 -10 -1 -5 15 5 15 4 20 -4 16 -6 -4 -11
-16 -11 -26 0 -11 -18 -58 -40 -106 -22 -47 -38 -90 -35 -94 3 -5 0 -21 -6
-37 -10 -24 -16 -58 -20 -113 0 -8 -5 -51 -9 -95 -15 -139 -20 -281 -10 -265
5 8 10 49 10 90 0 87 22 242 44 315 19 62 19 67 0 35 l-15 -25 6 25 c3 14 8
39 11 55 11 55 27 82 45 78 9 -3 20 0 23 6 4 6 21 11 37 11 36 0 93 23 105 41
5 8 9 116 9 241 l0 227 30 31 c16 17 40 33 52 36 23 6 29 15 17 27 -11 10 -83
-44 -105 -79 -19 -32 -21 -47 -18 -202 4 -267 4 -269 -31 -287 -52 -27 -71
-16 -54 29 5 14 9 14 22 4 14 -12 14 -11 1 10 -8 12 -17 22 -20 22 -11 0 12
114 27 131 16 18 9 49 -11 49 -7 0 -23 16 -36 35 -13 18 -33 36 -45 39 -23 6
-44 51 -44 92 0 29 -31 91 -86 170 -24 34 -50 85 -58 114 -19 63 -29 77 -73
95 -40 17 -43 31 -5 30 15 0 29 2 32 5 13 14 92 61 86 51 -4 -6 -1 -11 6 -11
15 0 80 -65 97 -98 7 -12 13 -42 14 -66 1 -24 5 -42 10 -39 4 2 8 -7 8 -21 1
-14 3 -30 4 -36 1 -5 3 -19 4 -29 0 -11 8 -27 17 -35 9 -9 20 -31 25 -49 23
-82 46 -75 96 33 24 52 42 79 50 76 7 -3 13 -1 13 4 0 6 -4 10 -10 10 -5 0
-10 9 -10 20 0 11 4 20 10 20 11 0 9 28 -3 47 -9 14 0 42 22 66 15 18 14 18
-11 6 -31 -14 -47 -61 -28 -84 6 -8 9 -23 5 -35 -6 -18 -9 -19 -23 -8 -15 12
-16 11 -3 -5 12 -15 10 -24 -12 -70 -14 -28 -34 -70 -44 -92 -16 -37 -18 -38
-21 -15 -2 13 -17 56 -32 96 -16 39 -34 99 -40 133 -15 85 -34 118 -92 169
-55 47 -69 51 -98 22z m218 -335 c-3 -3 -9 2 -12 12 -6 14 -5 15 5 6 7 -7 10
-15 7 -18z m72 -336 c0 -5 -7 -9 -15 -9 -15 0 -20 12 -9 23 8 8 24 -1 24 -14z
m-50 -156 c0 -12 -24 -76 -33 -91 -13 -19 -25 -5 -20 23 3 14 10 22 16 18 6
-3 7 -1 3 5 -4 6 -1 20 6 32 13 20 28 27 28 13z"/>
<path d="M556 1681 c-8 -12 21 -47 31 -38 4 5 -1 13 -11 19 -15 8 -16 12 -5
19 9 6 10 9 2 9 -6 0 -14 -4 -17 -9z"/>
<path d="M1405 1679 c-17 -6 -16 -8 7 -8 15 -1 29 3 32 7 6 11 -14 11 -39 1z"/>
<path d="M1848 1650 c27 -11 29 -30 3 -30 -10 0 -24 -6 -30 -14 -10 -12 -5
-14 29 -12 43 1 52 -12 20 -32 -11 -7 -20 -19 -20 -27 0 -8 -4 -15 -10 -15 -5
0 -10 -7 -10 -15 0 -8 5 -15 10 -15 9 0 34 -47 32 -60 0 -3 14 -6 31 -7 27 -2
36 3 55 34 30 45 19 55 -60 50 -51 -3 -56 -1 -45 12 6 9 13 18 14 20 1 2 9 -2
17 -8 8 -7 23 -11 33 -9 14 3 11 7 -14 18 -24 11 -28 16 -18 25 35 27 12 95
-33 94 -26 0 -26 -1 -4 -9z m115 -157 c5 -3 3 -9 -4 -14 -8 -4 -14 -14 -14
-20 0 -22 -54 -19 -70 4 -8 12 -15 24 -15 28 0 8 90 10 103 2z"/>
<path d="M1898 1463 c6 -2 18 -2 25 0 6 3 1 5 -13 5 -14 0 -19 -2 -12 -5z"/>
<path d="M1940 1650 c0 -5 7 -7 15 -4 8 3 28 -1 45 -9 33 -17 40 -12 13 9 -21
16 -73 19 -73 4z"/>
<path d="M1580 1607 c-25 -19 -25 -20 -2 -13 12 4 22 4 21 -1 -3 -20 2 -34 11
-28 6 4 8 10 5 15 -3 4 0 10 7 12 10 4 9 8 -3 20 -13 14 -17 13 -39 -5z"/>
<path d="M1944 1618 c-8 -13 24 -40 45 -36 23 5 25 28 2 28 -12 0 -21 5 -21
10 0 14 -17 13 -26 -2z m53 -24 c-3 -3 -12 -4 -19 -1 -8 3 -5 6 6 6 11 1 17
-2 13 -5z"/>
<path d="M1467 1583 c-4 -3 -7 -11 -7 -17 0 -6 5 -5 12 2 6 6 9 14 7 17 -3 3
-9 2 -12 -2z"/>
<path d="M1940 1564 c0 -6 11 -21 24 -33 14 -13 27 -38 29 -55 l4 -31 1 32 c2
24 -6 42 -28 65 -16 18 -30 28 -30 22z"/>
<path d="M1544 1499 c-3 -6 -2 -15 4 -21 6 -6 12 -6 16 1 4 6 2 11 -4 11 -6 0
-8 5 -5 10 3 6 4 10 1 10 -3 0 -8 -5 -12 -11z"/>
<path d="M1470 1493 c0 -6 8 -17 18 -24 16 -13 16 -13 2 6 -8 11 -16 22 -17
24 -2 2 -3 0 -3 -6z"/>
<path d="M1675 1440 c-3 -6 1 -7 9 -4 18 7 21 14 7 14 -6 0 -13 -4 -16 -10z"/>
<path d="M1510 1403 c0 -13 22 -33 37 -33 15 0 18 26 3 35 -6 3 -7 -1 -4 -9 8
-20 0 -20 -20 0 -9 8 -16 12 -16 7z"/>
<path d="M770 1390 c-9 -6 -10 -10 -3 -10 6 0 15 5 18 10 8 12 4 12 -15 0z"/>
<path d="M1105 1374 c-132 -31 -262 -54 -305 -54 -25 0 -40 -4 -33 -8 13 -8
115 0 198 16 112 22 260 54 264 58 9 9 -67 1 -124 -12z"/>
<path d="M825 1370 l-40 -7 35 -1 c19 0 53 3 75 7 l40 9 -35 -1 c-19 0 -53 -3
-75 -7z"/>
<path d="M1760 1355 c-7 -9 -8 -15 -2 -15 5 0 12 7 16 15 3 8 4 15 2 15 -2 0
-9 -7 -16 -15z"/>
<path d="M723 1353 c9 -2 23 -2 30 0 6 3 -1 5 -18 5 -16 0 -22 -2 -12 -5z"/>
<path d="M1792 1341 c-11 -7 -11 -9 1 -14 9 -3 21 1 27 9 10 11 10 14 -1 14
-8 0 -20 -4 -27 -9z"/>
<path d="M1903 1313 c9 -9 20 -13 24 -9 4 4 1 11 -7 16 -25 16 -35 11 -17 -7z"/>
<path d="M706 1312 c-2 -4 4 -14 15 -20 19 -12 19 -11 9 8 -12 22 -16 24 -24
12z"/>
<path d="M1312 1298 c3 -16 1 -28 -3 -28 -5 0 -9 5 -9 11 0 5 -5 7 -11 3 -6
-3 -9 -17 -6 -30 2 -13 1 -25 -2 -26 -3 -2 -14 -28 -25 -58 -25 -73 -76 -151
-120 -185 -20 -15 -34 -30 -31 -33 6 -6 88 57 94 72 2 5 19 26 38 47 27 30 43
39 68 39 l32 0 -8 52 c-5 29 -8 74 -7 101 0 26 -3 51 -7 55 -4 4 -5 -5 -3 -20z
m-16 -103 c-2 -7 1 -18 7 -25 9 -10 9 -11 0 -6 -9 5 -13 0 -13 -12 0 -11 -7
-25 -15 -32 -19 -15 -19 -6 -3 54 6 25 16 42 21 39 4 -3 6 -11 3 -18z"/>
<path d="M1766 1311 c-4 -5 -2 -12 4 -16 5 -3 10 -3 10 0 0 4 17 -7 37 -24 20
-17 39 -29 41 -26 4 4 -49 53 -74 68 -7 4 -15 3 -18 -2z"/>
<path d="M1972 1303 c-6 -2 -10 -9 -6 -14 10 -17 -25 -21 -41 -5 -21 20 -29
20 -46 -1 -13 -16 -12 -17 3 -5 9 8 22 11 28 7 7 -5 5 -12 -7 -21 -19 -14 -15
-16 32 -16 30 1 30 1 5 -8 -25 -9 -25 -9 -2 -7 18 1 27 12 37 40 7 20 12 37
11 36 0 0 -7 -3 -14 -6z"/>
<path d="M995 1280 c3 -5 14 -10 23 -10 15 0 15 2 2 10 -20 13 -33 13 -25 0z"/>
<path d="M2007 1275 c-6 -13 1 -25 14 -25 14 0 18 28 4 34 -7 2 -16 -1 -18 -9z"/>
<path d="M2118 1283 c7 -3 16 -2 19 1 4 3 -2 6 -13 5 -11 0 -14 -3 -6 -6z"/>
<path d="M938 1273 c7 -3 16 -2 19 1 4 3 -2 6 -13 5 -11 0 -14 -3 -6 -6z"/>
<path d="M1670 1276 c0 -2 9 -6 20 -9 11 -3 18 -1 14 4 -5 9 -34 13 -34 5z"/>
<path d="M2690 1270 c0 -5 -8 -6 -17 -3 -11 4 -8 -3 9 -18 40 -37 102 -165 69
-145 -5 3 -15 -2 -22 -12 -13 -15 -12 -16 4 -3 17 14 18 11 16 -45 -1 -58 31
-216 53 -258 10 -18 22 -73 55 -250 3 -16 2 -26 -4 -23 -5 3 -10 -3 -10 -14
-1 -11 5 -19 14 -19 9 0 13 -6 9 -15 -3 -8 -1 -15 5 -15 6 0 8 -4 5 -9 -3 -5
6 -21 19 -35 14 -15 23 -32 20 -37 -4 -5 -1 -9 4 -9 6 0 18 -16 26 -37 8 -20
18 -33 22 -30 3 4 12 2 20 -4 15 -13 18 -3 3 14 -17 19 -80 127 -102 175 -13
27 -17 47 -11 53 25 25 -55 404 -88 417 -4 2 -6 9 -3 16 3 7 -2 19 -11 26 -18
15 -20 40 -2 40 7 0 8 3 2 8 -6 4 -12 19 -13 34 -3 21 0 27 11 22 8 -3 18 -1
22 5 3 6 -1 11 -10 11 -9 0 -13 5 -10 10 3 6 1 10 -4 10 -6 0 -11 11 -11 24 0
35 -10 56 -26 56 -8 0 -14 9 -14 19 0 11 -5 23 -10 26 -6 4 -8 11 -5 16 4 5 1
9 -4 9 -6 0 -11 -4 -11 -10z m120 -405 c0 -5 -5 -3 -10 5 -5 8 -10 20 -10 25
0 6 5 3 10 -5 5 -8 10 -19 10 -25z m43 -195 c4 -22 3 -29 -2 -20 -5 8 -11 35
-15 60 -6 50 6 21 17 -40z"/>
<path d="M664 1261 c8 -12 46 -21 46 -11 0 8 -24 20 -41 20 -6 0 -8 -4 -5 -9z"/>
<path d="M1031 1238 c-6 -16 -4 -28 5 -39 8 -9 11 -19 7 -22 -3 -4 -1 -7 5 -7
18 0 23 18 6 24 -12 4 -15 15 -12 36 5 36 1 39 -11 8z"/>
<path d="M1336 1252 c-3 -5 1 -9 9 -9 8 0 12 4 9 9 -3 4 -7 8 -9 8 -2 0 -6 -4
-9 -8z"/>
<path d="M1650 1223 c0 -13 5 -23 10 -23 13 0 13 11 0 30 -8 12 -10 11 -10 -7z"/>
<path d="M711 1222 c-1 -9 -8 -11 -23 -7 -15 5 -10 -2 15 -20 43 -30 65 -73
45 -87 -7 -5 -25 -11 -40 -15 -20 -4 -28 -12 -28 -27 -1 -11 -9 -46 -20 -76
-23 -66 -17 -73 60 -65 l55 5 -2 -112 c-3 -135 -7 -172 -24 -258 -7 -36 -13
-77 -13 -92 -1 -16 -4 -28 -7 -28 -3 0 -7 -42 -9 -92 -1 -51 -4 -104 -5 -118
-1 -14 -3 -37 -4 -52 0 -16 -5 -28 -9 -28 -13 0 -31 162 -36 325 -6 153 -7
171 -27 287 -6 37 -8 71 -5 76 3 5 -1 9 -10 9 -8 0 -12 -7 -10 -16 24 -82 48
-351 33 -376 -4 -8 -3 -63 3 -122 16 -163 21 -193 30 -188 5 3 11 1 15 -5 9
-15 25 -12 25 5 0 8 4 15 8 15 4 0 9 19 11 43 1 23 6 44 12 45 5 2 6 9 3 14
-9 14 -9 65 0 156 5 52 11 72 21 72 28 0 37 -41 35 -149 -5 -212 -5 -281 1
-281 4 0 12 -13 19 -30 10 -24 18 -30 43 -30 26 0 31 13 6 16 -5 1 -13 2 -17
3 -29 4 -45 267 -26 410 l7 51 18 -24 c11 -13 16 -31 13 -40 -8 -22 13 -20 25
2 9 16 10 16 16 0 4 -10 13 -14 22 -11 12 5 9 10 -14 22 -17 9 -43 26 -59 39
-16 13 -45 33 -64 45 -32 21 -54 67 -32 67 6 0 8 10 5 22 l-5 23 21 -24 c12
-13 21 -29 21 -37 0 -7 4 -15 9 -18 12 -8 1 46 -14 64 -23 27 -27 70 -10 96 9
14 13 30 9 36 -5 8 -1 9 12 4 10 -5 28 -11 39 -14 11 -2 25 -9 32 -14 18 -14
27 10 11 31 -7 10 -32 42 -55 70 -45 55 -64 108 -67 181 -1 44 -12 64 -28 54
-4 -3 -3 -15 3 -26 10 -18 9 -20 -7 -14 -16 5 -17 4 -4 -6 22 -19 14 -58 -13
-58 -12 0 -33 -3 -47 -7 l-25 -6 26 29 c15 16 42 58 60 94 33 64 34 64 37 33
2 -18 7 -33 11 -33 4 0 12 -15 19 -33 7 -19 29 -47 50 -64 57 -45 62 -47 49
-18 -7 14 -24 27 -39 30 -15 4 -30 11 -34 16 -3 6 5 8 20 4 14 -3 38 -7 52
-10 17 -4 24 -11 20 -20 -3 -8 -1 -15 4 -15 15 0 12 46 -2 48 -49 4 -94 14
-103 24 -7 8 -6 9 3 4 18 -11 15 5 -5 21 -12 10 -13 12 -3 8 8 -4 5 2 -7 13
-23 20 -32 39 -13 27 6 -4 5 4 -1 19 -7 14 -15 24 -19 21 -3 -2 -15 10 -25 28
-18 31 -18 31 0 17 16 -13 18 -13 13 0 -2 8 -13 15 -23 15 -10 0 -22 9 -26 20
-4 11 -8 14 -8 7z m-10 -189 c-9 -16 -10 -14 -11 12 0 21 3 26 11 18 8 -8 8
-16 0 -30z m168 -265 c40 -44 39 -45 -22 -19 -36 15 -45 25 -51 51 -11 56 -7
64 16 34 12 -16 37 -46 57 -66z"/>
<path d="M1712 1218 c-14 -14 -16 -28 -3 -28 5 0 11 9 14 20 6 23 5 24 -11 8z"/>
<path d="M2871 1214 c0 -11 3 -14 6 -6 3 7 2 16 -1 19 -3 4 -6 -2 -5 -13z"/>
<path d="M1540 1191 c0 -18 -4 -22 -17 -16 -15 5 -16 4 -5 -6 10 -11 15 -10
29 4 13 13 15 20 5 29 -9 9 -12 7 -12 -11z"/>
<path d="M1880 1195 c0 -8 6 -15 14 -15 22 0 28 17 10 24 -22 9 -24 8 -24 -9z"/>
<path d="M1860 1166 c0 -2 7 -17 15 -32 16 -30 19 -25 9 14 -5 18 -24 33 -24
18z"/>
<path d="M1893 1157 c4 -10 7 -25 7 -33 0 -8 9 -23 20 -34 12 -12 17 -26 13
-36 -5 -13 -10 -10 -24 17 -17 32 -18 33 -19 9 0 -34 31 -54 56 -35 11 8 15
15 11 15 -4 0 -2 10 4 23 11 19 10 20 -3 10 -12 -11 -18 -10 -30 5 -9 9 -14
25 -13 34 2 9 -4 23 -13 30 -13 11 -15 10 -9 -5z"/>
<path d="M875 1140 c9 -30 13 -35 21 -27 3 3 -2 16 -11 29 l-17 23 7 -25z"/>
<path d="M1051 1144 c0 -11 3 -14 6 -6 3 7 2 16 -1 19 -3 4 -6 -2 -5 -13z"/>
<path d="M1965 1149 c-4 -6 -5 -12 -2 -15 2 -3 7 2 10 11 7 17 1 20 -8 4z"/>
<path d="M1782 1095 c0 -16 2 -22 5 -12 2 9 2 23 0 30 -3 6 -5 -1 -5 -18z"/>
<path d="M135 1099 c-4 -6 -5 -12 -2 -15 2 -3 7 2 10 11 7 17 1 20 -8 4z"/>
<path d="M1060 1101 c0 -5 5 -13 10 -16 6 -3 10 -2 10 4 0 5 -4 13 -10 16 -5
3 -10 2 -10 -4z"/>
<path d="M860 1072 c6 -13 14 -21 18 -18 3 4 -2 14 -12 24 -18 16 -18 16 -6
-6z"/>
<path d="M1348 1063 c7 -3 16 -2 19 1 4 3 -2 6 -13 5 -11 0 -14 -3 -6 -6z"/>
<path d="M1250 1056 c0 -7 40 -14 44 -7 3 4 -6 8 -20 9 -13 1 -24 0 -24 -2z"/>
<path d="M1316 1044 c-4 -9 -4 -19 -1 -22 2 -3 7 3 11 12 4 9 4 19 1 22 -2 3
-7 -3 -11 -12z"/>
<path d="M2716 1032 l-19 -27 24 22 c12 12 21 24 18 27 -2 2 -13 -8 -23 -22z"/>
<path d="M2291 1034 c0 -11 3 -14 6 -6 3 7 2 16 -1 19 -3 4 -6 -2 -5 -13z"/>
<path d="M1428 1033 c6 -2 18 -2 25 0 6 3 1 5 -13 5 -14 0 -19 -2 -12 -5z"/>
<path d="M790 1008 c0 -18 41 -98 50 -98 6 0 8 5 5 10 -3 6 -4 10 -1 10 3 0
17 -18 31 -40 14 -22 31 -40 37 -40 7 0 3 6 -8 14 -30 22 -10 29 28 9 l34 -17
-26 -23 -25 -24 37 23 c20 13 37 26 38 30 0 3 -15 11 -34 18 -51 17 -122 67
-145 103 -11 18 -21 29 -21 25z"/>
<path d="M1026 994 c-5 -14 -4 -15 9 -4 17 14 19 20 6 20 -5 0 -12 -7 -15 -16z"/>
<path d="M1225 1000 c-13 -6 -15 -9 -5 -9 8 0 22 4 30 9 18 12 2 12 -25 0z"/>
<path d="M1450 996 c0 -2 8 -10 18 -17 15 -13 16 -12 3 4 -13 16 -21 21 -21
13z"/>
<path d="M85 979 c-4 -6 -5 -12 -2 -15 2 -3 7 2 10 11 7 17 1 20 -8 4z"/>
<path d="M1180 962 c0 -10 -4 -22 -10 -28 -14 -14 -24 -88 -11 -79 6 3 11 -1
11 -9 0 -9 -4 -16 -10 -16 -5 0 -7 -6 -4 -14 4 -10 -3 -16 -22 -18 -15 -2 -29
-9 -32 -15 -5 -17 30 -17 46 -1 9 9 12 9 13 -3 0 -8 4 -6 9 6 10 26 24 195 16
195 -3 0 -6 -8 -6 -18z"/>
<path d="M1231 941 l-34 -18 29 0 c16 0 38 -3 49 -8 18 -8 19 -7 5 9 -14 18
-13 18 20 11 19 -4 44 -12 55 -18 19 -10 19 -10 0 -18 -20 -8 -20 -8 0 -8 11
-1 27 -6 35 -12 11 -7 3 -8 -29 -3 -31 4 -42 3 -37 -5 4 -6 16 -11 27 -11 11
0 18 -4 15 -9 -3 -5 2 -15 12 -22 16 -13 16 -12 2 4 -13 17 -12 19 5 17 61 -7
63 -2 21 43 -67 72 -109 83 -175 48z"/>
<path d="M975 920 c-13 -6 -15 -9 -5 -9 8 0 22 4 30 9 18 12 2 12 -25 0z"/>
<path d="M1072 920 c-18 -4 -34 -9 -35 -11 -1 -2 -8 -14 -15 -26 -7 -14 -8
-23 -2 -23 5 0 10 4 10 9 0 13 69 43 86 37 8 -3 14 1 14 9 0 16 -8 17 -58 5z"/>
<path d="M1210 896 c0 -9 7 -19 15 -22 8 -4 15 -14 16 -23 0 -10 2 -11 6 -3 2
6 13 12 23 12 10 0 20 -6 23 -12 2 -7 4 -1 4 15 1 31 -12 44 -21 22 -6 -17
-32 -20 -40 -6 -4 5 3 7 14 4 11 -3 20 0 20 6 0 6 -6 11 -14 11 -8 0 -21 3
-30 6 -11 4 -16 1 -16 -10z"/>
<path d="M2735 825 c2 -33 6 -76 9 -95 4 -19 8 -44 10 -54 1 -11 7 -21 13 -23
6 -2 3 33 -7 89 -27 142 -29 148 -25 83z"/>
<path d="M1552 856 c7 -8 15 -12 17 -11 5 6 -10 25 -20 25 -5 0 -4 -6 3 -14z"/>
<path d="M2688 816 c-2 -33 1 -54 7 -53 6 1 9 -6 7 -17 -5 -26 18 -116 29
-116 12 0 11 14 -5 82 -8 31 -11 60 -7 64 3 4 0 4 -8 -1 -11 -6 -13 -3 -9 11
10 34 10 39 9 62 -2 44 -19 21 -23 -32z"/>
<path d="M522 830 c0 -14 2 -19 5 -12 2 6 2 18 0 25 -3 6 -5 1 -5 -13z"/>
<path d="M110 825 c0 -8 4 -15 10 -15 5 0 7 7 4 15 -4 8 -8 15 -10 15 -2 0 -4
-7 -4 -15z"/>
<path d="M1120 825 c-11 -13 -10 -14 4 -9 9 3 16 10 16 15 0 13 -6 11 -20 -6z"/>
<path d="M1245 820 c-8 -13 5 -13 25 0 13 8 13 10 -2 10 -9 0 -20 -4 -23 -10z"/>
<path d="M1330 817 c0 -3 11 -18 25 -33 14 -15 25 -23 25 -17 0 5 -11 20 -25
33 -14 13 -25 21 -25 17z"/>
<path d="M1250 802 c-33 -5 -50 -20 -50 -43 0 -11 -4 -19 -10 -19 -5 0 -6 7
-3 17 4 11 3 14 -6 9 -31 -20 21 -131 67 -143 38 -10 60 -5 104 24 28 19 36
29 28 37 -8 8 -14 7 -21 -4 -10 -15 -9 -6 6 49 6 21 -27 51 -57 51 -9 0 -21 6
-25 13 -4 7 -19 11 -33 9z m7 -28 c-3 -3 -12 -4 -19 -1 -8 3 -5 6 6 6 11 1 17
-2 13 -5z m68 -19 c17 -7 24 -14 18 -14 -7 -1 -13 -6 -13 -12 0 -5 5 -7 10 -4
13 8 13 -1 0 -25 -8 -15 -15 -17 -51 -9 -23 5 -50 14 -60 20 -20 10 -27 49 -9
49 6 0 10 -4 10 -10 0 -5 10 -14 23 -20 20 -10 20 -10 5 3 -26 21 -22 27 15
22 25 -4 28 -3 12 4 -13 6 -15 10 -5 10 8 0 29 -6 45 -14z m-84 -71 c8 -10 25
-14 47 -12 25 2 37 -2 40 -12 3 -8 1 -12 -3 -8 -4 4 -14 0 -21 -10 -7 -9 -14
-12 -14 -7 0 6 -12 11 -26 11 -26 2 -68 37 -57 48 10 10 20 7 34 -10z"/>
<path d="M1288 713 c6 -2 18 -2 25 0 6 3 1 5 -13 5 -14 0 -19 -2 -12 -5z"/>
<path d="M920 788 c43 -18 80 -27 80 -20 0 8 -73 32 -92 31 -7 0 -2 -5 12 -11z"/>
<path d="M2768 794 c-4 -3 -3 -14 2 -23 5 -9 13 -36 19 -61 l10 -45 -6 50 c-7
59 -16 88 -25 79z"/>
<path d="M160 783 c0 -5 10 -18 23 -29 l22 -19 -20 25 c-11 14 -21 27 -22 29
-2 2 -3 0 -3 -6z"/>
<path d="M515 631 c0 -86 -4 -193 -8 -238 -8 -78 -7 -83 11 -83 17 0 19 11 25
128 4 70 7 175 7 233 0 93 -2 107 -17 111 -17 4 -18 -8 -18 -151z"/>
<path d="M1620 786 c0 -2 8 -10 18 -17 15 -13 16 -12 3 4 -13 16 -21 21 -21
13z"/>
<path d="M1020 760 c-11 -8 -7 -9 15 -4 37 8 45 14 19 14 -10 0 -26 -5 -34
-10z"/>
<path d="M925 750 c3 -5 16 -10 28 -9 21 0 21 1 2 9 -28 12 -37 12 -30 0z"/>
<path d="M1101 738 c-25 -12 -39 -24 -33 -26 11 -3 82 34 82 44 0 6 -2 6 -49
-18z"/>
<path d="M1666 747 c3 -10 9 -15 12 -12 3 3 0 11 -7 18 -10 9 -11 8 -5 -6z"/>
<path d="M851 701 c13 -11 26 -17 29 -14 6 6 -30 33 -43 33 -5 0 1 -9 14 -19z"/>
<path d="M1132 665 c-26 -60 -59 -107 -48 -70 6 20 6 20 -9 1 -14 -18 -20 -15
-16 8 1 5 -5 6 -14 3 -18 -7 -18 -6 -4 29 10 27 9 27 -9 11 -10 -9 -21 -15
-23 -12 -3 2 -16 6 -30 9 -14 2 -23 9 -21 17 3 11 1 11 -8 2 -18 -17 -3 -33
31 -33 16 0 29 -4 29 -10 0 -5 9 -18 20 -28 l21 -19 -21 -57 c-12 -31 -23 -56
-24 -56 -2 0 -1 24 0 53 5 62 -2 52 -11 -17 -5 -36 -9 -46 -17 -35 -6 10 -7 2
-3 -26 3 -22 8 -67 11 -100 5 -45 12 -67 31 -86 13 -15 20 -28 14 -30 -7 -3
-7 -9 -1 -19 8 -13 10 -12 10 3 0 10 5 15 10 12 6 -3 10 -14 10 -23 0 -12 16
-23 49 -35 63 -22 77 -21 26 2 -22 10 -50 29 -61 42 -35 39 -73 116 -73 146 1
15 0 42 -1 58 -2 20 10 51 34 89 20 33 36 66 36 73 0 11 5 11 20 3 17 -9 19
-18 15 -88 -3 -51 -2 -69 4 -52 5 14 9 38 10 53 1 18 5 26 12 21 8 -4 8 0 0
15 -7 11 -9 21 -5 21 3 0 1 6 -5 14 -9 11 -7 27 8 71 11 32 22 59 23 61 2 1 3
-100 2 -224 l0 -227 6 185 c3 102 7 177 8 167 3 -29 31 -76 51 -87 30 -16 80
0 117 37 19 18 34 39 34 44 0 6 -17 -5 -37 -25 -21 -20 -43 -36 -49 -36 -7 0
-20 -3 -28 -6 -12 -4 -15 -2 -10 9 3 8 1 18 -5 21 -6 4 -7 14 -4 23 4 11 3 14
-6 9 -6 -4 -9 -16 -6 -26 3 -10 2 -21 -3 -24 -13 -8 -52 80 -53 122 -1 70 -12
75 -37 17z"/>
<path d="M116 674 c-21 -129 -35 -594 -20 -651 4 -13 13 -23 20 -23 11 0 13 9
7 43 -5 23 -8 89 -8 147 0 58 -4 108 -10 112 -7 5 -6 8 0 8 6 0 9 20 7 48 -3
51 16 235 28 267 7 18 8 18 15 -7 4 -15 13 -29 20 -31 7 -3 11 -15 8 -31 -3
-14 0 -39 5 -56 6 -16 7 -30 2 -30 -5 0 -11 8 -14 18 -3 9 -4 4 -2 -13 2 -16
-2 -42 -10 -56 -7 -15 -16 -45 -20 -67 -5 -34 -3 -41 12 -45 17 -4 17 -5 2 -6
-19 -1 -23 -12 -11 -25 4 -4 6 -28 5 -54 -2 -36 0 -43 8 -32 8 11 9 5 4 -24
-4 -26 -3 -37 4 -33 13 9 22 -15 22 -61 0 -20 6 -45 14 -54 11 -15 12 -10 10
32 -2 28 -8 59 -14 69 -5 11 -10 28 -10 38 1 17 39 -52 40 -71 0 -15 52 -86
62 -86 4 0 -17 47 -48 105 -50 95 -56 112 -61 181 l-5 77 54 -59 c30 -32 71
-77 90 -99 22 -24 70 -58 122 -84 53 -27 100 -60 121 -84 40 -46 47 -40 10 9
-27 35 -106 94 -132 98 -8 1 -30 20 -50 41 -26 28 -37 52 -45 94 -5 31 -14 77
-18 103 -10 57 -8 52 -87 150 -34 43 -76 101 -92 129 l-29 51 -6 -38z m112
-157 c7 -9 10 -22 6 -29 -4 -6 -3 -8 4 -4 6 3 18 -4 26 -16 19 -26 21 -74 5
-84 -8 -5 -10 1 -7 18 5 29 -25 78 -36 59 -4 -6 -3 -11 3 -11 6 0 8 -14 5 -32
-4 -28 -3 -30 5 -10 15 32 21 27 11 -9 -9 -32 -9 -32 41 -43 19 -4 28 -14 31
-33 3 -16 9 -37 13 -48 8 -19 6 -18 -17 3 -13 12 -35 22 -49 23 -20 0 -21 2
-6 8 17 6 16 8 -5 28 -13 11 -33 24 -45 28 -25 7 -30 34 -12 66 7 14 7 35 1
64 -10 47 1 56 26 22z m82 -121 c0 -39 -6 -31 -14 19 -5 29 -4 36 3 25 6 -8
11 -28 11 -44z"/>
<path d="M1930 700 c0 -5 5 -10 11 -10 5 0 7 5 4 10 -3 6 -8 10 -11 10 -2 0
-4 -4 -4 -10z"/>
<path d="M796 683 c-3 -3 6 -12 21 -20 34 -17 41 -10 9 10 -13 9 -26 13 -30
10z"/>
<path d="M1028 683 c7 -3 16 -2 19 1 4 3 -2 6 -13 5 -11 0 -14 -3 -6 -6z"/>
<path d="M1901 658 c-5 -13 -10 -77 -13 -143 -2 -66 -2 -106 1 -90 4 17 5 -48
3 -144 -3 -97 -1 -171 4 -168 5 3 9 -20 9 -51 0 -51 2 -57 23 -60 19 -3 22 1
22 34 0 23 -7 42 -17 51 -10 8 -13 12 -6 9 9 -5 11 59 11 261 0 173 3 278 11
296 10 25 9 27 -14 27 -17 0 -28 -7 -34 -22z m26 -80 c-2 -13 -4 -5 -4 17 -1
22 1 32 4 23 2 -10 2 -28 0 -40z m-20 0 c-3 -7 -5 -2 -5 12 0 14 2 19 5 13 2
-7 2 -19 0 -25z m0 -65 c-3 -10 -5 -2 -5 17 0 19 2 27 5 18 2 -10 2 -26 0 -35z
m20 15 c-3 -8 -6 -5 -6 6 -1 11 2 17 5 13 3 -3 4 -12 1 -19z m-8 -59 c1 13 4
22 7 18 4 -3 3 -18 0 -34 -6 -21 -9 -24 -17 -12 -5 7 -8 23 -8 34 1 16 2 16 9
-5 l8 -25 1 24z m-2 -81 c-3 -7 -5 -2 -5 12 0 14 2 19 5 13 2 -7 2 -19 0 -25z
m-10 -80 c-2 -13 -4 -5 -4 17 -1 22 1 32 4 23 2 -10 2 -28 0 -40z m20 15 c-3
-10 -5 -4 -5 12 0 17 2 24 5 18 2 -7 2 -21 0 -30z m-20 -125 c-2 -13 -4 -3 -4
22 0 25 2 35 4 23 2 -13 2 -33 0 -45z m20 -10 c-2 -13 -4 -3 -4 22 0 25 2 35
4 23 2 -13 2 -33 0 -45z m0 -60 c-3 -7 -5 -2 -5 12 0 14 2 19 5 13 2 -7 2 -19
0 -25z m-10 -90 c-3 -8 -6 -5 -6 6 -1 11 2 17 5 13 3 -3 4 -12 1 -19z m20 0
c-3 -8 -6 -5 -6 6 -1 11 2 17 5 13 3 -3 4 -12 1 -19z"/>
<path d="M1834 597 c0 -34 -3 -83 -6 -109 -2 -26 0 -44 4 -42 5 3 5 -7 1 -23
-10 -35 -10 -289 1 -364 5 -38 11 -56 22 -56 7 0 14 5 14 11 0 6 5 4 10 -4 8
-10 9 5 4 50 -4 36 -10 66 -13 67 -3 2 -4 64 -1 139 4 101 2 138 -7 146 -15
12 -17 32 -3 23 6 -3 10 5 10 19 0 13 3 31 6 40 4 11 -2 19 -17 25 -23 9 -23
10 -3 10 20 1 21 4 13 39 -11 48 -11 60 1 42 9 -13 10 -13 10 0 -1 17 -21 44
-35 47 -6 1 -10 -25 -11 -60z m7 -110 c-10 -9 -11 -8 -5 6 3 10 9 15 12 12 3
-3 0 -11 -7 -18z m14 -97 c3 -5 1 -10 -4 -10 -6 0 -11 5 -11 10 0 6 2 10 4 10
3 0 8 -4 11 -10z m2 -67 c-3 -10 -5 -2 -5 17 0 19 2 27 5 18 2 -10 2 -26 0
-35z m-20 15 c-3 -8 -6 -5 -6 6 -1 11 2 17 5 13 3 -3 4 -12 1 -19z m20 -100
c-2 -13 -4 -3 -4 22 0 25 2 35 4 23 2 -13 2 -33 0 -45z m-20 10 c-3 -7 -5 -2
-5 12 0 14 2 19 5 13 2 -7 2 -19 0 -25z m20 -68 c-2 -11 -7 -23 -12 -27 -4 -5
-5 -2 -1 5 4 6 2 12 -4 12 -7 0 -6 5 2 15 17 19 18 19 15 -5z m-10 -102 c-3
-7 -5 -2 -5 12 0 14 2 19 5 13 2 -7 2 -19 0 -25z"/>
<path d="M819 626 c29 -31 35 -33 22 -7 -6 10 -18 22 -28 25 -13 5 -11 1 6
-18z"/>
<path d="M913 626 c9 -13 18 -35 21 -48 7 -36 35 -105 35 -88 2 46 -43 160
-63 160 -4 0 -1 -11 7 -24z"/>
<path d="M581 614 c0 -11 3 -14 6 -6 3 7 2 16 -1 19 -3 4 -6 -2 -5 -13z"/>
<path d="M886 605 c3 -14 7 -36 8 -49 0 -13 4 -22 9 -19 4 2 7 0 7 -6 0 -21
-21 -21 -29 1 -6 15 -10 17 -10 7 -1 -9 7 -27 18 -40 10 -13 19 -28 19 -32 0
-5 3 -12 7 -15 4 -4 6 -2 5 3 -6 30 2 35 20 14 10 -13 19 -19 20 -13 0 6 -9
19 -20 29 -16 15 -18 21 -7 33 10 13 9 14 -2 7 -11 -6 -13 -4 -8 9 4 9 3 15
-2 12 -10 -6 -21 26 -21 62 0 12 -5 22 -10 22 -6 0 -8 -11 -4 -25z m31 -100
c0 -8 -4 -15 -9 -15 -10 0 -11 14 -1 23 9 10 10 9 10 -8z"/>
<path d="M1460 617 c0 -9 5 -40 12 -69 6 -29 11 -60 9 -68 -1 -11 0 -12 7 -2
5 7 3 40 -5 79 -14 67 -23 91 -23 60z"/>
<path d="M1430 601 c0 -10 -6 -34 -14 -52 -7 -19 -16 -50 -20 -69 -3 -24 1
-17 13 20 18 52 19 53 20 21 2 -54 10 -31 15 37 2 34 -1 62 -5 62 -5 0 -9 -8
-9 -19z"/>
<path d="M1710 600 c-36 -121 -39 -165 -33 -382 4 -129 10 -218 16 -218 6 0 7
82 2 223 -6 203 -5 227 13 283 11 36 16 68 11 80 -4 10 -8 17 -9 14z"/>
<path d="M835 580 c-3 -5 -1 -10 4 -10 6 0 11 5 11 10 0 6 -2 10 -4 10 -3 0
-8 -4 -11 -10z"/>
<path d="M1280 555 c-14 -16 -10 -18 14 -9 9 3 16 10 16 15 0 14 -16 11 -30
-6z"/>
<path d="M840 551 c0 -14 28 -71 35 -71 5 0 -22 70 -30 79 -3 2 -5 -1 -5 -8z"/>
<path d="M2805 540 c-3 -5 -11 -7 -18 -4 -8 3 -24 0 -38 -5 -19 -8 -15 -9 21
-5 25 3 51 6 58 6 6 1 12 5 12 10 0 11 -27 10 -35 -2z"/>
<path d="M1452 520 c0 -14 2 -19 5 -12 2 6 2 18 0 25 -3 6 -5 1 -5 -13z"/>
<path d="M1071 509 c0 -15 -3 -42 -6 -60 l-5 -34 11 34 c5 18 8 45 6 60 l-4
26 -2 -26z"/>
<path d="M2696 521 c-4 -5 -2 -20 3 -33 9 -21 9 -20 8 9 -2 36 -3 38 -11 24z"/>
<path d="M1535 495 c39 -32 58 -32 22 0 -15 14 -33 25 -40 25 -7 0 2 -11 18
-25z"/>
<path d="M1717 498 c-3 -13 -6 -129 -7 -259 0 -205 2 -236 15 -236 8 0 15 7
16 16 0 12 3 11 9 -4 8 -18 9 -17 9 8 1 16 -2 26 -6 24 -5 -3 -8 96 -8 219 0
151 -4 229 -11 239 -10 14 -12 13 -17 -7z m20 -70 c-3 -8 -6 -5 -6 6 -1 11 2
17 5 13 3 -3 4 -12 1 -19z m-10 -390 c-2 -13 -4 -5 -4 17 -1 22 1 32 4 23 2
-10 2 -28 0 -40z"/>
<path d="M1195 490 c-6 -10 34 -35 43 -26 3 3 0 6 -7 6 -7 0 -10 4 -7 9 3 5
-1 11 -9 15 -8 3 -17 1 -20 -4z"/>
<path d="M307 479 c7 -7 15 -10 18 -7 3 3 -2 9 -12 12 -14 6 -15 5 -6 -5z"/>
<path d="M1175 394 c1 -56 8 -110 14 -120 10 -15 11 -1 6 66 -10 136 -23 172
-20 54z"/>
<path d="M1500 440 c6 -11 16 -20 22 -20 6 0 3 9 -7 20 -10 11 -20 20 -22 20
-2 0 1 -9 7 -20z"/>
<path d="M1315 419 c-9 -17 -15 -34 -13 -39 2 -5 11 9 20 30 20 47 15 53 -7 9z"/>
<path d="M2662 442 c-8 -5 1 -8 23 -8 19 1 35 4 35 9 0 9 -42 9 -58 -1z"/>
<path d="M1228 415 c-10 -13 -18 -30 -18 -37 0 -7 9 2 21 21 24 39 22 49 -3
16z"/>
<path d="M1271 418 c-6 -10 -11 -25 -11 -33 0 -9 -4 -14 -9 -10 -21 12 -47
-81 -30 -105 8 -12 9 -10 4 7 -3 12 -2 24 4 27 5 3 7 16 4 29 -3 13 -1 17 4
11 5 -7 19 7 39 41 17 29 25 52 19 52 -7 0 -17 -9 -24 -19z"/>
<path d="M1020 423 c0 -5 5 -15 10 -23 8 -12 10 -11 10 8 0 12 -4 22 -10 22
-5 0 -10 -3 -10 -7z"/>
<path d="M1526 405 c-11 -8 -28 -15 -39 -15 -10 0 -16 -4 -13 -9 9 -14 73 9
73 25 0 8 -1 14 -1 14 -1 0 -10 -7 -20 -15z"/>
<path d="M1070 395 c-8 -9 -8 -15 -2 -15 12 0 26 19 19 26 -2 2 -10 -2 -17
-11z"/>
<path d="M1390 348 c0 -31 -3 -65 -6 -75 -6 -16 -5 -16 9 2 8 10 12 25 10 33
-3 7 7 26 23 43 20 21 25 32 17 40 -7 7 -14 2 -21 -20 -11 -32 -27 -44 -18
-13 3 9 1 24 -4 32 -7 11 -10 -2 -10 -42z"/>
<path d="M1565 380 c3 -5 8 -10 11 -10 2 0 4 5 4 10 0 6 -5 10 -11 10 -5 0 -7
-4 -4 -10z"/>
<path d="M1436 339 c-15 -12 -25 -26 -23 -33 2 -6 -5 -24 -17 -41 -11 -16 -22
-40 -24 -53 -3 -23 -2 -23 23 -6 18 12 25 23 21 37 -6 23 3 49 14 42 5 -3 12
0 16 6 4 7 3 9 -4 5 -25 -16 -22 18 4 40 36 29 27 32 -10 3z"/>
<path d="M2486 344 c-3 -8 -2 -24 4 -33 10 -21 -19 -147 -51 -218 -10 -24 -19
-49 -19 -56 0 -7 -5 -18 -12 -25 -9 -9 -7 -12 10 -12 12 0 22 6 22 12 0 11 39
115 47 127 2 3 11 -3 20 -12 16 -15 16 -18 0 -35 -9 -10 -17 -23 -17 -28 0 -5
7 -1 15 10 7 10 18 15 23 12 5 -3 9 2 8 11 -1 13 11 19 51 26 38 6 50 12 46
22 -4 12 -10 12 -39 0 -19 -8 -34 -11 -34 -7 0 3 -5 1 -12 -6 -8 -8 -18 -6
-40 9 -15 11 -28 25 -28 30 0 6 7 3 16 -5 22 -23 29 -20 12 7 -14 23 -13 57 2
57 8 0 8 18 1 113 -1 21 -17 22 -25 1z"/>
<path d="M2745 350 c3 -5 1 -10 -4 -10 -6 0 -11 -9 -11 -20 0 -15 7 -20 25
-20 14 0 25 5 25 10 0 6 -3 9 -7 9 -21 -3 -34 2 -28 11 4 6 12 7 18 3 7 -4 6
0 -2 10 -15 18 -26 23 -16 7z"/>
<path d="M371 324 c0 -11 3 -14 6 -6 3 7 2 16 -1 19 -3 4 -6 -2 -5 -13z"/>
<path d="M1030 335 c0 -6 11 -27 25 -46 13 -20 22 -39 19 -41 -2 -3 2 -11 10
-17 11 -9 16 -9 22 0 4 8 3 9 -4 5 -7 -4 -12 -1 -12 9 0 10 5 13 12 9 7 -5 8
-3 3 6 -4 7 -2 16 6 22 11 8 10 9 -3 4 -10 -3 -18 -1 -18 4 0 6 -7 10 -16 10
-9 0 -12 5 -8 12 4 6 3 8 -4 4 -6 -3 -15 2 -21 11 -6 10 -11 13 -11 8z"/>
<path d="M1470 320 c-6 -11 -8 -20 -6 -20 3 0 10 9 16 20 6 11 8 20 6 20 -3 0
-10 -9 -16 -20z"/>
<path d="M2690 330 c-8 -5 -10 -10 -5 -10 6 0 17 5 25 10 8 5 11 10 5 10 -5 0
-17 -5 -25 -10z"/>
<path d="M425 320 c3 -5 8 -10 11 -10 2 0 4 5 4 10 0 6 -5 10 -11 10 -5 0 -7
-4 -4 -10z"/>
<path d="M2280 273 c0 -30 3 -52 8 -50 4 3 6 -29 4 -70 -3 -60 -1 -74 10 -68
9 6 10 5 3 -4 -6 -6 -9 -27 -7 -46 3 -26 9 -35 23 -35 16 0 19 8 19 46 0 25
-5 55 -11 66 -8 15 -8 19 0 14 8 -5 11 20 9 85 -1 52 -5 83 -9 73 -6 -16 -8
-15 -8 7 -1 18 -8 28 -21 32 -18 5 -20 0 -20 -50z"/>
<path d="M406 310 c6 -8 10 -23 9 -32 -2 -10 1 -20 6 -24 5 -3 9 -18 9 -33 0
-16 9 -39 21 -52 16 -20 18 -20 11 -4 -5 11 -15 46 -22 78 -7 31 -20 63 -29
70 -14 10 -14 10 -5 -3z"/>
<path d="M586 305 c-3 -8 -1 -15 4 -15 6 0 10 7 10 15 0 8 -2 15 -4 15 -2 0
-6 -7 -10 -15z"/>
<path d="M190 305 c0 -16 110 -139 139 -154 14 -8 28 -17 31 -20 3 -3 23 -14
45 -24 22 -10 51 -26 65 -35 14 -9 31 -17 39 -18 8 -2 18 -9 23 -16 8 -11 9
-10 6 1 -2 7 -26 25 -53 40 -125 66 -155 88 -222 160 -40 42 -73 71 -73 66z"/>
<path d="M2612 280 c6 -40 1 -60 -14 -60 -6 0 -8 13 -5 33 l6 32 -16 -30 c-8
-16 -27 -40 -42 -52 -14 -12 -21 -22 -15 -23 6 0 19 9 29 20 21 23 44 28 25 5
-21 -25 5 -17 29 9 17 18 21 32 17 56 -2 17 -8 35 -12 38 -4 4 -5 -9 -2 -28z"/>
<path d="M0 289 c0 -5 5 -7 10 -4 5 3 10 8 10 11 0 2 -4 4 -10 4 -5 0 -10 -5
-10 -11z"/>
<path d="M378 261 c-3 -32 2 -44 24 -66 l27 -27 -20 51 c-11 29 -17 56 -14 61
3 5 1 11 -4 14 -5 3 -11 -12 -13 -33z"/>
<path d="M484 266 c-3 -19 -4 -41 -1 -48 2 -7 0 -21 -5 -30 -7 -14 -2 -22 24
-38 38 -23 62 -27 32 -6 -20 15 -25 72 -10 129 5 23 3 27 -13 27 -15 0 -22 -9
-27 -34z"/>
<path d="M1511 262 c-21 -23 -35 -32 -38 -24 -3 6 -14 13 -26 13 -17 1 -18 2
-4 6 9 2 17 9 17 14 0 6 -8 5 -20 -1 -26 -14 -25 -16 8 -34 15 -8 21 -15 13
-16 -8 0 -12 -3 -9 -6 9 -9 56 25 79 57 28 39 21 36 -20 -9z"/>
<path d="M2650 283 c0 -5 14 -22 31 -39 23 -21 29 -23 21 -9 -13 25 -52 62
-52 48z"/>
<path d="M2736 279 c2 -4 11 -6 18 -3 16 6 31 -29 21 -46 -10 -16 -25 -12 -25
7 0 9 -3 14 -6 10 -3 -3 -3 -15 1 -26 10 -32 45 -9 45 29 0 17 -3 31 -7 31
-33 6 -52 5 -47 -2z"/>
<path d="M452 260 c0 -14 2 -19 5 -12 2 6 2 18 0 25 -3 6 -5 1 -5 -13z"/>
<path d="M581 264 c0 -11 3 -14 6 -6 3 7 2 16 -1 19 -3 4 -6 -2 -5 -13z"/>
<path d="M196 260 c19 -39 81 -104 137 -144 78 -55 188 -116 211 -116 10 0
-13 16 -50 36 -108 57 -207 129 -258 186 -26 29 -44 46 -40 38z"/>
<path d="M2801 254 c0 -11 3 -14 6 -6 3 7 2 16 -1 19 -3 4 -6 -2 -5 -13z"/>
<path d="M630 244 c0 -10 5 -26 10 -34 8 -11 9 -7 4 15 -8 37 -14 45 -14 19z"/>
<path d="M989 223 c-13 -16 -12 -17 4 -4 16 13 21 21 13 21 -2 0 -10 -8 -17
-17z"/>
<path d="M582 173 c0 -68 5 -75 66 -104 26 -12 60 -31 75 -42 16 -10 31 -17
34 -13 3 3 -2 8 -11 12 -9 3 -13 11 -9 17 4 6 0 8 -10 4 -10 -4 -20 0 -25 9
-5 9 -13 15 -18 15 -5 -1 -10 10 -12 24 -3 23 -5 24 -19 10 -14 -14 -17 -14
-35 2 -13 12 -18 27 -16 45 3 16 0 28 -5 28 -5 0 -7 9 -4 20 3 11 1 22 -3 25
-5 3 -8 -21 -8 -52z"/>
<path d="M1125 220 c-9 -14 11 -38 46 -56 35 -18 49 -18 49 0 0 7 -15 21 -32
30 l-33 17 30 -4 c17 -2 39 -8 50 -12 17 -7 18 -6 7 6 -8 8 -33 14 -62 14 -26
0 -46 3 -43 8 2 4 2 7 -1 7 -3 0 -8 -5 -11 -10z m60 -40 c8 -13 -5 -13 -25 0
-13 8 -13 10 2 10 9 0 20 -4 23 -10z"/>
<path d="M2206 215 c-9 -26 -7 -32 5 -12 6 10 9 21 6 23 -2 3 -7 -2 -11 -11z"/>
<path d="M2642 195 c0 -16 2 -22 5 -12 2 9 2 23 0 30 -3 6 -5 -1 -5 -18z"/>
<path d="M879 191 c8 -5 11 -17 7 -32 -6 -21 -5 -22 4 -6 13 21 6 47 -12 47
-10 0 -10 -2 1 -9z"/>
<path d="M981 192 c-1 -12 55 -52 72 -52 15 0 1 25 -14 26 -35 2 -40 5 -33 16
4 6 3 8 -4 4 -5 -3 -13 0 -15 6 -4 10 -6 10 -6 0z"/>
<path d="M2660 184 c0 -8 5 -12 10 -9 6 4 8 11 5 16 -9 14 -15 11 -15 -7z"/>
<path d="M2414 181 c4 -5 1 -11 -6 -13 -8 -3 -7 -6 3 -10 10 -4 15 1 16 13 1
10 -3 19 -8 19 -6 0 -8 -4 -5 -9z"/>
<path d="M2753 178 c15 -41 17 -57 7 -63 -6 -4 -16 -2 -23 3 -7 5 -25 8 -42 6
-16 -2 -54 -7 -82 -10 -29 -3 -53 -11 -53 -16 0 -7 19 -8 53 -3 86 13 137 11
147 -5 8 -12 10 -10 11 10 1 14 2 32 3 40 1 8 4 20 8 26 9 13 0 24 -20 24 -8
0 -12 -6 -9 -12z"/>
<path d="M651 162 c-1 -15 -5 -21 -13 -16 -10 5 -10 4 -1 -6 17 -18 26 -8 20
22 l-4 23 -2 -23z"/>
<path d="M973 151 c3 -35 53 -62 85 -45 23 11 23 11 -7 17 -17 4 -38 4 -48 0
-11 -4 -14 -3 -9 5 4 7 3 12 -3 12 -5 0 -12 8 -15 18 -3 10 -4 7 -3 -7z"/>
<path d="M2536 153 c-6 -14 -5 -15 5 -6 7 7 10 15 7 18 -3 3 -9 -2 -12 -12z"/>
<path d="M1073 136 c-3 -6 -3 -8 1 -5 4 4 27 1 52 -7 25 -7 44 -9 44 -4 0 6
-3 10 -7 10 -5 0 -25 4 -46 9 -26 6 -39 5 -44 -3z"/>
<path d="M872 98 c-6 -17 -9 -34 -7 -37 3 -2 5 2 5 10 1 8 7 3 15 -11 12 -21
14 -22 15 -6 0 12 5 16 14 13 10 -4 13 -1 9 9 -4 11 -9 12 -19 3 -15 -12 -17
-7 -14 29 2 31 -3 28 -18 -10z"/>
<path d="M1180 121 c0 -16 39 -19 57 -5 16 12 14 13 -19 14 -21 0 -38 -4 -38
-9z"/>
<path d="M711 104 c0 -11 3 -14 6 -6 3 7 2 16 -1 19 -3 4 -6 -2 -5 -13z"/>
<path d="M900 111 c0 -5 9 -7 20 -4 11 3 20 7 20 9 0 2 -9 4 -20 4 -11 0 -20
-4 -20 -9z"/>
<path d="M1050 98 c0 -10 92 -99 97 -94 3 3 -11 21 -32 41 -42 37 -40 39 18
26 20 -5 37 -5 37 -1 0 4 -17 10 -37 14 -21 3 -48 9 -60 12 -13 4 -23 4 -23 2z"/>
<path d="M2213 55 c0 -27 2 -38 4 -22 2 15 2 37 0 50 -2 12 -4 0 -4 -28z"/>
<path d="M955 79 c4 -5 11 -7 16 -4 5 4 9 1 9 -5 0 -6 5 -8 11 -5 13 9 7 15
-20 20 -12 2 -19 0 -16 -6z"/>
<path d="M1240 79 c0 -5 5 -7 10 -4 6 3 10 8 10 11 0 2 -4 4 -10 4 -5 0 -10
-5 -10 -11z"/>
<path d="M2189 78 c-1 -7 -1 -16 0 -20 0 -5 -7 -8 -16 -9 -11 0 -13 -3 -5 -6
6 -2 12 -11 12 -19 0 -9 -4 -12 -10 -9 -5 3 -10 1 -10 -4 0 -6 9 -11 20 -11
17 0 20 7 20 45 0 25 -2 45 -5 45 -3 0 -6 -6 -6 -12z"/>
<path d="M1250 53 c-25 -13 -47 -28 -49 -35 -2 -6 7 -4 20 5 32 23 46 21 24
-3 -15 -17 -16 -20 -3 -20 17 0 31 26 23 41 -4 5 0 6 8 4 7 -3 22 3 32 15 24
27 4 25 -55 -7z"/>
<path d="M1535 69 c-4 -6 -5 -12 -2 -15 2 -3 7 2 10 11 7 17 1 20 -8 4z"/>
<path d="M73 35 c0 -22 2 -30 4 -17 2 12 2 30 0 40 -3 9 -5 -1 -4 -23z"/>
<path d="M947 50 c3 -11 11 -25 19 -31 11 -9 14 -8 14 7 0 11 -9 25 -19 31
-16 10 -18 9 -14 -7z"/>
<path d="M1186 57 c3 -10 9 -15 12 -12 3 3 0 11 -7 18 -10 9 -11 8 -5 -6z"/>
<path d="M1359 53 c-13 -16 -12 -17 4 -4 16 13 21 21 13 21 -2 0 -10 -8 -17
-17z"/>
<path d="M1030 50 c0 -5 7 -10 16 -10 8 0 12 5 9 10 -3 6 -10 10 -16 10 -5 0
-9 -4 -9 -10z"/>
<path d="M2538 53 c12 -2 30 -2 40 0 9 3 -1 5 -23 4 -22 0 -30 -2 -17 -4z"/>
<path d="M2650 39 c-29 -10 -55 -21 -58 -24 -8 -8 4 -6 35 6 15 6 48 14 73 18
33 5 40 8 24 13 -12 3 -45 -3 -74 -13z"/>
<path d="M2476 35 c-9 -26 -7 -32 5 -12 6 10 9 21 6 23 -2 3 -7 -2 -11 -11z"/>
<path d="M230 26 c0 -8 5 -18 10 -21 6 -3 10 1 10 9 0 8 -4 18 -10 21 -5 3
-10 -1 -10 -9z"/>
<path d="M1000 19 c0 -5 5 -7 10 -4 6 3 10 8 10 11 0 2 -4 4 -10 4 -5 0 -10
-5 -10 -11z"/>
<path d="M1050 20 c0 -5 7 -10 16 -10 8 0 12 5 9 10 -3 6 -10 10 -16 10 -5 0
-9 -4 -9 -10z"/>
</g>
</svg>
