<?xml version="1.0" standalone="no"?>
<!DOCTYPE svg PUBLIC "-//W3C//DTD SVG 20010904//EN"
 "http://www.w3.org/TR/2001/REC-SVG-20010904/DTD/svg10.dtd">
<svg version="1.0" xmlns="http://www.w3.org/2000/svg"
 width="300.000000pt" height="182.000000pt" viewBox="0 0 300.000000 182.000000"
 preserveAspectRatio="xMidYMid meet">
<metadata>
Created by potrace 1.10, written by Peter Selinger 2001-2011
</metadata>
<g transform="translate(0.000000,182.000000) scale(0.100000,-0.100000)"
fill="#000000" stroke="none">
<path d="M1314 1785 c-15 -15 -24 -20 -21 -11 4 9 2 16 -3 16 -14 0 -19 -15
-10 -30 9 -15 2 -40 -12 -40 -5 0 -6 4 -3 10 4 6 -1 7 -11 3 -15 -6 -15 -7 0
-15 12 -7 14 -14 8 -21 -17 -21 -24 -75 -13 -95 6 -11 13 -41 15 -66 3 -25 15
-64 27 -86 21 -37 39 -52 39 -31 0 12 37 2 50 -14 14 -17 66 -1 104 32 14 13
28 23 31 23 12 0 -1 14 -15 16 -8 1 -24 5 -35 9 -16 5 -15 3 5 -14 20 -17 22
-21 8 -21 -10 0 -18 -5 -18 -10 0 -18 -53 -33 -72 -21 -10 6 -25 11 -33 11
-13 0 -13 4 2 28 l17 27 -27 -24 c-15 -14 -28 -23 -30 -20 -1 2 -9 13 -17 23
-14 17 -13 18 6 12 28 -9 70 14 66 37 -4 19 -42 23 -73 7 -23 -13 -25 -4 -4
16 10 11 26 13 52 9 36 -6 37 -5 19 9 -25 20 -46 20 -72 1 -21 -14 -22 -13
-27 36 -10 82 13 111 77 100 5 -1 6 5 2 14 -4 12 -1 15 13 10 31 -9 51 5 51
37 0 16 4 27 9 24 5 -4 12 0 14 6 3 7 5 1 4 -14 -1 -15 -5 -24 -9 -22 -4 3 -8
0 -8 -6 0 -8 9 -10 26 -6 17 5 35 1 51 -9 23 -16 25 -15 30 4 4 17 8 19 19 10
12 -10 12 -14 -2 -24 -21 -15 -10 -37 13 -28 11 4 14 3 9 -6 -4 -6 -2 -20 6
-29 11 -15 11 -15 -3 -5 -9 7 -19 10 -22 6 -10 -9 -9 -25 1 -19 4 2 6 -13 4
-34 -2 -21 1 -41 7 -44 7 -5 11 3 11 22 0 29 21 58 33 45 13 -12 7 -43 -9 -43
-8 0 -12 -4 -9 -10 3 -5 1 -20 -5 -32 -11 -22 -10 -22 8 1 l20 25 -5 -27 c-3
-15 -12 -27 -20 -27 -10 0 -12 -7 -8 -22 4 -13 9 -31 11 -40 3 -10 10 -18 15
-18 14 0 11 -28 -3 -33 -10 -4 -10 -6 0 -6 6 -1 12 -8 12 -17 0 -8 -4 -12 -10
-9 -6 3 -7 -1 -4 -9 8 -20 23 -20 30 -1 4 8 10 13 14 10 13 -8 18 8 9 30 -6
17 -8 17 -8 3 -1 -20 -16 -24 -27 -6 -4 6 -3 8 3 5 6 -4 13 -1 16 7 4 9 14 12
27 9 16 -4 23 0 27 15 3 13 10 19 19 15 8 -3 14 0 14 7 0 6 4 9 9 6 5 -3 11 4
14 15 3 12 10 18 16 15 5 -4 12 2 16 13 6 20 49 36 67 25 6 -4 9 -1 6 7 -3 8
-12 13 -19 11 -8 -2 -11 0 -6 4 9 9 47 13 47 5 0 -4 12 -8 27 -9 28 -2 43 -17
43 -42 0 -10 -7 -7 -20 10 l-19 25 8 -30 c7 -25 12 -30 35 -27 15 2 38 -6 53
-17 24 -20 50 -20 38 0 -6 9 7 13 39 9 12 -1 16 2 11 11 -5 8 -4 10 4 5 16
-11 -6 -37 -28 -34 -12 2 -15 -4 -13 -22 2 -21 1 -22 -8 -10 -9 12 -10 10 -4
-10 5 -14 8 -73 9 -132 0 -95 -2 -110 -22 -137 -13 -16 -23 -35 -23 -42 0 -6
-10 -27 -22 -47 -14 -22 -17 -33 -8 -30 8 2 20 23 29 46 15 42 34 57 30 25 -4
-41 2 -63 16 -63 10 0 13 10 11 38 -2 20 1 43 7 50 6 7 11 60 11 117 1 92 3
104 17 100 10 -3 19 1 23 10 3 8 12 15 21 15 17 0 20 -16 5 -25 -6 -4 -4 -17
5 -36 9 -16 11 -29 5 -29 -5 0 -10 5 -10 10 0 6 -5 10 -10 10 -6 0 -8 -11 -4
-25 4 -18 1 -27 -10 -31 -9 -3 -16 -16 -16 -28 1 -20 1 -20 15 4 7 14 17 23
21 20 13 -8 15 -38 4 -45 -6 -4 -7 -13 -1 -23 13 -25 2 -82 -16 -82 -10 0 -12
-6 -8 -20 5 -14 2 -20 -9 -20 -9 0 -16 5 -16 10 0 6 -8 10 -17 9 -10 0 -13 -3
-6 -5 7 -3 10 -11 7 -19 -3 -7 0 -16 7 -21 8 -5 10 -3 4 6 -5 9 -2 10 13 6 11
-4 40 -10 63 -14 l44 -8 -3 -47 c-3 -41 -1 -47 16 -47 11 0 23 6 25 13 4 7 6
6 6 -4 1 -9 8 -22 16 -29 8 -7 15 -29 16 -49 0 -20 4 -45 9 -56 6 -15 9 -7 9
30 l1 50 21 -34 c18 -30 20 -45 15 -105 -3 -39 -6 -79 -7 -88 0 -9 -7 -19 -15
-22 -10 -4 -14 4 -15 32 -1 20 -1 41 0 45 1 5 -2 6 -7 3 -5 -3 -7 -45 -6 -93
2 -48 -1 -100 -7 -114 -7 -19 -6 -44 5 -93 15 -64 14 -100 -5 -137 -7 -14 -16
-15 -44 -9 -21 5 -35 4 -35 -2 0 -5 -4 -7 -9 -4 -5 4 -5 22 0 43 5 24 4 39 -2
41 -5 2 -7 7 -5 11 3 4 6 28 7 54 4 76 19 42 20 -46 l1 -82 14 90 c13 88 10
238 -5 264 -12 19 -12 -119 0 -140 12 -24 2 -40 -11 -19 -14 21 -13 180 1 180
5 0 7 5 4 11 -4 5 -7 32 -7 58 1 26 -6 61 -14 76 -8 16 -19 48 -24 71 -5 23
-15 54 -21 70 -7 16 -13 35 -13 43 -1 8 -8 16 -16 18 -12 4 -13 3 -1 -5 11 -8
10 -12 -7 -21 -11 -6 -25 -11 -31 -11 -5 0 -22 -5 -37 -10 -44 -17 -21 -21 26
-5 44 16 70 14 70 -4 0 -5 -8 -8 -17 -7 -10 2 -31 -5 -48 -16 -16 -10 -39 -18
-50 -19 -18 0 -18 -1 3 -12 18 -8 28 -8 43 1 29 18 47 14 52 -10 3 -16 5 -12
6 12 1 29 3 32 12 18 5 -10 9 -24 8 -30 -1 -7 3 -26 9 -41 7 -16 12 -36 12
-46 0 -10 3 -20 6 -24 12 -11 12 -107 0 -100 -6 4 -4 -2 4 -12 12 -15 12 -17
1 -10 -12 7 -13 -11 -9 -112 l5 -120 -39 -18 c-31 -13 -38 -21 -33 -36 4 -11
2 -25 -3 -32 -6 -7 -13 -78 -17 -159 l-6 -148 95 0 c53 0 96 4 96 8 0 12 -70
72 -83 72 -6 0 -2 -7 9 -15 10 -8 14 -15 8 -15 -21 0 -32 25 -26 65 3 22 5 50
6 62 1 26 17 25 33 -2 15 -24 17 -62 3 -70 -6 -3 -10 -10 -10 -16 0 -5 9 -4
20 3 14 9 20 24 20 49 0 23 -7 42 -20 54 -11 10 -20 22 -20 27 0 10 27 11 32
1 5 -12 75 -63 86 -63 5 0 15 -7 22 -15 12 -14 15 -14 30 0 9 8 23 15 31 15 8
0 40 24 72 53 44 39 57 56 52 69 -4 10 -12 18 -19 18 -19 0 -38 59 -50 161
-12 95 -11 123 3 115 3 -2 5 13 3 34 -2 21 3 50 12 68 19 36 21 68 3 34 -7
-12 -16 -19 -21 -15 -4 4 -4 -1 0 -11 5 -12 4 -17 -3 -13 -11 7 -38 -71 -29
-81 3 -3 1 -11 -6 -19 -11 -13 -14 -136 -3 -153 3 -5 1 -11 -5 -15 -5 -3 -10
-17 -10 -30 0 -13 -5 -36 -10 -51 -8 -21 -14 -24 -22 -16 -7 7 -20 12 -29 12
-9 0 -24 11 -33 25 -14 21 -16 44 -12 130 5 107 9 125 28 125 6 0 5 -7 -3 -16
-12 -15 -11 -16 16 -10 27 6 30 4 32 -20 0 -16 -2 -22 -6 -15 -5 7 -11 -28
-15 -78 -6 -81 -5 -93 15 -123 12 -18 17 -24 13 -13 -11 25 -8 166 4 174 4 3
9 26 11 50 1 24 10 55 19 70 16 25 16 25 -1 12 -16 -12 -17 -12 -11 5 4 10 10
24 14 29 10 15 34 97 35 120 0 11 4 25 8 32 4 6 3 14 -3 18 -5 3 -10 11 -10
16 0 6 4 8 9 4 5 -3 13 0 17 6 5 8 3 9 -6 4 -15 -10 -6 26 19 70 22 38 33 117
21 149 -12 31 -69 50 -127 42 -36 -5 -50 -2 -74 16 -24 18 -32 20 -38 9 -5 -7
-11 -12 -15 -11 -4 1 -12 -1 -19 -4 -8 -3 -3 -11 13 -25 22 -18 23 -20 7 -26
-25 -10 -10 -25 26 -26 27 0 29 -2 12 -9 -21 -8 -53 -40 -40 -40 8 0 51 33 51
40 1 11 25 50 32 50 4 0 13 -13 19 -30 11 -30 49 -48 78 -36 8 3 21 20 29 38
l14 33 1 -40 c1 -72 -16 -112 -65 -149 -25 -19 -51 -37 -57 -39 -7 -2 -9 -7
-6 -11 7 -7 66 20 92 42 15 14 17 13 17 -1 0 -9 -5 -19 -11 -23 -6 -3 -9 -19
-5 -35 3 -15 1 -41 -4 -56 -5 -15 -20 -67 -35 -115 -14 -49 -29 -88 -33 -88
-4 0 -13 4 -21 9 -12 8 -13 22 -1 95 12 76 11 90 -4 129 -11 31 -25 48 -48 58
-43 20 -66 85 -70 202 -2 83 -1 92 15 89 9 -2 17 1 17 7 0 18 52 71 69 71 10
0 20 12 26 33 7 23 15 31 29 29 12 -2 16 1 10 9 -4 8 -3 10 4 5 14 -8 -1 -43
-27 -63 -14 -11 -14 -12 4 -13 17 0 17 -2 5 -10 -13 -8 -13 -10 1 -10 21 0 71
-39 64 -50 -6 -10 33 -60 47 -60 6 0 5 6 -2 15 -7 9 -10 18 -7 22 11 10 -21
60 -52 82 -30 22 -35 51 -10 59 8 3 17 10 21 15 12 19 64 -13 85 -51 33 -58
52 -217 29 -239 -3 -3 -6 -11 -6 -17 0 -6 5 -4 11 4 8 12 9 11 6 -5 -2 -11 2
-32 10 -47 10 -21 10 -38 1 -83 l-11 -56 39 -34 c29 -26 36 -37 27 -46 -8 -8
-15 -3 -27 20 -9 17 -21 31 -27 31 -6 0 1 -21 15 -47 36 -69 39 -88 22 -122
-22 -41 -20 -51 4 -21 11 14 20 33 20 43 0 10 5 15 10 12 14 -8 12 5 -4 34
-14 26 -14 28 30 74 40 43 48 61 11 28 -31 -29 -37 -32 -43 -18 -4 10 6 36 25
65 35 55 39 77 15 86 -14 5 -15 4 -5 -8 13 -15 7 -36 -10 -36 -5 0 -9 6 -9 14
0 8 -5 18 -11 22 -7 4 -9 -1 -7 -14 2 -11 -5 -29 -15 -40 -15 -16 -16 -25 -8
-41 16 -30 13 -33 -14 -15 -26 17 -35 56 -12 51 7 -1 11 7 9 20 -2 16 6 28 28
42 28 17 30 20 15 29 -10 5 -13 12 -7 15 5 4 21 -2 34 -13 14 -11 28 -17 32
-15 3 3 4 2 1 -1 -8 -12 16 -44 33 -43 16 1 16 2 0 6 -10 2 -18 13 -18 23 0
10 -5 22 -11 25 -6 4 -8 13 -5 21 3 8 1 14 -4 14 -6 0 -10 -7 -10 -16 0 -8 -5
-12 -10 -9 -6 4 -8 11 -5 16 4 5 -2 10 -12 10 -37 3 -57 -4 -65 -21 -8 -17 -9
-5 -11 112 -1 42 1 74 4 72 9 -5 -24 107 -39 134 -21 37 -82 69 -134 70 -101
2 -201 -111 -222 -251 -10 -62 -14 -72 -33 -75 -21 -3 -21 -3 -5 40 23 62 23
254 -1 331 -32 105 -135 187 -234 187 -62 -1 -125 -15 -138 -32 -5 -8 -28 -27
-50 -43 -22 -16 -54 -42 -71 -58 -27 -25 -35 -27 -53 -17 -20 10 -20 12 -6 27
9 8 13 18 10 21 -3 4 -10 0 -15 -8 -8 -13 -10 -12 -10 3 0 10 6 20 14 23 9 3
14 18 14 37 -1 18 1 52 5 77 4 25 4 39 1 33 -14 -30 -24 -12 -25 44 -1 13 -6
20 -11 17 -7 -5 -9 5 -6 25 7 51 -14 60 -159 68 -79 4 -84 3 -109 -22z m82
-10 c3 -13 4 -30 1 -37 -3 -7 -6 -2 -6 13 -1 14 -6 30 -13 37 -9 9 -9 12 0 12
6 0 14 -11 18 -25z m134 -7 c13 5 13 3 0 -10 -9 -8 -23 -15 -33 -15 -12 0 -14
4 -7 11 12 12 13 27 3 25 -5 -1 -17 -1 -28 1 -20 1 -20 1 0 10 14 6 24 3 35
-9 9 -10 22 -15 30 -13z m-166 16 c18 -7 23 -64 6 -64 -5 0 -10 14 -10 31 0
17 -4 28 -10 24 -5 -3 -10 -1 -10 4 0 13 3 13 24 5z m-25 -45 c1 -3 -5 -6 -12
-6 -9 0 -12 9 -9 26 5 23 6 24 13 6 4 -11 8 -23 8 -26z m131 21 c0 -5 -5 -10
-11 -10 -5 0 -7 5 -4 10 3 6 8 10 11 10 2 0 4 -4 4 -10z m-145 -50 c3 -5 2
-10 -4 -10 -5 0 -13 5 -16 10 -3 6 -2 10 4 10 5 0 13 -4 16 -10z m635 -152 c0
-5 11 -8 25 -8 28 0 29 -3 15 -31 -8 -15 -7 -19 5 -19 8 0 15 -4 15 -10 0 -5
-3 -10 -7 -10 -15 0 -34 17 -31 26 2 5 -1 10 -7 11 -5 0 -9 -3 -7 -8 1 -5 -2
-9 -8 -9 -5 0 -10 8 -10 18 0 11 -13 25 -32 34 l-33 15 37 -1 c21 0 38 -4 38
-8z m88 -49 c9 -1 22 -1 27 0 6 1 1 -6 -9 -14 -11 -8 -22 -15 -26 -15 -12 0
-30 41 -23 53 5 8 9 7 11 -5 2 -10 11 -19 20 -19z m-693 1 c3 -5 -1 -10 -10
-10 -9 0 -13 5 -10 10 3 6 8 10 10 10 2 0 7 -4 10 -10z m763 -83 c20 -56 11
-74 -22 -42 -9 9 -17 11 -21 5 -3 -5 -10 -10 -16 -10 -5 0 -4 9 3 20 11 18 14
18 35 5 20 -13 22 -13 17 0 -4 8 -12 15 -20 15 -14 0 -19 22 -7 33 12 13 19 7
31 -26z m-8 -66 c0 -6 -4 -13 -10 -16 -5 -3 -10 1 -10 9 0 9 5 16 10 16 6 0
10 -4 10 -9z m350 -255 c0 -3 -5 -17 -10 -31 -8 -21 -16 -26 -37 -23 -14 2
-28 9 -31 16 -3 11 0 12 17 3 17 -10 21 -9 21 4 0 8 6 15 13 15 8 0 7 4 -3 10
-12 8 -11 10 8 10 12 0 22 -2 22 -4z m197 -241 c-4 -8 -11 -15 -17 -15 -7 0
-7 6 0 21 13 23 26 19 17 -6z m-201 -262 c-11 -11 -19 6 -11 24 8 17 8 17 12
0 3 -10 2 -21 -1 -24z m-17 -55 c-1 -13 1 -30 4 -38 9 -24 13 -100 5 -100 -11
0 13 -61 26 -66 7 -3 13 -19 14 -36 2 -27 0 -29 -13 -18 -8 7 -15 8 -15 2 0
-5 7 -12 15 -16 8 -3 15 -12 15 -21 0 -19 -7 -19 -27 0 -11 12 -14 27 -9 57 6
38 5 40 -10 27 -16 -13 -16 -8 -10 61 4 41 3 86 -2 99 -8 23 -5 71 5 71 2 0 3
-10 2 -22z m-288 -195 c2 -16 2 -91 -1 -168 -3 -77 -4 -142 -2 -145 2 -2 6 1
11 8 5 9 14 9 39 0 46 -18 40 -26 -18 -24 l-51 1 3 120 c1 66 -2 126 -6 134
-6 10 -5 12 2 7 8 -5 12 3 12 23 0 17 -4 31 -9 31 -5 0 -7 9 -4 20 8 29 20 25
24 -7z m280 -44 c6 -12 7 -19 1 -15 -5 3 -12 -4 -15 -15 -4 -15 -2 -19 9 -15
7 3 18 -3 24 -14 10 -18 7 -20 -18 -20 -24 0 -31 5 -35 26 -3 20 11 74 20 74
1 0 7 -10 14 -21z m-77 -10 c-3 -5 0 -8 6 -7 7 2 16 -7 21 -19 6 -18 5 -23 -6
-23 -8 0 -15 6 -16 13 0 10 -2 10 -6 0 -2 -7 -11 -13 -19 -13 -9 0 -12 -4 -9
-10 3 -5 21 -10 40 -10 19 0 36 -4 40 -10 3 -5 13 -6 22 -3 20 8 13 -16 -9
-30 -10 -7 -25 -5 -48 7 -42 20 -60 21 -34 1 19 -16 19 -16 -1 -13 -14 2 -21
12 -23 35 -4 37 23 107 38 98 6 -3 8 -11 4 -16z m166 -6 c0 -5 -5 -15 -10 -23
-8 -12 -10 -11 -10 8 0 12 5 22 10 22 6 0 10 -3 10 -7z m-353 -45 c-3 -7 -5
-2 -5 12 0 14 2 19 5 13 2 -7 2 -19 0 -25z m-60 -40 c-2 -13 -4 -5 -4 17 -1
22 1 32 4 23 2 -10 2 -28 0 -40z m60 -10 c-3 -8 -6 -5 -6 6 -1 11 2 17 5 13 3
-3 4 -12 1 -19z m-50 -40 c-3 -8 -6 -5 -6 6 -1 11 2 17 5 13 3 -3 4 -12 1 -19z
m-10 -40 c-3 -8 -6 -5 -6 6 -1 11 2 17 5 13 3 -3 4 -12 1 -19z m10 -55 c-3
-10 -5 -4 -5 12 0 17 2 24 5 18 2 -7 2 -21 0 -30z m-20 -30 c-3 -10 -5 -2 -5
17 0 19 2 27 5 18 2 -10 2 -26 0 -35z"/>
<path d="M1612 1700 c0 -14 2 -19 5 -12 2 6 2 18 0 25 -3 6 -5 1 -5 -13z"/>
<path d="M1306 1625 c4 -8 8 -15 10 -15 2 0 4 7 4 15 0 8 -4 15 -10 15 -5 0
-7 -7 -4 -15z"/>
<path d="M275 1613 c6 -23 -8 -32 -20 -13 -3 6 -12 10 -18 10 -7 0 -6 -4 3
-11 12 -8 12 -12 2 -16 -30 -12 -64 -62 -84 -125 -12 -37 -19 -71 -15 -74 12
-12 46 27 40 44 -4 9 -2 13 5 8 6 -3 14 -1 18 5 9 16 95 69 111 69 22 0 14
-17 -10 -24 -33 -8 -70 -39 -107 -89 l-32 -42 30 34 30 33 -12 -37 c-14 -38
-38 -61 -56 -50 -5 3 -6 13 -3 22 4 10 2 14 -4 10 -6 -4 -21 -45 -34 -91 -16
-60 -29 -88 -44 -96 -16 -9 -17 -10 -1 -5 15 4 17 1 13 -22 l-6 -28 14 30 c8
17 14 38 15 47 0 24 11 49 19 43 4 -2 5 10 3 27 -3 22 -1 29 7 23 7 -4 10 -13
8 -19 -3 -7 -1 -19 4 -27 6 -10 8 -4 5 16 -1 18 3 36 12 44 12 12 13 7 9 -41
-2 -29 -10 -64 -16 -77 -7 -12 -10 -25 -7 -28 9 -10 -15 -33 -33 -33 -30 0
-68 -52 -74 -100 -4 -25 -11 -72 -18 -105 -13 -70 -9 -115 22 -243 14 -58 25
-88 31 -80 11 18 10 50 -2 43 -15 -9 -12 26 4 57 16 30 29 81 31 118 3 66 17
207 22 224 3 10 1 16 -5 13 -8 -6 -20 -88 -27 -200 -6 -77 -16 -126 -30 -137
-13 -11 -15 -5 -17 36 -3 85 1 145 17 248 6 36 5 47 -3 42 -7 -4 -12 -2 -12 3
0 6 4 11 10 11 5 0 7 7 4 15 -7 18 37 40 62 31 15 -6 16 -19 10 -128 -4 -67
-12 -131 -18 -143 -10 -18 -9 -18 5 -7 18 15 26 71 29 210 2 54 -1 94 -7 96
-5 3 -2 5 7 5 9 1 17 -7 17 -16 1 -54 10 -135 21 -183 9 -38 11 -108 8 -226
-3 -95 -2 -178 3 -185 6 -10 9 -4 9 19 0 17 5 32 10 32 7 0 9 -16 6 -42 -3
-23 -2 -47 3 -52 5 -6 20 -39 34 -73 26 -67 107 -207 114 -199 3 2 0 13 -6 24
-11 22 -15 191 -5 229 3 11 14 23 25 26 22 6 27 57 6 57 -9 0 -12 10 -9 31 7
50 -19 268 -39 328 -21 61 -153 241 -176 241 -8 0 -11 5 -7 12 4 7 3 8 -4 4
-16 -10 -15 5 2 27 10 13 15 15 19 5 2 -7 4 1 4 17 1 51 7 75 18 72 5 -2 10
-23 9 -46 -1 -37 2 -42 18 -38 10 3 16 1 12 -4 -3 -5 -13 -9 -24 -9 -10 0 -21
-7 -24 -16 -9 -23 -1 -28 25 -14 18 10 23 9 31 -3 18 -32 114 -107 137 -107 6
0 11 -8 11 -18 0 -19 18 -42 32 -42 4 0 8 9 8 20 0 12 -7 20 -17 20 -13 0 -11
6 10 28 15 15 32 42 38 60 7 20 15 29 22 25 7 -4 6 1 -2 10 -17 21 -13 21 35
0 22 -9 44 -17 49 -17 6 -1 10 -7 9 -13 -1 -7 -2 -25 -2 -39 -1 -14 -6 -23
-12 -19 -5 3 -7 12 -4 19 5 14 -31 64 -40 55 -3 -3 -2 -25 2 -50 4 -24 4 -80
0 -124 -6 -51 -4 -97 3 -127 11 -47 3 -138 -12 -138 -16 0 -21 22 -10 48 7 17
8 43 3 72 l-8 45 -15 -50 -15 -50 -23 51 c-12 28 -41 69 -63 90 -41 39 -42 35
-3 -22 17 -25 24 -60 34 -161 7 -72 10 -140 6 -152 -5 -15 -2 -21 9 -21 9 0
16 -8 16 -19 0 -29 -11 -51 -25 -51 -20 0 -25 -25 -25 -136 0 -58 -5 -114 -10
-124 -8 -15 -3 -34 25 -85 34 -64 45 -115 26 -115 -5 0 -11 6 -13 12 -3 9 -9
8 -22 -5 -17 -16 -11 -17 120 -17 l137 0 -6 158 c-3 86 -8 173 -11 192 -3 19
-10 65 -17 102 -6 37 -7 73 -3 79 4 8 3 9 -4 5 -7 -4 -12 -2 -12 5 0 7 -2 10
-5 7 -3 -2 2 -36 11 -74 18 -80 29 -454 13 -454 -8 0 -13 40 -10 85 2 17 0 18
-9 5 -10 -14 -10 -1 0 80 2 8 6 2 10 -15 l8 -30 1 30 c0 17 -3 59 -8 95 -5 36
-12 104 -16 153 -4 48 -11 85 -16 81 -12 -7 -12 39 0 51 23 25 63 166 70 247
6 75 4 90 -11 110 -25 32 -42 93 -43 157 -1 42 1 50 10 38 10 -14 15 -13 41 8
30 25 27 33 -6 15 -13 -7 -28 -7 -46 0 -39 15 -22 24 49 26 51 1 71 7 114 34
56 35 73 33 73 -7 0 -52 84 -102 148 -88 61 13 119 103 101 153 -14 36 -34 21
-32 -23 3 -48 -25 -90 -72 -105 -31 -10 -38 -9 -61 9 -28 22 -17 29 17 10 31
-16 69 34 83 111 4 26 3 30 -3 15 -9 -20 -10 -19 -10 1 -1 12 6 24 14 28 8 3
15 1 15 -4 0 -6 10 -10 23 -10 25 0 106 -23 134 -39 11 -5 24 -31 32 -59 7
-28 31 -79 55 -114 54 -81 84 -140 79 -155 -2 -6 1 -14 6 -18 6 -3 11 -24 11
-46 0 -36 -2 -39 -29 -39 -29 0 -29 1 -36 72 -5 45 -14 78 -24 89 -16 17 -17
17 -19 -12 -7 -85 -70 -209 -141 -275 -25 -24 -41 -44 -35 -44 11 0 57 43 139
129 27 28 36 31 91 31 123 0 155 -30 162 -152 3 -53 1 -78 -6 -78 -7 0 -9 7
-5 17 4 11 3 14 -5 9 -7 -4 -12 -16 -12 -27 0 -11 -4 -18 -9 -14 -5 3 -13 0
-17 -6 -5 -8 -3 -9 6 -4 17 11 6 -25 -32 -103 -29 -58 -56 -96 -41 -56 4 12 3
15 -6 10 -9 -6 -12 -1 -9 16 4 32 -18 58 -47 58 -13 0 -25 7 -29 15 -3 8 -11
13 -18 11 -7 -3 -25 -7 -40 -10 -22 -5 -28 -12 -28 -32 0 -14 -4 -23 -10 -19
-6 4 -8 10 -5 15 3 4 1 10 -4 12 -6 2 -6 33 0 82 6 44 9 90 7 102 -3 20 -6 17
-20 -17 -14 -34 -15 -40 -3 -35 8 3 15 1 15 -4 0 -6 -7 -10 -15 -10 -8 0 -15
-9 -15 -21 0 -13 4 -18 12 -13 8 5 9 2 5 -10 -4 -10 -7 -24 -7 -32 0 -9 -11
-14 -30 -14 -20 0 -30 -5 -30 -15 0 -18 31 -20 49 -2 11 9 13 9 7 0 -4 -7 -2
-13 3 -13 6 0 11 -12 11 -26 0 -31 15 -61 48 -96 29 -31 74 -37 107 -15 11 8
32 22 47 31 l27 18 -9 -31 c-4 -16 -16 -44 -26 -60 -14 -24 -22 -29 -45 -24
-15 3 -30 0 -34 -6 -5 -8 2 -10 22 -5 l28 7 -24 -22 c-28 -24 -74 -29 -65 -7
3 8 0 17 -5 21 -6 3 -9 11 -6 16 4 5 1 9 -6 9 -6 0 -9 -8 -6 -20 3 -11 1 -23
-4 -26 -14 -8 -48 75 -50 121 -1 35 -2 37 -9 15 -4 -14 -8 -104 -7 -200 l1
-175 6 160 c3 88 7 151 8 140 1 -11 8 -32 16 -47 8 -15 12 -35 10 -46 -4 -12
3 -22 20 -32 14 -7 29 -10 33 -7 3 4 -2 7 -13 7 -16 0 -17 2 -4 11 13 9 13 10
-2 6 -9 -3 -19 1 -22 9 -6 17 -1 18 24 4 28 -15 80 9 119 56 l32 39 -5 -35
c-15 -94 -26 -195 -25 -228 1 -26 5 -14 13 36 6 41 15 70 19 65 5 -4 6 4 2 19
-6 22 7 92 30 163 4 14 2 12 -9 -5 -8 -14 -15 -21 -16 -17 0 8 18 91 26 115 5
18 130 -91 151 -132 22 -42 63 -167 58 -175 -2 -4 1 -26 7 -49 9 -35 15 -42
34 -42 23 0 24 3 24 68 0 37 7 92 16 122 8 30 15 64 15 75 0 11 4 36 9 55 5
19 12 51 15 70 3 19 10 39 14 45 15 19 22 154 9 175 -10 15 -10 26 0 53 8 22
10 59 6 110 -8 86 -18 93 -21 14 -3 -95 -3 -94 -14 -75 -11 20 -1 135 12 144
5 3 9 17 9 32 1 60 38 -86 43 -168 2 -47 1 -72 -3 -55 -6 23 -8 14 -9 -38 0
-38 3 -66 7 -63 5 3 8 -9 8 -27 0 -18 3 -42 7 -54 7 -18 5 -23 -8 -23 -9 0
-14 4 -11 8 3 5 1 22 -4 38 -8 27 -8 26 -9 -16 -1 -26 5 -52 12 -59 10 -10 8
-11 -7 -5 -15 6 -17 4 -11 -6 5 -8 4 -11 -2 -7 -6 4 -13 -12 -18 -41 -3 -26
-8 -56 -10 -67 -2 -10 2 -26 8 -34 10 -12 13 -6 20 30 4 24 8 56 8 71 0 14 6
29 14 32 8 3 15 12 15 19 0 8 7 20 15 27 19 16 19 11 -1 -28 -8 -18 -20 -32
-25 -32 -5 0 -7 -10 -4 -23 4 -12 1 -35 -4 -51 -8 -19 -8 -33 0 -48 6 -12 7
-18 1 -14 -10 6 -26 -23 -17 -32 3 -3 5 1 5 9 0 11 2 11 10 -1 5 -8 10 -19 10
-25 0 -5 -5 -3 -10 5 -8 12 -10 12 -10 -5 0 -24 11 -41 27 -40 16 0 29 15 14
15 -7 0 -11 8 -9 17 1 10 -1 24 -6 32 -6 9 -5 12 2 7 15 -9 20 13 11 51 -4 18
-3 31 1 28 4 -3 10 4 13 15 3 11 1 20 -4 20 -17 0 -9 25 12 38 11 7 18 19 15
27 -3 8 -1 17 5 20 5 4 3 13 -6 21 -8 9 -15 33 -15 55 0 21 -4 39 -8 39 -4 0
-5 28 -2 62 5 42 2 74 -7 95 -20 48 -16 63 6 20 14 -28 20 -64 23 -148 2 -83
7 -114 18 -122 17 -14 26 -42 10 -32 -6 4 -10 -4 -10 -19 0 -20 5 -26 21 -26
15 0 19 5 15 16 -3 8 -2 12 4 9 6 -3 10 -1 10 4 0 6 -5 11 -12 11 -7 0 -5 5 5
12 11 9 17 32 20 73 2 34 3 21 3 -30 -1 -74 2 -90 14 -90 24 -1 25 7 22 114
-3 77 -7 101 -17 101 -7 0 -16 -6 -18 -13 -4 -7 -6 -6 -6 4 -1 11 10 19 29 23
26 5 29 9 21 23 -5 10 -8 21 -8 25 1 3 -1 10 -5 14 -5 4 -8 -4 -8 -19 0 -14
-5 -29 -10 -32 -17 -10 -58 22 -86 67 -27 42 -99 246 -90 255 7 7 86 -75 86
-90 0 -7 5 -18 11 -24 9 -9 14 -29 18 -85 1 -11 31 -10 31 0 0 4 -4 12 -9 17
-5 6 -18 40 -31 78 -12 37 -25 67 -30 67 -16 0 -70 52 -70 68 0 13 4 12 23 -4
40 -35 57 -47 57 -37 0 10 -79 73 -93 73 -5 0 -7 -6 -4 -14 3 -8 2 -29 -3 -48
-4 -18 -11 -46 -14 -61 -4 -15 -11 -25 -16 -22 -9 5 -11 0 -10 -20 1 -3 -6
-13 -15 -21 -11 -12 -13 -20 -5 -29 6 -7 19 -59 29 -116 29 -156 31 -180 19
-173 -6 4 -8 -1 -4 -14 9 -28 -11 -102 -30 -109 -7 -3 -14 -11 -14 -18 0 -11
-41 -25 -76 -25 -12 0 -11 5 2 25 13 20 15 33 8 57 -5 17 -15 33 -21 35 -8 3
-7 -6 4 -27 19 -38 7 -74 -31 -91 -29 -14 -89 12 -113 47 -8 13 -22 24 -29 24
-8 0 -14 7 -14 16 0 10 6 14 15 11 8 -4 17 -2 20 3 4 6 22 10 40 10 45 0 103
28 112 54 4 12 7 118 8 236 0 190 2 218 18 241 20 30 70 55 87 44 9 -6 9 -2 1
13 -10 20 -11 20 -47 1 -66 -33 -87 -87 -82 -209 3 -81 2 -207 -1 -281 -2 -42
-5 -47 -37 -63 -20 -9 -40 -14 -45 -11 -16 11 -10 37 11 42 11 3 17 9 14 14
-3 5 -9 7 -14 4 -10 -6 -5 128 5 145 3 5 1 10 -4 10 -6 0 -11 7 -11 15 0 8 5
15 10 15 10 0 -54 67 -93 97 -9 7 -19 34 -23 60 -6 45 -49 138 -80 173 -25 29
-74 132 -74 156 0 23 -57 79 -82 79 -6 0 -13 5 -15 10 -2 6 9 11 24 10 16 0
30 2 33 5 3 3 23 17 45 31 l41 27 51 -52 c54 -56 79 -111 69 -152 -5 -17 -3
-23 4 -19 6 4 10 -7 10 -29 0 -20 4 -36 9 -36 5 0 7 -8 4 -18 -2 -10 4 -27 15
-39 10 -12 25 -40 32 -63 9 -27 19 -40 29 -38 8 2 35 43 59 92 32 64 47 85 53
75 5 -8 9 -11 9 -6 0 4 -6 16 -12 27 -10 16 -10 22 -1 28 12 8 13 29 0 49 -9
14 0 42 22 66 15 18 14 18 -11 7 -31 -14 -43 -51 -28 -81 13 -23 4 -62 -12
-53 -7 4 -8 2 -4 -5 4 -6 -1 -26 -12 -44 -11 -17 -23 -43 -27 -56 -4 -13 -14
-40 -23 -60 l-15 -36 -13 45 c-7 25 -22 72 -34 104 -12 32 -26 84 -32 115 -13
73 -33 108 -90 160 -41 37 -51 42 -78 36 -16 -4 -30 -12 -30 -19 0 -7 -24 -18
-57 -25 -32 -6 -76 -16 -98 -21 -22 -4 -43 -6 -47 -4 -13 8 -9 39 7 60 16 22
19 72 5 94 -6 10 -10 11 -10 3 0 -27 -18 -11 -34 32 -10 24 -33 58 -53 75 -30
27 -42 31 -82 29 -25 -1 -58 -9 -73 -17 -37 -21 -72 -95 -68 -146 1 -23 3 -52
4 -66 2 -39 53 -100 85 -101 23 0 24 -1 6 -8 -11 -5 -24 -6 -30 -3 -5 3 -4 -2
4 -12 13 -15 13 -19 0 -27 -8 -5 -18 -7 -24 -6 -5 2 -21 -7 -35 -20 -14 -13
-31 -21 -38 -18 -7 3 -10 0 -7 -5 3 -6 0 -10 -8 -10 -8 0 -14 8 -13 17 0 10
-3 18 -9 18 -5 0 -16 4 -22 8 -7 5 -13 4 -13 -1 0 -6 7 -12 15 -16 33 -12 12
-24 -56 -30 -40 -4 -75 -4 -78 1 -3 4 -15 8 -26 8 -15 0 -19 -6 -17 -24 3 -29
-25 -89 -49 -101 -32 -18 -191 105 -160 124 5 4 16 -6 23 -21 7 -14 20 -29 28
-31 12 -4 11 -1 -2 15 -10 11 -18 24 -18 30 0 5 -11 20 -24 32 -22 21 -50 100
-50 141 0 8 8 34 18 57 15 35 25 45 56 53 46 12 66 33 48 47 -19 15 -59 23
-52 11 4 -6 1 -9 -7 -6 -8 3 -19 -2 -24 -9 -6 -8 -18 -15 -28 -17 -9 -1 -31
-15 -48 -32 -31 -29 -31 -29 -24 -4 9 30 24 59 25 46 0 -5 11 1 25 14 14 13
33 24 42 25 10 1 30 5 46 10 35 9 77 -1 77 -21 0 -8 7 -17 15 -20 8 -4 15 -10
15 -16 0 -5 -6 -6 -12 -2 -10 5 -10 4 -1 -6 17 -18 41 7 35 38 -4 23 -3 23 19
12 34 -18 38 -24 10 -17 -18 4 -21 3 -12 -6 14 -14 14 -28 0 -24 -20 4 -20
-20 0 -26 21 -5 32 -53 35 -151 l1 -53 23 24 c22 24 30 49 12 38 -5 -3 -10
-14 -11 -23 0 -11 -2 -12 -6 -4 -3 7 3 24 12 39 9 14 12 22 6 19 -6 -4 -11 0
-11 9 0 9 -4 14 -9 11 -5 -4 -7 3 -4 14 3 11 10 20 15 20 7 0 6 5 -1 14 -6 7
-10 24 -9 37 3 48 -65 152 -103 158 -51 7 -99 5 -99 -4 0 -5 -8 -1 -16 10 -16
20 -16 20 -9 -2z m140 -59 c0 -19 -5 -34 -12 -34 -8 0 -9 9 -3 31 5 18 7 37 3
43 -3 6 -2 7 3 3 5 -5 9 -24 9 -43z m529 1 c9 -14 22 -23 28 -19 6 4 8 3 5 -3
-4 -6 -1 -13 7 -16 22 -9 30 -59 12 -69 -9 -5 -16 -15 -16 -23 0 -9 -6 -12
-15 -9 -8 3 -31 -3 -50 -15 -22 -13 -53 -21 -80 -21 -24 0 -47 -4 -50 -10 -8
-14 -25 -13 -25 2 0 6 3 9 6 6 3 -4 13 1 22 10 16 16 16 18 -2 36 -12 12 -15
21 -9 23 6 2 8 13 5 25 -5 20 -6 20 -19 3 -10 -15 -13 -15 -13 -4 0 17 56 108
67 110 5 1 21 3 37 5 15 1 31 5 33 8 9 9 39 -12 57 -39z m-649 25 c-18 -8 -17
-9 7 -9 14 -1 28 5 31 12 3 8 10 6 26 -7 18 -17 21 -17 15 -3 -3 10 -1 17 5
17 14 0 14 -27 1 -35 -6 -4 -17 -2 -24 4 -18 15 -110 -10 -141 -39 -14 -13
-25 -19 -25 -13 0 6 7 13 15 17 8 3 14 11 13 18 -3 13 58 48 82 47 10 0 8 -3
-5 -9z m190 -90 c3 -5 1 -10 -4 -10 -6 0 -11 5 -11 10 0 6 2 10 4 10 3 0 8 -4
11 -10z m-255 -13 c0 -2 -10 -12 -22 -23 l-23 -19 19 23 c18 21 26 27 26 19z
m803 -100 c-4 -23 -6 -46 -5 -50 1 -5 -2 -6 -8 -2 -6 4 -10 -16 -10 -54 0 -38
-4 -61 -11 -61 -6 0 -8 7 -5 16 3 8 2 12 -4 9 -6 -3 -10 5 -10 19 0 13 6 26
13 29 9 3 9 9 -2 28 -12 20 -11 25 7 39 14 12 17 21 11 31 -13 20 -11 53 3 67
18 18 30 -20 21 -71z m-853 37 c0 -8 -19 -13 -24 -6 -3 5 1 9 9 9 8 0 15 -2
15 -3z m800 -24 c1 10 4 9 10 -5 6 -15 3 -25 -12 -37 -26 -23 -41 -23 -63 2
-15 16 -16 23 -6 33 10 9 12 9 9 -3 -2 -11 7 -15 32 -17 19 -1 27 1 17 4 -9 2
-15 9 -12 14 4 5 -2 9 -12 9 -15 0 -15 2 -4 9 10 7 19 4 28 -7 10 -14 13 -15
13 -2z m-136 -26 c9 -3 13 -11 10 -16 -4 -6 -10 -5 -16 3 -8 11 -9 10 -4 -3 3
-10 0 -18 -6 -18 -6 0 -9 -3 -6 -6 4 -3 16 -1 27 6 17 8 21 8 21 -4 0 -15 -21
-26 -51 -26 -15 0 -17 4 -10 23 4 12 6 28 4 35 -5 13 6 15 31 6z m76 -41 c0
-8 5 -11 11 -8 15 10 61 -4 54 -15 -4 -7 -13 -7 -25 0 -13 7 -21 6 -30 -5 -7
-8 -24 -15 -39 -15 -23 -1 -24 -2 -8 -11 22 -13 79 -2 58 10 -8 5 -9 11 -3 15
5 3 15 -1 22 -10 11 -12 10 -17 -9 -30 -12 -9 -19 -20 -16 -25 4 -5 1 -9 -4
-9 -6 0 -11 5 -11 10 0 6 -7 10 -15 10 -20 0 -19 -14 1 -31 19 -16 50 0 46 25
-5 28 15 17 28 -15 11 -26 11 -33 -3 -46 -10 -10 -22 -13 -34 -8 -10 5 -20 9
-23 9 -3 1 -11 5 -18 9 -10 7 -11 2 -6 -19 9 -37 -11 -24 -25 17 -9 28 -9 30
7 25 9 -4 -1 9 -22 29 -25 22 -34 35 -24 35 9 0 18 -7 22 -15 6 -17 36 -21 36
-5 0 6 -7 10 -15 10 -19 0 -19 4 1 41 9 18 12 39 8 52 -7 22 -6 22 15 3 11
-11 21 -25 21 -33z m-120 11 c0 -8 -4 -12 -10 -9 -5 3 -10 10 -10 16 0 5 5 9
10 9 6 0 10 -7 10 -16z m-653 -26 c-3 -8 -6 -5 -6 6 -1 11 2 17 5 13 3 -3 4
-12 1 -19z m80 -308 l3 -55 -19 70 c-24 86 -26 125 -4 75 9 -19 18 -60 20 -90z
m73 -47 c32 -100 65 -326 55 -374 -5 -23 -2 -28 22 -34 15 -4 22 -10 15 -12
-6 -3 -10 -8 -7 -13 10 -15 -25 -35 -43 -23 -15 9 -17 3 -14 -73 2 -46 0 -84
-5 -84 -12 0 -37 88 -35 122 1 15 -2 30 -8 33 -5 3 -6 15 -1 28 4 12 6 28 3
36 -3 9 0 11 8 6 10 -6 12 -3 6 11 -14 37 -26 117 -26 179 0 34 -4 75 -9 91
-5 16 -12 67 -14 114 -5 79 -4 83 8 53 20 -47 27 -41 10 7 -8 23 -10 38 -5 35
5 -3 23 -49 40 -102z m290 27 c8 -25 21 -44 27 -43 17 3 36 -89 30 -144 -8
-72 -18 -113 -27 -108 -5 3 -6 -5 -2 -17 3 -14 1 -19 -6 -14 -8 5 -10 2 -6 -8
8 -22 -13 -20 -25 2 -17 28 -12 4 5 -30 13 -25 14 -32 2 -39 -19 -12 -29 -11
-27 4 5 37 -2 66 -14 61 -7 -2 -27 8 -43 23 -16 15 -32 28 -36 28 -5 0 -7 3
-5 6 1 3 -4 13 -12 23 -8 9 -11 19 -8 23 4 3 9 -2 13 -11 3 -9 10 -16 15 -16
16 0 10 23 -13 49 l-22 26 24 -22 c22 -21 24 -21 36 -5 12 15 13 15 14 -6 0
-13 -4 -21 -9 -18 -5 3 -8 -5 -8 -19 0 -14 3 -22 7 -20 4 3 11 -2 14 -11 3 -8
10 -13 15 -9 6 3 14 -2 19 -10 6 -12 13 -1 25 44 21 76 21 112 1 159 -18 40
-25 151 -9 149 5 -1 16 -22 25 -47z m705 -109 c-7 -36 -21 -61 -35 -61 -4 0 0
24 9 54 17 60 37 65 26 7z m22 -33 c-3 -8 -6 -5 -6 6 -1 11 2 17 5 13 3 -3 4
-12 1 -19z m-1063 -14 c3 -8 2 -12 -4 -9 -6 3 -10 10 -10 16 0 14 7 11 14 -7z
m-18 -68 c-3 -14 -2 -27 3 -31 5 -3 12 3 14 12 4 14 5 13 6 -4 1 -26 -11 -30
-27 -10 -10 12 -6 57 5 57 3 0 2 -11 -1 -24z m1534 -31 c0 -8 -2 -15 -4 -15
-2 0 -6 7 -10 15 -3 8 -1 15 4 15 6 0 10 -7 10 -15z m-1526 -49 c-2 -13 3 -41
12 -62 l16 -38 -23 16 c-30 20 -38 108 -9 108 5 0 7 -11 4 -24z m1519 7 c-3
-7 -6 -13 -8 -13 -2 0 -5 6 -8 13 -3 8 1 14 8 14 7 0 11 -6 8 -14z m-1213 -70
c0 -24 -39 -13 -55 15 -14 23 -16 24 -12 5 3 -15 0 -23 -8 -23 -7 0 -15 15
-17 34 l-4 35 48 -27 c26 -15 48 -33 48 -39z m1370 -75 c0 -117 -19 -108 -22
10 l-2 87 -6 -85 -6 -85 -4 95 c-3 88 -4 91 -10 40 l-7 -55 -1 63 -2 63 30
-23 c29 -21 30 -24 30 -110z m-1370 43 c0 -5 -6 -12 -12 -14 -8 -3 -5 -6 6 -6
15 -1 17 -6 12 -33 -3 -18 -13 -38 -21 -44 -12 -9 -15 -37 -15 -132 0 -113
-16 -321 -26 -331 -15 -15 -19 36 -15 232 1 122 7 224 12 225 12 5 12 102 0
102 -5 0 -11 -5 -13 -11 -2 -7 -9 -5 -17 5 -12 14 -8 16 38 16 28 0 51 -4 51
-9z m-282 -43 c-2 -18 -7 -31 -13 -30 -5 2 -8 9 -6 16 2 6 3 19 3 29 0 9 4 17
9 17 6 0 9 -15 7 -32z m1232 13 c0 -24 -41 -102 -50 -96 -12 7 -3 46 12 56 5
3 10 10 10 15 1 26 28 50 28 25z m457 -93 c-2 -18 -4 -6 -4 27 0 33 2 48 4 33
2 -15 2 -42 0 -60z m-1357 32 c0 -5 -5 -10 -12 -10 -9 0 -9 -3 0 -12 15 -15
16 -72 2 -63 -5 3 -10 1 -10 -4 0 -6 5 -11 10 -11 6 0 10 -63 10 -167 0 -112
4 -163 10 -153 13 20 13 4 -1 -21 -6 -12 -17 -18 -24 -15 -8 3 -17 1 -20 -4
-21 -34 -24 9 -18 222 4 151 10 236 17 240 16 11 36 10 36 -2z m701 -21 c19
-7 39 -16 44 -22 7 -7 5 -8 -6 -4 -9 3 -16 0 -16 -8 0 -7 6 -11 14 -8 10 4 11
0 4 -18 -10 -27 -22 -27 -88 -3 -34 12 -43 21 -43 39 0 35 32 43 91 24z m-839
-213 c-4 -114 -5 -116 -23 -95 -16 19 -17 34 -12 147 6 142 24 204 33 116 3
-28 4 -103 2 -168z m828 116 c23 2 34 -2 37 -12 4 -12 3 -12 -5 -2 -8 11 -10
11 -15 -1 -4 -12 -23 -15 -59 -8 -4 0 -16 11 -27 23 -27 29 -15 45 14 18 16
-15 33 -21 55 -18z m61 -5 c-10 -9 -11 -8 -5 6 3 10 9 15 12 12 3 -3 0 -11 -7
-18z m374 0 c-4 -13 -7 -30 -9 -38 -1 -8 -10 -41 -20 -74 -10 -33 -21 -100
-25 -150 l-7 -90 -8 70 c-6 53 -4 81 8 114 8 25 13 49 10 53 -3 5 -1 15 5 22
7 8 11 18 10 22 -1 5 1 16 4 24 4 8 11 27 16 43 13 33 24 36 16 4z m-70 -101
c-15 -53 -35 -75 -35 -40 0 9 -5 12 -12 8 -8 -5 -9 -2 -4 11 4 11 0 25 -10 36
-24 27 -11 47 33 51 21 2 39 0 41 -4 2 -3 -4 -31 -13 -62z"/>
<path d="M817 1553 c-10 -9 -9 -23 1 -23 5 0 9 7 9 15 0 17 -1 18 -10 8z"/>
<path d="M780 1519 c0 -10 3 -11 41 -13 14 -1 26 3 26 9 0 5 -15 11 -34 12
-18 1 -33 -3 -33 -8z"/>
<path d="M955 1490 c-3 -11 -1 -28 5 -37 11 -17 11 -17 6 0 -3 9 -1 17 4 17 6
0 10 9 10 20 0 26 -17 26 -25 0z"/>
<path d="M930 1460 c0 -5 -9 -10 -20 -10 -11 0 -20 -5 -20 -11 0 -5 -5 -7 -12
-3 -6 4 -8 3 -4 -4 7 -12 66 13 66 29 0 5 -2 9 -5 9 -3 0 -5 -4 -5 -10z"/>
<path d="M800 1438 c0 -4 12 -8 26 -8 14 0 23 4 19 9 -6 11 -45 10 -45 -1z"/>
<path d="M234 1554 c-19 -15 -19 -15 1 -6 11 5 27 12 35 15 13 5 13 6 -1 6 -8
1 -24 -6 -35 -15z"/>
<path d="M300 866 c0 -8 4 -17 9 -20 5 -4 7 3 4 14 -6 23 -13 26 -13 6z"/>
<path d="M292 760 c0 -14 2 -19 5 -12 2 6 2 18 0 25 -3 6 -5 1 -5 -13z"/>
<path d="M291 714 c0 -11 3 -14 6 -6 3 7 2 16 -1 19 -3 4 -6 -2 -5 -13z"/>
<path d="M318 599 c-17 -10 -14 -39 4 -39 5 0 6 5 3 10 -4 6 -1 17 5 25 14 17
12 18 -12 4z"/>
<path d="M350 519 c0 -11 4 -18 10 -14 5 3 7 12 3 20 -7 21 -13 19 -13 -6z"/>
<path d="M521 534 c0 -11 3 -14 6 -6 3 7 2 16 -1 19 -3 4 -6 -2 -5 -13z"/>
<path d="M1230 456 c0 -8 7 -17 16 -20 15 -6 15 -4 3 10 -13 16 -11 17 26 11
28 -5 34 -4 20 3 -31 14 -65 12 -65 -4z"/>
<path d="M1413 1583 c-16 -6 -17 -33 -2 -33 5 0 8 4 5 9 -8 13 65 20 88 9 12
-7 22 -6 30 2 8 8 7 10 -6 5 -11 -4 -18 -2 -18 4 0 11 -73 14 -97 4z"/>
<path d="M1433 1550 c-30 -12 -29 -23 2 -40 19 -10 30 -11 51 -2 55 26 4 66
-53 42z"/>
<path d="M325 1533 c11 -3 23 -10 27 -16 4 -6 10 -8 15 -4 10 11 -17 27 -42
26 -20 -1 -20 -1 0 -6z"/>
<path d="M1815 1502 c-4 -12 -3 -13 10 -2 12 10 15 10 15 -4 0 -9 5 -16 10
-16 6 0 10 7 10 16 0 10 6 14 15 10 8 -3 15 -1 15 3 0 15 -69 8 -75 -7z"/>
<path d="M1836 1445 c-25 -24 -46 -50 -46 -57 0 -6 6 -3 14 7 8 12 19 16 31
11 24 -9 89 56 72 73 -17 17 -21 15 -71 -34z m64 26 c0 -13 -26 -32 -33 -24
-8 7 11 33 24 33 5 0 9 -4 9 -9z m-40 -46 c0 -9 -6 -12 -15 -9 -8 4 -12 10 -9
15 8 14 24 10 24 -6z"/>
<path d="M1806 1466 c4 -11 0 -13 -18 -9 -18 4 -20 3 -8 -6 21 -15 28 -14 40
9 8 16 8 20 -4 20 -9 0 -13 -6 -10 -14z"/>
<path d="M1390 1461 c-24 -7 -24 -7 8 -20 18 -8 35 -11 39 -7 3 3 1 6 -7 6
-10 0 -10 3 0 15 14 17 4 18 -40 6z"/>
<path d="M1557 1446 c-4 -10 -12 -14 -18 -10 -7 4 -9 3 -6 -4 4 -5 4 -17 1
-26 -6 -15 -8 -15 -20 1 -7 10 -14 13 -14 8 0 -6 6 -17 13 -24 10 -10 7 -16
-12 -32 -14 -11 -37 -23 -53 -26 -37 -7 -36 -23 1 -23 21 0 38 10 60 35 29 33
31 34 41 15 6 -11 15 -18 20 -15 10 6 2 35 -8 33 -20 -2 -21 5 -7 33 9 17 15
35 12 42 -2 6 -6 3 -10 -7z"/>
<path d="M1746 1444 c-3 -9 -2 -12 4 -9 6 4 14 -4 18 -16 5 -12 11 -18 14 -13
4 5 -2 19 -12 31 -15 19 -19 20 -24 7z"/>
<path d="M1677 1406 c-12 -10 -14 -15 -6 -18 18 -6 3 -39 -21 -45 -11 -3 -20
-9 -20 -15 0 -14 37 9 54 34 11 15 12 24 5 29 -8 5 -8 8 0 13 6 4 11 2 11 -3
0 -6 5 -11 11 -11 13 0 7 22 -7 27 -5 1 -17 -4 -27 -11z"/>
<path d="M1752 1395 c0 -16 2 -22 5 -12 2 9 2 23 0 30 -3 6 -5 -1 -5 -18z"/>
<path d="M1410 1384 c-22 -12 -22 -14 -5 -14 24 0 51 16 39 22 -5 3 -20 -1
-34 -8z"/>
<path d="M1810 1390 c0 -12 39 -20 46 -9 3 5 2 9 -3 10 -4 0 -16 2 -25 4 -10
2 -18 0 -18 -5z"/>
<path d="M385 1375 c-40 -18 -20 -18 30 0 22 8 31 14 20 14 -11 0 -33 -6 -50
-14z"/>
<path d="M559 1388 c-8 -25 -2 -44 13 -45 23 -2 24 13 1 21 -15 6 -15 8 -3 16
10 7 11 10 3 10 -7 0 -13 -1 -14 -2z"/>
<path d="M1710 1374 c0 -5 -16 -26 -36 -47 -23 -23 -30 -35 -18 -30 11 3 23
13 27 20 5 7 13 11 18 7 5 -3 9 -2 8 3 -1 4 1 16 6 26 4 10 5 21 1 24 -3 4 -6
2 -6 -3z"/>
<path d="M250 1359 c-12 -8 -11 -9 5 -5 11 3 27 1 35 -4 12 -8 9 -10 -12 -10
-16 0 -28 -5 -28 -11 0 -6 9 -8 23 -3 12 4 27 7 34 7 7 0 9 5 6 10 -3 6 -1 7
5 3 16 -10 15 -31 -3 -66 l-16 -30 33 1 c18 1 25 3 16 6 -19 5 -25 23 -8 23
14 0 12 43 -2 62 -16 20 -69 30 -88 17z"/>
<path d="M395 1356 c-21 -9 -26 -14 -16 -20 8 -5 16 -4 21 4 4 6 10 11 14 11
22 -3 36 0 36 9 0 13 -18 12 -55 -4z"/>
<path d="M1795 1360 c-3 -5 -4 -10 0 -10 3 0 -1 -13 -9 -28 -9 -17 -11 -34 -6
-42 5 -8 4 -22 -1 -32 -6 -10 -7 -23 -4 -28 3 -6 8 -20 10 -32 6 -30 33 -86
46 -94 7 -4 8 -24 4 -55 -5 -33 -3 -49 4 -49 6 0 11 9 11 19 0 11 4 22 9 25 5
3 7 16 3 28 -3 14 -2 19 6 14 7 -4 12 -15 12 -24 0 -13 2 -14 9 -3 6 9 11 10
15 2 5 -8 13 -8 29 1 12 7 25 11 29 10 4 -1 12 7 18 18 12 23 -2 27 -20 5 -7
-8 -27 -15 -45 -15 -37 0 -77 39 -101 96 -16 39 -19 128 -5 172 9 30 0 45 -14
22z"/>
<path d="M1830 1359 c0 -5 6 -9 14 -9 7 0 19 -7 26 -15 11 -13 9 -15 -13 -15
-13 0 -30 -6 -36 -14 -10 -12 -5 -14 29 -12 22 0 40 -1 40 -4 -1 -3 -14 -21
-30 -40 -30 -34 -39 -60 -20 -60 10 0 42 -55 35 -62 -2 -2 10 -4 28 -5 27 -1
37 5 57 36 l24 36 7 -25 c6 -22 7 -21 8 11 1 27 -6 42 -31 65 -32 29 -30 16 3
-21 18 -20 17 -20 -56 -20 -63 0 -72 2 -62 15 6 8 13 17 14 19 1 2 9 -2 17 -8
8 -7 23 -11 33 -9 13 2 10 7 -15 19 -25 12 -30 18 -18 22 19 8 21 57 4 79 -15
18 -58 31 -58 17z m140 -169 c0 -6 -7 -10 -16 -10 -10 0 -14 -5 -10 -16 3 -8
2 -12 -4 -9 -6 3 -10 2 -10 -4 0 -15 -43 -3 -57 16 -20 27 -16 30 42 32 31 0
55 -3 55 -9z"/>
<path d="M1888 1168 c6 -6 18 -8 28 -6 14 3 12 5 -9 10 -19 3 -25 2 -19 -4z"/>
<path d="M1967 1351 c18 -5 39 -14 47 -20 12 -10 15 -9 13 6 -1 14 -10 18 -46
20 -42 1 -43 1 -14 -6z"/>
<path d="M1583 1311 c-20 -17 -20 -17 13 -17 38 0 40 2 21 20 -11 11 -17 10
-34 -3z"/>
<path d="M1735 1319 c-4 -6 -5 -12 -2 -15 2 -3 7 2 10 11 7 17 1 20 -8 4z"/>
<path d="M1945 1319 c-8 -12 23 -39 45 -38 10 0 8 3 -5 9 -18 8 -18 9 5 9 l25
1 -29 15 c-34 18 -33 18 -41 4z"/>
<path d="M2090 1300 c0 -11 4 -20 10 -20 5 0 6 8 3 17 -5 13 -2 15 11 10 10
-4 15 -3 11 3 -11 18 -35 11 -35 -10z"/>
<path d="M2446 1311 c-3 -5 1 -14 9 -21 8 -7 13 -16 10 -20 -3 -5 -2 -11 3
-14 5 -3 8 8 8 24 0 21 -4 26 -14 22 -10 -3 -13 -1 -8 6 4 7 5 12 2 12 -3 0
-7 -4 -10 -9z"/>
<path d="M1696 1293 c-6 -14 -5 -15 5 -6 7 7 10 15 7 18 -3 3 -9 -2 -12 -12z"/>
<path d="M755 1290 c-11 -4 -45 -11 -75 -15 -30 -4 -59 -10 -65 -13 -5 -4 -15
-7 -22 -8 -6 -1 -28 -7 -48 -14 -20 -6 -43 -9 -52 -6 -32 12 -61 -72 -31 -90
8 -5 9 -2 5 9 -10 26 10 70 29 63 8 -3 36 -1 61 4 47 11 68 6 43 -10 -11 -7
-9 -9 8 -7 17 1 22 6 19 19 -3 10 0 18 6 19 7 0 21 3 32 5 11 3 37 6 57 7 21
1 32 5 25 9 -7 5 -1 8 16 8 15 0 27 4 27 9 0 15 -13 19 -35 11z"/>
<path d="M412 1276 c17 -12 16 -15 -7 -40 -24 -26 -49 -34 -59 -17 -3 5 8 11
26 15 46 9 31 15 -23 9 l-46 -5 24 -25 c29 -28 57 -24 86 13 10 14 22 22 27
19 5 -3 10 0 12 7 3 7 -6 18 -20 25 -31 17 -42 16 -20 -1z"/>
<path d="M1460 1280 c-13 -8 -12 -10 3 -10 9 0 17 5 17 10 0 12 -1 12 -20 0z"/>
<path d="M1596 1275 c4 -8 10 -12 15 -9 11 6 2 24 -11 24 -5 0 -7 -7 -4 -15z"/>
<path d="M1560 1208 c0 -19 -2 -20 -11 -8 -8 12 -10 12 -7 -4 2 -11 8 -19 13
-18 13 3 26 52 14 52 -5 0 -9 -10 -9 -22z"/>
<path d="M1470 1191 c0 -6 4 -13 10 -16 6 -3 7 1 4 9 -7 18 -14 21 -14 7z"/>
<path d="M815 1180 c-3 -5 -1 -10 4 -10 6 0 11 5 11 10 0 6 -2 10 -4 10 -3 0
-8 -4 -11 -10z"/>
<path d="M2521 1174 c0 -11 3 -14 6 -6 3 7 2 16 -1 19 -3 4 -6 -2 -5 -13z"/>
<path d="M326 1171 c-6 -9 25 -21 55 -21 8 0 24 7 35 15 17 13 16 14 -13 4
-22 -7 -37 -7 -52 0 -11 6 -22 7 -25 2z"/>
<path d="M2102 1168 c-5 -7 -6 -22 -2 -33 6 -17 8 -15 12 13 5 36 5 37 -10 20z"/>
<path d="M1595 1160 c-3 -5 -1 -10 4 -10 6 0 11 5 11 10 0 6 -2 10 -4 10 -3 0
-8 -4 -11 -10z"/>
<path d="M1118 1133 c7 -3 16 -2 19 1 4 3 -2 6 -13 5 -11 0 -14 -3 -6 -6z"/>
<path d="M2532 1120 c0 -14 2 -19 5 -12 2 6 2 18 0 25 -3 6 -5 1 -5 -13z"/>
<path d="M268 1103 c7 -3 16 -2 19 1 4 3 -2 6 -13 5 -11 0 -14 -3 -6 -6z"/>
<path d="M2090 1095 c-7 -9 -10 -18 -7 -21 3 -3 10 4 17 15 13 25 8 27 -10 6z"/>
<path d="M121 1084 c0 -11 3 -14 6 -6 3 7 2 16 -1 19 -3 4 -6 -2 -5 -13z"/>
<path d="M1522 1085 c9 -10 21 -16 28 -13 7 2 -1 10 -16 17 -27 12 -28 11 -12
-4z"/>
<path d="M1105 1075 c-168 -36 -274 -55 -310 -55 -22 0 -35 -4 -28 -8 7 -4 40
-5 75 -1 61 6 369 67 377 75 8 8 -55 2 -114 -11z"/>
<path d="M815 1070 l-40 -7 45 -1 c25 0 56 4 70 8 24 8 24 8 -5 8 -16 -1 -48
-4 -70 -8z"/>
<path d="M1760 1061 c-6 -12 -7 -21 -1 -21 10 0 24 30 17 37 -2 3 -9 -5 -16
-16z"/>
<path d="M720 1059 c0 -5 9 -9 20 -9 11 0 20 2 20 4 0 2 -9 6 -20 9 -11 3 -20
1 -20 -4z"/>
<path d="M1793 1053 c-17 -6 -16 -20 1 -26 8 -3 19 0 26 7 12 15 -5 27 -27 19z"/>
<path d="M2300 1030 c0 -5 12 -10 28 -9 24 0 25 1 7 9 -27 12 -35 12 -35 0z"/>
<path d="M2370 1032 c0 -6 5 -14 10 -17 27 -17 4 -22 -42 -10 -28 8 -55 12
-59 9 -4 -2 -3 -18 3 -34 8 -24 16 -30 39 -30 16 0 29 5 29 11 0 7 -10 9 -26
5 -16 -4 -23 -3 -20 3 4 5 2 12 -4 16 -5 3 -10 11 -10 16 0 6 5 7 12 3 7 -4
28 -10 47 -14 27 -4 37 -11 41 -30 6 -25 6 -25 17 7 10 28 9 34 -13 54 -13 12
-24 17 -24 11z"/>
<path d="M1900 1020 c8 -5 22 -9 30 -9 10 0 8 3 -5 9 -27 12 -43 12 -25 0z"/>
<path d="M710 1011 c0 -5 7 -15 17 -22 15 -13 15 -12 4 9 -12 23 -21 28 -21
13z"/>
<path d="M1307 1014 c-6 -10 9 -42 16 -34 3 3 1 14 -3 24 -3 11 -9 15 -13 10z"/>
<path d="M2532 1000 c0 -14 2 -19 5 -12 2 6 2 18 0 25 -3 6 -5 1 -5 -13z"/>
<path d="M1882 989 c-7 -10 -8 -19 -3 -19 5 0 11 5 13 12 2 6 10 8 17 4 9 -6
8 -11 -5 -20 -11 -9 -13 -15 -6 -20 6 -3 13 -2 16 2 3 5 16 7 28 5 18 -3 25 2
35 26 7 20 8 31 1 31 -5 0 -12 -9 -15 -20 -5 -19 -33 -29 -33 -12 0 4 -8 12
-18 19 -15 9 -21 7 -30 -8z"/>
<path d="M1595 989 c-4 -6 -5 -12 -2 -15 2 -3 7 2 10 11 7 17 1 20 -8 4z"/>
<path d="M2156 983 c-8 -21 -8 -22 14 -16 28 8 33 20 11 26 -12 3 -22 -1 -25
-10z"/>
<path d="M1005 980 c3 -5 14 -10 23 -10 15 0 15 2 2 10 -20 13 -33 13 -25 0z"/>
<path d="M2012 970 c9 -13 14 -16 20 -7 4 6 2 15 -5 19 -21 14 -28 9 -15 -12z"/>
<path d="M938 973 c7 -3 16 -2 19 1 4 3 -2 6 -13 5 -11 0 -14 -3 -6 -6z"/>
<path d="M1678 973 c7 -3 16 -2 19 1 4 3 -2 6 -13 5 -11 0 -14 -3 -6 -6z"/>
<path d="M2544 969 c-19 -25 -44 -86 -44 -108 0 -26 20 -71 32 -71 5 0 6 -5 2
-12 -4 -7 -3 -8 5 -4 8 5 7 13 -4 29 -18 26 -18 80 0 127 l14 35 -6 -52 c-3
-31 0 -59 7 -70 10 -16 11 -16 7 4 -3 12 -2 23 2 25 3 2 4 27 1 57 -4 42 -8
51 -16 40z"/>
<path d="M670 960 c20 -13 43 -13 35 0 -3 6 -16 10 -28 10 -18 0 -19 -2 -7
-10z"/>
<path d="M1032 930 c0 -14 2 -19 5 -12 2 6 2 18 0 25 -3 6 -5 1 -5 -13z"/>
<path d="M1653 907 c-1 -30 -1 -31 8 -8 5 14 6 28 2 32 -4 4 -9 -6 -10 -24z"/>
<path d="M1933 933 c9 -2 23 -2 30 0 6 3 -1 5 -18 5 -16 0 -22 -2 -12 -5z"/>
<path d="M710 921 c0 -8 -6 -11 -17 -7 -10 4 -2 -7 18 -23 59 -49 57 -81 -4
-96 -19 -5 -27 -14 -27 -29 -1 -11 -9 -46 -20 -76 -10 -30 -17 -57 -14 -59 2
-3 32 -4 67 -3 l62 2 -2 -108 c-3 -129 -6 -166 -23 -257 -8 -38 -13 -82 -13
-97 0 -16 -4 -28 -8 -28 -5 0 -8 -15 -7 -32 2 -79 -1 -90 -22 -83 -11 4 -20 2
-20 -4 0 -7 29 -11 75 -11 l75 0 1 58 c1 31 4 70 8 85 l6 29 24 -33 c17 -23
20 -31 8 -26 -11 4 -14 2 -10 -9 5 -13 7 -13 22 0 11 10 21 12 31 6 8 -5 22
-10 30 -10 8 0 -3 11 -25 24 -95 55 -165 108 -165 124 0 9 3 27 6 40 6 22 8
22 25 6 11 -9 19 -25 19 -35 0 -10 5 -21 10 -24 15 -9 1 46 -17 67 -8 9 -17
31 -20 49 l-5 32 29 -17 c15 -10 34 -25 41 -34 6 -9 12 -11 12 -6 0 14 -43 54
-58 54 -15 0 -16 17 -1 25 6 4 8 13 5 21 -7 19 8 18 54 -5 22 -11 42 -15 46
-10 6 10 -26 69 -38 69 -18 0 -70 95 -85 154 -23 93 -2 158 26 81 7 -20 25
-43 39 -53 15 -9 31 -22 35 -29 4 -7 16 -13 25 -12 10 0 12 3 5 6 -7 2 -13 10
-13 16 0 7 -17 20 -38 29 l-37 17 35 -5 c59 -9 72 -15 66 -30 -3 -8 -1 -14 4
-14 6 0 10 12 10 26 0 14 -4 23 -9 19 -5 -3 -12 -1 -16 5 -3 5 -24 10 -46 10
-26 0 -38 4 -34 11 4 6 -1 17 -11 25 -11 9 -14 13 -8 10 7 -3 15 1 18 10 3 8
2 13 -3 10 -4 -3 -17 2 -27 10 -10 9 -14 13 -7 10 19 -10 2 34 -18 45 -11 5
-18 19 -16 31 1 11 -5 23 -13 26 -13 5 -13 3 -1 -11 7 -10 11 -17 7 -17 -3 0
-15 15 -26 33 -11 17 -20 26 -20 18z m66 -157 c-3 -8 -9 -14 -13 -13 -19 3
-23 -2 -13 -21 8 -15 8 -20 -2 -20 -8 0 -9 -3 -3 -8 13 -10 14 -49 1 -49 -6 0
-29 -3 -50 -7 l-39 -7 26 31 c15 17 34 48 44 68 9 20 24 48 32 62 l16 24 3
-23 c2 -12 1 -29 -2 -37z m-69 -9 c0 -8 -4 -12 -9 -9 -4 3 -8 9 -8 15 0 5 4 9
8 9 5 0 9 -7 9 -15z m167 -293 l31 -33 -52 21 c-42 18 -52 27 -57 52 -11 55
-6 60 21 26 15 -18 40 -48 57 -66z m-84 -271 c0 -5 7 -16 15 -25 12 -11 13
-26 7 -68 -6 -44 -11 -54 -30 -56 -12 -2 -22 -8 -22 -13 0 -5 -5 -9 -11 -9 -8
0 -8 4 1 15 6 8 9 19 5 25 -12 20 6 140 21 140 8 0 14 -4 14 -9z"/>
<path d="M1712 918 c-14 -14 -16 -28 -3 -28 5 0 11 9 14 20 6 23 5 24 -11 8z"/>
<path d="M1880 900 c0 -21 7 -25 27 -12 9 6 7 11 -7 20 -17 11 -20 10 -20 -8z"/>
<path d="M1528 903 c20 -8 15 -36 -5 -28 -15 5 -16 4 -5 -6 10 -11 16 -10 30
4 15 16 15 19 2 27 -8 5 -19 9 -25 9 -5 0 -4 -3 3 -6z"/>
<path d="M1040 885 c0 -9 6 -12 15 -9 8 4 15 7 15 9 0 2 -7 5 -15 9 -9 3 -15
0 -15 -9z"/>
<path d="M860 885 c0 -5 5 -17 10 -25 5 -8 10 -10 10 -5 0 6 -5 17 -10 25 -5
8 -10 11 -10 5z"/>
<path d="M1975 880 c3 -5 8 -10 11 -10 2 0 4 5 4 10 0 6 -5 10 -11 10 -5 0 -7
-4 -4 -10z"/>
<path d="M2746 854 c15 -37 19 -68 6 -47 -5 9 -12 6 -21 -10 -13 -21 -13 -21
4 -7 16 13 17 11 14 -35 -4 -53 22 -186 48 -245 9 -19 24 -82 35 -140 11 -58
22 -117 25 -133 4 -20 2 -26 -8 -24 -8 2 -11 2 -7 0 4 -2 4 -11 1 -19 -3 -9 1
-14 12 -14 9 0 13 -4 10 -10 -3 -5 -1 -10 5 -10 7 0 10 -6 7 -12 -2 -7 7 -26
20 -41 13 -16 21 -32 18 -37 -3 -4 2 -10 10 -14 8 -3 15 -11 15 -19 0 -10 -22
-14 -92 -14 -51 -1 -99 4 -105 9 -7 6 -13 6 -13 1 0 -5 -31 -9 -69 -9 -38 0
-68 3 -66 6 2 3 -14 6 -36 5 -21 0 -39 -4 -39 -8 0 -5 -8 -1 -17 9 -11 11 -18
13 -21 5 -2 -6 -8 -9 -13 -5 -16 10 -10 22 16 28 14 4 25 11 25 16 0 5 7 6 17
3 12 -5 14 -3 8 7 -6 10 -1 12 21 7 16 -3 24 -4 17 -1 -13 6 -6 34 9 34 5 0 7
-4 3 -9 -3 -5 -1 -12 4 -16 6 -3 8 3 6 15 -4 20 18 50 37 50 6 0 6 6 -2 15
-10 12 -10 15 0 15 8 0 10 3 7 6 -3 4 -2 15 4 25 7 13 6 19 -1 19 -6 0 -8 5
-5 10 4 6 10 8 15 5 4 -3 13 2 20 10 6 8 28 19 48 26 20 6 41 15 47 20 5 5 17
9 26 9 9 0 19 6 22 14 5 14 -78 -15 -145 -50 -14 -8 -29 -14 -32 -14 -7 0 -6
65 1 202 3 52 9 86 15 85 6 -1 13 4 16 12 2 8 0 11 -6 7 -6 -3 -12 0 -15 6 -2
7 -9 -3 -16 -23 -7 -21 -13 -108 -14 -208 l-2 -172 -41 -37 c-71 -64 -92 -79
-106 -79 -8 0 -39 -11 -71 -26 -43 -19 -63 -24 -84 -17 -24 7 -25 8 -6 9 15 1
21 6 17 15 -3 7 7 23 22 35 15 11 22 21 17 21 -5 0 -14 -5 -21 -12 -8 -8 -15
-8 -27 2 -9 7 -15 8 -15 2 0 -6 5 -12 11 -14 7 -2 5 -9 -5 -17 -14 -12 -16
-12 -10 4 5 13 4 16 -5 10 -10 -6 -11 -3 -1 14 6 12 21 27 33 32 21 9 21 9 -2
5 -13 -3 -32 -1 -42 5 -17 8 -18 6 -12 -22 5 -26 3 -31 -8 -24 -8 4 -4 -2 9
-14 15 -15 20 -29 16 -45 -5 -23 -4 -24 60 -25 42 0 66 3 66 10 0 7 8 9 23 4
25 -9 547 -23 547 -15 0 3 -18 37 -41 75 -23 39 -45 80 -50 93 -5 13 -13 21
-18 18 -5 -4 -7 3 -4 14 3 11 8 22 12 24 4 3 2 51 -5 108 -12 106 -80 342 -96
332 -4 -3 -5 2 -2 10 3 9 1 16 -5 16 -15 0 -14 27 2 33 10 4 10 7 0 18 -21 22
-16 49 10 50 21 0 21 1 2 9 -14 6 -15 9 -5 10 12 0 11 3 -2 11 -10 5 -18 20
-18 33 0 13 -6 23 -14 23 -12 0 -12 -5 0 -33z m64 -289 c0 -5 -5 -3 -10 5 -5
8 -10 20 -10 25 0 6 5 3 10 -5 5 -8 10 -19 10 -25z m17 -87 c-3 -8 -6 -5 -6 6
-1 11 2 17 5 13 3 -3 4 -12 1 -19z m32 -133 c-2 -17 -27 69 -27 90 0 11 6 -2
14 -30 7 -27 13 -54 13 -60z"/>
<path d="M696 856 c3 -8 13 -17 22 -21 13 -5 13 -2 -3 15 -21 24 -26 25 -19 6z"/>
<path d="M1051 850 c0 -8 4 -22 9 -30 12 -18 12 -2 0 25 -6 13 -9 15 -9 5z"/>
<path d="M880 824 c0 -8 5 -12 10 -9 6 4 8 11 5 16 -9 14 -15 11 -15 -7z"/>
<path d="M1952 831 c-8 -4 -14 -12 -15 -17 -1 -5 -8 -8 -14 -8 -18 2 -16 -15
2 -22 10 -4 13 -13 10 -25 -11 -32 2 -21 24 22 12 22 16 37 10 33 -9 -5 -10
-2 -6 9 7 19 7 20 -11 8z m0 -43 c-7 -7 -12 -8 -12 -2 0 14 12 26 19 19 2 -3
-1 -11 -7 -17z"/>
<path d="M2118 818 c-8 -13 -25 -43 -38 -68 -12 -25 -36 -60 -54 -78 -17 -18
-30 -35 -28 -38 1 -2 2 -14 1 -26 0 -22 -1 -22 -8 -3 -5 11 -6 -28 -3 -87 4
-87 2 -113 -12 -142 -13 -27 -17 -73 -20 -200 l-5 -166 30 0 c36 0 37 14 2 47
-16 15 -22 23 -15 19 8 -5 12 0 13 16 1 19 3 18 9 -7 7 -27 8 -25 10 20 2 28
3 57 2 65 -3 42 18 214 28 224 9 8 10 0 6 -34 -14 -112 -27 -311 -21 -330 4
-12 15 -20 28 -20 21 0 22 5 25 103 1 56 4 132 7 170 2 37 0 65 -5 62 -10 -6
-25 33 -16 42 3 4 6 -2 6 -11 0 -25 24 -14 28 12 3 22 22 32 22 12 0 -7 6 -7
20 0 11 6 20 7 20 3 0 -4 5 -1 10 9 10 17 3 51 -9 44 -4 -3 -3 28 1 67 9 96 8
294 -2 222 l-7 -50 -3 60 c-1 33 -2 66 -1 73 3 18 -5 15 -21 -10z m3 -168 c-6
-168 -4 -223 10 -214 5 3 9 1 9 -4 0 -6 -7 -12 -15 -16 -10 -3 -15 1 -15 12 0
15 -2 15 -11 2 -8 -11 -9 -8 -5 15 7 39 9 110 7 210 -1 60 -4 76 -12 62 -5 -9
-7 -23 -3 -30 4 -6 4 -9 -1 -5 -4 4 -14 0 -22 -8 -13 -13 -15 -38 -11 -145 3
-71 2 -129 -2 -129 -8 0 -17 101 -16 186 1 47 -2 60 -12 56 -7 -2 3 12 22 32
19 21 45 59 58 86 13 26 23 47 24 47 0 -1 -2 -72 -5 -157z m-54 -12 c-3 -8 -6
-5 -6 6 -1 11 2 17 5 13 3 -3 4 -12 1 -19z m22 -125 c0 -11 -3 -13 -6 -5 -2 6
-10 9 -15 6 -7 -4 -8 -2 -4 4 11 18 26 14 25 -5z m-82 -105 c-2 -13 -4 -3 -4
22 0 25 2 35 4 23 2 -13 2 -33 0 -45z m20 15 c-3 -10 -5 -4 -5 12 0 17 2 24 5
18 2 -7 2 -21 0 -30z m20 -125 c-2 -13 -4 -5 -4 17 -1 22 1 32 4 23 2 -10 2
-28 0 -40z m-50 -20 c-2 -13 -4 -3 -4 22 0 25 2 35 4 23 2 -13 2 -33 0 -45z
m-20 5 c-3 -10 -5 -2 -5 17 0 19 2 27 5 18 2 -10 2 -26 0 -35z m13 -66 c0 -5
-4 -5 -10 -2 -5 3 -10 14 -10 23 0 15 2 15 10 2 5 -8 10 -19 10 -23z m68 8
c-3 -3 -9 2 -12 12 -6 14 -5 15 5 6 7 -7 10 -15 7 -18z m-21 -87 c-2 -13 -4
-3 -4 22 0 25 2 35 4 23 2 -13 2 -33 0 -45z m-47 -3 c0 -5 -5 -3 -10 5 -8 12
-10 12 -10 1 0 -8 -2 -12 -5 -9 -3 3 -2 13 1 22 5 14 9 15 15 4 5 -7 9 -17 9
-23z m67 -2 c-3 -10 -5 -4 -5 12 0 17 2 24 5 18 2 -7 2 -21 0 -30z m-10 -45
c-3 -8 -6 -5 -6 6 -1 11 2 17 5 13 3 -3 4 -12 1 -19z m0 -50 c-3 -8 -6 -5 -6
6 -1 11 2 17 5 13 3 -3 4 -12 1 -19z"/>
<path d="M1782 795 c0 -16 2 -22 5 -12 2 9 2 23 0 30 -3 6 -5 -1 -5 -18z"/>
<path d="M135 799 c-4 -6 -5 -12 -2 -15 2 -3 7 2 10 11 7 17 1 20 -8 4z"/>
<path d="M2380 769 c0 -16 4 -28 9 -25 8 5 3 56 -5 56 -2 0 -4 -14 -4 -31z"/>
<path d="M860 772 c6 -13 14 -21 18 -18 3 4 -2 14 -12 24 -18 16 -18 16 -6 -6z"/>
<path d="M1345 770 c-3 -6 1 -7 9 -4 18 7 21 14 7 14 -6 0 -13 -4 -16 -10z"/>
<path d="M117 723 c-10 -75 -35 -190 -36 -165 0 12 -5 22 -11 22 -14 0 -13
-37 1 -46 6 -4 9 -21 5 -43 -3 -20 -3 -30 0 -23 8 17 24 5 24 -19 0 -13 -4
-18 -12 -13 -8 5 -9 2 -5 -9 3 -10 3 -17 -2 -17 -4 0 -11 -33 -14 -72 -4 -40
-11 -104 -16 -143 -24 -180 -25 -185 -3 -185 18 0 20 10 26 132 8 145 36 314
50 301 13 -11 -4 18 -21 38 -11 13 -11 26 -4 60 11 48 41 209 41 222 0 4 -4 7
-9 7 -5 0 -11 -21 -14 -47z"/>
<path d="M2495 760 c3 -5 8 -10 11 -10 2 0 4 5 4 10 0 6 -5 10 -11 10 -5 0 -7
-4 -4 -10z"/>
<path d="M2696 751 c-10 -11 -22 -19 -26 -16 -4 2 -7 -9 -6 -25 1 -17 3 -30 6
-30 3 0 6 -9 7 -20 1 -11 -2 -18 -7 -15 -8 5 7 -52 16 -63 5 -7 64 29 64 40 0
24 -23 87 -31 83 -4 -3 -1 -18 7 -33 18 -35 18 -47 -3 -63 -13 -11 -17 -11
-20 -1 -3 6 -9 10 -13 7 -8 -5 -6 36 5 88 2 9 -1 15 -6 11 -13 -8 -11 10 3 24
18 18 28 15 21 -5 -6 -16 -5 -16 10 -4 18 14 24 37 8 27 -5 -4 -11 -1 -13 5
-2 6 -12 2 -22 -10z"/>
<path d="M1258 753 c7 -3 16 -2 19 1 4 3 -2 6 -13 5 -11 0 -14 -3 -6 -6z"/>
<path d="M1317 754 c-4 -4 -7 -14 -7 -23 0 -11 3 -12 11 -4 6 6 10 16 7 23 -2
6 -7 8 -11 4z"/>
<path d="M2290 736 c0 -31 6 -34 13 -6 3 11 1 23 -4 26 -5 3 -9 -6 -9 -20z"/>
<path d="M2544 752 c-5 -4 -11 -24 -12 -46 -2 -21 -4 -43 -5 -48 -1 -6 6 -12
17 -13 15 -3 17 1 12 28 -4 20 -3 27 3 18 7 -11 10 -9 16 8 7 22 -1 61 -13 61
-4 0 -12 -4 -18 -8z"/>
<path d="M1381 734 c0 -11 3 -14 6 -6 3 7 2 16 -1 19 -3 4 -6 -2 -5 -13z"/>
<path d="M1430 740 c-13 -8 -13 -10 2 -10 9 0 20 5 23 10 8 13 -5 13 -25 0z"/>
<path d="M1551 714 c0 -11 3 -14 6 -6 3 7 2 16 -1 19 -3 4 -6 -2 -5 -13z"/>
<path d="M2601 704 c0 -11 3 -14 6 -6 3 7 2 16 -1 19 -3 4 -6 -2 -5 -13z"/>
<path d="M794 694 c5 -10 13 -31 18 -46 6 -16 15 -25 21 -21 6 3 21 -7 34 -23
12 -16 23 -23 23 -16 0 10 8 8 28 -6 37 -26 60 -33 67 -21 4 5 -2 12 -12 15
-52 17 -109 54 -145 93 -23 24 -38 36 -34 25z"/>
<path d="M1020 695 c-8 -9 -8 -15 -2 -15 12 0 26 19 19 26 -2 2 -10 -2 -17
-11z"/>
<path d="M1220 700 c-8 -5 -10 -10 -5 -10 6 0 17 5 25 10 8 5 11 10 5 10 -5 0
-17 -5 -25 -10z"/>
<path d="M1446 696 c10 -8 21 -12 24 -10 5 6 -21 24 -34 24 -6 0 -1 -6 10 -14z"/>
<path d="M85 679 c-4 -6 -5 -12 -2 -15 2 -3 7 2 10 11 7 17 1 20 -8 4z"/>
<path d="M2575 677 c-4 -10 -5 -21 -1 -24 10 -10 18 4 13 24 -4 17 -4 17 -12
0z"/>
<path d="M2600 664 c0 -9 -9 -18 -19 -21 -19 -5 -45 -78 -35 -95 3 -5 0 -15
-6 -23 -7 -8 -9 -15 -4 -15 5 0 2 -5 -6 -10 -13 -8 -12 -10 3 -10 9 0 17 1 17
3 0 1 9 27 20 57 22 61 25 72 10 50 -6 -9 -10 -10 -10 -3 0 7 6 16 14 20 14 8
34 63 22 63 -3 0 -6 -7 -6 -16z"/>
<path d="M1233 645 c-32 -14 -47 -30 -18 -19 8 4 34 -1 58 -10 l42 -16 -24 20
c-20 18 -21 20 -5 19 23 -1 94 -27 77 -28 -21 -2 -14 -21 7 -21 11 0 20 -4 20
-10 0 -12 -2 -12 -34 0 -16 6 -27 6 -31 0 -6 -10 -5 -11 32 -15 13 -1 28 -7
36 -13 7 -6 18 -7 26 -2 11 6 7 17 -18 49 -18 23 -41 46 -51 51 -26 14 -79 12
-117 -5z"/>
<path d="M935 630 c3 -5 8 -10 11 -10 2 0 4 5 4 10 0 6 -5 10 -11 10 -5 0 -7
-4 -4 -10z"/>
<path d="M985 625 c-25 -12 -26 -14 -5 -9 14 4 29 10 35 15 12 12 5 11 -30 -6z"/>
<path d="M1055 619 c-11 -5 -25 -21 -32 -35 l-12 -25 34 25 c18 14 45 26 59
26 14 0 28 5 31 10 8 13 -53 12 -80 -1z"/>
<path d="M1210 597 c0 -9 11 -12 35 -11 23 2 33 -1 29 -7 -3 -6 -14 -9 -24 -6
-11 3 -17 0 -14 -7 7 -19 60 -14 61 6 2 22 -2 25 -49 32 -28 4 -38 2 -38 -7z"/>
<path d="M2696 572 c-17 -27 13 -232 34 -232 12 0 12 3 -4 73 -8 31 -11 57 -8
57 4 0 0 5 -8 10 -11 7 -12 14 -5 27 13 22 4 85 -9 65z"/>
<path d="M2735 511 c6 -86 23 -161 37 -161 5 0 7 8 3 19 -3 10 -14 63 -25 117
l-20 99 5 -74z"/>
<path d="M897 559 c7 -7 15 -10 18 -7 3 3 -2 9 -12 12 -14 6 -15 5 -6 -5z"/>
<path d="M1540 563 c8 -3 19 -11 23 -17 6 -7 7 -6 4 4 -2 8 -12 16 -23 17 -13
2 -15 1 -4 -4z"/>
<path d="M2336 557 c3 -10 9 -15 12 -12 3 3 0 11 -7 18 -10 9 -11 8 -5 -6z"/>
<path d="M934 536 c-10 -8 -16 -17 -13 -20 3 -3 14 3 24 14 21 23 17 26 -11 6z"/>
<path d="M2656 534 c-9 -25 -7 -96 3 -90 8 5 14 106 6 106 -1 0 -6 -7 -9 -16z"/>
<path d="M110 531 c0 -6 4 -13 10 -16 6 -3 7 1 4 9 -7 18 -14 21 -14 7z"/>
<path d="M1119 523 c-13 -16 -12 -17 4 -4 16 13 21 21 13 21 -2 0 -10 -8 -17
-17z"/>
<path d="M2326 527 c3 -10 9 -15 12 -12 3 3 0 11 -7 18 -10 9 -11 8 -5 -6z"/>
<path d="M1245 520 c-3 -5 -1 -10 4 -10 6 0 11 5 11 10 0 6 -2 10 -4 10 -3 0
-8 -4 -11 -10z"/>
<path d="M880 511 c0 -12 96 -44 113 -38 6 2 -8 10 -33 17 -25 6 -53 16 -62
21 -11 6 -18 6 -18 0z"/>
<path d="M1350 495 c13 -14 26 -25 28 -25 3 0 -5 11 -18 25 -13 14 -26 25 -28
25 -3 0 5 -11 18 -25z"/>
<path d="M2390 455 c0 -36 3 -46 10 -35 5 8 10 24 10 35 0 11 -5 27 -10 35 -7
11 -10 1 -10 -35z"/>
<path d="M2765 490 c3 -5 8 -10 11 -10 2 0 4 5 4 10 0 6 -5 10 -11 10 -5 0 -7
-4 -4 -10z"/>
<path d="M1635 470 c10 -11 20 -20 22 -20 2 0 -2 9 -9 20 -7 11 -17 20 -22 20
-5 0 -1 -9 9 -20z"/>
<path d="M1028 463 c6 -2 18 -2 25 0 6 3 1 5 -13 5 -14 0 -19 -2 -12 -5z"/>
<path d="M2782 445 c0 -16 4 -41 8 -55 l8 -25 0 25 c0 14 -4 39 -8 55 l-8 30
0 -30z"/>
<path d="M930 450 c20 -13 40 -13 40 0 0 6 -12 10 -27 10 -22 0 -25 -2 -13
-10z"/>
<path d="M1103 444 c-36 -18 -80 -62 -52 -51 9 3 21 1 26 -4 6 -6 14 -5 22 5
10 12 9 14 -8 9 -34 -9 -24 5 19 27 38 19 50 30 33 30 -5 0 -22 -8 -40 -16z"/>
<path d="M2667 432 c-12 -18 3 -106 15 -94 7 7 7 28 2 59 -6 30 -12 43 -17 35z"/>
<path d="M850 407 c14 -13 27 -23 29 -21 6 5 -10 24 -32 35 -20 10 -20 9 3
-14z"/>
<path d="M1150 416 c0 -10 -5 -14 -12 -10 -7 4 -8 3 -4 -5 4 -6 -4 -37 -18
-68 -18 -38 -23 -60 -16 -68 5 -6 7 -43 5 -81 -4 -54 -2 -64 6 -44 6 14 9 37
6 52 -3 22 -1 25 10 17 17 -15 16 -5 -3 33 -15 29 -14 34 11 105 15 41 25 77
21 80 -3 4 -6 -1 -6 -11z"/>
<path d="M116 373 c-8 -50 -26 -267 -26 -320 l0 -43 58 1 c31 0 51 3 45 6 -7
2 -13 17 -13 31 l0 27 23 -32 c21 -31 25 -33 85 -33 56 0 62 2 54 17 -5 10
-12 40 -15 66 -6 39 -18 62 -73 130 -37 45 -80 106 -96 135 -17 28 -31 52 -33
52 -2 0 -6 -17 -9 -37z m58 -75 c6 -4 9 -22 8 -41 -1 -19 2 -46 8 -61 5 -15 6
-26 0 -26 -4 0 -10 6 -13 13 -2 6 -2 1 0 -12 2 -13 -3 -34 -11 -46 -9 -13 -18
-42 -22 -65 -4 -23 -11 -39 -18 -37 -15 5 -13 161 4 257 12 68 14 73 24 50 6
-14 15 -28 20 -32z m114 -146 c14 -14 22 -33 21 -54 -1 -33 -1 -33 -10 6 -11
46 -24 64 -17 23 7 -37 -8 -44 -32 -15 -18 22 -19 22 -20 3 0 -30 12 -42 49
-52 39 -10 50 -27 24 -37 -10 -4 -27 1 -43 14 -14 11 -36 25 -49 30 -19 9 -22
15 -16 38 4 15 8 45 9 67 2 22 3 46 4 54 1 8 14 -1 30 -20 15 -19 37 -45 50
-57z"/>
<path d="M226 171 c-3 -4 3 -16 14 -26 18 -16 18 -16 13 4 -6 25 -19 35 -27
22z"/>
<path d="M1906 369 c-8 -19 -16 -86 -18 -154 -4 -106 -4 -114 7 -70 10 44 12
47 17 23 3 -15 2 -25 -2 -23 -8 5 -20 -54 -20 -102 0 -28 4 -33 24 -33 23 0
23 1 22 97 -2 109 7 237 19 268 5 11 5 17 0 13 -4 -4 -14 -3 -22 3 -10 9 -16
4 -27 -22z m21 -121 c-2 -18 -4 -4 -4 32 0 36 2 50 4 33 2 -18 2 -48 0 -65z
m-20 35 c-3 -10 -5 -2 -5 17 0 19 2 27 5 18 2 -10 2 -26 0 -35z m0 -45 c-3 -8
-6 -5 -6 6 -1 11 2 17 5 13 3 -3 4 -12 1 -19z m20 -70 c-3 -8 -6 -5 -6 6 -1
11 2 17 5 13 3 -3 4 -12 1 -19z m-10 -70 c-3 -7 -5 -2 -5 12 0 14 2 19 5 13 2
-7 2 -19 0 -25z m-10 -65 c-3 -10 -5 -5 -5 12 0 17 2 24 5 18 2 -7 2 -21 0
-30z m20 5 c-3 -8 -6 -5 -6 6 -1 11 2 17 5 13 3 -3 4 -12 1 -19z"/>
<path d="M2311 384 c0 -11 3 -14 6 -6 3 7 2 16 -1 19 -3 4 -6 -2 -5 -13z"/>
<path d="M1840 385 c0 -3 9 -14 19 -24 17 -17 20 -18 26 -4 3 9 0 20 -7 25
-14 9 -38 11 -38 3z"/>
<path d="M1039 356 c-17 -18 -28 -22 -40 -15 -10 5 -25 6 -35 2 -13 -5 -16 -3
-11 10 3 9 2 17 -4 17 -6 0 -9 -8 -7 -17 2 -11 15 -20 35 -23 18 -3 40 -16 52
-32 l21 -27 -21 -55 c-11 -31 -22 -56 -24 -56 -2 0 -2 24 0 53 5 54 1 48 -10
-15 -3 -23 -11 -35 -20 -34 -19 3 -63 51 -62 68 1 25 -16 98 -23 98 -4 0 -4
-18 1 -41 10 -44 3 -70 -13 -48 -6 10 -7 6 -3 -11 9 -30 18 -41 37 -44 22 -3
63 -39 64 -56 2 -47 18 -120 25 -120 5 0 7 12 3 28 l-5 27 25 -28 c14 -15 26
-24 26 -19 0 5 -11 19 -24 31 -41 38 -38 64 16 169 27 54 42 88 34 78 -16 -19
-16 -19 -16 3 0 21 -2 22 -16 10 -15 -12 -16 -11 -9 11 4 14 14 33 23 43 23
26 7 20 -19 -7z m-134 -126 c-4 -6 -1 -19 6 -28 12 -16 12 -16 -5 0 -16 14
-15 38 0 38 3 0 2 -5 -1 -10z"/>
<path d="M1845 349 c-4 -6 -9 -57 -11 -113 -2 -55 -7 -129 -10 -163 -7 -62 -7
-63 19 -63 23 0 25 4 29 46 2 28 -1 49 -9 56 -15 12 -18 32 -4 24 5 -3 11 11
14 32 3 29 0 41 -17 54 l-21 17 23 -4 c23 -4 23 -5 5 70 -3 16 -2 17 6 5 10
-13 11 -13 11 0 -1 24 -27 53 -35 39z m15 -154 c4 3 6 -5 2 -17 -5 -21 -6 -21
-13 -2 -4 10 -8 24 -8 29 1 6 3 4 6 -3 2 -6 8 -10 13 -7z m0 -137 c0 -51 -5
-47 -14 10 -4 29 -3 41 4 37 5 -3 10 -25 10 -47z m-23 -20 c-3 -8 -6 -5 -6 6
-1 11 2 17 5 13 3 -3 4 -12 1 -19z"/>
<path d="M2645 335 c3 -35 13 -42 13 -10 0 14 -4 28 -8 30 -5 3 -7 -6 -5 -20z"/>
<path d="M819 332 c6 -12 16 -24 22 -28 8 -4 8 -1 0 14 -6 12 -16 24 -22 28
-8 4 -8 1 0 -14z"/>
<path d="M916 329 c12 -14 19 -36 19 -64 0 -24 3 -38 6 -33 4 6 10 -5 14 -23
5 -19 10 -29 12 -22 6 17 -26 134 -42 149 -22 22 -30 16 -9 -7z"/>
<path d="M1467 276 c8 -39 15 -76 16 -83 0 -7 4 -10 7 -8 4 3 1 35 -6 72 -8
37 -13 72 -10 78 2 7 -2 12 -8 12 -10 0 -10 -15 1 -71z"/>
<path d="M2091 334 c0 -11 3 -14 6 -6 3 7 2 16 -1 19 -3 4 -6 -2 -5 -13z"/>
<path d="M1435 318 c-30 -89 -46 -151 -41 -164 6 -17 26 -10 26 9 0 7 -4 6
-10 -3 -15 -23 -13 5 4 60 l14 45 4 -35 5 -35 2 40 c2 22 4 52 5 68 2 29 -2
35 -9 15z"/>
<path d="M2780 309 c0 -5 5 -7 10 -4 6 3 10 8 10 11 0 2 -4 4 -10 4 -5 0 -10
-5 -10 -11z"/>
<path d="M1321 294 c0 -11 3 -14 6 -6 3 7 2 16 -1 19 -3 4 -6 -2 -5 -13z"/>
<path d="M830 279 c0 -5 5 -7 10 -4 6 3 10 8 10 11 0 2 -4 4 -10 4 -5 0 -10
-5 -10 -11z"/>
<path d="M1735 250 c1 -21 -1 -37 -5 -35 -12 7 -19 -33 -19 -113 0 -40 -3 -77
-6 -83 -4 -5 4 -9 16 -9 21 0 21 3 17 78 -3 47 -2 69 3 57 7 -15 8 -11 6 17
-2 20 0 35 4 32 22 -13 16 68 -6 86 -10 8 -12 1 -10 -30z"/>
<path d="M840 258 c0 -10 30 -78 35 -78 6 0 -16 63 -26 75 -5 5 -9 6 -9 3z"/>
<path d="M2800 246 c0 -2 9 -6 20 -9 11 -3 20 -1 20 4 0 5 -9 9 -20 9 -11 0
-20 -2 -20 -4z"/>
<path d="M1452 215 c0 -16 2 -22 5 -12 2 9 2 23 0 30 -3 6 -5 -1 -5 -18z"/>
<path d="M2740 230 c0 -12 8 -12 35 0 18 8 17 9 -7 9 -16 1 -28 -3 -28 -9z"/>
<path d="M1071 209 c0 -15 -3 -42 -6 -60 l-5 -34 11 34 c5 18 8 45 6 60 l-4
26 -2 -26z"/>
<path d="M2696 221 c-4 -5 -2 -20 3 -33 9 -21 9 -20 8 9 -2 36 -3 38 -11 24z"/>
<path d="M1533 204 c15 -8 27 -19 27 -25 0 -6 5 -7 11 -3 14 8 -28 44 -51 43
-8 0 -3 -7 13 -15z"/>
<path d="M2736 191 c-4 -5 3 -7 14 -4 23 6 26 13 6 13 -8 0 -17 -4 -20 -9z"/>
<path d="M1173 103 c0 -72 3 -93 14 -93 10 0 12 13 7 58 -13 117 -21 131 -21
35z"/>
<path d="M1770 180 c-1 -8 -5 -50 -8 -92 -7 -76 -7 -78 14 -78 20 0 23 7 29
65 4 36 11 65 17 65 5 0 3 6 -4 14 -7 8 -16 12 -20 10 -4 -3 -11 4 -17 13 -8
14 -11 15 -11 3z m7 -77 c-3 -10 -5 -4 -5 12 0 17 2 24 5 18 2 -7 2 -21 0 -30z
m20 5 c-3 -7 -5 -2 -5 12 0 14 2 19 5 13 2 -7 2 -19 0 -25z"/>
<path d="M1247 141 c-14 -17 -27 -28 -29 -26 -2 2 -5 -5 -5 -17 -1 -11 -1 -19
1 -17 1 2 17 23 35 47 37 48 36 57 -2 13z"/>
<path d="M1496 152 c-3 -6 -1 -14 5 -17 15 -10 25 3 12 16 -7 7 -13 7 -17 1z"/>
<path d="M2685 149 c-30 -7 -30 -7 -3 -8 15 0 32 -9 37 -18 8 -14 10 -15 11
-3 0 27 -14 36 -45 29z"/>
<path d="M1030 140 c-12 -8 -12 -13 1 -41 l15 -32 0 42 c-1 22 -1 41 -1 41 0
0 -7 -4 -15 -10z"/>
<path d="M1081 134 c0 -11 3 -14 6 -6 3 7 2 16 -1 19 -3 4 -6 -2 -5 -13z"/>
<path d="M1316 124 c-10 -14 -16 -30 -14 -35 2 -6 11 6 21 25 20 42 16 47 -7
10z"/>
<path d="M1266 110 c-7 -17 -17 -31 -22 -30 -5 1 -14 -17 -21 -39 l-12 -41 57
2 57 2 -47 3 c-42 4 -48 7 -48 26 0 16 3 18 9 9 6 -10 12 -4 21 20 7 18 20 40
27 50 10 11 11 18 3 23 -6 4 -16 -7 -24 -25z"/>
<path d="M1517 104 c-15 -8 -33 -12 -40 -8 -9 5 -9 4 0 -6 10 -10 18 -11 37
-2 18 8 28 7 44 -4 16 -11 21 -11 25 -1 4 9 8 8 17 -3 10 -13 11 -13 7 0 -2 8
-14 17 -28 19 -13 1 -26 7 -29 11 -3 5 -18 2 -33 -6z"/>
<path d="M1066 94 c-4 -10 -1 -14 6 -12 15 5 23 28 10 28 -5 0 -13 -7 -16 -16z"/>
<path d="M1427 89 c-8 -28 -3 -34 11 -16 6 7 7 19 3 26 -6 9 -10 6 -14 -10z"/>
<path d="M1391 55 c-1 -34 2 -45 8 -35 6 8 7 18 4 24 -3 5 -1 6 6 2 7 -5 9
-17 5 -29 -3 -12 -5 -20 -3 -17 2 3 18 21 34 40 18 21 21 27 7 16 -25 -22 -23
-22 -45 19 l-16 30 0 -50z"/>
<path d="M2360 65 c-19 -19 -30 -35 -26 -35 8 0 16 8 50 48 30 34 14 26 -24
-13z"/>
<path d="M2706 45 c-16 -12 -17 -15 -4 -15 9 0 18 7 22 15 7 18 6 18 -18 0z"/>
<path d="M370 30 c0 -11 4 -20 9 -20 5 0 7 9 4 20 -3 11 -7 20 -9 20 -2 0 -4
-9 -4 -20z"/>
<path d="M1475 39 c-4 -6 -5 -12 -2 -15 2 -3 7 2 10 11 7 17 1 20 -8 4z"/>
<path d="M855 19 c-16 -6 -13 -8 13 -8 17 -1 32 3 32 7 0 11 -20 11 -45 1z"/>
<path d="M1060 20 c0 -5 5 -10 11 -10 5 0 7 5 4 10 -3 6 -8 10 -11 10 -2 0 -4
-4 -4 -10z"/>
<path d="M1108 3 c6 -2 18 -2 25 0 6 3 1 5 -13 5 -14 0 -19 -2 -12 -5z"/>
<path d="M1478 3 c28 -2 76 -2 105 0 28 2 5 3 -53 3 -58 0 -81 -1 -52 -3z"/>
</g>
</svg>
